<?xml version="1.0" encoding="utf-8"?>
<!-- Generator: Adobe Illustrator 24.0.2, SVG Export Plug-In . SVG Version: 6.00 Build 0)  -->
<svg version="1.1" id="svg" xmlns="http://www.w3.org/2000/svg" xmlns:xlink="http://www.w3.org/1999/xlink" x="0px" y="0px"
	 viewBox="0 0 1920 1080" style="enable-background:new 0 0 1920 1080;" xml:space="preserve">
<style type="text/css">
	.st0{fill-rule:evenodd;clip-rule:evenodd;fill:#231F20;}
	.st1{fill-rule:evenodd;clip-rule:evenodd;fill:#F4644B;}
</style>
<g id="svgg">
	<path id="path0" class="st0" d="M522.6,466v53.1c5.6,0,16.8,0,22.5,0c0-26.3,0-79.9,0-106.7c-5.6,0-16.8,0-22.5,0V466 M828.3,413.8
		c-15.3,2.6-22.5,17.2-21.6,32c-2.6,0-8.2,0-10.8,0c-0.4,8.6,0.4,16.4,10.8,15.1c0,14.7,0,43.6,0,58.3c6,0,17.7,0,23.7,0
		c0-14.7,0-43.6,0-58.3c4.3,0,12.5-0.4,16.8-0.4c0-3.9,0.4-11.2,0.4-14.7c-4.7,0-14.2,0-18.6,0c-2.1-22.1,20.3-8.6,18.6-24.6
		c0-6.5,0-6.5-1.7-6.5c-3.9-1.3,0-2.6-9.5-2.2C831.3,412.9,829.2,412.9,828.3,413.8 M959.6,413.3c0,0.9-1.7,3-2.6,3
		c-3.5-1.7-3.5,20.7,0.4,18.6c1.3,0,0.4,2.2,2.2,2.2c0.9,0,1.3,0.4,1.3,0.9c1.3,1.3,12.5,0.9,13.4-0.9c7.9-2.8,8.9-18.7,0.4-23.3
		C976.8,412,958.3,412.9,959.6,413.3 M1069.7,413.8c-8,5.4-6.6,21.7,1.3,24.2c0.9,1.3,13.4,0.4,13.4-0.9c8.1-1.6,6.4-22.5,0-23.3
		C1086.5,412.5,1067.9,412.5,1069.7,413.8 M1693.6,466v53.1c6,0,17.7,0,23.7,0c0-26.3,0-79.9,0-106.7c-6,0-17.7,0-23.7,0V466
		 M1733.3,413.8c-13.6,9.8-1,32.3,15.1,23.3c9.3-4.3,8.8-18.8,0-22.9C1750.2,412.5,1731.6,412.5,1733.3,413.8 M406.9,415.9
		c-1.7,2.6-1.3,6.9-3.5,9.1c-1.3,0-0.9,4.7-1.7,4.7c-0.4,0-0.9,0.9-0.9,1.7c0,0.9-0.4,1.7-0.9,1.7c-0.9,0-0.4,4.7-1.7,4.7
		c-2,1.7-1.6,7.5-3.5,9.1c-1.3,0-0.9,4.7-1.7,4.7c-0.9,0-0.4,3.5-1.3,3.5c-1.3,0-0.4,5.6-1.7,5.2c-1.3-0.4-0.9,3.5-1.7,3.5
		c-0.9,0-0.4,5.2-1.7,5.2c-1.7,0.4-2.2,6.9-3.5,8.6c-1.3,0-0.4,5.6-1.7,5.2c-1.3-0.4-0.9,3.5-1.7,3.5c-0.9,0-0.4,5.2-1.7,5.2
		c-2.2,2.4-2.7,7-3.9,9.9c0,2.2-2.2,3-2.2,5.2c0,0.9-0.4,1.7-0.9,1.7c-0.9,0-0.4,5.2-1.3,5.2c-0.9,0-0.9,3.9-0.9,5.2
		c5.6-0.4,28.1,1.3,25-3.5c0-0.9,0.4-1.7,1.3-1.7c1.3,0,0.9-4.7,1.7-4.7c0.9,0,0.4-5.2,1.3-5.2c0.9,0,0.4-5.2,1.7-5.2
		c3-4.7-1.7-3,19.9-3.5c21.2,0.9,16.8-2.2,19.9,3.9c1.9,2.7,1.4,7.6,3.5,9.9c1.7-0.4,0.9,5.2,1.7,5.2c0.4,0,0.9,0.9,0.9,1.7
		c-3,4.7,20.3,3,25.9,3.5c1-5.9-2.3-3.7-2.2-7.8c0-3-1.3-1.7-1.3-4.3c0-2.6-1.7-1.3-1.3-3.9c0-3-2.2-2.2-2.2-4.7
		c0-0.9-0.4-1.7-0.9-1.7c-1.3,0-0.4-5.6-1.7-5.2c-1.7,0.4-0.9-5.2-1.7-5.2c-0.9,0-0.4-3.5-1.3-3.5c-0.9,0-0.4-4.7-1.7-4.7
		c-1.3-0.4-0.9-3.5-1.7-3.9c-0.9,0-0.4-5.2-1.3-5.2c-3.1-4.8-4.2-12.7-7.3-16.8c-0.9,0-0.4-5.2-1.3-5.2c-1.3-0.4-0.4-3-1.7-3.5
		c-0.4-0.4-0.9-1.7-0.9-3c0-2.6-1.3-1.3-1.3-3.9c-0.7-2.1-1.8-5.4-3-6.9c-0.9,0-0.4-4.3-1.3-4.7c-0.6-2.2-2.2-4.1-2.6-6.5
		C438,413.3,407.7,414.6,406.9,415.9 M885.3,467.3v52.2c16,0,47.9,0,63.9,0c0-4.7-0.4-14.7-0.4-19.9c-9.9,0-29.4-0.4-39.3-0.4
		c0-21.2,0-63,0-84.2c-6,0-18.6,0-24.6,0v52.2 M1312.3,417.6c0.4,3.5-2.2,1.3-2.2,4.3c0,2.6-1.7,2.2-1.3,4.7c0,3-2.2,2.2-2.2,5.2
		s-1.3,1.3-1.3,3.9s-1.7,1.3-1.3,4.3c0.4,3.5-2.2,1.3-2.2,4.3c0,0.9-0.4,1.7-0.9,1.7c-0.9,0-0.4,5.2-1.7,5.2
		c-1.1,2.1-1.5,4.2-2.2,6.5c0,2.6-1.7,1.3-1.3,4.3c0.4,3.5-2.2,1.3-2.2,4.3c0,0.9-0.4,1.7-0.9,1.7c-0.9,0-0.4,5.2-1.3,5.2
		c-0.4,0-0.9,0.9-0.9,1.7c0,2.6-2.2,1.7-2.2,4.7c0,1.3-0.4,2.2-0.9,2.2c-1.3,0.4-0.4,3.9-1.7,4.3c-1.3,0.4-0.9,3.9-1.7,4.3
		c-0.4,0-0.9,1.3-0.9,2.6c0,3-1.3,1.7-1.3,4.3c-2.5,7.1-7.5,14-6.9,22.5c5.2,0,16.4,0,21.6,0c2.2-1.7,3.9-4.7,5.2-6.9
		c0.9-0.4,0.4-5.6,1.7-5.2c2.6-1.3,2.2-9.9,3.5-8.6c2.2-3.9-1.3-2.6,19-3c23.7,0.4,18.1-1.3,21.2,7.3c-0.4,3.9,2.6,0.9,2.2,5.2
		c1.3,4.3,1.7,7.8,5.6,11.2c5.6,0,17.3,0,22.9,0c-0.5-5.4-3.1-11.5-5.6-17.3c-0.9,0-0.4-4.7-1.7-4.7c-1.1-0.6-0.6-3.6-1.7-3.9
		c-0.9,0-0.4-4.3-1.3-4.7c-2.8-5.2-4.3-11-6.5-16.4c0-0.9-0.4-1.3-0.9-1.3c-0.9,0-0.4-4.3-1.3-4.7c-2.8-5.1-4.1-10.7-6.5-16
		c-1.5-3.2-1.6-7.3-3.9-10.4c-1.3,0-0.9-5.2-1.7-5.2c-1.9-4.2-4.1-10.6-6-15.1c0-1.7-2.2-1.7-2.2-3.5c2.6-2.2-21.2-0.9-25-1.3v2.2
		 M480.7,424.6c0,5.2-2.6,4.7-2.6,9.9c0,4.7-1.3,2.6-1.3,6.5c0,3.5-1.3,4.7-6,4.7c-7.8-1.3-6.9,9.1-5.2,14.2
		c0.9,0.9,7.8,0.9,9.9,0.9c-0.5,34-5.7,72.6,37.6,57c2.2,0,0.9-2.2,3-2.2c2.6-0.4,2.6-4.7,0.4-7.3c-3.5-3.5-1.7-7.8-8.6-7.8
		c-4.3,0-3.9,3.5-8.2-0.4c-2.6,0.9-1.3-31.1-1.7-39.3c4.7,0,14.2,0,18.6,0c0-3.9,0-11.2,0-15.1c-4.7,0-14.2,0-18.6,0
		c0-5.6,0-16.8,0-22.5C494.5,423.7,479.9,422.8,480.7,424.6 M1529.1,424.6c-0.9,0.4-0.4,5.2-1.7,5.6c-0.9,0-0.4,7.3-1.3,7.3
		c-1.7,19-15.5-4.3-12.5,22.9c2.6,0,7.3,0.4,9.9,0.4c0.4,19-3,48.8,7.3,55.7c0,1.3,3.5,0.9,3.5,1.7c0,0.4,0.9,0.9,1.7,0.9
		c5.3,3.7,17.8,1.8,23.7-0.4c2-2.2,2,0.9,4.3-3c3.5,0,3.5-6,0-8.2c-1.3-0.4-0.4-3-1.7-3.5c-1.3-0.1-0.5-2.1-2.2-2.2
		c-0.6-1-6.4-2.2-7.3-0.4c0,1.3-4.3,0.9-4.7-0.9c0-0.9-0.9-1.3-1.3-1.3c-1.3,2.6-0.9-32.4-0.9-38c4.7,0,14.7,0,19.4,0
		c0-3.9,0-11.2,0-15.1c-4.7,0-14.7,0-19.4,0c0-5.6,0-16.8,0-22.5C1542,423.7,1530,423.3,1529.1,424.6 M585.2,443.1
		c0.4,0.9-12.1,0.4-10.8,1.7c0.4,1.7-5.2,0.9-5.2,1.7c-4.2,1.6-16.9,7.7-11.2,14.2c1.3,0.4,0.9,3,1.7,3c1.3,0.4,0.4,2.2,2.2,2.2
		c2.2,0,3,2.2,5.2,2.2c0,0.4,6.9-2.6,6.9-3c0-0.9,3.9-0.4,3.5-1.7c-0.4-1.7,5.2-0.9,5.2-1.7c7-3.1,13.9,5.9,12.5,13
		c-7.3-0.4-14.2,2.2-20.7,3c-6.6,1.5-14.8,5.2-19,12.1c-5.4,8.4-1.2,28.3,9.5,29.8c10.2,4.6,25,1.3,32.8-6c0.9-0.9,0.4,3,1.3,2.6
		c0.9,0,0.9,2.6,0.9,3.5c4.3,0,13,0,17.3,0c-1.5-24.6,5.5-62.8-10.8-70.8c0-1.7-6-1.7-6.5-3.5c0.9-1.7-8.6-0.9-8.6-1.7
		C592.1,442.3,585.2,442.3,585.2,443.1 M1606.8,443.1c-0.4,0.9-6.5,0-6,1.7c-0.4,1.7-3.5,0.9-4.3,2.6s-2.6,0.9-3,2.6
		c0,1.7-1.3,1.3-1.3-0.4c-2.6-7.8-12.1-5.6-20.7-6c0,19,0,56.6,0,75.6c5.6,0,16.8,0,22.5,0c1.8-19.7-7.8-61,17.7-53.5
		c1.3,1.3,3.9-0.9,5.2-1.3c2.2,1.7,0.9-14.7,2.2-14.2c1.3,0,0.9-3.5-0.4-5.2C1615.9,443.3,1609.4,441.1,1606.8,443.1 M1650.4,443.1
		c0.4,0.9-13,0.4-12.1,1.7c0,1.3-5.2,0.9-5.2,1.7c-0.9,0.9-6.5,2.2-6.5,3.9c-4.3,1.4-7.3,7.4-3.9,10.8c0,1.7,1.3,0.9,1.3,2.6
		c0.4,1.7,1.7,0.9,3,2.6c11.1,8,27.9-21.4,33.2,8.6c-2.2,0-12.5-0.4-11.7,1.3c0,0.9-0.9,1.3-4.3,1.3c-6.2,0.7-7,1.7-12.5,2.6
		c-11.8,3.2-17.3,17.8-12.5,28.9c4.8,13.5,23.7,14.8,34.5,9.5c0-0.9,3-0.4,3.5-1.7c0.4-1.3,3-0.9,3-1.7c0-0.4,0.9-0.9,1.7-0.9
		c2.6-0.4,0.9,3.5,3,3.5c1.3,1.7,13.4,1.7,17.7,1.3c-2.2-25.5,6.5-58.3-11.7-71.2c0-0.4-0.4-0.9-1.3-0.9c-1.7,0-0.9-1.7-3-1.3
		c-3.5-0.4-0.4-2.6-6-2.2C1656.5,444,1654.3,440.5,1650.4,443.1 M1792.9,443.1c0.4,0.9-13,0.4-11.7,1.7c0,0.9-0.9,0.9-2.6,0.9
		c-3,0.4-3.8,1.2-6,1.7c0,0.9-3.9,1.3-3.5,2.2c-12,5.8,1.9,22.4,11.2,15.5c2.2,0,1.3-1.3,3-1.3c0.4,0,1.3-0.4,1.3-0.9
		c3.9-2.6,13.4-4.2,15.5,1.7c0.4,1.3,1.7,0.4,1.3,3c0.9,4.3,6.5,6.9-3.9,6.5c-9.5-0.4-2.6,2.2-10.4,2.2c-3.5,0.4-14.7,2.6-14.2,3.9
		c-28.9,17.2-4.2,51.6,23.7,37.6c0-0.9,3.9-0.4,3.5-1.7c0-1.3,2.6-0.9,3.5-1.7c2.5-3,3,2.8,5.6,3.9c0.4,0.9,12.1,0.9,14.7,0.9
		c0-15.5-0.4-46.2-0.4-61.7c-3.4-4.5-11.2-11.4-14.7-12.5c0.4-1.3-8.6-0.9-9.1-1.7C1799.4,442.3,1792.9,442.3,1792.9,443.1
		 M643.5,444.8c0.4,1.7-5.2,0.9-5.2,1.7c0,0.9-2.2,0.4-2.2,1.3c-3.8,2.4-5.4,4.2-7.3,7.8c-1.7-0.4-0.9,5.2-1.7,5.2
		c-1.7,4.3-0.9,16,3,19c0,3,5.2,4.3,6.5,6c0,0.4,0.4,1.3,1.3,1.3c2.2,0,1.7,1.7,3.9,1.3c0.9,0,1.7,0.4,2.2,1.3
		c0,1.3,4.7,0.9,4.7,1.7c0,0.9,5.2,0.4,5.2,1.3c0,1.1,3.4,0.6,3.5,1.7c4.5,4,2.6,10.3-5.2,9.9c-6.9,0.4-3.5-1.3-7.3-2.2
		c-2.2,0-1.3-1.3-3.5-1.3c-7.2-4.5-13.8,1.5-16.4,6.9c-4.3,4.2,4.7,7.4,6.5,9.5c0,1.3,4.7,0.9,4.7,1.7c0,0.9,6,0.4,6,1.7
		c8.7,3.2,24.5,0.1,31.5-5.6c1.3,0,3.5-2.6,3.5-3.9c0-1.7,2.6-0.4,2.2-3c0-0.9,0.4-1.7,0.9-1.7c1.3-3,4.3-12.5,1.3-15.1
		c-0.9-3.9-3.5-10.4-7.3-11.7c0-0.9-2.2-0.4-2.2-1.3c0-0.9-3.9-0.4-3.5-1.7c0-0.9-0.9-0.9-2.6-0.9c-3.5,0-1.7-1.3-4.7-1.3
		c-3.5,0-2.2-2.2-5.6-2.2c-2.6,0-1.3-1.3-3.9-1.3c-7.3-2.6-2.6-9.9,4.7-8.6c7.8-0.4,12.1,6.5,19,3c2.2-3.5,7.3-8.6,4.3-13
		c-0.9,0.4-4.3-3.9-6.5-3.5c-0.9,0-1.3-0.4-1.3-0.9c-0.4-1.3-3.5-0.4-3.9-1.7c-0.9-0.9-3.5-0.9-13-0.9
		C645.2,443.6,643.5,444,643.5,444.8 M745,444.8c0.4,1.7-5.2,0.9-5.6,1.7c-1.6,1-2.9,0.5-4.3,2.2c-4.3,3.8-9.5,7.4-11.2,13.4
		c-9,18.2-3.7,50.4,19,56.6c0,0.9,6,0.4,6,1.7c4.7,2.6,19.4,0.4,24.2-1.7c0-0.4,0.9-0.9,1.7-0.9c2.2,0,2.2-2.2,3.9-2.2
		c1.7,0,0.9-1.3,2.2-1.3c0.9,0,3-1.7,3-3c0.4-1.3,3.5-1.7,3.5-3.5c0-0.9,2.2-1.3,2.2-2.6c0-1.7,1.7-0.9,1.3-3c0-0.9,0.4-1.7,0.9-1.7
		c0.9,0,0.4-4.3,1.7-4.7c1.3,1,1.7-29.6-0.4-28.1c-1.7,0.4-0.9-5.2-1.7-5.2c-2.6-7-9.6-13.8-16.4-16.8c0-0.9-5.6-0.4-5.2-1.7
		C773,443.1,742.4,443.1,745,444.8 M956.1,481.5v38c5.6,0,16.8,0,22.5,0c0-19,0-56.6,0-75.6c-5.6,0-16.8,0-22.5,0V481.5
		 M983.7,445.7c-0.9,3,2.2,3,1.7,6c0,3,1.3,1.7,1.3,3.9c0,2.6,2.2,1.7,2.2,4.7s1.3,1.3,1.3,4.3c0,2.6,1.3,2.2,1.3,4.7
		c0,1.3,0.4,1.7,0.9,1.7c0.9,0,1.3,0.9,1.3,2.6c0,3,1.3,1.7,1.3,4.3c0,3,2.6,0.9,2.2,4.3c0,3,1.3,1.7,1.3,4.3c0,0.9,0.4,1.7,0.9,1.7
		c1.3,0,0.4,5.6,1.7,5.2c1.7,0,0.9,4.3,1.7,4.7c0.9,0.4,0.4,3.9,1.3,3.9c0.9,0,1.3,5.2,2.2,5.2c0.4,0,0.4,0.9,0.4,1.7
		c0,2.6,1.7,1.3,1.3,3.9c0,3,3,3,2.2,6.5c5.6,0,16.8,0,22.5,0c-0.4-3.5,1.3-3,1.3-6c0-3,1.3-1.7,1.3-3.9c0-2.2,2.2-3,2.2-5.6
		c0-0.9,0.4-1.7,0.9-1.7c0.9,0,0.4-4.7,1.7-4.7c1.3-0.4,0.9-3.5,1.7-3.9c0.9,0,0.4-5.2,1.3-5.2s0.4-3.5,1.7-3.9
		c1.3,0,0.9-4.7,1.7-4.7c1.3-0.4,0.4-3.5,1.7-3.9c0.4-0.4,0.9-1.7,0.9-3c0-0.9,0.4-1.7,0.9-1.7c0.9,0,0.4-3.5,1.3-3.9
		c0.9-0.4,0.4-4.7,1.7-4.7c1.9-2.2,3-8.8,4.8-12.1c0.9-2.4,2.2-3.4,1.7-6.9c-4.7,0-14.7,0-19.4,0c-6.1,4.6-6.5,11.5-9.1,17.3
		c-1.3,0-0.9,4.7-1.7,4.7s-0.4,5.2-1.3,5.2c-0.4,0-0.9,0.9-0.9,1.7c0,2.6-2.2,3.5-2.2,5.6c0,2.6-1.7,1.3-1.3,3.9
		c-3.1,7.6-2.7,12-4.3,0.9c-0.9-0.4-1.3-5.6-2.2-5.6c-0.4,0-0.9-1.3-0.9-2.6c-0.7-4.2-2.5-6.4-3.5-10.4c-5.1-21-6.2-22.9-29.8-21.6
		L983.7,445.7 M1066.2,481.5v38c5.6,0,16.8,0,22.5,0c0-19,0-56.6,0-75.6c-5.6,0-16.8,0-22.5,0V481.5 M1102.1,481.5v38
		c5.6,0,16.8,0,22.5,0v-26.8c0-25,0-26.8,1.3-26.8c1.7,0,3.9-1.7,3.9-2.6c25.5-12.1,15.1,37.6,17.3,56.1c5.6,0,16.8,0,22.5,0
		c-2.1-26.7,7.9-62.2-13.8-73.4c-2.1-3.9-25.3-2.4-27.2,0.9c-1.3,0.9-6.9,4.3-7.3,0.9c1.7-5.2-13.8-3.9-18.6-3.9v37.6 M1195.8,444.8
		c-0.4,1.3-3.9,0.9-4.3,1.7c0,0.4-0.4,0.9-1.3,0.9c-1.7,0-0.9,1.3-2.6,1.3c-0.4,0-1.3,0.4-1.3,0.9c-5.6,6-11.7,17.3-7.3,25
		c1.7,0.9,0.9,5.2,2.6,6c0,0.9,0.9,1.7,3.9,5.2c2.2,2.6,2.6,3,0.9,3c-10.8,7.8,1.7,22.9-7.3,25.9c-3.5,1.7-2.6,16.4-1.7,17.3
		c0.8,2.6,5.1,5.8,6.5,7.8c7.3,5.6,25.5,7.3,35,5.6c0-1.3,6.9-0.4,6.9-1.7c3.6-1.1,8.7-2.6,11.7-6c1.7,0,2.2-3,3.5-3.5
		c3.9-0.9,3-6.5,5.2-9.1c1.3,1.3,1.3-14.2,0-13c-1.3-0.4-0.9-3-1.7-3c-0.4,0-0.9-0.4-0.9-0.9c0-2.2-3.5-2.2-3.5-3.9
		c0-0.4-0.4-1.3-0.9-1.3c-1.9-2-4.8-0.7-6-2.2c0.9-1.3-16.8,0-15.5-1.7c-0.4-0.9-1.7-0.9-7.3-0.9c-6.5,0-5.6-0.4-8.2-1.3
		c-3-0.9,2.2-2.6,7.3-2.2c7.8,0.4,4.7-0.9,9.9-1.3c4.8-0.8,9.4-2.3,11.7-6.5c1.3-1.3,5.2-3,5.2-5.6c0.4-2.6,2.6-0.4,2.2-4.3
		c0.4-3,2.6-8.2,0.9-10.8c-2.6-1.3,2.6-3.5,5.2-3.5c4.7,0.9,4.3-9.1,4.3-13.8c-8.2,0.2-23.3,0.5-27.6-2.2c0-0.9-1.7-1.3-12.1-1.3
		C1198.8,443.6,1196.2,444,1195.8,444.8 M1325.7,445.7c0,0.9,0.4,1.7,0.9,1.7c0.9,0,0.4,5.2,1.3,5.2c0.9,0,1.3,5.2,2.2,5.2
		c1.4,0.7,1.5,8.1,3,8.6c1.7-0.4,0.9,5.2,1.7,5.2s0.4,5.2,1.3,5.2c0.4,0,0.9,0.4,0.9,1.3c1.7,1.7-20.3,0.9-23.7,1.3
		c0-6.5,4.6-12.6,5.6-19c0.9-8.3,2.6-2.8,3-7.8c0-3.5,1.7-1.7,1.3-5.2C1323.6,443.1,1325.7,442.7,1325.7,445.7 M1377.5,444.8
		c-0.4,16-3,57.9,6.9,68.2c7.4,9,24.1,9.7,34.1,4.3c1.3,0.4,5.6-6.9,6.9-2.2c-1.7,4.7,13.8,3.5,18.6,3.5c0-19,0-56.6,0-75.6
		c-27.6,0-21.6-4.3-22.5,27.6c-1.7,25,4.7,28.1-11.7,30.7c-12.1-2.2-7.3,0.4-8.6-30.7c0-22,0-25.5-1.3-26.3
		C1398.7,443.1,1378,443.1,1377.5,444.8 M1472.1,444.8c-20.3,4.4-24.6,33.1-5.2,42.7c0,0.9,5.6,0,5.2,1.7c-0.4,1.7,5.2,0.9,5.2,1.7
		s5.2,0.4,5.2,1.3s3.9,0.4,3.5,1.3c0,0.9,1.7,3,3,3c2.6,2.2-0.9,3.5-2.6,5.2c-5.4,4.2-14.2,0.6-17.7-2.6c-3.9-1.7-13-0.4-13,4.3
		c-13,16.6,32.1,20.5,40.2,13.4c18.7-6.7,19.8-37.4-1.7-42.7c-3.8-2-17.4-3.8-16.8-9.1c-1.7-6.5,13-4.3,15.5-3
		c3.5,0.9,0.4,2.6,6.9,2.2c6,0,4.3-0.4,6.5-3.5c2.6-4.3,6.5-8.6,0-11.2c0-2.2-3.9-2.6-5.2-3.5c0-0.9-5.6-0.4-5.2-1.7
		C1498.4,443.1,1469.5,443.1,1472.1,444.8 M1729.4,481.5v38c5.6,0,16.8,0,22.5,0c0-19,0-56.6,0-75.6c-5.6,0-16.8,0-22.5,0V481.5
		 M420.7,445.7c1.7,0,0.9,5.2,1.7,5.2c0.4,0,0.9,1.3,0.9,2.6c0,3.5,1.3,1.7,1.3,4.7s2.2,2.2,2.2,5.2c0.7,5.6,4.3,9.5,4.7,15.1
		c-6,0-18.6,0-24.6,0c-0.9-4.3,2.2-2.2,2.2-6c0.8-4.4,2.3-7.8,4.3-11.7c0.9-0.4,0.4-4.7,1.3-5.2c0.9-0.4,0.4-4.7,1.7-4.7
		C419.4,449.6,417.2,443.6,420.7,445.7 M1211.7,460.4c1.7,1.3,5.6,0.9,5.2,4.3c0,1.7,3.9,3.9,1.7,5.2c-1.3,0.4-3.5,8.6-6,7.3
		c-2.2,0-3.9,3-5.6,0.9c-3.4-1.1-7.7-5.3-8.6-9.1c0.4-1.7,1.7-0.9,1.3-3.5c-0.4-3,1.3-1.7,2.2-3
		C1204.1,461.1,1209.3,458,1211.7,460.4 M761.8,461.7c8.8,1.6,13.5,20.7,9.5,28.5c-1.7-0.4-0.9,5.2-1.7,5.2c-2,6.4-12.6,7.7-18.1,6
		c-9.2-5.3-9.8-19.2-7.3-28.5c-0.4-4.3,1.7-2.2,2.2-4.7c0-1.7,1.7-3.5,3-3.5C751,461.3,758.4,460,761.8,461.7 M595.6,494.9
		c0.9,6-5.2,6.5-6.9,8.2c-17.8,6.1-19.5-14.2,6.9-12.5L595.6,494.9 M1660.4,494.1c0,5.2-3.5,6.5-6,8.2c-0.4,0-1.3,0.4-1.7,0.9
		c0.9,1.3-12.5,1.7-11.2,0c-6.2-11.3,9.9-12.4,18.6-12.5v3.5 M1803.7,493.6c-0.2,10.2-25.2,16.8-20.3,1.7c1.3-0.4,0.4-2.6,2.6-2.2
		c5.2-2.2,10.8-3.5,17.7-3V493.6 M1217.3,517c24.7,9.3-21.8,18.3-21.2,4.3c1.3-0.9,0.4-2.6,1.7-3c0.4,0,0.9-0.4,0.9-0.9
		C1196.2,515.2,1219.5,515.2,1217.3,517"/>
	<path id="path4" class="st1" d="M224.2,413.8c-13,6-15.1,19-9.5,31.5c0.9,0,0.4,5.2,1.3,5.2c0.4,0.4,0.9,1.3,0.9,2.6
		c0,3,2.2,2.2,2.2,5.6c0,3.5,1.7,1.7,1.3,4.7c0.8,5.1,5.5,11.1,3,16.4c-0.9,0-0.4,3.9-1.7,3.5c-1.3-0.4-0.9,3.5-1.7,3.5
		s-0.4,3.9-1.7,3.5c-1.3,0-0.9,2.6-1.7,3c-0.4,0-0.9,0.4-0.9,1.3c0,2.2-1.3,0.9-1.3,3c0,0.9-0.4,1.3-0.9,1.3
		c-0.9,3.5-14.7,3.9-16.8,2.2c0-0.9-19.4-0.4-19.4-1.3c-8.4-3.3-18.7-6.1-27.6-9.1c0-0.9-5.6-0.4-5.2-1.7c0-0.9-0.9-0.9-2.6-0.9
		c-3.5,0-1.7-1.3-4.7-1.3c-3.5,0-2.2-2.2-5.6-2.2c-6.3-0.2-15.6-7.3-21.6-3.9c-0.9,1.7-9.1,2.6-9.5,4.8c0,0.9-1.7,2.6-2.6,2.6
		c-1.5-2.7-2.8,26.8,0,24.6c1.3,0,0.4,3,2.2,3c0.4,0,1.3,0.4,1.3,1.3c0.4,1.3,2.6,0.9,2.6,1.7c1.8,1.2,4.3,2.4,6.9,3
		c0.9,0,1.7,0.4,1.7,0.9c0,0.9,5.2,0.4,5.2,1.3c5.1,0.5,9.4,4,14.7,4.3c-2.2,2.6-5,4.4-6.9,6.9c-2.2,0-3.9,4.7-5.2,5.2
		c-0.4,0-1.3,0.4-1.3,1.3c-0.8,4-4,9.5-2.2,13.8c1.3,1.3,0.9,9.1,3.5,8.6c2.8,6.5,4,3.5,5.6,6.5c2.6,3.5,15.1,3,18.6,0.9
		c2.2,0,0.9-2.2,3-2.2c2.6,0,1.3-1.3,3.5-2.2c2.6-0.9,2.2-3.9,4.7-4.3c0.9,0,1.3-2.2,2.6-2.2s0.9-1.3,1.7-1.3c1.7,0,2.6-3,3.5-3.5
		c0.9,0,4.3-3.5,4.3-4.3c4.3-3.5,7.8-5.2,11.7-9.5c10,0.2,21.8,0.5,28.1,3.9c1.3,2.6,2.2,5.6,3,8.2c5.8,5.6-16.5,7.3-19.9,9.1
		c-1.7,0-3,0.4-3,0.9c0,0.9-7.8,0.4-7.3,1.7c0.4,1.3-7.3,0.9-7.8,1.7c-32.7,5.8-25.1,55.2,26.8,35.8c3.7-1,6.9-2.2,10.8-3
		c4.3,0,2.2-1.7,6.5-1.3c3.9,0.4,9.5-3.5,12.1-1.3c2.5,5.8,6.9,11.4,8.6,16.8c0,2.2,1.3,1.3,1.3,2.6c0,0.4,0.4,1.3,0.9,1.7
		c1.3,0.9,0.9,3.5,1.7,3.5c0.4,0,0.9,0.9,0.9,1.3c0,1.7,2.2,1.7,2.2,3c13.7,35.2,56.8,9.2,35.4-20.3c-1.3,0.4-0.9-3.5-1.7-3.5
		s-0.4-3.5-1.3-3.5s-1.3-3.5-2.2-3.5c-0.4,0-0.4-0.4-0.4-1.3c0-2.2-1.3-0.9-1.7-3.5c-0.4-2.2-1.7-1.3-1.7-3c0-1.6-1.7-0.9-1.7-2.6
		c0-1.7-1.3-1.7-1.3-3.9s-2.2-0.9-2.2-3c0-0.9-0.4-1.7-0.9-1.7c-0.9,0-0.4-3.9-1.7-3.5c-0.4,0-0.9-0.4-0.9-1.3
		c0-1.7-1.3-1.7-1.3-3.9c0-0.9-0.4-1.3-0.9-1.3c-0.9,0-0.4-3-1.7-3.5c-1.3,0-0.9-5.2-1.7-5.2c-0.4,0-0.9-1.3-0.9-2.6
		s-0.4-2.6-0.9-2.6c-0.9-0.4-0.4-5.2-1.7-5.6c-1.8-2.8-1.8-8.4-3.5-11.2c-1.3,0-0.9-5.2-1.7-5.2c-1.7-1.7,0-6,0.9-7.3
		c0-1.3,0.4-1.7,0.9-1.7c1.3,0,0.9-2.6,1.7-3c0.4,0,0.9-0.9,0.9-1.7c0-2.2,2.2-2.2,2.2-3.9c0-2.2,1.7-0.9,1.3-3.5
		c0-2.2,1.3-1.3,1.3-3s2.2-1.7,2.2-3.5c0-2.2,1.3-0.9,1.3-3c-0.4-3.5,3.9-3,5.2-4.7c-0.4-1.7,5.2-0.9,5.2-1.7c0-0.9,3.5-0.4,3.5-1.3
		c0-0.9,4.7-0.4,4.7-1.7c0.4-1.3,4.3-0.9,4.7-1.7c0.4-0.9,3.9-0.4,3.9-1.7c0-0.9,0.9-1.3,2.6-1.3c3,0,1.7-1.3,4.3-1.3
		s1.3-1.7,4.3-1.3c3.9,0.4,0.9-2.6,5.2-2.2c3,0,1.7-1.3,4.3-1.3c3,0,0.9-2.6,4.3-2.2c1.3,0,2.6-0.4,2.6-0.9c0-0.9,3.5-0.4,3.9-1.3
		s4.7-0.4,4.7-1.7c-0.4-1.7,5.2-0.9,5.2-1.7c7.1-3.7,18.8-4.8,22.9-13.4c5.7-9.3,2.9-23.8-6.5-28.5c-1.3-2.6-17.3-3-19-0.9
		c0-0.9-5.6-1.7-5.6-0.4c0,0.9-3.5,0.4-3.9,1.3c-0.4,0.4-1.3,0.9-2.2,0.9c-2.6,0-1.7,2.6-5.2,2.2c-3,0-1.7,1.3-4.3,1.3
		c-3,0-0.9,2.6-4.3,2.2c-3,0-1.7,1.3-4.3,1.3s-1.3,1.7-3.9,1.3c-3,0.4-2.2,2.6-5.2,2.6c-2.6,0-2.2,1.3-4.7,1.3
		c-3,0.1-0.7,2.4-4.3,2.2c-3,0-1.7,1.3-4.3,1.3s-1.3,1.7-3.9,1.3c-2.6,0-2.2,2.2-4.7,2.2c-0.9,0-1.7,0.4-2.2,0.9
		c-3.9,3.9-3.9-4.7-5.6-5.6c-3.1-3.9-2-12.3-4.7-16.8c-1.3-0.9-0.9-5.2-1.7-5.6c-1.3-1.3-3.9-6.9-6.5-6.9c-2.2,0-0.9-1.7-3.5-1.3
		C239.4,412.9,227.3,411.2,224.2,413.8 M442.3,589.1v52.7c2.2,0,6.5,0,8.6,0c0-26.3,0-79,0-104.9c-2.2,0-6.5,0-8.6,0V589.1
		 M390.9,568.3c-3,1.3-10.4,1.7-12.1,5.6c-1.7,1.3-7.3,3-7.3,6.9c0,4.3,5.2,6.9,8.2,3.9c1.7-2.2,3.5-1.3,4.7-3.5
		c0.9-1.7,3.9-0.9,4.3-2.6c0-0.9,0.9-1.3,3-1.3c3,0.2,5.9-2.9,8.2-0.4c0,1.3,5.6,0.4,5.2,1.7c0.4,1.7,5.2,3.5,5.2,6
		c1.7,1.7,0.9,9.5,2.6,11.2c2.6,2.6,1.3,3.9-3,3.9c-7.3,0-1.7,2.6-11.2,2.2c-6.5,0.4-8.2,0.4-12.5,2.6c0,1.3-5.2,0.9-5.2,1.7
		s-3,0.4-3,1.3s-2.2,0.4-2.2,1.7c-0.9,1.7-5.2,3-5.2,5.6c-2.2,0.4-1.7,18.1,0,18.1c3,9.9,19.4,10.8,27.2,8.6c0-1.3,5.6-0.4,5.2-1.7
		c-0.4-1.3,3.5-0.9,3.5-1.7c1.7-0.9,5.2-3,6.9-5.6c0,6.9,0.9,9.5,8.6,7.8c-1-21.1,4-61-6.9-67.8
		C410.8,567.9,397.4,566.2,390.9,568.3 M492.4,568.3c-0.4,0.9-6.5,0.4-6.5,1.7c-3.9,1-8.4,5-11.7,7.3c-0.4,0-0.9,0.4-0.9,0.9
		c0,1.7-1.7,0.9-1.3,2.6c0,1.7,1.3,0.9,1.3,2.6c0,1.3,2.2,0.9,2.2,1.7c-0.1,1.1,2.7,1.1,2.6,0c0-0.9,3.9-0.4,3.5-1.7
		c0-1.3,2.2-0.9,2.2-1.7s3-0.4,3-1.3c13.1-10.8,28.7,0.4,25.9,19.4c-6.9-0.9-6.5,2.6-14.2,2.2c-6.9-0.4-3.9,1.3-9.1,1.3
		c-3.9-0.4-3,1.7-5.6,2.2c-2.2,0-2.2,1.3-3.9,1.3c-0.9,0-1.3,0.4-1.3,0.9c0,0.9-3,0.4-3,1.7c-0.4,1.7-3.5,1.7-3.5,3.9
		c-3.7,5-3.9,10.8-2.2,16.8c4.1,18.6,34,15.3,42.3,3.9c4.7,4.7-0.9,8.2,10.4,7.3C520.4,609.4,533.8,561,492.4,568.3 M588.7,568.3
		c-7.1,1.5-15.3,4.6-19,11.7c0,1.7-1.3,0.9-1.3,2.6c-0.4,1.7-2.6,0.4-2.2,3c0,3-1.7,2.2-1.3,5.6c0,1.3-0.4,2.6-1.3,3
		c-0.9,0.4-1.3,2.2-1.3,11.7c-0.4,13.8,0.9,8.2,2.2,15.1c0,3.5,1.3,2.2,1.3,4.7c0,2.2,2.2,2.2,2.2,3.9c0,1.7,1.3,1.3,1.3,2.2
		c0.2,1.5,5.7,6.4,7.3,6.5c1.7,0,0.9,1.7,3,1.3c3,0,0.9,2.6,4.3,2.2c5.8,2.2,22.1,2.3,28.1-2.2c4.6-2.8,9.9-6.9,12.1-12.1
		c0.4-2.2,2.6-1.7,2.2-4.3c0.9-3.9,1.7-2.2,1.3-8.2C633.6,590.5,616.8,561.8,588.7,568.3 M667.3,568.3c0,0.9-4.7,0.4-4.7,1.7
		c-1.3,1.7-5.2,1.3-5.2,3.9c-0.9,1.3-3.9,1.7-3.5,3.9c-3,6,1.7-11.7-6-9.1h-3.9c0,18.1,0,54.8,0,72.5c2.2,0,6-0.4,8.2-0.4
		c1.7-22.5-5.2-50.5,11.7-60.9c0-0.9,3.9-0.4,3.5-1.7c-1.3-1.7,11.2-1.3,10.4,0C688,584.3,692.7,562,667.3,568.3 M715.6,568.3
		c-0.4,1.3-5.2,0.4-6,1.7c-0.4,0.4-1.7,0.9-2.6,0.9c-1.7,0-0.9,1.3-2.6,1.3c-1.7,0.4-1.3,2.2-3.5,3.9c-5.8,5.1-5.5,26,0,30.7
		c7.9,1.2-11.1,16.8,1.3,25c-7.2,3.5-13.5,15.2-8.6,22.9c5.9,16.2,39.3,14.6,51,8.6c7-5,10.8-5.7,10.8-17.7
		c2.2-22-23.3-14.7-35-18.1c-1.8-2.3-10.7-0.4-11.7-3.5c-6.4-12.2,21.1-4.7,26.3-9.9c2.2,0,1.3-1.3,3-1.3s0.9-1.3,2.6-1.3
		c1.3-0.9,5.6-6,6-7.3c1.3,0.9,2.2-19.9,0.9-19.9c-4.3-4.7,6-3.5,9.5-3.5c0-1.7,0-5.6,0-7.3C740.4,577,729.7,564.1,715.6,568.3
		 M814.5,568.3c-0.4,0.9-6.5,0-6,1.7c-2.2,2.4-16.4,7.8-13,13c0.9,0,0.4,2.2,1.7,2.2c1.3,0.4,2.6,3,3.9,0.9c0-0.9,3.9-0.4,3.5-1.3
		c15.2-14.5,32.5-5.8,30.7,16.4c-7.5,0.1-16.7,3.1-24.2,3.5c-4.7-0.4-1.3,2.2-5.6,2.2c-33.2,13.6-6.3,51.9,23.7,32.8
		c0-0.9,2.2-0.4,2.2-1.7c7.6-7,0,7.7,13.8,4.7C843.9,609.8,856.8,560.1,814.5,568.3 M861.6,597.3c-3.5,37.7,7.9,52.4,37.6,43.2
		c0-1.3,3.5-0.9,3.5-1.7c0-0.4,0.4-0.9,0.9-0.9c1.3,0,1.3-2.2,3-2.2c0.4,0,1.3-0.4,1.3-0.9c0.9-4.3,3,4.3,2.6,6c2.2,0,6,0.4,8.2,0.4
		c0-18.1,0-54.8,0-72.5c-2.2,0-6.5,0-8.6,0c0,13,0,39.3,0,52.7c-5.1,5.8-8.8,8.9-15.5,11.2c-32.2,10.7-20.8-38.4-23.3-63.5
		c-2.6,0-7.3-0.4-9.9-0.4v28.5 M599,577c9.3,1.4,14.1,7.7,17.7,16c1.7-0.4,0.9,9.5,1.7,9.9c2.2,3.5-1.3,4.7-0.9,9.5
		c0,4.7-2.2,6-2.6,9.5c-3.1,4.5-1,5.3-8.2,8.6c-6.5,6.8-20.6,4.1-27.6-3.5c-7-5-8-28.6-3.5-38C579.4,580.5,590.6,574.3,599,577
		 M727.7,577c0,0.9,3,0.4,3.5,1.7c0.4,0.4,0.9,0.9,1.7,0.9c0.9,0,1.3,0.4,1.3,0.9c0.4,1.3,2.6,0.4,2.2,2.6c0,2.2,4.7,7.8,2.2,12.1
		c-0.9,0.4-0.4,4.7-1.3,4.7c-0.4,0-0.9,0.4-0.9,0.9c-0.4,1.7-3.5,1.7-3.5,3.9c-1.3,2.2-15.1,3-17.3,1.3c0-0.9-3.9-0.4-3.5-1.3
		c0-0.9-1.7-3-3-3c-2.4-2.9-4.6-10-3-14.2c0.9-0.4,0.4-3,1.3-3c0.4,0,0.9-0.9,0.9-1.7c-0.4-2.2,1.7-1.3,2.2-2.6c0-0.9,3-0.4,3-1.7
		c0-0.9,0.9-0.9,1.7-0.9C716,576.5,726.4,575.2,727.7,577 M413.4,615.4v6.9c-5.2,5.2-9.9,9.1-16,11.7c-0.9,1.3-13,0.9-13.4-0.9
		c-7.3-2.2-6.9-14.2-0.4-18.1c0-0.9,0.9-1.3,1.7-1.3c2.6,0,1.3-1.7,4.3-1.3c3.9,0,1.7-1.7,6.5-1.3c3,0,3.9-0.4,4.3-1.3
		c0-1.7,9.9-0.9,12.5-1.3v6.9 M512.7,616.3c0,9.1-0.9,8.6-3.5,10.4c-3.2,5.8-17,9.7-23.7,6.9c-0.4-0.9-3.5-1.7-3.5-3.5
		c-1.3-1.7-3.5-3.9-3.5-6.9c-0.9-3.5,1.7-1.3,1.7-3.9c0-1.7,1.7-3.5,3-3.5c1.7,0,1.7-2.2,3.5-2.2c2.1-0.2,0.6-1.9,3.5-1.7
		c7.7-1.4,13.5-3.9,22.5-3.5V616.3 M835.6,616.3c0,9.1-0.9,8.6-3.5,10.4c-0.1,3.1-6,3-6.5,5.6c0,1.3-5.2,0.4-5.2,1.7
		c-4.3,1.7-16,0.9-17.3-4.7c-10.1-14.8,20.3-20.3,32.4-20.3V616.3 M542.5,626.6c-10.8,4.7-5.2,22.9,7.8,14.2
		c4.7-5.6,1.7-13.4-3.9-13.8C545.9,626.2,542.9,625.8,542.5,626.6 M770.9,627.1c-0.4,1.7-4.7,0.4-5.2,2.6
		c-7.9,10.1,10.2,20.4,14.7,8.2c3-1.3-0.9-9.9-4.3-9.9C773.5,627.9,772.6,624,770.9,627.1 M714.3,635.3c-0.9,1.4,24.2-0.1,22,2.2
		c0,1.3,5.2,0.9,5.2,1.7c0.4,0.9,3.5,1.7,3.5,3.5c0,0.4,0.4,0.9,0.9,0.9c3.7,4.8-5.3,10.8-7.8,13c0,0.9-3.5,0.4-3.9,1.7
		c0,1.3-9.5,1.3-9.5,2.2c-3.5,2.2-3.5-1.3-7.8-0.9c-4.7,0.4-3.5-1.7-6.5-2.2c-2.2,0-1.3-1.3-2.6-1.3c-4.3-0.4-7.3-10.8-3.9-13
		c0-0.9,3.5-4.3,4.3-4.3c1.3-0.4,0.4-2.6,2.6-2.2C712.2,636.1,712.6,632.7,714.3,635.3"/>
</g>
</svg>
