<?xml version="1.0" encoding="utf-8"?>
<!-- Generator: Adobe Illustrator 24.0.2, SVG Export Plug-In . SVG Version: 6.00 Build 0)  -->
<svg version="1.1" id="Layer_1" xmlns="http://www.w3.org/2000/svg" xmlns:xlink="http://www.w3.org/1999/xlink" x="0px" y="0px"
	 viewBox="0 0 512 512" style="enable-background:new 0 0 512 512;" xml:space="preserve">
<style type="text/css">
	.st0{fill-rule:evenodd;clip-rule:evenodd;fill:#F4644B;}
</style>
<path class="st0" d="M253.9,78c-48.1,24.3,15.9,76.7-6.2,108.3c-7,15.8-13,27.9-34.6,21.2c-30.1,0.9-61.2-13.6-88.3-21.2
	c-18.9-7.5-43.3-16.7-58.3,1.9c-13.2,44.5,13.7,50,51.3,59.5c-50.4,31.6-7.7,96.4,34.6,51.2c5.6-5,13.6-10,18-16.8
	c26.8-36.5,106.7,7.7,34,17.4c-83.7,3.4-70.6,96.3,28.9,55c8.2-0.3,20.4-6.5,27.6-3.9c6.7,12.5,13.2,25.3,18.5,36.5
	c22.1,60.1,92.2,21.8,54.6-28.9c-5.7-12.9-12.9-26.6-19.9-38.6c-10.9-19.8-17.7-45-25.1-68.1c-3.6-9.9,6.9-17.9,9.8-26.1
	c2-7,6.3-12.7,9.1-19.3c4.1-10.8,19.4-8.6,27.6-13.9c10.2-3.8,18.6-8.4,29.4-10.8c5.8,0.6,1.3-3.9,7.7-3.3c4.5,0,2.5-1.9,6.4-1.9
	c4.5,0,1.3-3.9,6.4-3.3c4.5-1,5.5-2.1,9.6-3.3c14.7-7.5,38.2-8.2,48.7-24.9c19.4-38.4-24.1-54.2-51.9-42.3
	c-16.8,6.9-33.1,13.5-50.6,19.4c-8.7,5.1-19.5,6.7-28.8,11.7C293.3,136.6,310.8,63.5,253.9,78"/>
</svg>
