<?xml version="1.0" encoding="utf-8"?>
<!-- Generator: Adobe Illustrator 24.0.2, SVG Export Plug-In . SVG Version: 6.00 Build 0)  -->
<svg version="1.1" id="Layer_1" xmlns="http://www.w3.org/2000/svg" xmlns:xlink="http://www.w3.org/1999/xlink" x="0px" y="0px"
	 viewBox="0 0 2048 1024" style="enable-background:new 0 0 2048 1024;" xml:space="preserve">
<style type="text/css">
	.st0{fill-rule:evenodd;clip-rule:evenodd;fill:#0474AC;}
	.st1{fill-rule:evenodd;clip-rule:evenodd;fill:none;}
	.st2{fill-rule:evenodd;clip-rule:evenodd;fill:url(#SVGID_1_);}
	.st3{fill-rule:evenodd;clip-rule:evenodd;fill:#FFFFFF;}
	.st4{fill-rule:evenodd;clip-rule:evenodd;}
	.st5{fill-rule:evenodd;clip-rule:evenodd;fill:#F0E614;}
	.st6{fill-rule:evenodd;clip-rule:evenodd;fill:#E60000;}
	.st7{fill-rule:evenodd;clip-rule:evenodd;fill:#0C9F4A;}
	.st8{fill-rule:evenodd;clip-rule:evenodd;fill:#74AC04;}
	.st9{fill-rule:evenodd;clip-rule:evenodd;fill:#F4644B;}
	.st10{fill-rule:evenodd;clip-rule:evenodd;fill:#F7F3F1;}
	.st11{fill-rule:evenodd;clip-rule:evenodd;fill:#842404;}
</style>
<g>
	<g id="Layer_2_1_">
		<g>
			<path class="st0" d="M1339.1,638.1c4.8,28.7,5.7,61.3-4.5,88.4c-8.3,29.1-27.2,63.6-52.3,89.7c-9.7,9.5-20,20.6-34.9,31.2
				c-0.4,0.9-11.1,5.7-4.7,5.6c1.5,0.6,2.4,0.5,3.9,0.9c6,1.1,11.5,3.1,18.4,3.7c28.4,4.5,61.2,7,90.6,3.3
				c19.1-1.7,33.6-7.9,52.7-9.8c9-5,78,18.7,61,9.1c-11.2-7.8-25.3-14.4-34.8-24.8c-17.9-27.6-31.6-30.2-61.8-27
				c0.4-20.2,8.4-41,19.3-57.7c6.5-11.3,22.6-20.1,18.9-34.6C1405.5,681.3,1375,643.5,1339.1,638.1"/>
			<path class="st0" d="M1116.9,654.2c37.2,27.6,88.8,59.8,110.1,111.2c8.3,23.8,14,47.9-15.1,60.6c-25,14.3-55.7,11-85.7,12.8
				c-3.6,0.3-47.6-3.7-36.6,3.4c8.2,2.9,19.3,3.5,28.7,4.2c15.3,1.4,72.4-2.2,47.8,25c-85.6,66.9,45.4-12.5,65.7-23.2
				c20.5-11.4,39.5-31.3,54.6-48.3c4.9-7.3,11.1-14.7,16.3-23.3c-5.7-17.8-16.2-33.5-26.2-48.7c-19.6-27.4-46-49.2-78.9-59.3
				C1172.7,658.7,1146.1,652.1,1116.9,654.2"/>
		</g>
	</g>
	<rect x="1024" y="512" class="st1" width="512" height="512"/>
</g>
<g>
	
		<linearGradient id="SVGID_1_" gradientUnits="userSpaceOnUse" x1="1599.8481" y1="259.0918" x2="1982.7526" y2="259.0918" gradientTransform="matrix(1 0 0 -1 0 1026)">
		<stop  offset="0" style="stop-color:#005480"/>
		<stop  offset="1" style="stop-color:#0092CE"/>
	</linearGradient>
	<path class="st2" d="M1636.1,646.3c-41.4,14-44.6,76.3-23.4,108.2c23.9,36.4,88.6,40.1,125.7,29.4c36.8-10.1,68-32.5,96.8-54.3
		c19.3-12.6,35.1-20.8,56.4-27.9c12.1-3.8-12.6-10.5-16.4-12.7c-21.3-8.9-55.5-8.9-75.3,2.3c-43.1,17.1-74.9,58-119.7,72
		c-31.8,10.4-39.8-28.5-29-50.5c6-21.3,53.1-14.4,69.3-13.6c5.5,2.6,1.9-8.3-3.4-7.3c-5.6-1.9-9.8-4.8-14-8
		C1682.3,666.9,1669.7,639.2,1636.1,646.3 M1904.9,716.5c-73.1,18.2-99.3,75.9-185.2,84.4c-26.1,3.8-44.9,0.6-8.5,19
		c23.2,13.2,57.6,16.9,86.6,12.4c53.7-8.5,91.3-52.5,133.1-76.2c9.4-4.5,18.3-9,28.3-12.1c4.6-2.8,29.8-3.2,22.1-9.5
		C1958.5,722.5,1932.7,714.3,1904.9,716.5 M1605.9,781.7c3.6,74.2,95.1,117.6,164.3,104.7c46.5-0.5,125.5-79.5,77.2-53.7
		c-47.8,26.2-117.1,19-163.1-10.4C1657.4,809.8,1636.3,785.9,1605.9,781.7"/>
	<rect x="1536" y="512" class="st1" width="512" height="512"/>
</g>
<g>
	<path class="st3" d="M1240.9,280.4c0,30.5,15.7,58,42.2,73.8c22,13.1,35.4,14.3,50.4,14.3h3.3h10.6V239.9l4.7-3.5l61.4-46.1
		c0,0,32.2-2.1,40.5-2.6c4.6-0.3,9.7-0.8,13.2-1.2c3.3-0.4,4.6-1.4,4.6-2.4s-0.7-1.4-1.3-2.1c-0.7-0.5-5.5-2.9-11.5-5.1l0,0
		c-3.1-1.2-12.3-4.1-16.2-5.4s-15.2-4.6-18.5-5.6c-1-1.4-2.2-2.8-3.4-3.9c-10.9-11.8-27.5-18.9-44.4-18.9c-13.4,0-26.5,3-38.5,9
		h-250.6v7.2c0,10.9,12.3,19.1,28.6,19.1h69l55.9,40.2V280.4"/>
	<path class="st4" d="M1460.4,181.6c0,0-29.1-7.9-40.4-8.9c0,0-44.4,24.4-56.7,32.6c-12.4,8.1-14.8,20.4-15.3,25.2l63.3-47.6h49.7
		C1462.1,182.9,1460.4,181.6,1460.4,181.6z"/>
	<path class="st4" d="M1248,280.5c0,28.4,14.7,53.2,38.6,67.5c24,14.3,36,13.2,53.6,13.2v-125c0.1-11.1,3.3-25.7,17.7-35.4
		c13-8.8,57.9-33.8,57.9-33.8v0.1c-7.7-8.4-21.6-16.8-39.3-16.8c-21.7,0-36.7,9-36.7,9h-245.3c0,6.7,10,11.8,21.5,11.8h71.3
		l60.8,43.8L1248,280.5"/>
	<path class="st4" d="M1396.6,170.3c0,2.5-2,4.5-4.5,4.6c-2.5,0-4.5-2.1-4.5-4.6s2-4.6,4.5-4.6
		C1394.6,165.9,1396.6,167.8,1396.6,170.3L1396.6,170.3z"/>
	<polygon class="st4" points="1340.5,189.3 1368.3,173.6 1380.5,174.6 1340.4,197.3 1340.4,189.3 	"/>
	<path class="st5" d="M1187.4,171.1h102.2c-22.8,0-41.5,18.7-41.5,43.8L1187.4,171.1z"/>
	<path class="st6" d="M1410.2,170c-10-8.6-22.7-13.4-35.9-13.4v-6.3h2.2c17.7,0,31.6,8.3,39.3,16.6L1410.2,170L1410.2,170z
		 M1411.3,182.9l-44.3,33.3c0,0-0.5-4.8,6.2-10.3c6.7-5.5,47-33,47-33L1411.3,182.9z"/>
	<path class="st3" d="M1321.8,267.9v-22.3c0-9.3-3.8-15.9-12.3-22l-36.2-26.1c-4.1,4.6-6.6,10.6-6.6,17.3c0,8.4,3.9,15.9,10.1,20.6
		C1276.7,235.6,1321.8,267.9,1321.8,267.9z"/>
	<rect x="1024" class="st1" width="512" height="512"/>
</g>
<g>
	<path id="path1" class="st7" d="M764,64.1c-138.8,9-189.8,183.2-132.7,294.4c41.4,95.4,182.9,117.5,257.5,49.2
		c13.7-11.9,22.1-22.9,33.1-38.8c17.6-18.2,3.6-20.8-12.1-29.7c-1.7-4.5-7.6,5.8-8.5,7.6c-8,16.4-20.8,30.1-34.4,41.6
		c-49.6,36.8-127.3,22.3-158.2-28.5c-18.8-30.3-35.2-84.6-23.3-117.1c39.8,0,236.4,0.5,236.9-0.9c2.2-0.9,2.2-40.3,0.5-45.6
		C914.2,107.7,852.9,57,764,64.1 M785,91.8c20.4,2.3,37.8,16.7,49.2,33.6c10.7,21,19.3,66.1,15.2,88c-1.8,1.4-160.9,2.2-165.8,0.9
		C671.5,159.4,721,80.2,785,91.8"/>
	<rect x="512" class="st1" width="512" height="512"/>
</g>
<g>
	<g>
		<path class="st8" d="M206.7,87.5c7.2,31.6,19.9,75.2,49.2,90.3c1.3,0.6,2,1.2,1.7,1.2c-1,0,4.7,3.8,5.8,3.8
			c4.3,3.9,13.4,10.1,18,14.3c6.3,4.9,14.4,12,27.2,24.8c10.8,10.8,12.9,12,14.8,8.5c2.5-14.6-4.1-33.6-9.9-47.3
			c-11.3-26.9-32.6-55.2-59.7-72.4C247.9,107,209.5,81.9,206.7,87.5"/>
		<path class="st8" d="M64,126.3c4.8,27.8,49.2,52.9,72.9,68.8c3.6,2,8.9,5.4,12.4,7.3c1.7,1.3,1.2,1.4-15,1.3
			c-17.9-0.2-25.6,1.4-28.6,3.1c-1.9-1.2-1.3,1.7,1.3,5.8c21.1,27.8,52.3,44,84.5,52.8c-8.1,0.3-14.1,1.5-21.1,2.9
			c-12.4,1.4-22.3,3.6-22.3,5.2c1.6,4.4,8.1,10.9,11.5,15.1c10.1,12.1,25.5,26.9,34.6,32.5c4.7,3.3,7.9,4.7,12.3,6.8
			c0.5,0.7,7.7,3.1,9.4,3.1c0.7,0,1.4,0.3,1.4,0.6c6.9,2.8,23.3,3.8,38.3,2.3c26.5-1.5,27.7-0.7,19,12.3c-9.2,13.7-36,39.9-40.9,40
			c-15.6,11.1-31.3,17.6-51.9,22.2c-3.5,1.2-20,1.2-11.4,5c98.1,36,203.7-15.3,235.4-112.6c0.3,0,0.6-0.4,0.6-1
			c0.2-2.1,3.6-15.6,4-15.9c0.5-0.5,0.6-0.9,2.3-12.6c2.5-14.4,10.4-48.4,16.2-53.6c3.8-6.3,4.8-8.1,14.2-15.2
			c22.9-14.7-52.6-14.1-58.3-11.6c-22.8,6-35.8,17.6-46.8,33c-5.4,6.4-9.5,18.1-17.2,22.1c-3.4,3.9-34.4-31.5-40-34.8
			c-12.4-11.4-24.3-18.9-37.3-27.9c-52.6-33.8-114.1-52.1-178.7-58.4C64.3,124.6,64,125.5,64,126.3"/>
		<path class="st3" d="M399.1,210c6.5,4.1,3,13.8-5,13.8C380.8,221.1,386.7,204.2,399.1,210"/>
	</g>
	<rect class="st1" width="512" height="512"/>
</g>
<g>
	<g>
		<path d="M1943.8,344.3c-31.2,56.3-91.5,94.5-160.5,94.5c-101.2,0-183.3-82.1-183.3-183.3s82.1-183.3,183.3-183.3
			c69,0,129.2,38.2,160.5,94.6h-58.9c-24.7-28.2-61-46.2-101.6-46.2c-74.4,0-134.9,60.4-134.9,134.9s60.4,134.9,134.9,134.9
			c40.4,0,76.7-17.8,101.4-46L1943.8,344.3L1943.8,344.3z"/>
		<path id="I_1_" d="M1706.4,302.4v-86h17v86H1706.4"/>
		<path id="U" d="M1739.7,216.4h18.1V263c0,7.3,0.2,12.2,0.7,14.4c0.7,3.6,2.6,6.4,5.4,8.4c3,2.1,6.9,3.2,12,3.2s9-0.9,11.6-3
			s4.1-4.5,4.7-7.5c0.6-3,0.7-7.9,0.7-14.6v-47.5h18.1v45.1c0,10.3-0.6,17.6-1.5,21.9c-0.9,4.3-2.8,7.9-5.4,10.8
			c-2.6,2.9-6.2,5.2-10.5,7.1c-4.3,1.7-10.1,2.6-17.2,2.6c-8.6,0-15-0.9-19.5-2.8s-7.9-4.3-10.5-7.3s-4.3-6.2-5.1-9.5
			c-1.1-4.9-1.7-12.2-1.7-21.9L1739.7,216.4"/>
		<path id="C" d="M1821.8,260c0-8.8,1.3-16.1,3.9-22.1c1.9-4.3,4.5-8.2,7.9-11.8s7.1-6,11-7.7c5.2-2.2,11.4-3.4,18.3-3.4
			c12.5,0,22.4,3.9,29.9,11.8c4.9,5.1,8.2,11.4,9.9,19.1l-18,0.2c-1.1-3.6-2.6-6.5-4.9-9c-4.3-4.9-9.9-7.3-17-7.3s-12.7,2.4-17,7.3
			c-4.3,4.9-6.5,12.3-6.5,22.3 M1839.6,259.4c0,9.7,2.2,17.2,6.7,22.1c4.5,5.1,10.1,7.5,16.8,7.5c6.7,0,12.3-2.4,16.8-7.5
			c2.4-2.8,4.1-6.4,5.2-10.5l18,0.4c-1.5,8.4-4.9,15.3-10.1,20.8c-7.5,7.9-17.4,11.8-29.7,11.8c-12.5,0-22.6-3.9-30.1-11.6
			c-7.5-7.9-11.2-18.5-11.2-32.2"/>
		<path id="N" d="M1913.5,302.4v-86h15.3l39.3,59.5v-59.5h15.9v86h-15l-40.4-60.2l1.7,60.2H1913.5"/>
	</g>
	<rect x="1536" class="st1" width="512" height="512"/>
</g>
<g>
	<path class="st9" d="M253.9,589.5c-48.1,24.3,15.9,76.7-6.2,108.3c-7,15.8-13,27.9-34.6,21.2c-30.1,0.9-61.2-13.6-88.3-21.2
		c-18.9-7.5-43.3-16.7-58.3,1.9c-13.2,44.5,13.7,50,51.3,59.5c-50.4,31.6-7.7,96.4,34.6,51.2c5.6-5,13.6-10,18-16.8
		c26.8-36.5,106.7,7.7,34,17.4c-83.7,3.4-70.6,96.3,28.9,55c8.2-0.3,20.4-6.5,27.6-3.9c6.7,12.5,13.2,25.3,18.5,36.5
		c22.1,60.1,92.2,21.8,54.6-28.9c-5.7-12.9-12.9-26.6-19.9-38.6c-10.9-19.8-17.7-45-25.1-68.1c-3.6-9.9,6.9-17.9,9.8-26.1
		c2-7,6.3-12.7,9.1-19.3c4.1-10.8,19.4-8.6,27.6-13.9c10.2-3.8,18.6-8.4,29.4-10.8c5.8,0.6,1.3-3.9,7.7-3.3c4.5,0,2.5-1.9,6.4-1.9
		c4.5,0,1.3-3.9,6.4-3.3c4.5-1,5.5-2.1,9.6-3.3c14.7-7.5,38.2-8.2,48.7-24.9c19.4-38.4-24.1-54.2-51.9-42.3
		c-16.8,6.9-33.1,13.5-50.6,19.4c-8.7,5.1-19.5,6.7-28.8,11.7C293.3,648.1,310.8,575,253.9,589.5"/>
	<rect y="512" class="st1" width="512" height="512"/>
</g>
<g>
	<g id="svgg">
		<path id="path0" class="st10" d="M857.7,687.9c-62,5.1-82.7,76.3-55.8,126.2c19.4,34.1,66.5,37.2,100.2,27
			c9.4-0.7,3.7-14.6,2.5-24c-0.8-6.7-1.9-7.7-6-5.6c-2.3,0.9-6.5,1.2-9.1,2.2c-17.9,3.4-38.4,3.3-50.5-8.8
			c-12.9-13-13.7-40.5-9.6-57.2c3.5-13.7,13.1-24.6,26.7-28c4.3-1.8,22.3-1.7,28.4,0.2c3.1,1.1,7.7,1.6,10.2,2.9
			c1.7,1,3.3,1,3.8-0.1c2.8-7.9,5.2-17.4,6.8-26.1C896.9,688.8,869.8,687.1,857.7,687.9 M637.6,692.1c-0.8,0.8-1,2.5-0.4,2.9
			c2.7,3.4,7.9,11.1,10.3,14.7c9.5,13.8,18.8,27.4,28.4,41.1c2.2,2.9,4.2,6.1,6.2,9c4.7,4.7-0.9,8.6-3.8,12.8
			c-13.2,18-25.9,36.3-37.3,55.6c-2.3,3.9-3.4,6.5-5.7,10.1c-0.9,1.1-1,1.5-0.7,2.5c0.7,2.4-0.2,2.3,16.9,2.1l15.6-0.1
			c5.5-3,9.5-15.5,13.9-21.2c5.9-10.5,11.1-18.5,18.5-28.7c3.4-5.4,4-6,5.5-5.2c5.1,4.3,13.1,18.6,18,25.5c4.6,7.3,9,14.6,13.1,22.2
			c5.7,8.9,1.4,6.7,23.4,7.2c18.9-0.1,19.2,1.4,14.2-8.7c-4.4-7.6-7.8-13.7-13.2-21.3c-9-13.3-17.6-25.5-26.9-38
			c-2.2-2.6-3.9-5.1-6.1-8.1c-2.8-3.8-2.8-3.6-0.8-6.6c11.4-16.1,22.9-33.4,33.8-48.5c2.1-4.1,14.3-17.7,11-19.7
			c-0.8-0.7-32.1-0.8-33.5-0.1c-0.6,0.3-4.5,5.3-4.5,5.8c-4.3,7-10.8,16.4-15.4,23.7c-3.9,5-7.8,13.6-12,17.6
			c-1.9,0.7-4.3-4.2-5.4-5.4c-2.3-3.2-4.6-7.5-7-10.8c-3.9-6.1-7.8-12-11.7-18c-2.9-4.6-5.5-10-10-13.4
			C665.5,691.3,636.5,690.5,637.6,692.1"/>
		<path id="path1_1_" class="st11" d="M576.1,767.8v192.3h192.3h192.3V767.8V575.6H768.3H576.1V767.8 M879.2,688.6
			c8.2,2,19.7,2,25.7,8c-0.6,5.5-2.5,10.2-3.6,15.2c-1.3,3.2-1.5,14.6-7,11c-12.1-4.6-32.1-6.5-43.3-1.5
			c-30.5,9.9-32.4,73.1-6.3,88.4c13.5,8.3,37.1,6.7,53.5,1.8c7-5.2,5.7,9.4,7.3,13.2c6,19-4.7,16.3-17,19.4
			c-37.6,7.4-80-3.1-93-43.3C775.4,740,811.6,678.5,879.2,688.6 M673.8,692.9c8.2,10.2,14.5,22.7,22.2,33.3c1.7,3.2,4,6.2,6,9.4
			c3.3,6.2,5.8,2.1,8.4-2.6c7.2-11.4,15.9-24.2,23-35.4c0-0.5,3.9-5.5,4.5-5.8c1.5-0.7,32.8-0.6,33.5,0.1c3.5,1.6-9.1,16-11,19.7
			c-11,15.2-22.3,32.3-33.8,48.5c-2,3-2,2.8,0.8,6.6c2.1,3,4,5.5,6.1,8.1c9.2,12.5,17.9,24.7,26.9,38c5.2,7.6,8.9,13.7,13.2,21.3
			c5.1,10,4.7,8.7-14.2,8.7c-22.1-0.5-17.5,1.6-23.4-7.2c-3.6-6.6-7.2-12.9-11.3-19.2c-3.9-6.5-7.6-12.1-11.8-18.1
			c-6.2-7.9-7.7-16.2-13.5-5.2c-7.4,10.1-12.6,18.3-18.5,28.7c-4.7,6-7.9,17.6-13.9,21.2c-6.9-0.5-34.7,1.8-32.5-2
			c-0.3-0.9-0.2-1.3,0.7-2.5c1.5-1.6,1.6-3.9,3.1-5.5c2.2-3.9,4.9-8.5,7.1-12.3c12-18.2,24-36.7,37.4-53.9c3-3.5-0.4-5.8-2-8.5
			c-2.6-3.9-4.7-7.2-7.8-11.3c-8.7-12.6-16.9-24.5-25.6-37.1c-2.4-3.5-7.6-11.4-10.3-14.7c-0.6-0.4-0.4-2.1,0.4-2.9
			c-1.1-1.4,27.9-0.6,34.3-0.8L673.8,692.9"/>
	</g>
	<rect x="512" y="512" class="st1" width="512" height="512"/>
</g>
</svg>
