<?xml version="1.0" encoding="utf-8"?>
<!-- Generator: Adobe Illustrator 24.0.2, SVG Export Plug-In . SVG Version: 6.00 Build 0)  -->
<svg version="1.1" id="Layer_1" xmlns="http://www.w3.org/2000/svg" xmlns:xlink="http://www.w3.org/1999/xlink" x="0px" y="0px"
	 viewBox="0 0 256 256" style="enable-background:new 0 0 256 256;" xml:space="preserve">
<style type="text/css">
	.st0{fill:none;stroke:#000000;stroke-width:20;stroke-miterlimit:10;}
</style>
<g>
	<g>
		<path d="M21.9,169.1c5.1,0.9,10.2,1.9,15.2,2.8c2.5,0.4,5,0.4,7.5,0.9c2.7,0.4,5.4,1.1,8.1,1.7c3,0.6,6,1.1,9,2
			c4.3,1.2,8.9,0.4,13.2,1.9c2.6,0.9,5.6,0.6,8.4,0.9c1.5,0.2,3,0.4,4.5,0.6c0.7,0.1,1.4,0.1,2.2,0c1.1-0.1,2.2-0.4,3.4-0.6
			c1.7-0.2,2.6-1.1,2.8-2.8c0.1-1.2,0.5-2.5,0.7-3.7c0.3-1.8,0.6-3.7,0.8-5.5c0.3-2.7,0.4-5.4,0.6-8.1c0-0.3,0-0.6-0.1-0.9
			c-1-2.6-0.7-5.1,0-7.6c0.6-2.1,1.1-4.2,1.6-6.3c0.1-0.7,0-1.6-0.2-2.3c-0.3-1.3-0.8-2.5-1.2-3.8c-0.4-1.4-3.5-3.4-5.7-3.4
			c-1.7,0-3.5,0.2-5.2,0.6c-1.6,0.3-2.7-0.5-3.3-1.7c-0.6-1.2-0.4-2.6,1.1-3.2c4.5-1.8,9.1-3.5,13.6-5.2c1.1-0.4,2.3-0.8,3.4-1.2
			c1.3-0.4,1.4-1.1,1.4-2.6c0-3.3-2.1-5.8-2.8-8.8c-0.1-0.4-0.3-0.7-0.3-1c0.3-2.5-0.7-4.6-1.6-6.8c-1.6-4-3.2-8.1-4.8-12.1
			c-1.3-3.3-2.6-6.6-4-9.9c-0.7-1.6-1.5-3.1-2.3-4.7c-1.1-2.4-2.1-4.8-3.2-7.3c-0.2-0.4-0.3-1-0.3-1.4c0.1-1,0.3-1.9,0.5-2.9
			c0.7,0.5,1.4,1,2.1,1.5c0.4,0.3,0.9,0.5,1.4,0.7c-0.1-0.5-0.1-1-0.2-1.5c-1.2-3.7-2.4-7.4-3.6-11.2c-0.2-0.5-0.2-1.2,0-1.6
			c1.6-2.2,0.3-4.2,0-6.3c-0.2-1-0.2-2-0.2-3.1c0.9,0,1.7,0,2.6,0c1.5,3.2,3.2,6.4,4.6,9.6c1,2.3,1.7,4.6,2.5,7
			c2.5,7.2,5.1,14.5,7.5,21.7c0.5,1.4,1,2.9,0.9,4.4c-0.1,4,1.6,7.5,2.8,11.1c0.9,2.7,1.5,5.6,2.4,8.3c0.8,2.7,1.9,5.4,2.5,8.1
			c0.4,1.8,1,3.5,2.6,4.6c0.5,0.3,1.2,0.4,1.8,0.4c3.6-0.1,7-1.6,10.7-1.9c5.4-0.5,10.8-0.1,16.1-0.5c0.9-0.1,1.8-0.5,2.7-0.8
			c0.4-0.1,0.7-0.4,1.1-0.5c1.7-0.5,3.4-1.3,5.2-1.3c5.3-0.2,10.9-1.4,15.6,2.3c2.7,2.1,5.3,4.4,8.1,6.4c0.9,0.6,2,1.1,3.1,1.2
			c1.9,0.2,3.8-0.1,5.6,0.1c1.2,0.1,2.4,0.5,3.5,1c1.2,0.5,1.2,2.1,0,2.6c-1.8,0.7-3.7,1.3-5.5,1.5c-1.6,0.2-2.9,0.6-4,1.8
			c-3,3.2-4.1,7.4-5.6,11.3c-0.9,2.4-1.2,5.1-2.5,7.3c-1.6,2.8-2.5,5.9-4,8.6c-1.9,3.5-4.3,6.9-8.4,8.7c-3.4,1.5-6.4,3.8-9.6,5.8
			c-2.2,1.3-4.5,2.1-7.1,1.8c-0.5-0.1-1,0-1.5,0c-1.4-0.1-2.8,0.3-3.3,1.6c-0.1,0.3,1.7,1.4,2.7,2c3.6,1.8,7.9,2.4,11,5.3
			c1.2,1.1,3.3,1.6,4.1,2.8c1.4,2.2,3.7,2.2,5.5,3.2c2,1.1,3.9,1.6,6.1,1.9c3,0.4,6,1.2,9,1.8c0.1,0,0.2,0.1,0.3,0.1
			c3.8,0.5,7.5,1.1,11.3,1.6c0.2,0,0.4,0,0.5,0c2.6,0.7,5.3,1.4,7.9,2.1c1.2,0.3,2.3,0.7,3.5,0.7c3.2,0.1,6.3,0.4,9.5,1.1
			c4.5,1,5.2-0.5,9.3-0.2c2.5,0.2-9.9,18-12.1,17.4c-4.2-1.2-8.4-2.2-12.6-3.3c-4.4-1.1-8.9-2.3-13.3-3.3c-3.3-0.8-6.7-1.5-10-2.3
			c-0.8-0.2-1.6-0.5-2.4-0.6c-3-0.6-6-1.1-9-1.7c-2.9-0.6-5.9-1.4-8.8-1.9c-3.4-0.6-6.9-1.1-10.3-1.6c-5.3-0.7-10.6-1.4-15.9-2.1
			c-0.4-0.1-0.8-0.1-1.3-0.2c-3.5-0.7-7.1-1.4-10.6-1.9c-3.4-0.5-6.8-0.6-10.3-1c-0.7-0.1-1.4-0.4-2.1-0.5c-2.2-0.5-4.3-1.1-6.5-1.4
			c-2.5-0.4-5-0.6-7.5-0.9c-3.3-0.4-6.7-0.9-10-1.3c-1.1-0.2-2.2-0.5-3.4-0.5c-1.9-0.1-3.8,0.1-5.8,0.1c-1.7,0-3.4,0.2-5-0.1
			c-1.7-0.3-3.2-1.3-4.9-1.6c-3.2-0.7-6.4-1.1-9.6-1.6c-0.2,0-0.3-0.1-0.5-0.2c-3.1-0.7-6.1-2.2-9.5-2c-2.1,0.2-4.3-0.5-6.4-0.9
			C23.8,185.8,20.1,168.7,21.9,169.1z M144.6,189.6C144.6,189.5,144.6,189.5,144.6,189.6c0.3-0.1,0.5-0.1,0.7-0.1
			c0.5-0.1,1-0.2,1.5-0.4c-0.3-0.5-0.5-1.2-0.9-1.4c-1.8-1.2-3.7-2.3-5.6-3.3c-2.5-1.3-5.2-2.3-7.7-3.6c-1.7-0.9-3.1-2.5-5.3-2.4
			c-0.5,0-0.9-0.5-1.4-0.7c-1.1-0.5-2.1-1-3.2-1.4c-2.6-1-5.8-0.8-7.4-3.9c-0.3-0.5-0.9-1-1.5-1.2c-2.7-1.1-4.9-2.9-6.8-5.1
			c-0.5-0.5-1-1.1-1.7-1.4c-1.7-0.9-2.3-2.4-2.5-4.1c-0.1-0.5,0-1-0.2-1.4c-0.2-0.6-0.5-1.1-0.8-1.6c-0.2,0.6-0.4,1.2-0.4,1.8
			c0,0.9,0.3,1.8,0.4,2.7c0.1,1.3,0.3,2.5,0.2,3.8c-0.1,2-0.4,4.1-0.6,6.1c-0.1,1-0.2,2-0.5,3c-1,3.4,0.9,6.3,4.5,6.5
			c0.5,0,1,0,1.4,0.3c2.4,1.6,5,1.8,7.8,1.9c2,0.1,4.2,0.1,5.8,1c3.5,2,7.3,0.9,10.8,1.8c3.7,0.9,7.8,0.2,11.2,2.8
			C142.8,189.6,143.8,189.4,144.6,189.6z"/>
	</g>
</g>
<circle class="st0" cx="128" cy="128" r="108"/>
</svg>
