<?xml version="1.0" encoding="utf-8"?>
<!-- Generator: Adobe Illustrator 24.0.2, SVG Export Plug-In . SVG Version: 6.00 Build 0)  -->
<svg version="1.1" id="Layer_1" xmlns="http://www.w3.org/2000/svg" xmlns:xlink="http://www.w3.org/1999/xlink" x="0px" y="0px"
	 viewBox="0 0 512 512" style="enable-background:new 0 0 512 512;" xml:space="preserve">
<style type="text/css">
	.st0{fill-rule:evenodd;clip-rule:evenodd;fill:#0474AC;}
	.st1{fill-rule:evenodd;clip-rule:evenodd;fill:none;}
</style>
<g id="Layer_2_1_">
	<g>
		<path class="st0" d="M315.1,126.1c4.8,28.7,5.7,61.3-4.5,88.4c-8.3,29.1-27.2,63.6-52.3,89.7c-9.7,9.5-20,20.6-34.9,31.2
			c-0.4,0.9-11.1,5.7-4.7,5.6c1.5,0.6,2.4,0.5,3.9,0.9c6,1.1,11.5,3.1,18.4,3.7c28.4,4.5,61.2,7,90.6,3.3
			c19.1-1.7,33.6-7.9,52.7-9.8c9-5,78,18.7,61,9.1c-11.2-7.8-25.3-14.4-34.8-24.8c-17.9-27.6-31.6-30.2-61.8-27
			c0.4-20.2,8.4-41,19.3-57.7c6.5-11.3,22.6-20.1,18.9-34.6C381.5,169.3,351,131.5,315.1,126.1"/>
		<path class="st0" d="M92.9,142.2c37.2,27.6,88.8,59.8,110.1,111.2c8.3,23.8,14,47.9-15.1,60.6c-25,14.3-55.7,11-85.7,12.8
			c-3.6,0.3-47.6-3.7-36.6,3.4c8.2,2.9,19.3,3.5,28.7,4.2c15.3,1.4,72.4-2.2,47.8,25c-85.6,66.9,45.4-12.5,65.7-23.2
			c20.5-11.4,39.5-31.3,54.6-48.3c4.9-7.3,11.1-14.7,16.3-23.3c-5.7-17.8-16.2-33.5-26.2-48.7c-19.6-27.4-46-49.2-78.9-59.3
			C148.7,146.7,122.1,140.1,92.9,142.2"/>
	</g>
</g>
<rect class="st1" width="512" height="512"/>
</svg>
