<?xml version="1.0" encoding="utf-8"?>
<!-- Generator: Adobe Illustrator 24.0.2, SVG Export Plug-In . SVG Version: 6.00 Build 0)  -->
<svg version="1.1" id="Layer_1" xmlns="http://www.w3.org/2000/svg" xmlns:xlink="http://www.w3.org/1999/xlink" x="0px" y="0px"
	 viewBox="0 0 512 512" style="enable-background:new 0 0 512 512;" xml:space="preserve">
<style type="text/css">
	.st0{fill-rule:evenodd;clip-rule:evenodd;fill:#FFFFFF;}
	.st1{fill-rule:evenodd;clip-rule:evenodd;}
	.st2{fill-rule:evenodd;clip-rule:evenodd;fill:#F0E614;}
	.st3{fill-rule:evenodd;clip-rule:evenodd;fill:#E60000;}
	.st4{fill-rule:evenodd;clip-rule:evenodd;fill:none;}
</style>
<path class="st0" d="M216.9,280.9c0,30.5,15.7,58,42.2,73.8c22,13.1,35.4,14.3,50.4,14.3h3.3h10.6V240.4l4.7-3.5l61.4-46.1
	c0,0,32.2-2.1,40.5-2.6c4.6-0.3,9.7-0.8,13.2-1.2c3.3-0.4,4.6-1.4,4.6-2.4s-0.7-1.4-1.3-2.1c-0.7-0.5-5.5-2.9-11.5-5.1l0,0
	c-3.1-1.2-12.3-4.1-16.2-5.4s-15.2-4.6-18.5-5.6c-1-1.4-2.2-2.8-3.4-3.9c-10.9-11.8-27.5-18.9-44.4-18.9c-13.4,0-26.5,3-38.5,9H63.4
	v7.2c0,10.9,12.3,19.1,28.6,19.1h69l55.9,40.2V280.9"/>
<path class="st1" d="M436.4,182.1c0,0-29.1-7.9-40.4-8.9c0,0-44.4,24.4-56.7,32.6c-12.4,8.1-14.8,20.4-15.3,25.2l63.3-47.6H437
	C438.1,183.4,436.4,182.1,436.4,182.1z"/>
<path class="st1" d="M224,281c0,28.4,14.7,53.2,38.6,67.5c24,14.3,36,13.2,53.6,13.2v-125c0.1-11.1,3.3-25.7,17.7-35.4
	c13-8.8,57.9-33.8,57.9-33.8v0.1c-7.7-8.4-21.6-16.8-39.3-16.8c-21.7,0-36.7,9-36.7,9H70.5c0,6.7,10,11.8,21.5,11.8h71.3l60.8,43.8
	V281"/>
<path class="st1" d="M372.6,170.8c0,2.5-2,4.5-4.5,4.6c-2.5,0-4.5-2.1-4.5-4.6s2-4.6,4.5-4.6C370.6,166.4,372.6,168.3,372.6,170.8
	L372.6,170.8z"/>
<polygon class="st1" points="316.5,189.8 344.3,174.1 356.5,175.1 316.4,197.8 316.4,189.8 "/>
<path class="st2" d="M163.4,171.6h102.2c-22.8,0-41.5,18.7-41.5,43.8L163.4,171.6z"/>
<path class="st3" d="M386.2,170.5c-10-8.6-22.7-13.4-35.9-13.4v-6.3h2.2c17.7,0,31.6,8.3,39.3,16.6L386.2,170.5L386.2,170.5z
	 M387.3,183.4L343,216.7c0,0-0.5-4.8,6.2-10.3s47-33,47-33L387.3,183.4z"/>
<path class="st0" d="M297.8,268.4v-22.3c0-9.3-3.8-15.9-12.3-22L249.3,198c-4.1,4.6-6.6,10.6-6.6,17.3c0,8.4,3.9,15.9,10.1,20.6
	C252.7,236.1,297.8,268.4,297.8,268.4z"/>
<rect y="0.5" class="st4" width="512" height="512"/>
</svg>
