<?xml version="1.0" encoding="utf-8"?>
<!-- Generator: Adobe Illustrator 24.0.2, SVG Export Plug-In . SVG Version: 6.00 Build 0)  -->
<svg version="1.1" id="svg" xmlns="http://www.w3.org/2000/svg" xmlns:xlink="http://www.w3.org/1999/xlink" x="0px" y="0px"
	 viewBox="0 0 1920 1080" style="enable-background:new 0 0 1920 1080;" xml:space="preserve">
<style type="text/css">
	.st0{fill-rule:evenodd;clip-rule:evenodd;fill:#090909;}
	.st1{fill-rule:evenodd;clip-rule:evenodd;fill:#0C9F4A;}
</style>
<g id="svgg">
	<path id="path0" class="st0" d="M1695,241.4c-48.3,0.5-22.5,2.8-67.1,3.7c-31.3,0.5-28.5-0.5-28.5,12.4c0,12-0.5,11.5,13.3,12
		c15.6,0,12.4,3.7,25.7,4.6c8.7,1.4,16.5,2.3,22.5,6.4c0.9,2.8,6.4,2.3,7.4,5.1c0.5,0.9,1.8,2.3,2.8,2.8c9.7,7.8,11,22.5,16.5,33.6
		c0,27.1,0.9,129.2,0,138.3c-0.9,5.1-3.7,6-7.8,3.2c-7.4-2.8-12-5.5-19.8-7.8c-14.7-5.5-25.3-7.8-42.7-10.1
		c-36.8-6-69.4,0.5-100.2,15.6c-20.7,9.7-38.1,22.1-53.3,40.4c-58.4,61.6-65.7,172.8-26.7,246.4c30.3,67.1,108,109.9,181.6,84.1
		c66.2-20.7,70.8-77.7,69.9-6.9c1.4,1.4,3.7,3.7,5.1,5.1c15.6,0.9,29-2.3,42.3-3.2c6.4-1.4,84.1-3.2,87.8-6
		c-1.8-14.7,7.4-26.2-15.6-23.4c-27.6,0.5-43.2-11-49.6-33.6c-5.1-94.7-0.9-497.3-2.8-522.6C1755.2,240.5,1730.8,241,1695,241.4
		 M976.1,252c-3.2,3.7-9.7,3.2-12.9,6.9c-5.1,3.7-11,9.7-13.8,15.6c-10.1,13.8-9.2,46,1.8,57c3.2,4.6,7.8,10.1,12,12.4
		c1.8,2.8,8.7,2.3,9.2,5.5c0,3.7,32.2,3.2,33.1-0.5c2.8-3.7,12.4-4.1,14.2-8.3c0.5-0.9,1.4-2.3,2.3-2.8c2.3-0.9,2.8-6,5.5-6.9
		c5.5-5.5,6-15.6,8.7-23.4c3.7-12.4-2.3-33.1-11-40C1016.6,253.9,990.4,247,976.1,252 M444.8,290.6c-2.3-0.5-1.4,16.5-1.4,20.7
		c102.5,42.7,63.9-16.1,71.2,252.8l-0.5,205c-1.4,2.8-4.6,8.3-5.1,10.6c-0.5,3.2-4.1,2.3-5.1,5.1c-0.5,0.9-1.4,2.3-2.3,2.8
		c-3.2,2.8-7.8,3.2-11,6c-1.8,1.8-3.2,2.3-9.7,2.8c-12,1.4-20.7,4.6-33.1,5.1c-7.4,0-7.4-0.5-6.9,13.8c0,7.4,0.5,10.1,1.4,10.6
		c1.8,0.9,272.6,0.9,274.9,0c30.3-2.3,61.6-9.7,87.3-24.8c17-9.2,33.1-20.7,46-37.7c4.1-6,10.6-12.4,13.3-18.8
		c2.3-3.2,4.6-16.1,6.4-15.6c3.2-4.6,3.7-17.5,7.4-23.4v-24.4c0.5-32.2-1.4-22.5-5.1-40.9c0-7.4-4.1-5.5-5.1-11
		c-3.2-12.9-14.7-25.3-23-34.5c-28-29.9-67.1-44.1-108-51.5c-20.7,0-16.5-11.5-1.4-12c5.1,0,9.7-3.2,14.7-3.7
		c10.1-3.2,19.3-8.7,28.5-12.9c1.8-1.8,12-6.9,13.8-6.9c1.8-0.5,2.8-4.6,5.1-5.1c9.7-6,17.9-15.2,25.7-23
		c4.6-6.4,8.7-12.4,12.4-19.3c2.3-2.3,2.8-12.9,6.9-12.4c1.4-3.2,1.8-13.3,3.7-17.9c12.9-80-35.9-124.1-109.9-137.9
		C689.3,286.9,445.2,290.6,444.8,290.6 M677.3,317.3c82.7,5.1,95.6,92.4,71.2,155.4c-8.3,17-21.6,33.6-40,41.8
		c-2.3,0.5-4.1,1.4-4.1,1.8c-0.5,1.8-7.4,2.3-9.2,3.7c-5.1,4.6-15.6,3.2-23.9,6c-9.7,2.8-72.6,4.1-74.9,1.8
		c-1.8-2.3-2.3-206.8-0.5-208.7C624.5,316.8,639.2,315.4,677.3,317.3 M1342.4,445.5c-35.4,5.5-65.3,27.6-87.8,54.2
		c-14.7,12-9.7-3.7-10.6-23c0-21.1,0-24.8-1.4-25.7c-35.4-4.1-64.3,4.6-108.9,4.6c-23-2.3-18.4,8.7-17.9,21.1
		c6,7.8,23.9,4.1,30.8,9.7c2.8,3.7,6,0.9,8.7,5.1c1.4,1.8,2.8,2.8,3.2,2.8c4.6,3.2,8.7,9.7,11,14.7c1.8,1.4,4.1,12,5.1,13.3
		c1.4,1.4,0.9,250-0.5,253.3c-2.3,11.5-9.2,18.4-19.3,23c-22.5,8.3-38.6-0.5-35.4,17c0,12.9-12.4,11.5,99.3,11.5
		c63.9,0,95.1-0.5,96.5-0.9c1.8-0.9,2.3-20.2,0.5-21.6c0.5-1.8-37.7-3.2-38.6-6c-1.8-1.8-15.6-2.3-14.2-5.5c0-0.5-0.9-1.4-1.8-1.4
		c-1.8,0.5-5.1-2.8-6.4-3.7c-5.5-3.2-5.5-15.2-10.6-19.3c0-56.1-0.5-168.7-0.5-224.8c4.6-6,7.8-13.3,13.3-18.8
		c3.2-5.5,18.4-17.9,24.4-22.5c6.4-4.1,51-29,45-6.9c-15.6,48.3,42.7,68.9,67.1,42.3C1423.3,498.8,1397.1,435.4,1342.4,445.5
		 M989,450.6c-29,1.4-53.3,6-93.8,5.1c-7.4,33.6,5.1,22.1,28,30.3c2.3,2.8,11,2.3,12.9,5.5c1.8,2.3,5.5,2.3,6.9,5.1
		c8.3,6.9,14.7,16.1,16.1,27.6c1.4,5.5,1.8,244.5,0.5,248.2c-0.9,5.1-3.7,18.8-8.7,19.8c-2.3,0.5-1.8,4.6-5.1,5.1
		c-6.4,5.5-40,6.4-40.4,9.2c-2.3,3.2-3.2,18.4,0.9,21.6h87.3c100.2,0,90.1,0.9,90.1-9.7c0.5-13.8,0.9-13.3-11-15.2
		c-17.9-4.1-36.8-9.2-41.4-28.5c-0.9-2.8-1.4-22.5-1.4-161.8c0-135.1,0-158.6-1.4-160C1027.6,449.7,1020.7,449.7,989,450.6
		 M1612.2,471.3c40.4,7.4,58.4,28,76.3,63c0,55.2,0,166.4,0,221.5c-6,5.5-11,12.4-17.9,17c-1.8,0.5-1.8,4.6-5.1,4.6
		c-3.7,0.9-3.7,4.6-7.8,5.5c-4.1,2.8-10.6,8.3-17,9.2c-6,1.4-5.1,5.5-14.2,5.1c-58.8,11.5-99.3-17-121.8-68.9
		c-22.5-57.9-17.5-137.9,6.9-194.4c0-3.2,4.1-4.6,4.6-6.9c2.8-8.3,10.1-14.7,14.2-22.1c6-6,17.5-17,24.4-21.6
		C1570.4,474.9,1595.2,464.8,1612.2,471.3 M689.8,558.1c11.5,5.1,34.9,6.9,46.4,16.1c21.1,13.3,39.5,34.9,46.4,59.3
		c11.5,52.4,1.4,121.3-45.5,149.4c-3.2,0.9-6.9,6.4-10.6,6c-0.9,0-2.3,0.5-2.8,1.4c-1.8,1.8-12,1.8-13.3,4.6
		c-2.8,3.7-21.6,3.2-27.1,4.6c-25.7,2.8-59.3-0.9-76.8-18.8c-4.1-4.6-7.4-10.6-9.7-17c-0.5-8.3-2.8-198.6,1.4-204.5
		C617.1,556.3,684.7,556.8,689.8,558.1"/>
	<path id="path1" class="st1" d="M256.8,442.8c-17.5,3.2-44.1,5.5-58.8,15.6c-1.8,2.3-7.4,2.3-8.7,4.6c-2.8,2.8-7.4,4.6-11,6.4
		c-3.7,0.5-4.1,5.5-7.4,5.5c-3.2,0.5-2.8,3.2-5.1,4.1c-3.7,1.8-12.4,12.9-16.1,14.7c-4.1,4.6-11,13.3-14.7,17.9
		c-4.6,8.7-11,16.1-14.7,25.7c-0.9,5.5-4.6,4.6-5.1,8.7c-12.4,35.4-23,75.4-17.9,113.5c3.7,10.1,2.3,28,6,36.8
		c5.1,16.5,8.3,34.5,17,49.2c16.1,35.4,46,64.3,83.2,78.1c14.7,7.8,34,8.7,50.1,12c23.4,4.1,58.8-0.9,80.4-8.7
		c0.5-1.4,2.8-2.3,9.7-3.7c5.5-1.4,5.5-3.2,12.4-6.4c12.9-6.9,17.9-12.4,29-20.7c4.6-2.8,2.3-4.1,6.9-6.4
		c5.5-4.1,8.3-10.1,13.3-14.2c3.7-3.7,0-1.8,8.3-11c1.4-1.4,2.8-4.1,3.2-5.5s1.4-2.8,2.3-2.8c2.3-0.9,2.8-5.1,5.5-7.4
		c2.8-3.2,5.5-10.6,1.4-12c-3.7-1.8-6.4-4.1-10.1-6c-1.8-2.3-7.8-3.2-9.2-5.1c-1.8-4.6-7.8,6-8.7,7.8c-3.7,9.7-12,17.9-17.9,26.2
		c-0.5,0.9-1.4,2.3-2.3,2.3c-1.8,0-4.6,6-6,6c-1.8,0.5-6.4,7.8-9.2,8.3c-1.4,0.5-2.8,1.4-2.8,2.8c-6.4,4.6-14.7,9.7-24.4,11.5
		c-4.6,0.5-6.9,2.3-10.1,5.1c-16.1-0.5-60.2,2.3-61.1-2.3c-26.2-6.9-49.6-23-64.3-46.4c-16.1-25.3-25.3-53.8-26.2-85
		c0.9-14.2-7.8-29,2.3-35.4c40.9,0,243.1,0.5,243.6-0.9c2.3-0.9,2.3-41.4,0.5-46.9c-4.6-21.1-8.3-51.5-21.1-69.9
		c-3.2-2.8-4.1-8.3-6.9-12c-0.9-2.8-4.1-2.3-5.1-6c-1.4-3.7-3.2-1.8-4.6-5.5c-0.9-3.2-8.3-6.9-9.2-10.1c0-0.9-6.4-2.3-6-4.1
		c0.5-1.8-13.3-7.8-13.8-9.2c-10.6-4.6-18.8-10.1-30.8-13.3C303.7,445.1,275.2,440.5,256.8,442.8 M278.4,471.3
		c6.4,2.3,17.9,4.1,23.9,6.9c6.9,5.5,21.6,19.8,26.7,27.6c11,21.6,19.8,68,15.6,90.5c-1.8,1.4-165.5,2.3-170.5,0.9
		c-7.4-2.3,0.5-14.7-0.9-22.5c0.9-18.4,5.1-34.9,13.8-49.2c5.1-13.8,12.9-22.1,22.5-31.7c10.6-9.7,20.7-16.5,35.4-19.3
		C255.9,471.3,266.9,466.7,278.4,471.3"/>
</g>
</svg>
