<?xml version="1.0" encoding="utf-8"?>
<!-- Generator: Adobe Illustrator 24.0.2, SVG Export Plug-In . SVG Version: 6.00 Build 0)  -->
<svg version="1.1" id="svg" xmlns="http://www.w3.org/2000/svg" xmlns:xlink="http://www.w3.org/1999/xlink" x="0px" y="0px"
	 viewBox="0 0 1920 1080" style="enable-background:new 0 0 1920 1080;" xml:space="preserve">
<style type="text/css">
	.st0{fill-rule:evenodd;clip-rule:evenodd;fill:#A42A33;}
	.st1{fill-rule:evenodd;clip-rule:evenodd;fill:#848383;}
</style>
<g id="svgg">
	<path id="path0" class="st0" d="M300.5,191.1c-0.4,2.6,1.3,6,1.7,5.6C301.8,195.4,301.4,182.9,300.5,191.1 M1675,192
		c0,1.7,0,2.6,0.4,1.7C1675.8,192.4,1675.4,187.2,1675,192 M286.3,192.8c0,3.5,0.9-0.4,0.4-1.3C286.7,190.7,286.3,191.1,286.3,192.8
		 M1672.8,198.4c-0.9,2.6-0.9,4.3-4.3,5.2c1.7,0,3.5,0.4,3.9-1.7C1673.3,199.7,1676.3,193.3,1672.8,198.4 M276.3,208l-2.2,2.2
		C276.8,208.4,281.9,202.3,276.3,208 M394.7,206.2c2.6,0,6.5,0,8.6,0C409.4,205.8,388.6,205.8,394.7,206.2 M481.5,206.2
		c39.3,0,103.2,0,142.1,0c39.3,0,6.9,0-71.3,0S442.6,206.2,481.5,206.2 M718.6,206.2c1.7,0.4,9.9,0,2.6-0.4
		C718.6,205.8,717.3,206.2,718.6,206.2 M773.9,206.2c9.5,0,24.6,0,33.7,0C830.1,205.8,750.6,205.8,773.9,206.2 M878.9,206.2
		c13,0.4,70.8,0,18.1,0C876.7,205.8,869,206.2,878.9,206.2 M1023.2,206.2c32.4,0,86,0,118.8,0s6,0-59.2,0
		C1017.6,206.2,990.8,206.2,1023.2,206.2 M1329,206.2c56.6,0,149,0,205.2,0C1671.5,205.8,1191.2,205.8,1329,206.2 M1653.8,206.2
		c1.7,0,4.3,0,5.6,0C1663.7,205.8,1649.5,205.8,1653.8,206.2 M274.2,227c0,8.2,0,11.7,0.4,7.3C275,228.7,274.2,205.4,274.2,227
		 M359.7,217c0,3.5,0.9-0.4,0.4-1.3C360.1,215.3,359.7,215.7,359.7,217 M836.1,220c0.4,0.9,6,0.9,7.8,0
		C845.6,218.7,834.4,219.2,836.1,220 M949.7,220c2.2,0.4,3,0.4,3.5,0c1.3-1.3-5.2-0.4-6.5-0.9L949.7,220 M707,221.3
		c0.4,0.4,1.7,0.9,3,1.3C716.1,224.8,707.4,220.5,707,221.3 M698.3,223.5c-1.7,1.7-2.2,2.2-0.9,2.2
		C698.8,225.2,702.2,219.6,698.3,223.5 M550.2,225.2c-2.2,4.8,4.8-2.2,1.7-1.3C551,223.5,550.2,224.4,550.2,225.2 M586.5,223.9
		c0.9,0,1.7,0,2.6,0C590.8,223.9,584.7,223.9,586.5,223.9 M1005.5,224.8c-0.9,0.9-0.9,4.3-0.9,5.6c0.4-3.5,1.3-5.6,4.8-6.9
		C1008.1,223.5,1006.3,223.5,1005.5,224.8 M1011.9,224.4c1.3,0,3.5,0,4.3,0C1018.8,223.9,1008.5,223.9,1011.9,224.4 M1280.2,224.4
		c0.9,0,2.2,0,3.5,0C1285.8,223.9,1278,223.9,1280.2,224.4 M1307.8,224.4c4.3,0,11.2,0,16,0C1334.6,223.9,1297.9,223.9,1307.8,224.4
		 M1418.8,224.4c9.1,0,23.8,0,32.4,0C1473.7,223.9,1395.9,223.9,1418.8,224.4 M1597.2,223.9c0.4,0.4,34.6,0.4,35,0
		C1633.9,223.5,1595.9,223.5,1597.2,223.9 M1472,224.8c0.9,0,1.7,0,2.6,0C1476.3,224.4,1470.2,224.4,1472,224.8 M493.6,225.7
		c0,0.9,5.2,0,5.2-0.4C498.8,224.8,493.6,224.8,493.6,225.7 M500.9,225.7c-2.6,0.9,7.3-0.4,6.5-0.4
		C507.9,224.8,502.7,225.2,500.9,225.7 M1085.8,225.7c0.9,0,2.2,0,3,0C1090.6,225.2,1083.6,225.2,1085.8,225.7 M1575.6,226.5
		c-4.8,3.9,6.9-0.4,6.9-0.9C1581.7,224.4,1577.4,224.8,1575.6,226.5 M1193.4,227c0.4,2.6,3.5-1.3,1.3-1.3
		C1193.8,225.7,1193.4,226.5,1193.4,227 M1543.7,227.4c-3,3,2.2,0,1.7-0.9C1545.4,225.7,1545,225.7,1543.7,227.4 M767,228.7
		c0,0.4,0.4,0.9,1.7,1.3C772.6,232.6,767,226.5,767,228.7 M1056.4,230.4c0,3,0.9,2.2,1.3,0C1057.3,228.3,1056,227.4,1056.4,230.4
		 M1186,230c-2.6,3-2.2,3.5,0.4,0.9S1188.6,227,1186,230 M678,233.4c1.3,1.3,2.6,2.6,2.6,2.6C680.6,234.7,671.6,226.5,678,233.4
		 M1004.2,233.9c0,1.3,0.4,2.2,0.4,2.2C1005.9,235.2,1003.7,228.3,1004.2,233.9 M915.2,236l-2.2,2.2
		C915.6,236.5,920.8,230.4,915.2,236 M1340.2,236c0,3.5,0.9-0.4,0.4-1.3C1340.7,233.9,1340.2,234.3,1340.2,236 M881.5,239.5
		c3.5,3.5,4.8,3.9,0.9,0C878.9,236,877.6,235.6,881.5,239.5 M1175.6,239.5l-3,3C1175.2,240.8,1183.4,232.1,1175.6,239.5
		 M801.6,239.5c-2.2,3-3.9,4.8-5.6,7.3C798.1,247.7,807.6,232.1,801.6,239.5 M1392.1,243.8c0.4,7.3,1.7,10.4,6.5,15.1
		c-0.9-3-6.5-9.5-5.6-16.8C1393.3,235.6,1392.1,238.2,1392.1,243.8 M554.9,242.9c6.9,7.8,5.2,3.5-1.3-2.2
		C551.5,239.1,552.3,239.9,554.9,242.9 M1006.3,239.1c0,0.4,3.9,3.5,4.8,4.3C1010.2,242.9,1005.9,237.8,1006.3,239.1 M1268.9,242.9
		c1.3,1.3,2.6,2.6,2.6,2.6C1271.5,244.2,1262.9,236,1268.9,242.9 M276.8,242.9c1.3,0,3,0,4.3,0C284.1,242.5,273.3,242.5,276.8,242.9
		 M313.5,242.9c0.9,0,2.2,0,3.5,0C319.1,242.5,311.3,242.5,313.5,242.9 M585.6,242.9c1.3,0,3,0,4.3,0
		C592.9,242.5,582.2,242.5,585.6,242.9 M739.8,245.1c0.9,0,1.7,0,2.6,0C744.1,244.7,738.1,244.7,739.8,245.1 M835.7,245.1
		c1.7,0,4.8,0,6.5,0C846.5,244.7,831,244.7,835.7,245.1 M942.4,245.1c1.3,0,3,0,3.9,0C949.3,244.7,939.4,244.7,942.4,245.1
		 M1169.2,246c-3,3,2.2,0,1.7-0.9C1170.9,244.2,1170.9,244.2,1169.2,246 M1638.3,245.1c0.9,0,2.2,0,3.5,0
		C1643.4,244.7,1635.7,244.7,1638.3,245.1 M704,264.5c0.4,49.7,1.7-12.5,0.4-19C704,245.1,704,253.7,704,264.5 M995.1,246
		c-0.9,0,5.2,12.5,5.2,8.6c0.4-2.6-1.7,0-1.3-1.7C999.8,252.4,995.5,242.9,995.1,246 M1419.7,247.3c-3.9,2.6,3.5-0.4,2.6-0.9
		C1421.9,246,1420.6,246.4,1419.7,247.3 M1272,255c0,4.8,0,6.5,0.4,4.3C1272.8,255.9,1272,242.5,1272,255 M1584.3,254.2
		c-0.4,28.5,0,46.7,0.4,47.1C1585.1,305.6,1585.1,223.5,1584.3,254.2 M1602,277.1c0,42.8,0.4-4.8,0-15.1
		C1602,253.7,1602,260.6,1602,277.1 M1224.9,249.4c0.4,0.9,6,6.5,2.2,2.2C1224.5,247.7,1224,247.7,1224.9,249.4 M1320.8,249
		c0,0.4,3.9,3.5,4.8,4.3C1324.7,252.9,1320.3,247.7,1320.8,249 M1165.3,251.1c-2.2,3.5,1.3,1.3,1.3-0.9
		C1166.6,249.8,1165.7,250.3,1165.3,251.1 M821.4,253.3l-3,3C821.9,254.2,828.8,246,821.4,253.3 M1338.9,252
		c-1.3,1.7-0.4,2.6,0.4,0.4C1340.7,250.3,1340.2,249.8,1338.9,252 M558,254.6c0,2.2,0,3,0.4,2.2C558.4,255,558,249,558,254.6
		 M1484.5,254.6l-2.2,2.2C1484.9,255.5,1490.1,249,1484.5,254.6 M1015,275.3c0,17.7,0,22.9,0.9,24.2c1.3,2.6,1.3-1.3,0.4-1.3
		c-0.9-1.7-0.9-37.6-0.9-45.4L1015,275.3 M1633.5,257.6c0,2.2,0,3,0.4,2.2C1633.9,258.1,1633.5,252,1633.5,257.6 M747.2,256.3
		c0,2.6,1.3,1.3,0.9-0.4C747.6,254.2,747.2,254.2,747.2,256.3 M1043,258.5c0,2.2,0,3.5,0.4,2.2C1043.9,258.5,1043,252.4,1043,258.5
		 M1162.7,256.3c-3,3.5,1.7,0,1.7-0.9C1164.4,254.2,1164.4,254.2,1162.7,256.3 M1657.7,255.5c-6,2.2,3,0,3,2.6
		c0.9,1.7,0.9,1.7,0.9,0.4c0.4-2.2-3.9-2.6-0.9-3C1664.6,254.2,1659,255,1657.7,255.5 M1649.1,258.9l-1.7,2.2
		C1649.9,258.9,1654.7,254.2,1649.1,258.9 M625.3,260.2c0,1.7,0,2.2,0.4,1.3C626.2,259.8,625.8,255.9,625.3,260.2 M859.5,264.1
		c0,3,0,4.3,0.4,2.6C860.3,264.5,859.5,256.3,859.5,264.1 M816.3,274.9c0,8.6,0,12.1,0.4,7.8C817.1,277.1,816.7,252.4,816.3,274.9
		 M1491,265c0,2.2,0,3.5,0.4,2.2C1491.4,265,1491,258.9,1491,265 M1522.9,261.9c0.9,1.3,4.3,1.3,6,0.9
		C1527.7,263.7,1520.3,260.2,1522.9,261.9 M557.5,264.5c0,1.7,1.7,6,0.9,1.3C558,262.4,557.5,261.5,557.5,264.5 M1637,262.8
		c0.9,0.9,5.6,0.9,6,0.4C1643.9,262.4,1636.5,262.4,1637,262.8 M1332,265c1.7,1.7,0.4,3,1.3,3.5c2.6,0-2.2-4.3-3-5.6L1332,265
		 M695.3,271.4c0,3.9,0,5.6,0.4,3.5C696.2,271.9,695.3,261.1,695.3,271.4 M971.8,274c0,11.7,0.9,10.4,0.9,0
		C972.6,263.7,971.8,262.4,971.8,274 M281.1,267.6c-2.2,0.9,4.3,0.9,3,0C284.1,266.7,282.8,266.7,281.1,267.6 M1272.4,268
		c-0.4,3-7.8-1.3-5.6,0.4c1.3,1.3,4.8,1.7,6,0C1273.7,267.6,1273.3,266.3,1272.4,268 M312.2,268c1.3,0,3.5,0,4.8,0
		C320,267.6,308.7,267.6,312.2,268 M289.3,268.9c1.3,0,3.9,0,5.6,0C298.4,268.4,285.8,268.4,289.3,268.9 M274.2,276.6
		c0,3.9,0,5.6,0.4,3.5C275,277.1,274.2,266.3,274.2,276.6 M1155.8,271.9c0,5.6,1.7-1.7,0.4-2.2
		C1156.2,269.7,1155.8,270.6,1155.8,271.9 M509.6,271c0,0.4,0.4,1.7,0.4,2.6C511.7,277.1,510,269.3,509.6,271 M783.9,274.9
		c0.4,6-1.7,3.9-2.6,5.6c3.9,2.6,3-7.8,2.6-10.8V274.9 M1003.7,274c0,2.2,0,3,0.4,2.2C1004.2,274.5,1003.7,268.4,1003.7,274
		 M559.3,273.2c0,0.9-4.8,1.3-1.3,1.3C560.6,275.3,559.7,271.4,559.3,273.2 M415.9,276.2c0,3.5,0.9-0.4,0.4-1.3
		C416.3,274,415.9,274.9,415.9,276.2 M1069.4,274.9c0,0.4,3.9,3.5,4.8,4.3C1073.7,278.8,1069.4,273.6,1069.4,274.9 M1335.5,280.1
		c0,2.6,0,3.9,0.4,2.2C1335.9,280.5,1335.5,272.7,1335.5,280.1 M418,280.1c0.4,0.9,7.3,0,2.2-0.4C418.4,279.7,417.6,279.7,418,280.1
		 M1156.2,282.7c-0.4,3.5,1.3,5.2,1.3,3.5c-0.4-0.9-1.3-5.6-1.3-7.3V282.7 M1268.9,280.5c0,1.3-1.3,0-2.2,1.3
		c-0.9,0.9-0.9,0.9,0.4,0.4c0.9-0.9,4.3,0,4.8-1.3c0-0.9-1.7,0.4-2.2-0.9C1268.9,279.7,1268.9,279.7,1268.9,280.5 M1662.9,281.8
		c0,1.3-2.6,3.9-3,3c-1.3,1.7-3.5,8.6-5.6,8.6c0,0.9,7.3-2.6,4.8-3.9c-0.9-0.4-0.9-0.4,0-0.4c1.3,0,4.3-4.3,3-4.3
		c-0.4,0,0-0.4,0.4-0.4C1663.7,284,1662.9,280.1,1662.9,281.8 M694,284.8c-1.7,1.3,1.3,2.6,0,3c-0.4,0-0.9,0.4-1.3,1.3
		C692.7,294.8,697.5,281,694,284.8 M859.5,290.5c0,15.1,1.3-3.5,0.4-6C859.5,284,859.5,286.6,859.5,290.5 M1638.3,284.8
		c0.9,0,2.2,0,3.5,0C1643.4,284.4,1635.7,284.4,1638.3,284.8 M274.2,295.6c0,13,0.4-1.3,0.4-4.3
		C274.6,288.7,274.2,290.9,274.2,295.6 M1272,290.5c0,5.6,0.9-0.4,0.4-2.2C1272,287.4,1272,288.3,1272,290.5 M580.4,296.5
		c0,13,0.4-1.3,0.4-4.3C580.4,289.6,580.4,291.3,580.4,296.5 M781.7,288.7c-0.4,1.3,0,11.7,0,14.7c0-2.6,0-14.7,1.3-15.1
		C784.7,287.4,781.7,287.9,781.7,288.7 M1080.2,287.9c0,0.4,3.9,3.5,4.8,4.3C1084.5,291.7,1080.2,286.6,1080.2,287.9 M1304.8,288.3
		c-0.4,2.2,0,14.3,0.4,13.4C1305.7,302.5,1305.7,284.4,1304.8,288.3 M1317.3,290.9c3.5,4.3,5.6,3.5,3.9,2.2
		c-0.9,0.4-5.6-4.3-6.9-5.6L1317.3,290.9 M1491,292.2c0,6.5,0.9-0.9,0.4-2.2C1491,288.3,1491,289.6,1491,292.2 M1190.8,291.7
		c0,2.2,0,2.6,0.4,1.7C1191.2,291.7,1190.8,286.6,1190.8,291.7 M1043,290c0.4,0.9-2.6,1.7-0.9,1.7c0.4,0,0.9,0.4,0.9,1.3
		c0,2.2-0.9-1.7-2.2,0.4c-2.2,1.3,3,2.6,0.4,2.6c-0.9,0-1.3,0.4-1.3,0.9c0,0.9,1.7,0.4,1.3,1.7c0.4,1.7,1.7,0,1.7,2.6
		C1043.5,304.3,1043.9,284,1043,290 M1231.4,293.9c-2.6,3.5,2.6-0.4,1.7-1.3C1232.7,292.6,1231.8,293,1231.4,293.9 M1553.6,296.1
		v3.5C1554.5,297.4,1554,288.7,1553.6,296.1 M896.2,295.6c0,3.5,0.9-0.4,0.4-1.3S896.2,294.3,896.2,295.6 M999.8,294.8
		c0.4,0.9-2.2,3.9-0.4,2.2C1000.7,296.5,999.8,291.7,999.8,294.8 M1659.4,295.6c-6.9,4.3,5.6-2.2,9.5-1.3
		C1665.9,294.3,1661.6,293.9,1659.4,295.6 M689.7,298.2c-0.9,1.3-2.2,2.6-1.7,3C688.4,300.8,695.8,292.6,689.7,298.2 M1228.8,298.2
		c-1.3,1.3,0,3.9-1.3,4.8c-0.9,0,0.4,1.3-0.4,1.3c-2.6,0.4-6,1.7-1.7,2.2C1226.6,314.6,1234,291.3,1228.8,298.2 M1272,301.3
		c0,2.2,0,2.6,0.4,1.7C1272.8,301.3,1272,296.1,1272,301.3 M706.1,302.5c0,2.2,0,3.5,0.4,2.2C707,302.5,706.1,296.1,706.1,302.5
		 M1633.5,301.3c0,1.7,0,2.2,0.4,1.3C1633.9,300.8,1633.5,296.9,1633.5,301.3 M419.7,302.5c0.9,0,1.7,0,2.6,0
		C424.1,302.1,418,302.1,419.7,302.5 M539,302.5c0,0.4,3.9,3.5,4.8,4.3C542.8,306,538.5,300.8,539,302.5 M683.7,303.8
		c-2.6,3.5-3.9,6-2.2,6.9C682.8,311.2,691,296.9,683.7,303.8 M736.8,305.1c0.9,1.3,4.3,1.3,6,0.9
		C741.5,306.9,734.2,303.4,736.8,305.1 M434,307.3c0,3.5,0.9-0.4,0.4-1.3S434,305.6,434,307.3 M627.1,305.6c1.3,0,3,0,3.9,0
		C634,305.1,624,305.1,627.1,305.6 M1269.8,307.7c-3.9,4.8,2.6-1.3,2.2-1.7C1271.5,305.6,1270.7,306.4,1269.8,307.7 M1103.5,309
		c1.3,1.3,2.6,2.6,2.6,2.6C1106.1,310.3,1097,302.1,1103.5,309 M835.3,308.6c1.7,0.4,9.9,0,2.6-0.4
		C835.3,308.2,834,308.2,835.3,308.6 M945,308.6c1.3,0,3.5,0,4.8,0C952.8,308.2,941.5,308.2,945,308.6 M1460.7,308.6
		c0,0.9,5.2,4.3,1.7,0.9C1460.7,307.7,1460.3,307.3,1460.7,308.6 M310.9,309.5c-3.5,2.2,3.5,0,2.2-0.9
		C312.2,308.6,311.3,309,310.9,309.5 M221,312.5l-2.2,2.2C221.5,312.9,226.7,306.9,221,312.5 M1266.4,311.2c-2.6,2.2,0,4.8-0.4,1.7
		c-0.9-2.2,1.7,0.4,0.9-0.9c-0.9-0.9,1.3-1.3,0.9-1.7C1268.1,310.3,1267.2,310.8,1266.4,311.2 M546.3,311.2c0,0,0.9,1.3,2.2,2.2
		C553.2,317.2,546.3,309.5,546.3,311.2 M1599.4,312.9c0,3.5,0.9-0.4,0.4-1.3C1599.8,310.8,1599.4,311.6,1599.4,312.9 M591.7,316.4
		c0,4.8,0.9-0.4,0.4-1.7C591.7,314.2,591.7,314.6,591.7,316.4 M982.6,316.8c-8.2,8.6,3.5-2.2,3.5-3
		C985.6,313.8,984.3,315.1,982.6,316.8 M908.7,317.2c7.3,6.9-0.4-1.3-3-3L908.7,317.2 M370.5,316.8c0.4,0.9,6,0.4,1.7-0.4
		C370.5,316.4,370.1,316.4,370.5,316.8 M769.6,319.4l-3,3C770,320.3,777,312.1,769.6,319.4 M1530.3,319.4c0,3.5,0.9-0.4,0.4-1.3
		C1530.7,317.2,1530.3,318.1,1530.3,319.4 M285.4,321.1c1.3,3-3,5.6-3.5,7.3c2.6,0,6-9.1,3.9-10.4
		C285.4,318.1,285.4,319.4,285.4,321.1 M1545,320.7c0,4.8,0.9-0.4,0.4-1.7C1545,318.5,1545,319,1545,320.7 M1313,322
		c0,3-0.4,3.9-1.7,4.8c-0.9,0.4-1.3,1.3-0.9,1.3c3.5,0,3-6.5,2.6-9.9V322 M576.5,321.6c-4.3,4.3-12.1,6.5-14.7,3.9
		c-1.3-1.3-1.3-0.9-0.4,0.9c1.3,6.5-6.5,4.3-11.7,10.4c-19.9,9.1-31.1,21.2-39.7,40.2c1.3-0.4,2.6,0,2.2,0.9
		c6,13.4,22.5-0.4,15.1,29.8c-3.5,5.2-8.6,3.5-12.1-3.9c-14.7-33.3-56.2,15.1-18.6,17.3c37.1,6.5,38.9,18.6,35.9,52.3
		c12.1-13.8,8.2-8.6,23.3-1.7c10.8,9.9,19,23.3,20.3,38.9c0.9,5.2,3.9,5.6,28.5,6c19.4-1.3,22,3.9,33.3-3c3-2.2,5.2-3,6-3
		c2.6,1.7,0.9-15.1,3.9-15.1c1.3-1.3,1.7-2.2,0.9-1.7c-33.3-18.6-47.9-25.5-44.1-73c4.8-6.5,7.3-12.5,6.5-19.9
		c-8.6,0.9-13.8-6.9-21.6-9.1c-8.6-0.9-3-10.4-0.4-15.1c3.5-9.1,0.9-8.6,6.9-20.7c1.7-6.5,6.9-13.8,3-19.9
		c-1.7-2.2-4.8-16.8-6.5-13.4c-0.4,5.6-7.3,0-10.4,0c-1.3,0-2.2-0.4-2.2-1.3C580,319.4,578.7,319.4,576.5,321.6 M865.5,320.7
		c-9.1,12.1-28.1,0-38.4,10.8c4.3,0.4,7.8-1.3,12.1-1.7c8.2-2.2-25.5,25.9-23.3,26.8c-6.9,9.5-15.1,20.7-20.3,30.7
		c-4.8,4.3-0.4,5.2-4.3,9.5c-3,3.9-7.3,16.8-10.4,14.3c-2.2-2.2-3.9,4.8-2.2,4.3c1.3,0.9,1.3,1.3,0.4,3.9c-2.2,5.2,0.9,9.5,0.9,16.4
		c3.9,18.1-20.3,3.9-19,19c-10.8,19.9-6.9-0.9-8.6-7.3c-1.7,2.2-3.5,7.3-0.9,9.5c1.7,3.9,0.4,14.3,5.6,16.8
		c7.8,7.8,5.6,13.4-5.2,12.5c-6.9-1.3-7.3,1.7-11.2,3c-0.9-0.4-2.2,1.3,0,0.9c7.3-0.9-2.6,11.2-3,15.1c-0.4,3-1.7,5.2-3.5,6.9
		c6.9,5.2,1.3,3,45.8,4.3c11.7,0.9,13-2.2,20.3-3c6-10.8,10.8-27.2,19.4-38c7.3-7.3,5.2-18.6,14.3-23.8c2.2,2.6-1.7,4.8-1.3,10.4
		c-0.4,9.5-4.8,11.2-7.8,19.9c-1.7,3.5-0.4,13-3.5,16c-3.9,6-5.6,9.9-4.8,10.8c0.9,1.7-1.7-0.9-0.9,1.3c5.2,8.2,27.6,9.5,37.1,4.8
		c10.4-9.1,15.6-22.5,15.6-37.1c9.9-6.9,7.8-24.2,16.4-28.5c-9.5-0.9,6.5-15.1,2.2-22.9c-1.7-8.2-1.7-7.8,1.3-15.1
		c8.6-16.4-10.8-19-18.1-6.9c-9.5,12.1-16,6-13-11.7c0-22,32-2.2,32.8-15.6c3.5-9.1,2.6,2.6,4.3-5.6c5.6-16.8-0.9-39.7-18.6-45.4
		C866.4,326.7,869.4,317.2,865.5,320.7 M1053.8,322c0,1.7,0,2.2,0.4,1.3C1054.7,322,1053.8,317.7,1053.8,322 M518.2,322.4
		c0.9,1.7-2.6,6.9-0.4,3.9C519.5,324.6,518.7,318.1,518.2,322.4 M1413.2,322.4c-0.4,1.7,1.3,5.2,2.6,5.6c2.2,0.4-3.5-3.9-2.2-5.2
		C1414.5,320.7,1414.1,320.3,1413.2,322.4 M1667.6,325c-4.8,4.3-2.6,3.9,0.9,0C1672.4,320.7,1672,320.7,1667.6,325 M1006.8,324.1
		c-0.4,1.3,4.8,6,2.6,3C1008.9,326.7,1007.6,323.7,1006.8,324.1 M1108.3,325c0.4,1.3-4.8,3-2.6,3C1108.7,328.9,1110,322,1108.3,325
		 M1465.1,325c-0.4,0.4-0.9,0.9-0.4,0.9c0.9,0-4.3,2.2-1.7,2.2C1464.2,328.5,1468.1,322,1465.1,325 M1486.2,326.7
		c6.9,5.6,0-1.3-2.6-2.2L1486.2,326.7 M407.6,327.2c-3.9,3.5,3.9-2.2,2.6-1.7C409.8,325,408.9,325.9,407.6,327.2 M1594.6,325.4
		c0.9,0,1.7,0,2.6,0C1599,325.4,1592.9,325.4,1594.6,325.4 M377.8,326.7c1.7,1.3,5.6,2.2,5.6,1.7S374,325,377.8,326.7 M1590.3,326.7
		c-2.2,1.7,0.4,0.9,1.3,0C1593.8,325,1591.6,325.9,1590.3,326.7 M1601.5,327.2c0.9,0.4,2.2,0.9,3,0.9c0.4,0,0-0.4-1.3-0.9
		C1599.8,325.4,1599.4,325.4,1601.5,327.2 M432.3,327.2c0.9,0.4,6.5,1.7,5.6,0.9C438.3,328,431.8,326.3,432.3,327.2 M449.1,328
		c-0.4,0.9,11.7,0.4,11.2,0C460.3,327.6,449.5,327.6,449.1,328 M1565.3,328c-0.9,0.9,18.6,0.4,5.2-0.4
		C1568.7,327.6,1566.1,328,1565.3,328 M1027.5,328.5c1.7,0,4.3,0,5.6,0C1037.4,328,1023.2,328,1027.5,328.5 M1437,328.5
		c2.6,0.4,13.4,0,3.5-0.4C1436.5,328.5,1434.8,328.5,1437,328.5 M1619.3,328.5c1.7,0.4,9.9,0,2.6-0.4
		C1619.3,328.5,1618,328.5,1619.3,328.5 M389.5,329.3c2.6,0,6.9,0,9.9,0C405.5,328.9,383,328.9,389.5,329.3 M441.3,329.3
		c1.3,0,3,0,3.9,0C448.2,328.9,438.3,328.9,441.3,329.3 M464.2,329.3c1.3,0,3,0,3.9,0C471.1,328.9,461.2,328.9,464.2,329.3
		 M493.6,329.3c3.5,0,8.6,0,12.1,0C513.9,328.9,485,328.9,493.6,329.3 M619.3,329.3c5.6,0,14.7,0,20.3,0
		C653.4,328.9,605,328.9,619.3,329.3 M713.9,329.3c1.3,0,2.6,0,3.5,0C719.9,328.9,711.3,328.9,713.9,329.3 M736.4,329.3
		c3,0,7.8,0,10.8,0C754.1,328.9,729,328.9,736.4,329.3 M1016.3,329.3c1.3,0,2.6,0,3.5,0C1022.3,328.9,1013.7,328.9,1016.3,329.3
		 M1040,329.3c1.3,0,3.5,0,4.3,0C1046.9,328.9,1036.6,328.9,1040,329.3 M1091.8,329.3c2.2,0.4,11.7,0,3-0.4
		C1091.4,328.9,1090.1,329.3,1091.8,329.3 M1275,329.3c1.7,0,4.8,0,6.5,0C1285.8,328.9,1270.2,328.9,1275,329.3 M1295.7,329.3
		c2.6,0.4,13.4,0,3.5-0.4C1295.3,328.9,1294,329.3,1295.7,329.3 M1424.4,329.3c1.7,0,4.3,0,5.6,0
		C1434,328.9,1419.7,328.9,1424.4,329.3 M1451.7,329.3c1.3,0,3,0,4.3,0C1459,328.9,1448.2,328.9,1451.7,329.3 M1493.6,329.3
		c2.6,0.4,13.4,0,3.5-0.4C1493.6,328.9,1491.8,329.3,1493.6,329.3 M1514.3,329.3c1.3,0.4,9.9,0,2.6-0.4
		C1514.3,328.9,1513,329.3,1514.3,329.3 M1555.3,329.3c1.3,0,3.5,0,4.8,0C1563.1,328.9,1551.9,328.9,1555.3,329.3 M1636.1,329.3
		c4.3,0,11.2,0,16,0C1662.9,328.9,1626.2,328.9,1636.1,329.3 M940.7,331.5c0.9,0,2.2,0,3.5,0C945.9,331.1,938.1,331.1,940.7,331.5
		 M1204.2,331.5c2.6,0,7.3,0,9.9,0C1221.9,331.1,1197.7,331.1,1204.2,331.5 M136.8,374.7c0.9,0.9,10.4,0.9,10.8,0
		C148.5,373.8,135.9,373.8,136.8,374.7 M648.7,374.7c0.9,0.9,15.1,0.9,15.6,0C665.1,373.8,647.8,373.8,648.7,374.7 M392.5,375.5
		c31.1,0.4-2.6-1.7-12.1-0.4L392.5,375.5 M751.5,375.5c-0.4,0.9,25.1,0.4,25.1,0C777.4,374.7,750.6,374.7,751.5,375.5 M1067.7,375.5
		c0.9,1.3,5.6-0.9,1.3-0.9C1068.1,374.7,1067.7,375.1,1067.7,375.5 M1073.7,375.1c0,0.4,3,0.9,3.5,0.4
		C1077.6,374.7,1073.7,374.7,1073.7,375.1 M1104.8,375.5c-0.4,0.9,22,0.9,21.6,0C1126.8,374.7,1104.4,374.7,1104.8,375.5
		 M916.9,376.8c1.3,0,3.5,0,4.8,0C924.7,376.4,913.5,376.4,916.9,376.8 M929.4,376.8c1.3,0,2.6,0,3.5,0
		C935.1,376.4,926.4,376.4,929.4,376.8 M363.2,377.7c2.2,0.4,11.7,0,3-0.4C362.7,377.3,361.4,377.3,363.2,377.7 M413.3,377.7
		c1.3,0,3,0,3.9,0C420.2,377.3,410.2,377.3,413.3,377.7 M492.3,377.7c3,0,8.2,0,11.2,0C511.7,377.3,484.1,377.3,492.3,377.7
		 M734.6,377.7c2.6,0,6.5,0,8.6,0C748.9,377.3,728.6,377.3,734.6,377.7 M901.4,377.7c2.6,0.4,13.4,0,3.5-0.4
		C900.9,377.3,899.2,377.3,901.4,377.7 M953.2,377.7c6.9,0,18.6,0,25.5,0C995.5,377.3,936.3,377.3,953.2,377.7 M1219.3,377.7
		c1.3,0,2.6,0,3.5,0C1225.3,377.3,1216.7,377.3,1219.3,377.7 M1245.2,377.7c0.9,0,2.2,0,3.5,0
		C1250.4,377.3,1242.6,377.3,1245.2,377.7 M208.5,378.1c1.7,0,4.3,0,5.6,0C218,377.7,203.8,377.7,208.5,378.1 M305.7,378.1
		c0.9,0,2.2,0,3,0C310,377.7,303.1,377.7,305.7,378.1 M1013.7,379c-1.7,2.2,0.4,1.7,0.9,0C1015.8,376.8,1015,377.7,1013.7,379
		 M1212.4,378.6c-5.2,2.6,3.9,0,2.2-0.9C1214.1,377.7,1213.2,378.1,1212.4,378.6 M1288.4,378.6c1.3,0.4,3,0.9,3.5,0.9
		C1294,378.1,1282.3,376.8,1288.4,378.6 M1667.2,378.6c-3.5,2.2,3.5,0,2.2-0.9C1668.5,377.7,1667.6,378.1,1667.2,378.6
		 M1769.1,378.1c0.9,0,2.2,0,3.5,0C1774.8,377.7,1767,377.7,1769.1,378.1 M1482.3,379.4c0.4,0.4,22.9,0.4,23.3,0
		C1507,379,1481,379,1482.3,379.4 M1521.2,379.9c2.2,0,6,0,7.8,0C1534.6,379.4,1515.2,379.4,1521.2,379.9 M1705.6,379.9
		c5.6,0,14.3,0,19.4,0C1738,379.4,1691.4,379.4,1705.6,379.9 M1738.9,379.9c1.7,0,4.3,0,5.6,0
		C1748.4,379.4,1734.6,379.4,1738.9,379.9 M267.3,380.3c1.7,0,4.3,0,5.6,0C277.2,379.9,262.9,379.9,267.3,380.3 M1588.6,380.3
		c2.6,0.4,13.4,0,3.5-0.4C1588.6,380.3,1586.9,380.3,1588.6,380.3 M1682.8,380.3c2.6,0.4,14.7,0,3.9-0.4
		C1682.3,380.3,1680.6,380.3,1682.8,380.3 M1010.6,382.5c-2.2,1.7-1.3,7.3,0,6.9C1008.1,386.3,1016.7,378.6,1010.6,382.5
		 M1466.8,382.5c-1.3,1.3-1.3,1.7,0,1.3C1468.1,383.3,1469.4,379.4,1466.8,382.5 M172.7,385.9c4.3,4.8,0-0.9-1.7-2.2L172.7,385.9
		 M321.7,384.6c0,0.4,3.9,3.5,4.8,4.3C325.6,388.1,321.3,382.9,321.7,384.6 M1207.6,385.9c0,2.2,0.4,2.6,0.9,0.4
		C1209.3,384.6,1207.6,383.3,1207.6,385.9 M1550.1,389.4c6,6,7.3,6.9,0.9,0C1544.5,382.9,1543.2,382.5,1550.1,389.4 M1354.9,387.2
		c0,3.5,0.9-0.4,0.4-1.3C1354.9,385,1354.9,385.5,1354.9,387.2 M1565.7,387.2c0,3.5,0.9-0.4,0.4-1.3
		C1565.7,385,1565.7,385.5,1565.7,387.2 M1259.9,387.6c0,3-1.7,2.6-0.9,5.2c0.4,1.3,0.4,1.7-0.4,1.3c-1.3-0.9-0.9,1.3-1.3,1.7
		c-0.4,1.3-1.7,1.7-3,3.5c1.7,0.4,8.2-9.5,5.6-12.5C1259.9,385.9,1259.9,386.3,1259.9,387.6 M338.1,389.4c-0.4,1.3,1.3,0.9,1.3,1.7
		c-0.9,0.4,2.6,3.5,1.3,1.7C340.3,392,339,387.2,338.1,389.4 M1658.1,389.8c-0.4,1.3,2.6,3,1.3,1.7
		C1658.6,391.5,1657.7,386.8,1658.1,389.8 M1353.6,391.5c-0.4,0.4-0.9,1.7-1.3,2.6C1351,398,1356.6,388.1,1353.6,391.5
		 M1147.6,394.1c0,1.7,0,2.2,0.4,1.3C1148,393.7,1147.6,389.8,1147.6,394.1 M1806.3,395.8c1.7,1.7,3,3,3,3
		C1809.3,397.6,1799.4,388.1,1806.3,395.8 M189.1,393.7c0,0.4,3.9,3.5,4.8,4.3C193,397.6,188.6,392.4,189.1,393.7 M994.2,396.3
		c-4.3,1.7-4.3,3.9-5.6,5.2c-3-4.3-2.6,7.3,0.9,9.5c0-2.2,0-6.5-0.4-8.6C990.8,401,1002,392,994.2,396.3 M237,396.3c0.9,0,2.2,0,3,0
		C241.8,395.8,234.9,395.8,237,396.3 M1350.2,397.6c-0.9,0.9-1.7,1.7-2.6,2.6c-0.9,1.7,6-4.8,4.3-3.9
		C1351.4,396.3,1350.6,397.1,1350.2,397.6 M137.2,399.3c0,0.9,4.3,0.9,4.3,0.4C141.6,399.3,137.2,398.4,137.2,399.3 M1320.8,400.6
		c1.3,1.3,1.7,3.5,1.7,5.2C1322.9,403.6,1322.9,401.5,1320.8,400.6C1319.9,398.9,1319.9,398.9,1320.8,400.6 M759.2,400.6
		c2.2,0,6,0,7.8,0C772.6,400.2,753.6,400.2,759.2,400.6 M1413.2,400.6c0.9,0,1.7,0,2.6,0C1417.5,400.2,1411.5,400.2,1413.2,400.6
		 M923.4,401.5c0.9,0,2.2,0,3.5,0C928.6,401,920.8,401,923.4,401.5 M197.3,410.5v9.5C198.1,414.9,197.7,391.1,197.3,410.5
		 M753.2,411c0,5.2,0,7.3,0.4,4.8C753.6,412.3,753.2,396.7,753.2,411 M332.5,404.9c0,1.7,0,2.2,0.4,1.3
		C333.3,404.5,332.5,400.6,332.5,404.9 M952.8,404.1c-2.2,2.2,1.7-1.3,2.6-0.4C957.9,404.1,953.6,401.9,952.8,404.1 M1069.8,409.7
		c0,9.5,0.4-0.4,0.4-3C1069.8,404.9,1069.8,406.2,1069.8,409.7 M181.7,406.6c0,2.6,0.9,1.7,1.3,0
		C182.6,404.5,181.3,404.1,181.7,406.6 M1813.2,404.5c0,0.4,3.9,3.5,4.8,4.3C1817.1,408.4,1812.8,403.2,1813.2,404.5 M956.6,411.4
		c0,3,0,4.3,0.4,2.6C957.5,411.4,956.6,402.8,956.6,411.4 M1732.9,406.2c1.3,0,2.6,0,3.5,0C1738.5,405.8,1729.8,405.8,1732.9,406.2
		 M1051.2,407.9c-4.8,9.5-4.3,11.7-4.3,28.1l-0.4,16.8c0.9,0.9,3.5,3.5,4.3,3.5c1.3,0-0.4,1.3,0.4,1.7c0.9-0.9,1.3-19.4,2.6-19.9
		c3-8.2-3.5-6.9-1.7-20.3C1052.1,412.3,1052.1,404.5,1051.2,407.9 M249.1,434.7c0,55.3,1.7-9.1,0.4-21.6
		C249.1,409.2,249.1,417.4,249.1,434.7 M1478.4,436.5c0.4,73.9,1.3-18.6,0.4-28.5C1478.4,407.9,1478.4,420.5,1478.4,436.5
		 M380.4,411.8c0.4,4.8,0.9,5.6,0.9,1.7C381.3,411,380,406.2,380.4,411.8 M933.8,411.4c1.7,1.7,3,3,3,3
		C936.8,413.6,926.8,404.1,933.8,411.4 M1718.6,413.1c0,6.5,0.9-0.9,0.4-2.2C1718.6,409.2,1718.6,410.5,1718.6,413.1 M347.6,413.1
		c0,2.2,0,3,0.4,2.2C348.5,413.6,347.6,407.5,347.6,413.1 M1341.1,410.1c-1.3,0.9-0.4,8.6-0.4,10.8c0-2.6,0.4-9.9,1.3-10.8
		C1342.8,409.2,1342.4,409.2,1341.1,410.1 M677.2,413.1c0,3.5,0.9-0.4,0.4-1.3C677.6,411,677.2,411.4,677.2,413.1 M711.7,413.1
		c0,3.5,0.9-0.4,0.4-1.3C712.2,411,711.7,411.4,711.7,413.1 M989.9,414.9c0,1.7,0,2.2,0.4,1.3C990.3,414.9,989.9,410.5,989.9,414.9
		 M1022.7,414.4c-2.6,3.9-3.5,6-10.4,6.9c-4.3,0.4-4.3,0.4-2.2,1.3c7.8,9.1,22.5,3.5,14.7-7.8
		C1023.6,413.6,1025.8,411.8,1022.7,414.4 M231,435.6c0,32,0.4-3,0-10.8C231.4,418.3,231,423.5,231,435.6 M1775.2,417
		c1.3,1.3,2.6,2.6,2.6,2.6C1777.8,418.3,1768.7,410.1,1775.2,417 M772.2,416.6C771.3,417.4,771.3,417.4,772.2,416.6
		c1.3-0.9,3,0.4,3.9-0.4C775.7,414.9,773.1,414.9,772.2,416.6 M1576.5,439c0,34.6,0.4-3.9,0-12.1
		C1576.9,420,1576.5,425.7,1576.5,439 M135.5,417.4c0.9,1.3,4.3,1.3,6,0.9C140.3,419.2,133.4,415.7,135.5,417.4 M1069.8,435.2
		c0,24.2,0.4-2.6,0.4-8.6C1069.8,422.2,1069.8,426.1,1069.8,435.2 M631,420c-11.2-3.5-5.2,50.1,11.2,46.2c1.7-1.3,6,4.3,4.8,1.3
		c-1.3-2.2-1.7,0-1.7-3c-0.9-13-3.5-19.9-6-30.7C637.9,431.7,633.6,416.6,631,420 M1719,426.9c0,4.3,0,6,0.4,3.9
		C1719.9,427.8,1719,415.7,1719,426.9 M197.3,435.6c0,8.2,0,11.7,0.4,7.3C197.7,437.3,197.3,414,197.3,435.6 M712.6,423.5
		c0,1.7,0,2.2,0.4,1.3C713.5,423.5,712.6,419.2,712.6,423.5 M1000.3,421.3c1.3,0,3,0,4.3,0C1007.6,420.9,996.8,420.9,1000.3,421.3
		 M321.7,427.8l-2.6,2.6C321.3,429.1,328.2,421.3,321.7,427.8 M1383.8,433c0,3.9,0,5.6,0.4,3.5
		C1384.3,433.4,1383.8,422.6,1383.8,433 M425.4,430.4c0.4,2.2-2.2,9.1,0.9,4.3C429.2,431.7,425.4,423.5,425.4,430.4 M1676.7,458
		c0,16.8,0,23.8,0,15.1C1677.1,462.4,1676.7,413.6,1676.7,458 M1468.9,435.6c0,15.6,0.9-2.2,0.4-6.9L1468.9,435.6 M1259.4,430
		c0.4,1.3-4.3,0.9-1.7,1.3C1259.9,432.6,1260.7,428.7,1259.4,430 M714.8,433.9c0,1.7,0,2.6,0.4,1.7
		C715.6,434.3,714.8,429.1,714.8,433.9 M472,437.3c-1.3,0.4-2.2,0.9-2.6,0.9c-0.9-0.4-0.4,3.5-1.3,3.5c-7.8,5.6-8.6,20.7-14.7,28.9
		c-5.6,13.4-9.5,28.1-16,40.6c-3.5,3,1.3,1.3,2.6,3c7.3,4.8,72.6,3.5,79,0c5.6,0,6.5-1.3,1.3-1.3c-9.9,2.6,6-21.6,6-28.9
		c-6.9,0-9.9-0.4-17.7,3c-16.4,9.1-58.3-3-44.5-28.1c3-6.9,3.5-6.9,7.8,1.7C492.7,502.5,558.4,443.8,472,437.3 M1786,450.3
		c0,21.2,0.4-2.2,0.4-7.3C1786.4,439,1786,442.5,1786,450.3 M455.6,438.2c0.4,0.9-2.6,6-0.4,3C456.9,439.9,456,434.3,455.6,438.2
		 M996.8,439.9c-11.7,1.7-11.7,16.4-12.1,28.5c35.4,32.4-29.8,8.2-32.4,19c-1.7,3.5-3-1.7-3,0.4c13.4,6.9,1.3,22,16.4,26.3
		c10.8,5.2,38,2.2,44.1-0.9c7.8-3.9,3-0.4,8.6-0.4c2.6,0,3,0,0.4-0.4c-9.5,0,14.7-10.8,14.3-14.7c3.5-8.6,5.6-8.2,9.5-9.1
		c-5.6-2.2-5.2-8.2-15.6-3.9c-13.8,4.3-17.7-3.5-4.3-13.4c4.8-3.9,5.2-4.8,4.8-16.8c-0.4-14.7-0.4-15.1-15.6-16.4
		C1001.6,438.2,1002.4,437.7,996.8,439.9 M1719,445.1c0,3.9,0,5.6,0.4,3.5C1719.9,445.5,1719,434.7,1719,445.1 M1137.6,441.6
		c-0.9,2.2,1.7,2.2,1.7,0.4C1139.4,439.9,1138.1,439.5,1137.6,441.6 M758.4,443.8c0.9,0,2.2,0,3,0
		C763.1,443.4,756.2,443.4,758.4,443.8 M1135.5,447.7c-3.9,8.2,2.2,2.2,2.6-0.4C1139.8,445.1,1138.1,441.2,1135.5,447.7 M678,446.4
		c0,2.6,1.3,1.3,0.9-0.4C678.5,444.2,678,444.2,678,446.4 M151.1,447.3c0,0.4,2.2,3,2.2,1.7c0-0.9-1.7-0.4-1.3-1.7
		C152.8,446.4,151.1,446.8,151.1,447.3 M319.5,448.5c0,0.4,3.9,3.5,4.8,4.3C323.4,452.4,319.1,447.3,319.5,448.5 M1507.4,449.4
		c-0.4,0.4,4.3,0.9,3.9,0C1510.8,449,1507.4,448.5,1507.4,449.4 M187.8,452c0,3.5,0.9-0.4,0.4-1.3
		C187.8,449.8,187.8,450.3,187.8,452 M1272.4,451.1c-1.3,0.9-0.9,3.9-0.4,2.2C1272,452,1275.9,447.7,1272.4,451.1 M135.9,455.5
		c0,2.2,0,3,0.4,2.2C136.8,455.9,135.9,449.8,135.9,455.5 M282.4,454.6c1.3,5.6,1.3-1.7,0.4-2.2
		C282.4,452.4,281.9,453.3,282.4,454.6 M347.6,454.6c0,3.5,0.9-0.4,0.4-1.3C347.6,452.9,347.6,453.3,347.6,454.6 M197.3,461.1
		c0,4.3,0,8.2,0.4,7.8C198.6,468.4,197.3,443.8,197.3,461.1 M380.4,457.6c0,1.7,0,2.6,0.4,2.6C381.7,459.3,380.9,451.6,380.4,457.6
		 M1138.9,455c0.9,0,1.7,0,2.6,0C1143.3,455,1137.2,455,1138.9,455 M1069.8,463.2c0,4.3,0,6,0.4,3.9
		C1070.3,463.7,1069.8,451.6,1069.8,463.2 M1719,462.4c0,3.9,0,5.6,0.4,3.5C1719.9,462.8,1719,452,1719,462.4 M956.6,459.8
		c0,2.2,0,3,0.4,2.2C957.5,460.2,956.6,454.2,956.6,459.8 M1331.1,457.2c0.4,0.9-1.7,5.6,0,3C1332,459.8,1331.1,454.2,1331.1,457.2
		 M282.8,465.4c0,4.8,0.9-0.4,0.4-1.7C282.8,463.2,282.8,463.7,282.8,465.4 M669.8,465.4l-2.6,2.6
		C670.3,465.8,676.3,458.9,669.8,465.4 M1148.9,468c0,2.2,0,2.2,0.9,0.9C1150.6,466.7,1148.9,464.5,1148.9,468 M138.1,469.7
		c0.9,0,1.7,0,2.6,0C142.4,469.3,136.4,469.3,138.1,469.7 M650,469.7c0.4,0.4,14.3,0.4,14.7,0C665.5,468.8,649.1,468.8,650,469.7
		 M1564,472.3c8.6,8.6-0.4-1.3-3-3.5L1564,472.3 M1654.2,474.5c0,3,0,4.3,0.4,2.6C1655.1,474.9,1654.2,466.3,1654.2,474.5
		 M1057.3,472.3c0,0.4,3.9,3.5,4.8,4.3C1061.2,476.2,1056.9,471,1057.3,472.3 M189.9,474.5c-4.3,5.2,2.6-0.9,2.2-1.7
		C191.7,472.7,190.8,473.6,189.9,474.5 M1719,479.6c0,3.9,0,5.6,0.4,3.5C1719.9,480.1,1719,469.3,1719,479.6 M100.5,474.9
		c-0.4,0.9-5.2-0.4-2.6,0.9C99.7,477.5,104.4,472.7,100.5,474.9 M1450.8,475.3c-0.9,0.9-1.7,1.7-2.6,2.6c-0.4,0.9,0,0.4,1.7-0.9
		C1453.4,474,1453.4,473.2,1450.8,475.3 M1147.6,477.1c0,3.5,0.9-0.4,0.4-1.3C1147.6,474.9,1147.6,475.8,1147.6,477.1 M815.4,478.4
		c1.7,2.2-1.7-0.4-0.9,3.5c0.4,3-3,3.9-3.5,0.9C810.7,479.6,814.1,476.6,815.4,478.4 M877.2,477.5c-1.7,1.7,0,7.3,2.2,7.3
		c0-0.9-2.2-2.2-1.7-4.8C877.6,477.9,878,476.2,877.2,477.5 M1528.5,479.2c5.2,5.6,0-0.9-2.2-2.6L1528.5,479.2 M944.6,483.1
		c0,2.2,0,4.3,0.4,4.3C945.9,485.7,944.1,475.3,944.6,483.1 M1065.9,481.4c-3.5,0.9,1.7,0.9,2.2,0
		C1069.4,480.5,1068.5,480.5,1065.9,481.4 M1369.2,481.8c0,0.4,3.9,3.5,4.8,4.3C1373,485.3,1368.7,480.1,1369.2,481.8 M1441.3,483.5
		l-2.2,2.2C1441.7,484.4,1446.9,477.9,1441.3,483.5 M169.2,484.4l-2.2,2.2C169.6,484.8,174.8,478.8,169.2,484.4 M293.6,484.4
		c-0.4,0.9-0.4,2.2-0.4,2.6C294.5,487.9,295.3,479.6,293.6,484.4 M1303.5,487.4c1.3,1.3,2.6,2.6,2.6,2.6
		C1306.1,489.1,1297.5,480.9,1303.5,487.4 M879.3,487c0.9,1.3,3,3,4.3,3.9c-0.4-0.9-2.2-3.9-3-3.5c-0.4,0-0.4,0-0.4-0.9
		C880.2,485.3,878.5,485.3,879.3,487 M191.2,489.1c1.3,1.3,2.6,2.6,2.6,2.6C193.8,490.4,185.2,482.2,191.2,489.1 M1648.2,489.1
		l-2.6,2.6C1648.6,489.6,1654.7,482.7,1648.2,489.1 M348,489.1c0.9,1.3,5.2,2.6,2.6,1.3C349.3,489.6,344.1,484.8,348,489.1
		 M1240.9,490c1.7,1.7,5.2,3.5,2.2,1.3C1241.7,490.4,1237,486.6,1240.9,490 M1534.6,488.3c0,0.4,3.9,3.5,4.8,4.3
		C1538.5,491.7,1534.2,486.6,1534.6,488.3 M120.8,490c1.3,0,2.6,0,3.5,0C126.9,489.6,118.2,489.6,120.8,490 M713.9,489.6
		c0,1.7,9.5,3.5,10.4,2.2c-0.9-0.9-6.9,0.4-7.8-1.3C714.8,489.1,713.9,489.1,713.9,489.6 M732.9,490c1.3,0,3,0,3.9,0
		C739.8,489.6,729.9,489.6,732.9,490 M1089.3,490c1.3,0,2.6,0,3.5,0C1094.9,489.6,1086.2,489.6,1089.3,490 M1719,492.2
		c0,3.5,0.9-0.4,0.4-1.3C1719,490,1719,490.9,1719,492.2 M106.1,491.7c0.4,0.9,4.3,0.9,4.8,0C111.3,490.9,105.7,490.9,106.1,491.7
		 M226.7,491.7c1.3,0.9,6,0.9,6.5,0C234,491.3,225.8,490.9,226.7,491.7 M389.5,491.3c0.9,0,1.7,0,2.6,0
		C393.8,490.9,387.8,490.9,389.5,491.3 M884.9,491.7c0.4,0.9,3,0.9,3.5,0C888.8,490.9,884.5,490.9,884.9,491.7 M1049.1,491.7
		c0.4,0.9,6,0.9,6,0C1056,490.9,1048.7,490.9,1049.1,491.7 M1613.2,491.3c1.3,0,2.6,0,3.5,0C1619.3,490.9,1610.6,490.9,1613.2,491.3
		 M1772.6,493l-2.2,2.2C1773,493.5,1778.2,487.4,1772.6,493 M1113.9,492.2c2.2,0.4,11.7,0,3-0.4
		C1113.9,491.7,1112.2,491.7,1113.9,492.2 M1556.2,491.7c0.9,0,1.7,0,2.6,0C1560.5,491.7,1554.5,491.7,1556.2,491.7 M1621,492.2
		c0.9,0,2.2,0,3,0C1625.3,491.3,1618.4,491.7,1621,492.2 M1248.2,492.6c0.9,0,1.7,0,2.6,0C1252.5,492.2,1246.5,492.2,1248.2,492.6
		 M1312.1,492.6c0.9,0,2.2,0,3,0C1316.5,492.2,1309.6,492.2,1312.1,492.6 M1562.2,492.6c0.9,0,1.7,0,2.6,0
		C1566.6,492.2,1560.5,492.2,1562.2,492.6 M652.6,493.5c1.3,0,3,0,4.3,0C659.9,493,649.1,493,652.6,493.5 M1574.3,493.5
		c0.9,0,1.7,0,2.6,0C1578.7,493,1572.6,493,1574.3,493.5 M1580.4,494.3c0.9,0.4,5.6,0.9,2.6,0
		C1580.4,493.5,1578.7,493.5,1580.4,494.3 M1405,495.6c0.4,1.3,7.8,0.9,2.2-0.4C1405.9,495.2,1405,495.2,1405,495.6 M1678,506.4
		c0,5.6,0.9-0.4,0.4-2.2C1678,503.4,1678,504.3,1678,506.4 M862.5,512.9c0.9,0,1.7,0,2.6,0C866.8,512.5,860.8,512.5,862.5,512.9
		 M1125.1,512.9c55.3,0,146,0,201.3,0c55.3,0,9.9,0-100.6,0S1069.8,512.9,1125.1,512.9 M433.1,528.9c-7.8,10.8-9.1,29.4-16,42.3
		c-1.7,6-0.4,27.2-6.5,29.8c-4.8,5.6-3.5,11.7-9.9,19.9c-3,3.9-1.3,14.3-4.8,18.1c-6.9,7.8-27.6,5.2-31.5,16.4
		c-2.6,4.3-9.5,11.2-10.4,16.4c-2.6,11.2-8.2,7.8-7.3,24.2c0,9.5,0,11.2-1.3,12.5c-9.5,30.7,28.5,17.3,17.3,36.3
		c-3,8.6-6,18.6-8.6,27.6c-2.2,1.3-1.3,22.5-4.8,22.9c-9.1,19-9.1,41-20.3,59.6c-1.3,15.1,5.6,26.3,7.3,38c6.9,0,21.2,0,28.1,0
		c-0.4-2.6-1.3-4.3,3-5.6c14.3-8.2,9.9-28.5,18.1-41c2.2-4.8,1.7-19.9,5.6-22.5c5.6-6.5,5.6-13.4,8.6-19.9
		c2.6-3.9,7.3-13.8,4.8-17.7c-0.9-0.4-1.7,1.7-0.4,1.3c0.4-0.4,0.9,0,0.9,0.4c-1.3,2.6-3.9-1.3-1.7-3.5c0.4-0.9,0.9-0.9,0.9-0.4
		c0,3.5,3,0,3-3.5c8.2-18.1,16-38,19-57.9c3.9-12.1,12.5-6,21.2-11.2c17.3-4.8,33.3-13.8,50.1-19c8.6-6.5,20.3-3,27.6-12.1
		c8.2,0,28.1,0.4,31.1-1.7c8.6-1.3,20.3-14.3,27.2-7.8c3.5,12.5-5.2,49.2-2.2,68.2c2.2,18.1-3,110.6,0,124.8
		c9.5,11.2,15.6,9.1,29.8-5.6c13-13,12.1-11.7,12.5-22.5c0-6.5,0.4-9.1,1.3-9.5c19.4-33.3-11.2-37.1,35.4-66.5
		c12.5-4.3,25.9-18.6,36.3-26.3c7.8-7.8,6.9-0.4,8.2,3.9c5.2,8.6,6.9,19.4,9.5,28.5c7.8,18.6,25.5,30.7,41.9,43.2
		c5.2,0,23.8,0,24.6,1.3c5.2,3,14.3,6,20.7,3.5c4.3-3.5,19.9-3.5,22.5-6.9c2.2-1.7,8.2-6,11.7-6.5c4.3,0,9.1-7.8,13.4-8.6
		c10.8-4.8,19-14.7,28.5-20.7c9.9-3.5,56.6-72.1,63.9-54c6,6,5.2,9.9,9.9,16c3.9,4.3,4.8,6.5,4.8,9.1c1.3,9.9,14.3,22,17.7,31.1
		c48.8,67.8,115.8-28.9,159-60.9c3.9,0-2.2,15.6,3.9,21.2c5.6,46.2-3,87.7,40.2,109.3c18.1,1.7,28.5-8.2,39.7-22
		c8.6-12.5,18.6-14.3,26.8-28.1c23.8-38.4,48.4-79.9,61.3-121.8c1.7-7.3,9.5-14.3,9.5-23.3c0.9-6.9,9.9-15.1,8.6-24.6
		c0-5.6,0-6,2.6-9.1c6-6.5,4.8-15.1,7.3-22.9c25.9-54.4-23.8-51.4-44.5-14.3c2.6,22.5-6.5,37.6-9.9,55.3c-0.4,4.3-6.9,11.7-7.3,16
		c0,1.7-3.9,8.2-4.8,8.2c-4.8,0.9-3,23.8-8.6,23.8c-19.4,22-24.6,47.1-44.1,71.3c-19.9,31.5-12.5-143-13.8-169.3
		c-16.4-26.8-46.7,4.3-57.4,21.2c-5.6,21.6-18.6,40.6-29.8,59.6c-12.1,19.4-77.8,100.6-87.3,45.4c-1.7-3.9,0-3-4.8-10.8
		c-7.8-21.2,3-63.1-24.6-72.6c-3-7.8-14.7-5.6-21.6-6c-18.6,0-19,0-27.6,13c-32.4,32-60.5,72.1-97.2,99.8c-1.3,0-4.3,2.6-4.3,3.5
		c-0.9,4.8-7.8,5.6-11.7,6.5c-18.6,6.9-29.8,13-48.4-1.3c-16-13-30.2-50.1-18.1-67.4c17.7-27.6,41-54,52.3-83.8
		c8.6-11.7,20.7-30.2,23.8-43.2c-2.6-1.7,9.1-12.5,9.1-13.8c-5.2-8.2-20.3-0.4-29.4-3.5c-9.1-3.9-13,1.7-17.7,5.6
		c-0.9-0.4-0.9,0-0.4,0.4c2.2,1.3,1.7,4.3-0.4,6.9c-8.6,11.2-12.1,20.3-19.9,31.5c-2.6,3-3.5,9.1-6.5,12.1
		c-5.6,4.8-5.2,17.3-12.5,19c-0.9-14.7,14.7-33.7,16.8-50.1c-0.4-7.3,15.1-19.4,7.3-24.2c1.7-2.2-54-0.9-55.7-1.7
		c-4.3-1.3-8.6,3.5-8.2,6c1.3,10.4-9.1,30.2-11.7,41.9c-2.6,8.2-2.2,22.5-5.6,30.7c-9.5,18.1-0.4,45.8-9.1,63.9
		c-22.9,22-41,35.9-58.7,57c1.3-15.6,4.8-46.2,6.5-58.3c1.3-8.2-1.3-18.1,6.5-24.2c8.6-7.8,6.5-30.2-3.5-36.7c0-12.1,0-76,0.9-73.4
		c-1.3,0.9-4.3,7.8-4.3,1.7c0-7.8-4.8-10.8-13-8.2c-8.6,3.5-45.8-5.6-53.6,5.6c0.4,17.3,0.9,35.4,0.9,54.9
		c-2.2,19,7.3,29.4-5.2,29.8c-25.5,3.5-18.1,9.1-53.6,8.2c-34.1-0.4-28.1,3.5-51.4,7.3c-6.5,1.3-17.3-1.3-9.1-9.5
		c7.3-10.4,13-21.6,17.3-32c3.5-3.9,6.5-10.4,6.5-13.8c0.9-6.5,9.5-13.4,9.1-20.3c3-8.6,3.5-18.1,11.7-23.3
		c-4.8-6.5-5.2-8.6-17.3-6.9C479.3,530.6,443.9,528.5,433.1,528.9 M1669.8,531c-0.4,1.7,2.6,4.3,1.3,1.7
		C1671.1,530.6,1670.7,527.2,1669.8,531 M1767.4,532.8c0.9,0,1.7,0,2.6,0C1771.7,532.8,1765.7,532.8,1767.4,532.8 M654.7,533.6
		c0.9,0,2.2,0,3.5,0C660.3,533.2,652.6,533.2,654.7,533.6 M1703.5,533.6c1.7,0,4.3,0,5.6,0C1713.4,533.2,1699.2,533.2,1703.5,533.6
		 M1744.5,533.6c1.3,0,3.5,0,4.8,0C1752.7,533.2,1741.5,533.2,1744.5,533.6 M660.3,534.9c3,0.9,49.2,0,60,0
		C710,534.9,662.5,534.1,660.3,534.9 M195.6,535.4c41.9,0,111,0,152.9,0s7.8,0-76.5,0S153.2,534.9,195.6,535.4 M510.9,535.4
		c1.7,0,4.3,0,5.6,0C520.4,534.9,506.1,534.9,510.9,535.4 M539,535.4c6.9,0.4,39.7,0,10.4-0.4C537.7,534.9,533.3,534.9,539,535.4
		 M892.7,535.4c13,0.4,70.8,0,18.1,0C890.6,534.9,882.4,534.9,892.7,535.4 M957.5,535.4c3,0,8.2,0,11.2,0
		C976.5,534.9,949.3,534.9,957.5,535.4 M999,535.4c2.6,0,6.5,0,8.6,0C1013.2,534.9,992.5,534.9,999,535.4 M1119.9,535.4
		c54.4,0,143.8,0,198.3,0s9.9,0-99.3,0S1065.5,534.9,1119.9,535.4 M1678.9,535.4c1.3,0,3,0,3.9,0
		C1685.8,534.9,1675.8,534.9,1678.9,535.4 M1453.8,543.1c-47.9,23.8-87.7,67.4-103.2,118.4c-2.6,12.1,2.2,22-12.1,32.8
		c-17.3,15.6-39.7,32.8-52.3,55.7c-21.6,20.3,4.8,42.8,21.2,22c5.2-3.5,3.5-4.3,7.3-5.6c2.6-0.4,0.9-2.2,2.2-1.3
		c5.2-3,13.8-9.1,19-13c16.8-16.8,9.9,11.2,19.4,19c6.9,13.8,20.7,27.6,35.4,31.5c62.2,30.7,120.5-33.3,164.1-71.3
		c3.5-0.4,10.4-10.4,11.7-13.8c6-8.6,12.1-10.4,18.6-21.2c16.4-16.8,2.2-35.9-18.6-24.6c-31.5,16.4-55.7,44.1-86.4,60
		c-23.3,13.8-53.6,20.7-67.4-8.6c-12.5-15.6,21.2-28.5,28.5-37.1c30.7-21.6,56.2-54.4,72.1-88.5
		C1518.6,558.3,1492.7,534.9,1453.8,543.1 M1446.9,618.7c-5.2,15.1-25.9,28.1-36.7,41C1402.9,657.6,1445.2,609.7,1446.9,618.7"/>
	<path id="path1" class="st1" d="M217.6,190.7c0,9.5,10.8,13,16.8,19.4c0,23.3,0,70.8,0,94.2c-3.9,5.2-9.1,4.8-13,8.2
		c-7.3,9.9,0,19.4,14.3,18.1c19-1.3,73.4,6,39.3-25.1c-0.9-2.2-1.3-35,0-36.3c11.2-4.3,8.6,0.9,27.2-0.9c20.7-0.4,19-2.6,19,19.4
		v16.8c-1.3,0.9-5.2,4.3-6,4.3c-16.4,3-13.8,25.5,6,22c13.4-2.6,35,3,46.2-2.2c4.8-3,7.8-3,13.4-1.3c3,2.2,19,1.3,25.1,1.3
		c5.6-4.8,9.1-9.5,2.6-16.4c-4.3-4.3,2.2-14.7,6-11.7c-1.3,0.9,9.5,2.2,10.8,0.4c7.3-3.9,13,5.6,7.3,13
		c-8.6,14.7,4.8,14.7,16.4,14.3c9.5-1.7,17.3,2.6,26.3-1.3c1.7,0.4,0.9-1.3,3-0.9c2.2-0.4,1.3,1.7,3,1.3c3.5,1.7,27.6,2.2,34.6,0.9
		c5.6-5.6,0.4-13.8-3.5-19.4c-2.2,1.7-1.7-36.3-2.6-37.6c-1.3-4.8,2.6-2.2,3.9,0.9c12.5,17.3,17.3,19.4,33.3,39.3
		c15.6,19.4,21.6,17.7,32.8,9.1c0.4,0.4,0.4,4.8,0.9-37.6c0.4-42.8,0-40.2,6.9-40.2c7.8,0,13,6.5,8.6,12.1
		c-1.3,1.7-1.7,37.1-0.4,43.6c1.7,11.7-12.1,24.6,5.2,30.2c31.1,1.7,62.6,4.3,80.8-17.3c-3-1.3,3-9.1,4.8-8.6c1.3,0,3.9-5.2,4.8-5.2
		c23.3-78.6-43.6-75.2-105-72.1c-13.8,2.2-18.6,2.6-31.1-0.4c-2.2-0.9-4.8,2.2-5.6,6.5c-4.3,4.3,13.4,16,9.1,19.4
		c-0.9,0-0.4,13.4,0.4,19c0.9,5.6,0.9,5.6-2.2,5.2c-7.3-3.9-23.3-28.1-32.4-36.3c-10.4-16.8-14.7-12.5-31.1-13.4
		c-14.7-6.9-20.3,10.4-6.9,17.7c5.6,3,6.9,4.3,6,6c-5.6,12.1-6.5,37.1-3,50.5c2.2,2.6-6.9,11.7-7.8,13.8c0,1.7-5.2,0.4-5.6-1.7
		c-11.7-13.8-16.8-32.4-25.9-49.7c0.4-5.2-6.9-14.3-8.6-19c-0.9-9.9-10.8-22-22.5-17.3c-7.8,4.3-11.7,23.8-15.1,29.8
		c-10.8,13.8-10.4,33.7-20.7,47.9c-9.5,10.4-5.2,21.6-20.3,4.8c-9.9-11.7-0.4-13.4-3.5-55.7v-44.5c8.6-4.8,13.4-13,12.5-21.2
		c-13,1.3-78.2-3.5-70.8,3.9c6.5,25.5,25.5,1.3,17.7,50.1c-2.2,2.2-44.9,1.7-45.4,0c-0.4-2.6,0-25.1,0-31.1
		c8.2-6.5,13.8-12.5,13.4-22.5c-17.7,0-52.7,0-70,0L217.6,190.7 M381.3,192.4c-0.4,6.9,3,9.9,8.2,13c317.5,0,955.9,0,1273.4,0
		c9.5-2.2,13.4-9.1,12.5-18.1c-322.7,0.4-971.9,0.4-1294.1,0.4V192.4 M738.5,221.3c-7.3,4.8-23.3,5.6-31.5,0.4
		c-12.5-1.3-13.4,13-4.8,21.2c6,1.7,0,51,3.5,54.4c1.3,3,1.3,9.1,0,11.2c-3.9,6.9-1.7,21.6,4.8,20.3c3,0.4,37.1,0,45.8,0
		c9.1-5.6,16.8-10.4,23.8-21.2c3.5-1.3-0.9-23.3,5.6-19c4.8,3.9,4.8,12.5,4.8,19c11.2,10.8,25.9,28.1,42.3,21.6
		c8.2-5.6,25.5,2.2,35.4-8.6c3.9-1.3,16-10.4,17.3-13.8c1.3-2.2,8.6-24.6,11.2-10.8c23.8,72.1,130,23.3,102.8-41.5
		c0.4-1.3,0.4-1.3-0.4-0.4c-16.8-31.1-54.4-42.8-82.1-18.6c-10.4,6.9-13.8,18.1-19.9,27.2c-2.6,5.2-4.3-6.5-5.6-7.8
		c-6-10.8-16.8-24.6-29.4-26.8c-9.5-3.9-20.3-11.2-32.4-4.3c-10.8,6-11.2,0.9-21.6,11.2c-9.9,9.1-4.8,8.6-11.7,12.5
		c-5.2,1.3-6.5,16.8-9.9,20.3c-4.3,13.8,0.9,19-13.8,5.6c-11.2-4.3,16.4-16.4,8.2-27.6c-4.8-6.9-9.9-18.1-19.9-18.1
		C754.5,224.8,745,218.7,738.5,221.3 M1209.8,220.9c-35.9,8.6-69.5,50.5-45.4,85.1c25.1,46.7,93.7,22.5,102.4-24.2
		c1.7-2.2,1.3,0,2.2-1.3c1.3-1.7,0.4,1.3,1.7,0.4c3.9-2.2,0.9,16,1.7,17.7c1.7,12.5-19,20.3-1.3,30.2c22.5-1.7,56.6,6.5,35.9-20.7
		c-3-1.7-2.2-8.2-2.2-11.2c0-16.8,8.2-10.8,16.4-3.9c3,2.2,11.2,0.9,14.7-2.2c1.3-3-0.4-22.9-1.7-22.9
		c-7.3-24.6-34.6,17.3-28.5-18.1c2.2-6.9,14.7-4.3,23.3,5.2c0.9,0.9,4.8,1.3,4.8,0.4c10.8,0,11.2-22.5,1.3-29.8
		c-0.9-3.5-22-1.3-24.2-1.3c-20.3,1.3-61.3-7.8-41,17.7c6.9,4.8,3.9,41.5-3.5,22.9c-3-14.7-19-38-37.1-39.7
		C1223.6,225.2,1210.2,217.5,1209.8,220.9 M1546.7,224.4c-7.8,7.8-5.2,15.1,6,22c0.9,4.8,2.6,13,0.4,16c-5.6,0-29.4,0.9-30.2,0
		c-0.9-0.9-1.7-16.4-0.9-16c16-6,10.8-27.6-7.3-19.9c-33.7-0.9-74.3-2.6-114.5-2.2c-8.2,5.6-10.4,24.2-3.9,31.5
		c5.2,12.5,23.8-18.1,29.8-6.5c0,13.8,0,41.5,0,55.3c-7.3,2.6-11.2,6.5-11.7,14.7c-2.2,9.5-0.9,9.5,26.3,9.5
		c19.9-0.9,19.9,1.7,24.2-3.9c6.9-6.9-11.2-20.7-8.2-25.1c3.9,3.5-6.9-67.8,9.5-50.1c18.6,17.7,16.4-1.3,25.1-0.9
		c1.3,12.1-2.6,25.1-0.4,43.6c1.3,12.1,1.3,11.7-1.3,14.7c-22.5,28.1,20.7,22,33.7,21.2c10.4,1.7,7.8-17.7-1.3-22.9
		c0.9-12.5-5.2-20.3,14.7-18.6c15.1,0,17.3,0.4,17.3,4.8c3.5,18.1-13.8,24.6-7.8,35.9c10.4,1.7,35,3,44.1-0.4
		c3.9-2.2,7.3-2.2,13.8,0.4c4.8,1.7,55.7,2.2,59.6,0.4c11.2-6,17.7-22.9,9.9-32.4c-11.7-1.3-16.8,0.4-20.3,9.9
		c-14.7-1.7-22.5,8.2-19.4-18.1c0-1.3,3-3,6-3c10.4,3,9.1,15.6,19.4,5.2c-1.3-2.6-0.4-3.9,1.7-4.3c2.2-1.3,1.3,1.3,2.2-7.3
		c3-51.8-35.4,15.6-28.9-32c20.3-6,21.6,13,31.5,8.2c8.2-3.5,9.9-20.3,1.7-25.9c-5.2-3.9-6-3.9-56.6-3.5c-32-0.4-23.8,1.7-36.3,3.9
		c0-0.9-12.1-0.4-12.5-1.3C1559.2,225.7,1549.7,223.1,1546.7,224.4 M1005.5,225.7c-0.9,9.5-2.2,12.1,6.9,18.1c9.5,6,0.9,9.5,3,31.5
		c0,13,0.4,23.3,0.4,22.9c5.2-0.9-5.2,13.4-6.9,15.6c-4.8,0-2.2,13,2.6,14.3c10.4-1.7,60.5,9.9,36.3-17.3c-6-5.2-3.9-9.1-7.3-13
		c-3-1.7,3.5-0.9,0.4-2.2c-2.2-0.4,0.4-3.5,0.9-1.7c0.9,1.7,0.9-1.7-0.4-1.7s1.3-1.3,0.9-2.2c4.3,0.4,19,20.7,21.6,22.9
		c7.3,21.2,68.2,23.8,34.6-6.9c-9.9-7.8-26.3-24.6-31.5-35.4c4.3-16.8,35-21.6,37.6-36.7c3-11.2-14.3-8.6-27.6-6
		c-9.1,4.8-23.3,33.3-34.6,35.4c0.4-4.8,0.4-19.9,4.8-18.1c5.6,0,11.7-16,6.9-17.7c-2.2-3.5-12.5-2.6-18.6-0.4
		C1027.1,229.5,1013.2,221.3,1005.5,225.7 M1600.7,243.4c3-0.9,1.3,31.1,1.7,32c-1.3,26.3,2.6,37.1-6.5,42.3
		c-6-2.2-6.5-9.1-12.1-12.5c0.9-10.4-1.3-66.1,2.6-60.9C1590.3,242.1,1597.2,239.5,1600.7,243.4 M650.4,247.7
		c35.9,15.1,8.2,67.8-25.9,57c-0.4-7.3,2.6-41,0-51c-1.3-3,0.4-5.2,1.7-8.2C634.8,245.5,645.2,243.4,650.4,247.7 M745.4,246.4
		c5.6,4.8,2.6,15.6-4.8,15.6C731.6,264.5,735.9,235.6,745.4,246.4 M854.3,250.7l5.6,5.6c-0.9,9.9,3.9,19.9,0.4,28.1
		c0,1.3,0,9.5,0,12.5c-10.8,13.8-31.5,17.7-39.3,0c-6-2.2-4.3-26.3-4.3-36.7C824.9,245.1,842.2,238.2,854.3,250.7 M958.8,245.5
		c23.8,15.6,16.4,72.1-18.6,60.9C914.3,292.2,922.5,232.6,958.8,245.5 M1221.9,246.4c15.6,6.9,14.7,55.7,3.9,60
		c-9.5,0-20.3,6.5-30.2-6l-4.8-4.8C1186,267.1,1192.5,235.6,1221.9,246.4 M423.6,270.6c4.3,6.9-5.2,15.6-7.8,5.6
		C415.9,271.9,421,268,423.6,270.6 M744.6,284.4c17.3,6.5,1.7,25.9-7.8,21.2C736.4,301.7,732.5,275.8,744.6,284.4 M890.1,376.4
		c-0.9,13.4-32.8-6.5-32.8,15.6c-3.5,42.3,15.1-3.5,29.4,5.6c10.4,4.8-5.2,18.6,0,28.5c4.8,8.2-13.4,23.8,0,22.9
		c0,4.3,0.4,13.8,0.4,18.1c-6.9,5.2-14.3,15.6-9.1,16.8c1.3,0.4,0,1.7,0.9,1.7c2.2,9.5,31.1,2.6,42.3,5.2c6.5,2.2,7.3-8.6,7.3-14.7
		c-1.7-1.3-7.3-6.9-8.2-6.9s-0.9-66.5,0.4-67.4c7.3-6,11.2,11.7,16.4,12.5c8.2,7.3,12.5-12.1,18.1-10.4c0.9-1.3,1.7,75.6-0.4,66.5
		c-5.2,3.5-10.8,3.9-10.4,13c0.4,5.6,0,4.8,3,5.6c0.9,0.4,1.3,0.4,0.9-0.4c0-0.9,1.7,2.6,3,0c1.7-10.4,68.7,12.5,32.4-19
		c0-19.4,3-33.3,27.2-29.4c15.6,1.3,15.6,1.7,16,16.4c4.3,18.1-17.3,19.4-12.1,29.4c2.6,6,20.3-5.2,22.9,1.7
		c5.6,5.2,10.4,4.8,22,3.5c27.2-1.7,52.7,3.5,80.8-1.3c10.4-6.9,12.5-40.2-6-32.4c-3.5,0.9-4.3,6.9-7.3,9.9
		c-1.3,3.9-9.5,2.2-12.1,2.6c-12.1,0-11.7,0.9-11.7-13.4c0-12.1,0-12.1,5.6-12.1c12.5,1.3,19.9,19.9,28.1,0c0-4.3,1.3-19-0.9-23.3
		c-6.5-16,11.7-5.2,9.9-25.9c9.1-29.4-71.3-14.7-106.3-16.4c-1.3,0.4-26.8-1.3-26.3,1.7c-6,4.3-3,18.6,4.3,20.3
		c5.6-1.3,3.5,13,6,14.3c8.2,6.9-5.6,19-11.2,10.4c-0.4-3.5-15.1-3.5-21.2-3c-1.3-2.2-3-4.8-3-7.8c0-3.9-5.2-11.2-1.7-13.4
		c1.7-0.4,0,0.9,0.9,0.9c0.4,0,0.9-0.4,0.9-0.9c5.2-5.2,14.3-10.4,5.6-20.7l-2.2-2.2c-33.7,0.4-63.5-1.7-94.2,0.4
		C894.9,375.5,892.7,369.1,890.1,376.4 M96.6,375.1c-1.3,1.7-0.4,75.6,0.9,75.2c3.9-1.3,9.5,8.6,9.5,17.3c0,2.6-6.9,9.1-9.1,8.6
		c-3-2.2-1.3,8.2-1.7,10.4c3,0,4.8-0.4,6.9,2.6c0.9,4.8,18.6-0.9,25.5,1.3c35,4.3,44.9-3.9,58.3-32.8c4.3-2.6-4.3-19.9-13.4-27.2
		c-8.6-3.9,6.5-10.4,6-15.6c6.9-14.7-9.1-34.6-21.2-36.7c-7.8-1.7-22-4.8-29.8-1.3C119.5,380.7,105.3,373,96.6,375.1 M342.4,376.4
		c-4.8,3.5-5.2,8.2-3,13.8c-0.4,0.9,2.6,4.8,3,4.3c1.7,0.4,2.6,3.5,4.3,4.8c3.9,9.5-1.3,56.2,1.7,61.8c2.6,7.3-0.9,22-10.4,9.9
		c-3.9-4.3-10.8-8.2-11.7-12.1c0.4-1.3-1.7-5.2-4.3-7.8c-19.9-22.9,4.8-18.1,7.8-37.1c5.6-4.8,0.4-17.7-3-23.8
		c-14.7-20.7-45.4-7.3-67-10.8c-6.5-1.3-8.6-1.7-31.5-1.3c-28.1,0.9-51.4-7.8-35,19c10.8,11.2,2.2,36.7,4.8,65.2
		c1.7,13.4-18.1,13.8-6.5,26.3c5.6,6.9,23.8-0.4,43.2,2.2c3.9-3,15.6,3.9,20.3,0.4c3-1.7,22.9-1.7,25.1,0c4.3,3,14.7-0.4,13.4-4.3
		c6.5-14.7-14.7-9.1-10.4-34.1c6-3.5,18.1,31.1,24.2,34.6c4.8,3.5,30.2,4.3,33.7,1.3c2.2-2.2,5.6-2.2,7.8,0c19.9,3.5,63.9,6,79.5-6
		c13.8-8.6,21.2-23.3,25.1-37.1c8.2-15.6-1.3-30.2-4.8-44.9C427.9,364.3,375.7,378.6,342.4,376.4 M640.5,378.1
		c-11.7,4.8-20.7,13.4-28.5,22.5c-1.3,3.9,0.4,10.8-3.9,15.6l-3,5.2c-3.9,40.6,8.6,55.3,40.2,70c4.3,6.9,4.3,0,12.5,1.7
		c9.1,1.3,19-5.6,24.6-6.5c51.8-27.2,38-111.4-24.6-111.4h-10.4L640.5,378.1 M720.4,375.5c-11.7,3.5-8.6,16.8,0.4,24.2
		c0,17.3,0.4,52.3,0.9,69.5c-0.9,0.4-4.8,2.2-4.3,3c0.9,1.3-1.3-0.4-1.3,0.4c-10.4,4.3-2.2,23.8,8.6,18.1c2.6-0.9,16.8-2.2,17.7-0.9
		c0.4-7.8,32,2.2,15.1-16.4c-5.2-2.6-3.9-12.5-5.6-16.8c-2.6-2.6-0.4-7.3,1.3-9.9c0.9-3.5,8.2-4.8,10.4-1.7c2.6,3,7.3,0,11.7,0.4
		c10.4,1.3,4.8-11.7,4.3-20.3c-1.3-5.2,4.8-14.3-4.3-9.1c-3-1.7-12.1,9.1-16.4,8.2c-4.8-0.4-5.6-2.6-5.6-13.8
		c0-10.8,0-10.4,10.8-10.4c6.9-0.9,8.2,0.9,13,6c10.4,13,9.1-3.5,15.1-9.1c2.6-2.6,3-7.8,0.9-7.8C782.1,363,740.2,383.3,720.4,375.5
		 M1403.3,376.4c-52.7,9.9-72.6,98.5-15.6,114.5c23.3,16.4,68.7-8.6,76-35.9C1483.6,419.2,1443.5,367.8,1403.3,376.4 M510,376.8
		c-1.7,2.6-27.6-0.9-28.5,3c-25.9,10.8-28.9,39.3-13.4,59.6c0,2.2,0,2.2,0.4,0.4c0.9-2.6,2.6-1.7,4.8-3c85.5,9.9,18.1,64.4-1.3,23.3
		c-4.3-8.6-5.2-8.6-7.8-1.7c-13.8,24.6,28.1,37.1,44.5,28.1c7.8-3.5,10.8-3,17.7-3c0.9-1.7,3-6.5,4.3-6.9c5.6-5.2,0-7.8,3-17.7
		c16.4-48.8-89.8-27.2-37.6-66.5c15.1-10.4,29.4,42.3,33.3,5.2c2.6-17.7-15.1-9.5-16.8-20.3C510.4,376.4,513,374.3,510,376.8
		 M1213.7,378.6c-5.6,0.9-4.8,3.5-5.6,8.6c-2.2,7.8,13,14.3,11.7,23.8c0,0.9,2.2,7.3,3.5,10.4c1.3,2.2,2.2,18.6,3,18.1
		c6.9,16.4,0.4,55.7,26.8,52.7c6-5.2,14.7-27.6,17.7-37.6c0-3,5.6-7.3,5.6-10.4c0-2.2,3-10.8,3.9-10.8c7.3,9.1,6,25.1,14.7,34.6
		c0.9,15.1,17.7,38,28.9,13.8c6.9-13.8,4.8-31.1,12.1-44.9c5.6-6,1.7-24.2,6.5-30.2c2.6-5.6,17.3-17.7,9.5-27.2
		c-1.3-1.3-2.6-1.3-17.3-1.7c-2.6,0.4-16.8-1.7-18.1,1.7c-11.2,10.8,9.1,18.6,4.3,27.6c-10.4,41.9-17.7-22-30.7-28.5
		c-19,0.9-18.6,31.5-28.1,44.1c-0.9,3-1.3,7.8-4.3,9.1c-4.8-3-3.9-16.8-5.6-22.5c-3.5-6.9,3.5-10.4,4.8-15.1
		c0.4-1.3,2.2,1.3,1.3-1.7c0.9-3.9,2.2-11.2-3.5-14.3C1251.7,377.3,1215.8,377.3,1213.7,378.6 M1569.2,380.7
		c-7.3,6.5,0,16.8,6.5,21.6c1.3,0,6.5,95.5-8.2,74.7c-6-9.1-30.2-32-26.8-41.9c11.7-7.3,28.1-32.4,9.9-45.8
		c-3-11.7-45.8-10.8-73.4-9.9c-7.8,0-9.1,0-9.1,2.2c-8.2,9.5,2.6,17.3,11.2,21.2c0,16.4,0,49.7,0,66.1c-1.3,1.3-3.9,3.5-5.6,3
		c-19.9,5.2-2.6,33.3,15.1,16.8c5.2-2.6,22,6.9,26.8,4.8c11.7-4.8,6-21.6-6.9-25.1c0-3.9-0.4-16.8-0.9-19c1.3-4.8,9.1,3,8.2,7.3
		c5.6,11.7,14.3,24.2,22.9,34.6c5.6,0,26.3,0,28.5-0.9c9.5,3.9,24.2,2.6,26.8,0c8.2-6,49.2,12.1,58.3-6.9c3-4.8,3-32,0-28.5
		c-4.8-5.2-13.4-3.5-15.6,3.9c-0.9,13.4-15.1,8.6-25.9,9.5c0.9-13-2.6-76,2.2-69.5c9.9-5.2,9.5-27.2-9.5-20.3
		C1589,385,1578.7,372.5,1569.2,380.7 M1668.5,378.6c-19,9.5-6,21.6,9.1,25.5c-2.2,21.6,3,90.7-1.3,109.3
		c-8.2,5.6-10.4,22.9,2.6,21.2c41.9-3,101.1,9.9,127-23.3c6-4.3,11.7-23.8,18.1-21.2c0-18.6,0-55.7,0-74.3c-2.6-0.4-4.8,0-5.2-3
		c-4.8-9.1-14.3-18.6-21.2-23.8C1769.6,368.2,1697.4,385,1668.5,378.6 M1067.2,394.6c2.6,3,3,5.6,3,39.3c0,37.6-0.4,47.5-3.5,47.9
		c-6,0.9-6-9.5-12.5-11.7c-4.3-4.8,1.3-13-7.8-17.7c0.4-19.4-1.3-40.2,8.2-52.7C1058.2,397.6,1062.5,389.4,1067.2,394.6
		 M241.8,396.3c3.5,0.9,4.3,3.9,8.2,5.6c-2.6,18.1,9.9,95-19,67.4c0-17.3,0-51.4,0-68.7C234.4,397.1,235.7,394.6,241.8,396.3
		 M660.8,398.9c27.6,4.8,17.3,40.2,16.8,59.6l-5.2,5.2c-4.3,8.6-25.9,7.8-26.8,2.2c-24.2,5.2-22.5-46.7-12.5-48.8
		c-0.4-3,5.6-9.1,7.8-12.1C643.1,399.7,654.7,397.1,660.8,398.9 M148,402.3c13,9.9-15.1,26.8-12.5,9.1c0.9-7.8-2.6-7.8,2.2-12.5
		C140.7,399.3,145.9,400.6,148,402.3 M291.9,401c13.8,5.2,0.9,27.2-7.8,27.6C283.7,423.9,278.1,391.5,291.9,401 M1421,401.5
		c7.8,3.9,9.1,13.4,14.3,19.9c0.4,17.3,0.9,33.7-8.6,44.1C1376.5,501.2,1365.7,384.2,1421,401.5 M410.7,402.3
		c10.8,6,14.7,24.2,14.3,28.5c7.3-13.4-6.5,42.3-37.6,38c-8.2,0-8.2-0.4-7.3-10.8c3-13.4-2.2-44.9,1.3-57.9
		C387.8,400.6,410.2,400.2,410.7,402.3 M1125.1,403.6c12.5,10.4-24.6,29.8-20.7,7.3c0-10.8-0.9-9.9,9.9-9.9
		C1116.9,401,1123.8,399.7,1125.1,403.6 M1519,402.3c11.7,6.9,4.8,26.3-8.6,25.5C1510,422.6,1503.9,392.8,1519,402.3 M1744.5,406.2
		c24.6,0.4,44.1,12.5,41.9,39.7c2.6,41.5-16,57-49.2,62.2c-8.2,0.4-22.9,5.6-19-6.9c0.4-3.5,0.4-25.9,0.9-50.1
		C1719,385.9,1715.1,408.8,1744.5,406.2 M143.7,441.6c10.4,3,9.9,10.4,9.5,20.7c-3.9,4.3-11.2,9.1-16,6.9
		C137.2,467.6,129.5,432.1,143.7,441.6 M812.4,478.8c-3.9,3.9,2.6,7.8,2.2,2.6c-0.9-3.9,2.6-1.3,0.9-3.5
		C814.1,476.6,814.5,476.6,812.4,478.8 M637.9,513.8c-10.4,7.3-38,1.3-54.4,2.6c-1.7-0.9-5.6-3-7.3-3.9c-42.8-3-95.5,9.9-136.1,0.9
		c-0.9-0.9-25.5-0.9-166.3-0.9c-191.4,0.4-156.8-2.2-176.7,6c0,2.6-0.4,8.2-0.4,11.2c3.5-0.9,8.6,3,11.7,5.2h158.5
		c239.7,2.2,105.4-6,222.9-6c9.9-1.7,11.2,0.4,15.6,6c19,0,56.2-0.4,74.7-0.4c6.5-10.8,44.9-2.2,53.1-5.2c16.8-6,10.4,13.8,15.1,9.5
		c1.3-10.8,73.9-1.7,76.5-4.8c2.6-10.4,19-3.5,37.6-5.2c70,4.3,684.6,11.7,887.2,3c7.8-7.8,4.8-15.6-3.5-20.3
		c-157.7,0.4-666.5,1.3-631.9,0.4c-8.2,2.6-35.4,8.6-49.2,2.2c-19.9-6.9-98.9,1.3-106.3-3.5c-4.3,0-8.6,8.6-16.4,5.6
		c-6.5-1.7-21.6,3-22.9-3.9c0-1.7-2.6-2.6-3.9-0.9c-1.3,3-18.6,0.4-21.2,3.5c-3.9,1.7-5.2,1.7-14.3,1.7c-41-0.4-41.5-0.4-44.5-3
		c-1.7-1.3-3.9-1.3-45.8-1.3C653.9,514.2,650.8,508.2,637.9,513.8 M402.9,784.2c-1.3,2.2,0.9,5.6,2.2,3c0-0.9-1.3,0.4-1.3-0.4
		c0-0.4,0.4-0.9,1.3-0.9C407.2,786.3,403.8,781.6,402.9,784.2"/>
</g>
</svg>
