<?xml version="1.0" encoding="utf-8"?>
<!-- Generator: Adobe Illustrator 24.0.2, SVG Export Plug-In . SVG Version: 6.00 Build 0)  -->
<svg version="1.1" id="Layer_1" xmlns="http://www.w3.org/2000/svg" xmlns:xlink="http://www.w3.org/1999/xlink" x="0px" y="0px"
	 viewBox="0 0 512 512" style="enable-background:new 0 0 512 512;" xml:space="preserve">
<style type="text/css">
	.st0{fill-rule:evenodd;clip-rule:evenodd;fill:#74AC04;}
	.st1{fill-rule:evenodd;clip-rule:evenodd;fill:#FFFFFF;}
	.st2{fill-rule:evenodd;clip-rule:evenodd;fill:none;}
</style>
<g>
	<g>
		<path class="st0" d="M206.7,88c7.2,31.6,19.9,75.2,49.2,90.3c1.3,0.6,2,1.2,1.7,1.2c-1,0,4.7,3.8,5.8,3.8
			c4.3,3.9,13.4,10.1,18,14.3c6.3,4.9,14.4,12,27.2,24.8c10.8,10.8,12.9,12,14.8,8.5c2.5-14.6-4.1-33.6-9.9-47.3
			c-11.3-26.9-32.6-55.2-59.7-72.4C247.9,107.5,209.5,82.4,206.7,88"/>
		<path class="st0" d="M64,126.8c4.8,27.8,49.2,52.9,72.9,68.8c3.6,2,8.9,5.4,12.4,7.3c1.7,1.3,1.2,1.4-15,1.3
			c-17.9-0.2-25.6,1.4-28.6,3.1c-1.9-1.2-1.3,1.7,1.3,5.8c21.1,27.8,52.3,44,84.5,52.8c-8.1,0.3-14.1,1.5-21.1,2.9
			c-12.4,1.4-22.3,3.6-22.3,5.2c1.6,4.4,8.1,10.9,11.5,15.1c10.1,12.1,25.5,26.9,34.6,32.5c4.7,3.3,7.9,4.7,12.3,6.8
			c0.5,0.7,7.7,3.1,9.4,3.1c0.7,0,1.4,0.3,1.4,0.6c6.9,2.8,23.3,3.8,38.3,2.3c26.5-1.5,27.7-0.7,19,12.3c-9.2,13.7-36,39.9-40.9,40
			c-15.6,11.1-31.3,17.6-51.9,22.2c-3.5,1.2-20,1.2-11.4,5c98.1,36,203.7-15.3,235.4-112.6c0.3,0,0.6-0.4,0.6-1
			c0.2-2.1,3.6-15.6,4-15.9c0.5-0.5,0.6-0.9,2.3-12.6c2.5-14.4,10.4-48.4,16.2-53.6c3.8-6.3,4.8-8.1,14.2-15.2
			c22.9-14.7-52.6-14.1-58.3-11.6c-22.8,6-35.8,17.6-46.8,33c-5.4,6.4-9.5,18.1-17.2,22.1c-3.4,3.9-34.4-31.5-40-34.8
			c-12.4-11.4-24.3-18.9-37.3-27.9c-52.6-33.8-114.1-52.1-178.7-58.4C64.3,125.1,64,126,64,126.8"/>
		<path class="st1" d="M399.1,210.5c6.5,4.1,3,13.8-5,13.8C380.8,221.6,386.7,204.7,399.1,210.5"/>
	</g>
	<rect y="0.5" class="st2" width="512" height="512"/>
</g>
</svg>
