<?xml version="1.0" encoding="utf-8"?>
<!-- Generator: Adobe Illustrator 24.0.2, SVG Export Plug-In . SVG Version: 6.00 Build 0)  -->
<svg version="1.1" id="Layer_1" xmlns="http://www.w3.org/2000/svg" xmlns:xlink="http://www.w3.org/1999/xlink" x="0px" y="0px"
	 viewBox="0 0 512 512" style="enable-background:new 0 0 512 512;" xml:space="preserve">
<g>
	<path d="M407.8,344.8c-31.2,56.3-91.5,94.5-160.5,94.5C146.1,439.3,64,357.2,64,256S146.1,72.7,247.3,72.7
		c69,0,129.2,38.2,160.5,94.6h-58.9c-24.7-28.2-61-46.2-101.6-46.2c-74.4,0-134.9,60.4-134.9,134.9s60.4,134.9,134.9,134.9
		c40.4,0,76.7-17.8,101.4-46L407.8,344.8L407.8,344.8z"/>
	<path id="I_1_" d="M170.4,302.9v-86h17v86H170.4"/>
	<path id="U" d="M203.7,216.9h18.1v46.6c0,7.3,0.2,12.2,0.7,14.4c0.7,3.6,2.6,6.4,5.4,8.4c3,2.1,6.9,3.2,12,3.2s9-0.9,11.6-3
		s4.1-4.5,4.7-7.5c0.6-3,0.7-7.9,0.7-14.6v-47.5h18.1V262c0,10.3-0.6,17.6-1.5,21.9s-2.8,7.9-5.4,10.8s-6.2,5.2-10.5,7.1
		c-4.3,1.7-10.1,2.6-17.2,2.6c-8.6,0-15-0.9-19.5-2.8s-7.9-4.3-10.5-7.3c-2.6-3-4.3-6.2-5.1-9.5c-1.1-4.9-1.7-12.2-1.7-21.9
		L203.7,216.9"/>
	<path id="C" d="M285.8,260.5c0-8.8,1.3-16.1,3.9-22.1c1.9-4.3,4.5-8.2,7.9-11.8c3.4-3.6,7.1-6,11-7.7c5.2-2.2,11.4-3.4,18.3-3.4
		c12.5,0,22.4,3.9,29.9,11.8c4.9,5.1,8.2,11.4,9.9,19.1l-18,0.2c-1.1-3.6-2.6-6.5-4.9-9c-4.3-4.9-9.9-7.3-17-7.3
		c-7.1,0-12.7,2.4-17,7.3c-4.3,4.9-6.5,12.3-6.5,22.3 M303.6,259.9c0,9.7,2.2,17.2,6.7,22.1c4.5,5.1,10.1,7.5,16.8,7.5
		s12.3-2.4,16.8-7.5c2.4-2.8,4.1-6.4,5.2-10.5l18,0.4c-1.5,8.4-4.9,15.3-10.1,20.8c-7.5,7.9-17.4,11.8-29.7,11.8
		c-12.5,0-22.6-3.9-30.1-11.6c-7.5-7.9-11.2-18.5-11.2-32.2"/>
	<path id="N" d="M377.5,302.9v-86h15.3l39.3,59.5v-59.5H448v86h-15l-40.4-60.2l1.7,60.2H377.5"/>
</g>
</svg>
