<?xml version="1.0" encoding="utf-8"?>
<!-- Generator: Adobe Illustrator 24.0.2, SVG Export Plug-In . SVG Version: 6.00 Build 0)  -->
<svg version="1.1" id="Layer_1" xmlns="http://www.w3.org/2000/svg" xmlns:xlink="http://www.w3.org/1999/xlink" x="0px" y="0px"
	 viewBox="0 0 1920 1080" style="enable-background:new 0 0 1920 1080;" xml:space="preserve">
<style type="text/css">
	.st0{fill:#D2110C;}
	.st1{fill:#FFFFFF;}
	.st2{font-family:'ArialMT';}
	.st3{font-size:64.1874px;}
</style>
<circle class="st0" cx="659.5" cy="798.9" r="227.1"/>
<path class="st0" d="M886.5,306.4c0,124.8-101.2,226-226,226c-124.8,0-226-101.2-226-226c0-124.8,101.2-226,226-226h226V306.4
	L886.5,306.4z"/>
<circle class="st0" cx="1069.9" cy="390.9" r="141.1"/>
<ellipse transform="matrix(0.7067 -0.7075 0.7075 0.7067 265.5517 908.0724)" class="st0" cx="1228" cy="133.7" rx="90.3" ry="67.6"/>
<ellipse transform="matrix(0.7067 -0.7075 0.7075 0.7067 196.8452 794.9125)" class="st0" cx="1057.2" cy="160" rx="90.3" ry="67.6"/>
<ellipse transform="matrix(0.7067 -0.7075 0.7075 0.7067 222.3438 1011.8365)" class="st0" cx="1331.6" cy="237.7" rx="90.3" ry="67.6"/>
<ellipse transform="matrix(0.7067 -0.7075 0.7075 0.7067 94.4146 1041.9713)" class="st0" cx="1304" cy="407.1" rx="90.3" ry="67.6"/>
<path class="st1" d="M684.6,846.9c-16.7,30.1-48.9,50.5-85.8,50.5c-54.1,0-98-43.9-98-98c0-54.1,43.9-98,98-98
	c36.9,0,69.1,20.4,85.8,50.6l-31.5,0c-13.2-15.1-32.6-24.7-54.3-24.7c-39.8,0-72.1,32.3-72.1,72.1c0,39.8,32.3,72.1,72.1,72.1
	c21.6,0,41-9.5,54.2-24.6H684.6z"/>
<path id="R" d="M938,605.6h91.6c31.7,0,62.9,14.3,62.9,50.6c0,19.4-9.3,37.8-28.2,45.1v0.5c19.1,4.5,24.7,25.9,26.2,43
	c0.5,7.6,1.3,34,7.6,40.5h-46.3c-4-6-4.8-23.7-5.3-28.7c-1.3-18.1-4.3-36.8-26.2-36.8h-35.5v65.5H938L938,605.6L938,605.6z
	 M984.8,683.6h39.3c14.1,0,21.6-7.6,21.6-21.1c0-13.3-10.6-19.4-23.7-19.4h-37.3L984.8,683.6L984.8,683.6z"/>
<path id="E" d="M1115.3,605.6h143.2v37.5h-96.4v31.5h88.1v36.3h-88.1V745h98.9v40.3h-145.8L1115.3,605.6L1115.3,605.6z"/>
<path id="D" d="M1281.2,605.6h77.3c55.1,0,88.1,33.5,88.1,89.1c0,58.9-33.5,90.6-88.1,90.6h-77.3V605.6z M1328,745h22.2
	c35.5-0.8,49.6-14.6,49.6-50.6c0-32.7-17.6-48.6-49.6-48.6H1328V745z"/>
<path id="L" d="M938,803.7h46.8v139.5h83.8v40.3H938L938,803.7L938,803.7z"/>
<path id="I" d="M1082.1,803.7h46.8v179.7h-46.8V803.7z"/>
<path id="S" d="M1188.1,923.1c1,21.1,14.1,27.9,34,27.9c14.1,0,28.7-5,28.7-18.4c0-15.9-25.7-18.9-51.6-26.2
	c-25.7-7.3-52.6-18.9-52.6-51.9c0-39.3,39.5-54.6,73.3-54.6c35.7,0,71.7,17.4,72,57.9H1245c0.8-16.4-14.6-21.6-29-21.6
	c-10.1,0-22.7,3.5-22.7,15.4c0,13.8,25.9,16.4,52.1,23.7c25.9,7.3,52.1,19.4,52.1,51.9c0,45.6-38.8,60.2-78.3,60.2
	c-41.3,0-77.8-18.1-78-64.2L1188.1,923.1L1188.1,923.1z"/>
<path id="T" d="M1444.4,844h-53.6v139.5H1344V844h-53.6v-40.3h154.1V844L1444.4,844z"/>
<text transform="matrix(1 0 0 1 1441.6797 644.6914)" class="st2 st3">©</text>
<path id="I_1_" class="st1" d="M557.7,824.5v-46h9.1v46H557.7"/>
<path id="U" class="st1" d="M575.5,778.5h9.7v24.9c0,3.9,0.1,6.5,0.4,7.7c0.4,1.9,1.4,3.4,2.9,4.5c1.6,1.1,3.7,1.7,6.4,1.7
	c2.7,0,4.8-0.5,6.2-1.6c1.4-1.1,2.2-2.4,2.5-4c0.3-1.6,0.4-4.2,0.4-7.8v-25.4h9.7v24.1c0,5.5-0.3,9.4-0.8,11.7
	c-0.5,2.3-1.5,4.2-2.9,5.8c-1.4,1.6-3.3,2.8-5.6,3.8c-2.3,0.9-5.4,1.4-9.2,1.4c-4.6,0-8-0.5-10.4-1.5c-2.4-1-4.2-2.3-5.6-3.9
	c-1.4-1.6-2.3-3.3-2.7-5.1c-0.6-2.6-0.9-6.5-0.9-11.7L575.5,778.5"/>
<path id="C" class="st1" d="M619.4,801.8c0-4.7,0.7-8.6,2.1-11.8c1-2.3,2.4-4.4,4.2-6.3c1.8-1.9,3.8-3.2,5.9-4.1
	c2.8-1.2,6.1-1.8,9.8-1.8c6.7,0,12,2.1,16,6.3c2.6,2.7,4.4,6.1,5.3,10.2l-9.6,0.1c-0.6-1.9-1.4-3.5-2.6-4.8
	c-2.3-2.6-5.3-3.9-9.1-3.9s-6.8,1.3-9.1,3.9c-2.3,2.6-3.5,6.6-3.5,11.9 M628.9,801.5c0,5.2,1.2,9.2,3.6,11.8c2.4,2.7,5.4,4,9,4
	c3.6,0,6.6-1.3,9-4c1.3-1.5,2.2-3.4,2.8-5.6l9.6,0.2c-0.8,4.5-2.6,8.2-5.4,11.1c-4,4.2-9.3,6.3-15.9,6.3c-6.7,0-12.1-2.1-16.1-6.2
	c-4-4.2-6-9.9-6-17.2"/>
<path id="N" class="st1" d="M668.4,824.5v-46h8.2l21,31.8v-31.8h8.5v46h-8l-21.6-32.2l0.9,32.2H668.4"/>
</svg>
