<?xml version="1.0" encoding="utf-8"?>
<!-- Generator: Adobe Illustrator 24.0.2, SVG Export Plug-In . SVG Version: 6.00 Build 0)  -->
<svg version="1.1" id="Layer_1" xmlns="http://www.w3.org/2000/svg" xmlns:xlink="http://www.w3.org/1999/xlink" x="0px" y="0px"
	 viewBox="0 0 512 512" style="enable-background:new 0 0 512 512;" xml:space="preserve">
<style type="text/css">
	.st0{fill-rule:evenodd;clip-rule:evenodd;fill:#F7F3F1;}
	.st1{fill-rule:evenodd;clip-rule:evenodd;fill:#842404;}
</style>
<g id="svgg">
	<path id="path0" class="st0" d="M345.7,176.4c-1.7,0.2-4.3,0.6-5.8,0.9c-1.5,0.4-4.2,0.9-6.1,1.2c-1.9,0.3-4.5,1.1-6,1.7
		c-1.4,0.6-3.2,1.2-3.9,1.3c-0.8,0.1-2.2,0.8-3.1,1.3c-0.9,0.6-2.3,1.2-2.8,1.3c-0.6,0.1-1.9,0.8-2.8,1.6c-0.9,0.8-1.9,1.3-2.1,1.3
		c-0.4,0-2.5,1.4-6.3,4.3c-4.4,3.4-11.9,11.5-14.3,15.5c-0.5,0.9-1.2,1.9-1.5,2.3c-0.3,0.4-1,1.5-1.5,2.5c-0.9,1.8-1.5,3-3.9,7.9
		c-0.6,1.3-1.4,3.3-1.7,4.5c-0.3,1.2-0.9,3-1.4,4c-0.4,1-1.1,3.4-1.4,5.3s-0.9,4.8-1.3,6.4c-1.9,7-1.8,24.5,0.2,33.5
		c0.5,2.4,1.1,5.5,1.2,6.7c0.2,1.3,0.7,3.4,1.2,4.6c0.5,1.3,1.2,3.4,1.5,4.8c0.4,1.4,0.9,3,1.3,3.7c0.4,0.6,1,2.1,1.5,3.3
		c0.4,1.2,1.3,3,2,4c0.6,1,1.2,2.1,1.2,2.3c0,0.2,0.4,0.8,0.8,1.2c0.4,0.4,1.1,1.3,1.5,2.1c1.5,3,8.3,10.6,11.2,12.6
		c0.5,0.4,1,0.8,1.1,0.9c0.4,0.6,5.7,4.2,6.5,4.4c0.5,0.2,1.3,0.7,1.9,1.2c0.6,0.5,1.9,1.2,2.8,1.5s2.5,1.1,3.4,1.7
		c0.9,0.6,2.7,1.3,3.8,1.5c1.1,0.2,2.7,0.8,3.6,1.2c0.9,0.4,3.6,1.1,6.1,1.5c2.5,0.4,6.6,1.1,9.1,1.5c7.4,1.3,23.5,1,29-0.4
		c0.8-0.2,3.5-0.6,6.2-0.9c2.7-0.3,6.1-1,7.7-1.5c1.6-0.5,4.1-1.2,5.5-1.5c5.9-1.3,6.8-5.2,3.8-16.4c-0.4-1.6-1-5-1.3-7.6
		c-0.8-6.7-1.9-7.7-6-5.6c-0.6,0.3-2.2,0.7-3.6,0.9c-1.5,0.2-4,0.8-5.5,1.3c-7.6,2.3-29.4,2.5-33.8,0.2c-0.8-0.4-2.7-1-4.2-1.4
		c-1.5-0.4-3.1-0.9-3.6-1.3c-0.5-0.4-1.8-1.1-2.8-1.5c-1-0.4-2.4-1.3-3-1.9s-2.1-1.9-3.1-2.9c-2.8-2.6-7.8-11.2-8.5-14.6
		c-0.2-0.7-0.7-2.3-1.1-3.6c-2.7-6.8-2.7-32.2,0-39c0.5-1.3,1.1-3.1,1.3-4c0.5-2,3.6-8.3,4.4-8.9c0.3-0.3,0.8-1,1.1-1.7
		c0.9-2,7.2-7.9,9.1-8.7c0.7-0.3,1.7-0.9,2.3-1.4c0.6-0.5,2.3-1.2,3.8-1.7c1.5-0.4,3.6-1.1,4.7-1.6c4.3-1.8,22.3-1.7,28.4,0.2
		c1.8,0.6,4.5,1.3,6.1,1.6c1.6,0.3,3.4,0.9,4.1,1.3c1.7,1,3.3,1,3.8-0.1c0.9-1.9,2.8-8.3,3.2-10.9c0.2-1.5,0.8-3.7,1.3-4.9
		c0.5-1.2,1.2-4,1.6-6.3l0.7-4l-0.9-1c-1.2-1.3-3.2-2.3-5.7-2.8c-1.1-0.2-3.3-0.9-4.7-1.4c-1.4-0.5-4.5-1.2-6.8-1.5
		c-2.3-0.3-5.8-0.9-7.6-1.3C363.3,176.3,350.9,175.8,345.7,176.4 M125.6,180.6c-0.8,0.8-1,2.5-0.4,2.9c0.2,0.1,1.7,2.2,3.3,4.5
		s3.6,5.3,4.4,6.4c0.8,1.1,2,2.9,2.6,3.8c0.6,0.9,1.5,2.3,2.1,3c0.6,0.7,1.1,1.4,1.1,1.6s0.5,0.9,1.1,1.6c0.6,0.7,1.5,2.1,2.1,3
		c1.4,2.3,2.7,4.2,3.8,5.6c0.5,0.6,1.2,1.7,1.5,2.3c0.4,0.6,0.9,1.5,1.3,1.9c0.4,0.4,1.2,1.5,1.8,2.5c0.6,0.9,1.3,1.9,1.5,2.1
		c0.2,0.2,0.8,1.1,1.4,2c0.6,0.9,1.7,2.6,2.6,3.8c0.8,1.2,2,2.8,2.5,3.6c0.5,0.8,1.8,2.6,2.8,4.1c1,1.5,2.3,3.2,2.8,4
		c0.5,0.8,1.3,1.9,1.9,2.5c0.5,0.6,1.3,1.9,1.7,2.7c0.4,0.9,1.1,1.8,1.4,2.1c0.4,0.3,0.9,1.1,1.2,1.7c0.3,0.6,0.9,1.6,1.4,2
		c1,1.1,0.7,3.1-0.6,4.8c-0.5,0.7-1.5,1.9-2.1,2.8c-0.6,0.8-1.8,2.3-2.5,3.2c-0.8,0.9-1.6,2.1-1.9,2.7c-0.3,0.6-0.9,1.3-1.3,1.7
		c-0.4,0.4-1.3,1.5-1.8,2.4c-0.6,0.9-1.1,1.7-1.3,1.7c-0.2,0-0.7,0.7-1.1,1.5c-0.4,0.8-1,1.7-1.4,2c-0.4,0.3-1,1.2-1.4,2.1
		s-1.2,2.1-1.8,2.8s-1.3,1.7-1.7,2.3c-0.4,0.6-1.1,1.7-1.6,2.5c-0.5,0.8-1.7,2.5-2.6,3.8c-0.9,1.3-1.8,2.6-2.1,2.9
		c-0.2,0.2-1.1,1.5-1.9,2.8c-0.8,1.3-1.6,2.4-1.7,2.5c-0.2,0.1-0.6,0.9-1.1,1.8c-0.4,0.9-1,1.7-1.2,1.9c-0.2,0.1-0.8,1.1-1.4,2.1
		c-1.1,2.1-3.2,5.1-4.5,6.8c-0.6,0.7-1,1.4-1,1.6c0,0.2-0.7,1.3-1.5,2.5c-0.8,1.1-1.5,2.2-1.5,2.5c0,0.2-0.7,1.4-1.5,2.7
		c-0.8,1.2-1.5,2.5-1.5,2.7c0,0.3-0.5,1.1-1.1,1.9c-0.6,0.8-1.3,2.1-1.6,2.8c-0.2,0.8-0.9,2-1.5,2.7c-0.9,1.1-1,1.5-0.7,2.5
		c0.7,2.4-0.2,2.3,16.9,2.1l15.6-0.1l1.7-1.1c1.1-0.8,1.9-1.7,2.6-3.1c1.1-2.4,4.7-8.8,6.3-11.4c0.2-0.3,0.8-1.4,1.4-2.5
		c0.6-1,1.4-2.4,1.9-3.1c0.5-0.7,1.2-2,1.6-2.9c0.4-0.9,1.2-2.2,1.7-2.8c0.5-0.6,0.9-1.4,0.9-1.7s0.6-1.2,1.3-2
		c0.7-0.8,1.4-1.8,1.5-2.3c0.2-0.5,0.9-1.6,1.6-2.5s1.3-1.9,1.3-2.1s0.5-1,1.1-1.7s1.4-1.9,1.8-2.7c0.6-1.3,1.1-1.9,3.8-5.3
		c0.6-0.8,1.5-2,1.9-2.7c3.4-5.4,4-6,5.5-5.2c1.2,0.6,4.8,5.3,8,10.4c0.6,0.9,1.6,2.4,2.3,3.2c0.7,0.9,1.3,1.7,1.3,2
		s0.3,0.8,0.7,1.1c0.4,0.4,1.1,1.5,1.6,2.4c1,1.8,2.7,4.4,4.1,6.4c0.5,0.7,1.3,2.1,1.8,3c0.5,1,1.1,1.9,1.4,2.1
		c0.2,0.1,0.9,1.3,1.6,2.6c0.7,1.3,1.3,2.5,1.5,2.5c0.2,0.1,0.7,0.9,1.1,1.9c0.4,1,1.1,2.1,1.5,2.6c0.4,0.4,1,1.5,1.3,2.3
		c0.4,0.8,1,2.1,1.5,2.7c0.5,0.6,1.1,1.7,1.4,2.5c0.5,1.2,1.7,3.1,3.8,5.7c1.1,1.4,3,1.5,19.6,1.5c13.8,0,15.1,0,15.9-0.6
		c1.3-1.1,1.3-2.4,0.3-4.3c-0.5-0.9-1.4-2.7-2-3.8s-1.5-2.8-2.1-3.6c-0.6-0.8-1.1-1.7-1.1-2s-0.4-1-0.9-1.6c-0.5-0.6-1.4-1.9-1.9-3
		s-1.4-2.5-1.9-3.1c-0.8-1.2-1.5-2.3-3.4-5.3c-0.5-0.9-1.3-2.1-1.9-2.7c-0.5-0.6-1.9-2.7-3.2-4.6c-3-4.5-3.9-5.9-5.1-7.5
		c-0.6-0.8-1.5-2.1-2.1-3.1c-0.6-0.9-1.7-2.5-2.5-3.4c-0.7-0.9-2.3-3.2-3.5-5c-1.2-1.8-3.2-4.5-4.4-6.1c-2.3-3-4.3-5.8-6.1-8.3
		c-0.6-0.8-1.2-1.6-1.4-1.7c-0.2-0.1-0.9-1-1.6-2.1c-0.8-1.1-2.1-3-3.1-4.3c-2.8-3.8-2.8-3.6-0.8-6.6c2-3,3.5-5.1,4.9-6.8
		c0.6-0.7,1.2-1.7,1.5-2.2c0.3-0.5,1-1.7,1.6-2.5c2.2-3,6.4-9.1,7.4-10.8c0.4-0.7,1.2-1.7,1.7-2.4c0.5-0.6,1.3-1.7,1.6-2.3
		c0.8-1.2,2.1-3.1,3.6-5.1c0.6-0.8,1.4-1.9,1.9-2.7c2.5-3.6,6.9-10,7.7-11.2c0.5-0.8,1.3-1.9,1.9-2.5c0.5-0.6,1.1-1.6,1.4-2.1
		c0.3-0.5,0.8-1.3,1.3-1.8c0.4-0.5,1.1-1.5,1.6-2.2c1.8-2.9,4.4-6.7,5-7.2c0.3-0.3,0.6-0.7,0.6-0.9s0.4-0.9,0.9-1.7
		c1.1-1.5,1.2-2.9,0.2-3.8c-0.8-0.7-32.1-0.8-33.5-0.1c-0.6,0.3-4.5,5.3-4.5,5.8c0,0.3-2.9,4.7-4.2,6.4c-0.4,0.5-1,1.6-1.4,2.3
		c-0.4,0.8-1.2,2-1.8,2.7s-1.1,1.6-1.1,1.8c0,0.2-0.5,1-1.1,1.7c-0.6,0.7-1.6,2.3-2.3,3.4c-0.7,1.2-1.5,2.4-1.8,2.7
		c-0.3,0.3-0.6,0.7-0.6,0.9c0,0.2-0.5,1-1.1,1.8s-1.5,2.1-2,3c-0.5,0.9-1.3,2.2-1.8,2.8c-0.5,0.6-0.9,1.2-0.9,1.4s-0.6,1-1.2,1.8
		c-0.7,0.8-1.4,2-1.7,2.7c-0.9,1.9-3.8,5.8-4.4,5.9c-1.1,0.2-3-1.4-4-3.3c-0.5-1.1-1.1-2-1.4-2.1c-0.2-0.1-0.8-0.9-1.2-1.8
		c-0.4-0.8-1.4-2.3-2.1-3.3c-0.7-0.9-1.3-2-1.3-2.2c0-0.3-0.4-0.8-0.8-1.2c-0.4-0.4-1.1-1.4-1.6-2.3c-0.4-0.8-1.1-1.9-1.5-2.3
		c-0.4-0.4-1.1-1.5-1.5-2.4s-1.1-1.8-1.4-2.1c-0.3-0.3-0.9-1.2-1.4-2.1s-1.3-2.2-1.9-2.9c-0.6-0.8-1.1-1.5-1.1-1.8s-0.5-1-1.1-1.7
		c-0.6-0.7-1.4-1.9-1.8-2.7c-0.8-1.6-2.8-4.7-3.9-6.1c-0.4-0.5-1.1-1.7-1.5-2.5c-0.4-0.9-1.7-2.3-2.7-3.2l-1.9-1.6h-16.8
		C126.9,179.8,126.4,179.8,125.6,180.6"/>
	<path id="path1" class="st1" d="M64.1,256.3v192.3h192.3h192.3V256.3V64.1H256.3H64.1V256.3 M367.2,177.1c1.9,0.4,5.3,1,7.6,1.3
		s5.4,1,6.8,1.5c1.4,0.5,3.5,1.1,4.7,1.4c2.6,0.6,4.5,1.5,5.7,2.8l0.9,1l-0.7,4c-0.4,2.2-1.1,5-1.6,6.3c-0.5,1.2-1.1,3.4-1.3,4.9
		c-0.4,2.5-2.3,8.9-3.2,10.9c-0.5,1.1-2.1,1.1-3.8,0.1c-0.7-0.4-2.6-1-4.1-1.3c-1.6-0.3-4.3-1-6.1-1.6c-6.1-1.9-24.1-2-28.4-0.2
		c-1,0.4-3.1,1.1-4.7,1.6s-3.2,1.2-3.8,1.7s-1.6,1.1-2.3,1.4c-2,0.8-8.2,6.7-9.1,8.7c-0.3,0.7-0.8,1.4-1.1,1.7
		c-0.8,0.7-3.9,7-4.4,8.9c-0.2,0.9-0.8,2.7-1.3,4c-2.7,6.8-2.7,32.2,0,39c0.5,1.3,1,2.8,1.1,3.6c0.7,3.4,5.7,12,8.5,14.6
		c1.1,1,2.5,2.3,3.1,2.9c0.6,0.6,2,1.5,3,1.9c1,0.4,2.3,1.1,2.8,1.5c0.5,0.4,2.2,1,3.6,1.3c1.5,0.4,3.4,0.9,4.2,1.4
		c4.4,2.3,26.2,2.1,33.8-0.2c1.6-0.5,4.1-1.1,5.5-1.3c1.5-0.2,3.1-0.7,3.6-0.9c4.2-2.1,5.2-1.1,6,5.6c0.3,2.6,0.9,6.1,1.3,7.6
		c3,11.2,2.2,15-3.8,16.4c-1.5,0.3-4,1-5.5,1.5c-1.6,0.5-5.1,1.2-7.7,1.5c-2.7,0.3-5.4,0.8-6.2,0.9c-5.5,1.4-21.6,1.7-29,0.4
		c-2.5-0.4-6.6-1.1-9.1-1.5c-2.5-0.4-5.2-1.1-6.1-1.5c-0.9-0.4-2.5-1-3.6-1.2c-1.1-0.2-2.8-0.9-3.8-1.5c-0.9-0.6-2.5-1.4-3.4-1.7
		c-0.9-0.3-2.1-1-2.8-1.5c-0.6-0.5-1.5-1.1-1.9-1.2c-0.8-0.2-6.1-3.8-6.5-4.4c-0.1-0.1-0.6-0.6-1.1-0.9c-2.9-2-9.7-9.6-11.2-12.6
		c-0.4-0.8-1.1-1.7-1.5-2.1c-0.4-0.4-0.8-0.9-0.8-1.2c0-0.2-0.5-1.3-1.2-2.3c-0.6-1-1.5-2.8-2-4c-0.4-1.2-1.1-2.7-1.5-3.3
		c-0.4-0.6-0.9-2.3-1.3-3.7c-0.4-1.4-1-3.5-1.5-4.8c-0.5-1.3-1-3.4-1.2-4.6c-0.2-1.3-0.7-4.3-1.2-6.7c-1.9-9-2.1-26.5-0.2-33.5
		c0.4-1.6,1-4.5,1.3-6.4c0.3-1.9,0.9-4.3,1.4-5.3c0.4-1,1.1-2.8,1.4-4c0.3-1.2,1.1-3.3,1.7-4.5c2.3-4.9,3-6.1,3.9-7.9
		c0.5-1,1.2-2.1,1.5-2.5c0.3-0.4,1-1.4,1.5-2.3c2.3-4,9.8-12.1,14.3-15.5c3.9-2.9,5.9-4.3,6.3-4.3c0.2,0,1.2-0.6,2.1-1.3
		c0.9-0.8,2.2-1.5,2.8-1.6c0.6-0.1,1.9-0.8,2.8-1.3c0.9-0.6,2.4-1.2,3.1-1.3c0.8-0.1,2.5-0.8,3.9-1.3s4.1-1.3,6-1.7
		c1.9-0.3,4.6-0.8,6.1-1.2C346.3,175.8,360.7,175.7,367.2,177.1 M161.8,181.4c1,0.9,2.3,2.3,2.7,3.2s1.1,2,1.5,2.5
		c1.1,1.4,3,4.5,3.9,6.1c0.4,0.8,1.2,1.9,1.8,2.7c0.6,0.7,1.1,1.5,1.1,1.7c0,0.3,0.5,1.1,1.1,1.8s1.5,2.1,1.9,2.9
		c0.4,0.9,1.1,1.8,1.4,2.1s0.9,1.2,1.4,2.1c0.5,0.9,1.1,1.9,1.5,2.4c0.4,0.4,1,1.5,1.5,2.3c0.4,0.8,1.1,1.9,1.6,2.3
		c0.4,0.4,0.8,0.9,0.8,1.2s0.6,1.3,1.3,2.2c0.7,0.9,1.7,2.4,2.1,3.3c0.4,0.8,0.9,1.7,1.2,1.8c0.2,0.1,0.8,1.1,1.4,2.1
		c0.9,1.9,2.9,3.5,4,3.3c0.6-0.1,3.5-4,4.4-5.9c0.3-0.6,1.1-1.8,1.7-2.7c0.7-0.8,1.2-1.6,1.2-1.8s0.4-0.8,0.9-1.4s1.3-1.9,1.8-2.8
		c0.5-0.9,1.4-2.3,2-3c0.6-0.8,1.1-1.5,1.1-1.8s0.3-0.7,0.6-0.9c0.3-0.3,1.1-1.5,1.8-2.7c0.7-1.2,1.7-2.7,2.3-3.4
		c0.6-0.7,1.1-1.5,1.1-1.7c0-0.2,0.5-1,1.1-1.8c0.6-0.8,1.4-2,1.8-2.7c0.4-0.8,1-1.8,1.4-2.3c1.2-1.6,4.2-6.1,4.2-6.4
		c0-0.5,3.9-5.5,4.5-5.8c1.5-0.7,32.8-0.6,33.5,0.1c1,0.9,0.9,2.3-0.2,3.8c-0.5,0.7-0.9,1.4-0.9,1.7c0,0.2-0.3,0.6-0.6,0.9
		c-0.6,0.5-3.2,4.3-5,7.2c-0.4,0.7-1.1,1.7-1.6,2.2c-0.4,0.5-1,1.3-1.3,1.8c-0.3,0.5-0.9,1.5-1.4,2.1c-0.5,0.6-1.3,1.7-1.9,2.5
		c-0.8,1.2-5.2,7.6-7.7,11.2c-0.5,0.8-1.4,1.9-1.9,2.7c-1.5,2.1-2.8,3.9-3.6,5.1c-0.4,0.6-1.1,1.6-1.6,2.3c-0.5,0.6-1.3,1.7-1.7,2.4
		c-1,1.6-5.2,7.7-7.4,10.8c-0.6,0.8-1.3,2-1.6,2.5c-0.3,0.5-0.9,1.5-1.5,2.2c-1.4,1.7-2.8,3.8-4.9,6.8c-2,3-2,2.8,0.8,6.6
		c0.9,1.3,2.3,3.2,3.1,4.3c0.8,1.1,1.5,2.1,1.6,2.1c0.2,0.1,0.8,0.8,1.4,1.7c1.8,2.5,3.8,5.3,6.1,8.3c1.2,1.5,3.1,4.3,4.4,6.1
		s2.8,4,3.5,5c0.7,0.9,1.8,2.5,2.5,3.4c0.6,0.9,1.6,2.3,2.1,3.1c1.2,1.6,2.2,3,5.1,7.5c1.3,1.9,2.7,4,3.2,4.6
		c0.5,0.6,1.3,1.9,1.9,2.7c1.8,3,2.5,4.1,3.4,5.3c0.5,0.7,1.3,2.1,1.9,3.1c0.6,1.1,1.4,2.4,1.9,3c0.5,0.6,0.9,1.3,0.9,1.6
		s0.5,1.1,1.1,2s1.5,2.5,2.1,3.6c0.6,1.1,1.5,2.9,2,3.8c1.1,1.9,1,3.2-0.3,4.3c-0.7,0.6-2.1,0.7-15.9,0.6c-16.6,0-18.5-0.2-19.6-1.5
		c-2-2.7-3.2-4.5-3.8-5.7c-0.3-0.8-0.9-1.9-1.4-2.5c-0.5-0.6-1.1-1.9-1.5-2.7c-0.4-0.8-0.9-1.9-1.3-2.3c-0.4-0.4-1.1-1.6-1.5-2.6
		c-0.4-1-0.9-1.9-1.1-1.9c-0.2-0.1-0.9-1.2-1.5-2.5c-0.7-1.3-1.4-2.5-1.6-2.6c-0.2-0.1-0.8-1.1-1.4-2.1c-0.5-1-1.3-2.4-1.8-3
		c-1.4-2-3.1-4.7-4.1-6.4c-0.5-0.9-1.3-2-1.6-2.4c-0.4-0.4-0.7-0.9-0.7-1.1c0-0.2-0.6-1.1-1.3-2c-0.7-0.9-1.7-2.3-2.3-3.2
		c-3.2-5.1-6.8-9.7-8-10.4c-1.5-0.8-2.1-0.2-5.5,5.2c-0.4,0.7-1.3,1.9-1.9,2.7c-2.7,3.3-3.2,4-3.8,5.3c-0.4,0.8-1.2,1.9-1.8,2.7
		s-1.1,1.5-1.1,1.7c0,0.2-0.6,1.1-1.3,2.1c-0.7,0.9-1.4,2.1-1.6,2.5c-0.2,0.5-0.8,1.5-1.5,2.3c-0.7,0.8-1.3,1.7-1.3,2
		c0,0.3-0.4,1.1-0.9,1.7c-0.5,0.6-1.3,1.9-1.7,2.8c-0.4,0.9-1.1,2.2-1.6,2.9c-0.5,0.7-1.3,2.1-1.9,3.1c-0.6,1-1.2,2.1-1.4,2.5
		c-1.6,2.7-5.2,9.1-6.3,11.4c-0.7,1.4-1.5,2.3-2.6,3.1l-1.7,1.1l-15.6,0.1c-17,0.1-16.2,0.2-16.9-2.1c-0.3-0.9-0.2-1.3,0.7-2.5
		c0.6-0.7,1.3-1.9,1.5-2.7c0.2-0.8,1-2.1,1.6-2.8c0.6-0.8,1.1-1.6,1.1-1.9s0.7-1.5,1.5-2.7c0.8-1.2,1.5-2.5,1.5-2.7
		c0-0.2,0.7-1.3,1.5-2.5c0.8-1.1,1.5-2.2,1.5-2.5c0-0.2,0.4-0.9,1-1.6c1.4-1.7,3.4-4.7,4.5-6.8c0.6-1,1.1-1.9,1.4-2.1
		c0.2-0.1,0.8-0.9,1.2-1.9c0.4-0.9,0.9-1.7,1.1-1.8c0.2-0.1,0.9-1.2,1.7-2.5c0.8-1.3,1.7-2.5,1.9-2.8c0.2-0.2,1.1-1.5,2.1-2.9
		c0.9-1.3,2.1-3,2.6-3.8c0.5-0.8,1.3-1.9,1.6-2.5c0.4-0.6,1.1-1.7,1.7-2.3c0.6-0.7,1.3-1.9,1.8-2.8c0.4-0.9,1.1-1.8,1.4-2.1
		c0.4-0.3,1-1.2,1.4-2c0.4-0.8,0.9-1.5,1.1-1.5s0.8-0.8,1.3-1.7c0.6-0.9,1.3-2,1.8-2.4c0.4-0.4,1-1.2,1.3-1.7
		c0.3-0.6,1.1-1.7,1.9-2.7c0.8-0.9,1.9-2.4,2.5-3.2c0.6-0.8,1.6-2.1,2.1-2.8c1.4-1.7,1.6-3.8,0.6-4.8c-0.4-0.5-1-1.4-1.4-2
		c-0.4-0.6-0.9-1.4-1.2-1.7c-0.4-0.3-1-1.2-1.4-2.1c-0.4-0.9-1.2-2.1-1.7-2.7c-0.5-0.6-1.3-1.7-1.9-2.5c-0.5-0.8-1.7-2.5-2.8-4
		s-2.3-3.3-2.8-4.1c-0.5-0.8-1.7-2.4-2.5-3.6c-0.8-1.2-2-2.9-2.6-3.8s-1.2-1.8-1.4-2c-0.2-0.2-0.9-1.2-1.5-2.1
		c-0.6-0.9-1.4-2.1-1.8-2.5c-0.4-0.4-1-1.3-1.3-1.9c-0.3-0.6-1-1.7-1.5-2.3c-1.1-1.4-2.4-3.3-3.8-5.6c-0.6-0.9-1.5-2.3-2.1-3
		c-0.6-0.7-1.1-1.4-1.1-1.6c0-0.2-0.5-0.9-1.1-1.6c-0.6-0.7-1.5-2.1-2.1-3c-0.6-0.9-1.7-2.7-2.6-3.8c-0.8-1.1-2.8-4-4.4-6.4
		c-1.6-2.4-3-4.4-3.3-4.5c-0.6-0.4-0.4-2.1,0.4-2.9c0.8-0.8,1.3-0.8,17.5-0.8h16.8L161.8,181.4"/>
</g>
</svg>
