<?xml version="1.0" encoding="utf-8"?>
<!-- Generator: Adobe Illustrator 24.0.2, SVG Export Plug-In . SVG Version: 6.00 Build 0)  -->
<svg version="1.1" id="svg" xmlns="http://www.w3.org/2000/svg" xmlns:xlink="http://www.w3.org/1999/xlink" x="0px" y="0px"
	 viewBox="0 0 1920 1080" style="enable-background:new 0 0 1920 1080;" xml:space="preserve">
<style type="text/css">
	.st0{fill-rule:evenodd;clip-rule:evenodd;fill:#F7F3F1;}
	.st1{fill-rule:evenodd;clip-rule:evenodd;fill:#842404;}
</style>
<g id="svgg">
	<path id="path0" class="st0" d="M1186,337.8c-4.3,0.4-10.8,1.5-14.6,2.4c-3.7,0.9-10.7,2.3-15.4,3c-4.8,0.8-11.5,2.7-15.1,4.2
		c-3.5,1.5-8,3-9.9,3.4c-1.9,0.3-5.5,1.9-7.9,3.4c-2.4,1.5-5.7,3.1-7.2,3.4c-1.5,0.3-4.7,2.1-7.1,4c-2.3,1.9-4.8,3.4-5.4,3.4
		c-1.1,0-6.2,3.5-16,10.9c-11.2,8.5-30.1,29-36.1,39.1c-1.3,2.3-3.1,4.9-3.9,5.9c-0.8,0.9-2.6,3.8-3.9,6.4c-2.4,4.5-3.9,7.6-9.8,20
		c-1.6,3.2-3.5,8.4-4.3,11.5c-0.8,3.1-2.4,7.6-3.5,10.1c-1.1,2.5-2.7,8.5-3.5,13.3c-0.8,4.8-2.3,12.1-3.3,16.1
		c-4.7,17.7-4.5,61.9,0.5,84.6c1.3,6.1,2.7,13.8,3.1,17c0.4,3.2,1.7,8.5,3,11.7c1.3,3.2,3,8.7,3.9,12.2c0.9,3.5,2.4,7.7,3.3,9.3
		c0.9,1.6,2.6,5.4,3.7,8.4c1.1,3,3.4,7.5,5,10.1c1.6,2.6,3,5.2,3,5.8c0,0.6,0.9,2,2,3c1.1,1,2.8,3.4,3.8,5.3
		c3.9,7.5,21,26.8,28.3,31.8c1.3,0.9,2.5,1.9,2.8,2.2c1.1,1.5,14.4,10.5,16.4,11.1c1.2,0.4,3.4,1.7,4.9,3c1.6,1.3,4.7,3,7,3.8
		c2.3,0.8,6.2,2.7,8.6,4.3c2.4,1.5,6.7,3.3,9.5,3.9c2.8,0.6,6.9,2,9.1,3.1c2.2,1.1,9,2.9,15.3,3.9c6.2,1.1,16.6,2.8,23,3.9
		c18.7,3.2,59.5,2.6,73.4-1.1c1.9-0.5,8.9-1.6,15.6-2.4c6.7-0.8,15.4-2.6,19.4-3.9s10.3-3,14-3.9c14.9-3.4,17.2-13.1,9.5-41.4
		c-1.1-4-2.6-12.7-3.4-19.3c-2.1-16.9-4.7-19.4-15.2-14.1c-1.4,0.7-5.5,1.8-9.2,2.4c-3.7,0.6-10,2.1-14,3.4
		c-19.1,5.9-74.3,6.2-85.4,0.6c-2.1-1.1-6.9-2.6-10.7-3.5c-3.8-0.9-7.9-2.4-9.2-3.4c-1.3-1-4.5-2.8-7-3.9c-2.6-1.1-6-3.3-7.6-4.9
		c-1.6-1.6-5.2-4.9-7.8-7.4c-7-6.6-19.6-28.4-21.4-37c-0.4-1.8-1.7-5.8-2.9-9c-6.7-17.2-6.7-81.3,0-98.6c1.3-3.3,2.8-7.8,3.4-10.1
		c1.3-5,9.2-20.9,11.2-22.6c0.8-0.7,2.1-2.6,2.9-4.2c2.4-5.1,18.1-20,23.1-22.1c1.7-0.7,4.3-2.2,5.8-3.5c1.5-1.2,5.9-3.1,9.7-4.2
		c3.9-1.1,9.2-2.9,11.8-4c10.8-4.5,56.3-4.2,71.7,0.5c4.5,1.4,11.5,3.2,15.4,4c4,0.8,8.7,2.4,10.4,3.4c4.4,2.6,8.4,2.5,9.7-0.3
		c2.3-4.9,7.1-21.1,8.1-27.5c0.6-3.7,2.1-9.3,3.4-12.3c1.2-3,3-10.1,4-15.8l1.7-10.2l-2.4-2.5c-3.1-3.4-8-5.8-14.5-7.1
		c-2.9-0.6-8.3-2.2-11.8-3.5c-3.6-1.3-11.3-3-17.2-3.8c-5.9-0.8-14.6-2.4-19.3-3.4C1230.3,337.6,1199,336.5,1186,337.8 M629.5,348.5
		c-2.1,2.1-2.6,6.3-1,7.3c0.5,0.3,4.3,5.5,8.3,11.5c4,6,9,13.3,11.1,16.2c2.1,2.9,5,7.3,6.5,9.7c1.5,2.4,3.9,5.8,5.4,7.6
		c1.5,1.8,2.7,3.6,2.7,4.1s1.2,2.3,2.7,4.1c1.5,1.8,3.9,5.2,5.4,7.6c3.5,5.8,6.8,10.5,9.7,14.1c1.3,1.6,3,4.2,3.9,5.8
		s2.3,3.8,3.3,4.9c1,1.1,3,3.9,4.6,6.3c1.5,2.4,3.2,4.8,3.7,5.3c0.5,0.6,2.1,2.8,3.5,5c1.4,2.2,4.3,6.5,6.5,9.6
		c2.1,3.1,5,7.2,6.3,9.2c1.3,2,4.5,6.6,7.1,10.3c2.6,3.7,5.7,8.2,7,10.1s3.4,4.7,4.7,6.3c1.3,1.6,3.3,4.7,4.4,6.9
		c1.1,2.2,2.7,4.5,3.6,5.3c0.9,0.7,2.3,2.7,3.1,4.3s2.4,4,3.5,5.1c2.5,2.8,1.8,7.8-1.6,12.2c-1.3,1.7-3.8,4.9-5.4,7
		c-1.6,2.1-4.5,5.8-6.4,8.2c-1.9,2.4-4,5.4-4.7,6.8c-0.7,1.4-2.2,3.3-3.3,4.4c-1.1,1-3.2,3.7-4.5,6.1c-1.4,2.3-2.9,4.2-3.4,4.2
		c-0.5,0-1.8,1.7-2.8,3.7c-1,2-2.6,4.3-3.5,5c-0.9,0.7-2.5,3.1-3.6,5.3c-1.1,2.2-3.1,5.3-4.5,7c-1.4,1.7-3.3,4.3-4.2,5.8
		c-0.9,1.5-2.8,4.3-4.1,6.2c-1.3,1.9-4.3,6.2-6.6,9.5c-2.3,3.4-4.6,6.6-5.2,7.3c-0.6,0.6-2.7,3.8-4.7,7c-2,3.2-4,6.1-4.4,6.3
		c-0.4,0.3-1.6,2.3-2.8,4.6c-1.1,2.2-2.5,4.3-3.1,4.7c-0.6,0.3-2.1,2.7-3.5,5.2c-2.9,5.3-8,13-11.5,17.3c-1.4,1.7-2.5,3.5-2.5,4
		c0,0.5-1.7,3.3-3.9,6.2c-2.1,2.8-3.9,5.6-3.9,6.2c0,0.5-1.7,3.6-3.9,6.7c-2.1,3.1-3.9,6.3-3.9,6.9c0,0.7-1.3,2.8-2.9,4.8
		c-1.6,2-3.4,5.2-4,7.2c-0.6,2-2.4,5-3.8,6.8c-2.2,2.7-2.5,3.7-1.8,6.2c1.7,6-0.5,5.7,42.6,5.4l39.5-0.3l4.2-2.7
		c2.9-1.9,4.9-4.3,6.6-7.8c2.9-6,11.9-22.2,16-28.9c0.5-0.8,2.1-3.6,3.6-6.2c1.5-2.6,3.6-6.1,4.8-7.8c1.2-1.7,3-5,4.1-7.3
		c1.1-2.3,3.1-5.5,4.4-7.1c1.3-1.6,2.4-3.5,2.4-4.3c0-0.8,1.5-3,3.3-5c1.8-2,3.6-4.6,3.9-5.7c0.4-1.2,2.2-4,4-6.3
		c1.8-2.3,3.4-4.7,3.4-5.2c0-0.5,1.3-2.5,2.8-4.4c1.5-1.9,3.6-4.9,4.5-6.8c1.6-3.2,2.9-4.9,9.7-13.3c1.6-2,3.8-5,4.9-6.7
		c8.6-13.6,10.2-15.2,13.9-13.2c3,1.6,12.2,13.4,20.3,26.2c1.5,2.3,4.1,6,5.8,8.1c1.7,2.2,3.2,4.4,3.2,5c0,0.6,0.8,1.9,1.7,2.9
		c0.9,1,2.8,3.8,4.1,6.1c2.6,4.5,6.9,11.2,10.4,16.3c1.2,1.7,3.3,5.2,4.6,7.7c1.3,2.5,2.9,4.8,3.5,5.2c0.6,0.3,2.4,3.3,4,6.6
		c1.7,3.3,3.4,6.2,3.9,6.4c0.5,0.2,1.8,2.4,2.9,4.9c1.1,2.5,2.8,5.4,3.8,6.5c1,1.1,2.6,3.7,3.4,5.8c0.9,2.1,2.6,5.2,3.8,6.8
		c1.2,1.6,2.8,4.4,3.5,6.3c1.2,3.1,4.3,7.8,9.5,14.5c2.7,3.5,7.5,3.9,49.5,3.9c34.9,0.1,38.2-0.1,40.1-1.6c3.2-2.7,3.4-6,0.7-10.9
		c-1.3-2.4-3.6-6.8-5.1-9.7c-1.5-2.9-3.9-7.1-5.4-9.1c-1.5-2.1-2.7-4.3-2.7-5c0-0.7-1-2.5-2.3-4c-1.3-1.5-3.5-4.9-4.9-7.6
		c-1.4-2.7-3.6-6.2-4.7-7.9c-2.1-3-3.9-5.8-8.5-13.5c-1.3-2.2-3.4-5.3-4.7-6.9c-1.2-1.6-4.9-6.8-8.1-11.6c-7.5-11.3-9.9-14.8-13-19
		c-1.4-1.9-3.8-5.4-5.4-7.8c-1.6-2.4-4.4-6.3-6.2-8.7c-1.8-2.4-5.8-8.1-8.9-12.6c-3.1-4.5-8-11.5-11-15.4
		c-5.7-7.6-10.9-14.6-15.4-21c-1.5-2.1-3-4-3.5-4.2c-0.4-0.2-2.3-2.6-4.1-5.3c-1.9-2.8-5.3-7.6-7.8-10.8c-7.2-9.5-7.1-9-2-16.6
		c5.1-7.7,8.8-12.8,12.4-17.2c1.4-1.7,3.1-4.2,3.8-5.5c0.7-1.3,2.5-4.2,4.1-6.3c5.6-7.7,16.3-23.1,18.8-27.2c1.1-1.7,3-4.4,4.4-6.1
		c1.3-1.6,3.2-4.2,4.1-5.8c1.9-3.1,5.2-7.8,9-13c1.4-1.9,3.6-4.9,4.9-6.8c6.3-9.1,17.4-25.2,19.4-28.2c1.3-1.9,3.4-4.7,4.7-6.3
		s2.9-4,3.6-5.3c0.7-1.3,2.1-3.4,3.2-4.6c1.1-1.2,2.9-3.7,4-5.5c4.5-7.3,11.2-16.9,12.6-18.1c0.8-0.7,1.5-1.7,1.5-2.3
		c0-0.6,1.1-2.4,2.4-4.2c2.9-3.8,3.1-7.3,0.6-9.5c-2-1.8-81.1-2-84.8-0.2c-1.6,0.8-11.5,13.4-11.5,14.7c0,0.7-7.4,12-10.5,16.1
		c-1,1.3-2.6,4-3.6,5.8c-1,1.9-3,5-4.5,6.9c-1.5,1.9-2.8,4-2.8,4.6c0,0.6-1.2,2.5-2.7,4.2c-1.5,1.8-4.1,5.7-5.8,8.7
		c-1.7,3-3.7,6-4.5,6.7c-0.8,0.7-1.5,1.7-1.5,2.3c0,0.6-1.2,2.6-2.7,4.5c-1.5,1.9-3.7,5.3-5,7.7c-1.2,2.4-3.3,5.6-4.6,7.1
		c-1.3,1.5-2.3,3.1-2.3,3.5c0,0.4-1.4,2.5-3,4.5c-1.7,2.1-3.6,5.1-4.4,6.7c-2.2,4.7-9.6,14.6-11.1,14.8c-2.7,0.5-7.7-3.6-10.1-8.4
		c-1.3-2.7-2.9-5.1-3.5-5.4c-0.6-0.3-1.9-2.4-3-4.5c-1.1-2.1-3.5-5.9-5.3-8.3c-1.8-2.4-3.4-5-3.4-5.6c0-0.7-0.9-2.1-2-3.1
		c-1.1-1-2.9-3.6-4-5.7c-1.1-2.1-2.7-4.8-3.7-5.8c-1-1.1-2.7-3.8-3.8-6s-2.8-4.6-3.6-5.3c-0.8-0.7-2.4-3-3.5-5.2
		c-1.1-2.2-3.3-5.5-4.8-7.3c-1.5-1.9-2.8-3.9-2.8-4.6c0-0.7-1.3-2.6-2.8-4.4c-1.5-1.8-3.6-4.8-4.6-6.7c-2.1-4.1-7.2-12-9.9-15.5
		c-1-1.3-2.8-4.2-3.9-6.4c-1.1-2.2-4.2-5.8-6.8-8l-4.8-4h-42.4C632.8,346.6,631.4,346.6,629.5,348.5"/>
	<path id="path1" class="st1" d="M474,540v486h486h486V540V54H960H474V540 M1240.2,339.8c4.7,1,13.4,2.6,19.3,3.4
		c5.9,0.8,13.7,2.5,17.2,3.8c3.6,1.3,8.9,2.9,11.8,3.5c6.5,1.4,11.4,3.8,14.5,7.1l2.4,2.5l-1.7,10.2c-1,5.6-2.7,12.7-4,15.8
		c-1.2,3-2.7,8.6-3.4,12.3c-1.1,6.4-5.9,22.6-8.1,27.5c-1.3,2.8-5.2,2.9-9.7,0.3c-1.8-1-6.5-2.6-10.4-3.4c-4-0.8-10.9-2.6-15.4-4
		c-15.4-4.7-60.8-5-71.7-0.5c-2.6,1.1-7.9,2.9-11.8,4c-3.9,1.1-8.2,3-9.7,4.2c-1.5,1.2-4.1,2.8-5.8,3.5c-5,2-20.7,17-23.1,22.1
		c-0.8,1.7-2.1,3.6-2.9,4.2c-2,1.7-9.9,17.6-11.2,22.6c-0.6,2.3-2.1,6.8-3.4,10.1c-6.7,17.2-6.7,81.4,0,98.6c1.2,3.2,2.6,7.2,2.9,9
		c1.8,8.6,14.4,30.4,21.4,37c2.7,2.5,6.2,5.9,7.8,7.4c1.6,1.6,5.1,3.8,7.6,4.9c2.6,1.1,5.7,2.8,7,3.9c1.3,1,5.5,2.6,9.2,3.4
		c3.8,0.9,8.6,2.4,10.7,3.5c11.1,5.7,66.3,5.3,85.4-0.6c4-1.2,10.3-2.7,14-3.4c3.7-0.6,7.8-1.7,9.2-2.4c10.5-5.3,13.2-2.8,15.2,14.1
		c0.8,6.6,2.3,15.3,3.4,19.3c7.7,28.3,5.5,37.9-9.5,41.4c-3.7,0.8-10,2.6-14,3.9s-12.8,3-19.4,3.9c-6.7,0.8-13.7,1.9-15.6,2.4
		c-13.9,3.6-54.7,4.3-73.4,1.1c-6.4-1.1-16.8-2.8-23-3.9c-6.2-1.1-13.1-2.8-15.3-3.9c-2.2-1.1-6.3-2.5-9.1-3.1
		c-2.8-0.6-7.1-2.3-9.5-3.9c-2.4-1.5-6.3-3.5-8.6-4.3c-2.3-0.8-5.4-2.5-7-3.8c-1.6-1.3-3.8-2.7-4.9-3c-1.9-0.6-15.3-9.6-16.4-11.1
		c-0.3-0.3-1.5-1.4-2.8-2.2c-7.3-5-24.4-24.2-28.3-31.8c-1-1.9-2.7-4.3-3.8-5.3c-1.1-1-2-2.4-2-3c0-0.6-1.3-3.2-3-5.8
		c-1.6-2.6-3.9-7.1-5-10.1c-1.1-3-2.8-6.7-3.7-8.4c-0.9-1.6-2.4-5.8-3.3-9.3c-0.9-3.5-2.6-8.9-3.9-12.2c-1.3-3.2-2.6-8.5-3-11.7
		c-0.4-3.2-1.8-10.9-3.1-17c-4.9-22.7-5.2-66.9-0.5-84.6c1.1-4,2.6-11.3,3.3-16.1c0.8-4.9,2.3-10.8,3.5-13.3c1.1-2.5,2.7-7,3.5-10.1
		c0.8-3.1,2.7-8.3,4.3-11.5c5.9-12.4,7.5-15.5,9.8-20c1.3-2.6,3.1-5.4,3.9-6.4c0.8-0.9,2.6-3.6,3.9-5.9
		c5.9-10.2,24.8-30.7,36.1-39.1c9.8-7.4,14.9-10.9,16-10.9c0.6,0,3.1-1.5,5.4-3.4c2.3-1.9,5.5-3.7,7.1-4c1.5-0.3,4.8-1.9,7.2-3.4
		c2.4-1.5,6-3.1,7.9-3.4c1.9-0.3,6.4-1.9,9.9-3.4c3.5-1.5,10.3-3.4,15.1-4.2c4.8-0.8,11.7-2.1,15.4-3
		C1187.4,336.4,1223.8,336.2,1240.2,339.8 M721,350.6c2.6,2.2,5.7,5.8,6.8,8c1.1,2.2,2.9,5.1,3.9,6.4c2.7,3.5,7.7,11.4,9.9,15.5
		c1,1.9,3.1,4.9,4.6,6.7c1.5,1.8,2.8,3.7,2.8,4.4c0,0.7,1.3,2.7,2.8,4.6c1.5,1.9,3.7,5.2,4.8,7.3c1.1,2.2,2.7,4.5,3.5,5.2
		c0.8,0.7,2.4,3,3.6,5.3s2.9,4.9,3.8,6c1,1.1,2.6,3.7,3.7,5.8c1.1,2.1,2.9,4.7,4,5.7c1.1,1,2,2.4,2,3.1c0,0.7,1.5,3.2,3.4,5.6
		c1.8,2.4,4.2,6.1,5.3,8.3c1.1,2.1,2.4,4.2,3,4.5c0.6,0.3,2.1,2.8,3.5,5.4c2.4,4.8,7.4,8.9,10.1,8.4c1.5-0.3,8.9-10.1,11.1-14.8
		c0.8-1.6,2.7-4.6,4.4-6.7c1.7-2.1,3-4.1,3-4.5c0-0.4,1-2,2.3-3.5c1.3-1.5,3.3-4.7,4.6-7.1c1.2-2.4,3.5-5.9,5-7.7
		c1.5-1.9,2.7-3.9,2.7-4.5c0-0.6,0.7-1.7,1.5-2.3c0.8-0.7,2.8-3.7,4.5-6.7c1.7-3,4.3-6.9,5.8-8.7c1.5-1.8,2.7-3.7,2.7-4.2
		c0-0.6,1.3-2.6,2.8-4.6c1.5-1.9,3.6-5.1,4.5-6.9c1-1.9,2.6-4.5,3.6-5.8c3.1-4,10.5-15.4,10.5-16.1c0-1.2,9.9-13.9,11.5-14.7
		c3.7-1.8,82.8-1.6,84.8,0.2c2.5,2.3,2.3,5.7-0.6,9.5c-1.3,1.8-2.4,3.6-2.4,4.2c0,0.6-0.7,1.6-1.5,2.3c-1.4,1.2-8.1,10.8-12.6,18.1
		c-1.1,1.8-2.9,4.2-4,5.5c-1.1,1.2-2.6,3.3-3.2,4.6c-0.7,1.3-2.3,3.7-3.6,5.3s-3.4,4.4-4.7,6.3c-2.1,3-13.1,19.1-19.4,28.2
		c-1.3,1.9-3.5,4.9-4.9,6.8c-3.8,5.2-7.1,9.9-9,13c-0.9,1.5-2.8,4.1-4.1,5.8c-1.3,1.6-3.3,4.4-4.4,6.1c-2.5,4.1-13.2,19.5-18.8,27.2
		c-1.6,2.1-3.4,5-4.1,6.3c-0.7,1.3-2.4,3.8-3.8,5.5c-3.6,4.4-7.2,9.5-12.4,17.2c-5.1,7.6-5.1,7.1,2,16.6c2.4,3.2,5.9,8.1,7.8,10.8
		c1.9,2.8,3.7,5.2,4.1,5.3c0.4,0.2,2,2.1,3.5,4.2c4.5,6.4,9.6,13.5,15.4,21c3,3.9,7.9,10.9,11,15.4c3.1,4.5,7,10.2,8.9,12.6
		c1.8,2.4,4.6,6.3,6.2,8.7c1.6,2.4,4,5.9,5.4,7.8c3.1,4.1,5.5,7.6,13,19c3.2,4.8,6.8,10,8.1,11.6c1.2,1.6,3.4,4.7,4.7,6.9
		c4.6,7.6,6.3,10.4,8.5,13.5c1.2,1.7,3.3,5.2,4.7,7.9c1.4,2.7,3.6,6.1,4.9,7.6c1.3,1.5,2.3,3.3,2.3,4c0,0.7,1.2,2.9,2.7,5
		c1.5,2.1,3.9,6.2,5.4,9.1c1.5,2.9,3.7,7.3,5.1,9.7c2.7,4.9,2.5,8.2-0.7,10.9c-1.8,1.6-5.2,1.7-40.1,1.6
		c-41.9-0.1-46.8-0.4-49.5-3.9c-5.1-6.7-8.2-11.4-9.5-14.5c-0.8-1.9-2.3-4.7-3.5-6.3c-1.2-1.6-2.9-4.7-3.8-6.8
		c-0.9-2.1-2.4-4.8-3.4-5.8c-1-1.1-2.7-4-3.8-6.5c-1.1-2.5-2.3-4.7-2.9-4.9c-0.5-0.2-2.3-3.1-3.9-6.4c-1.7-3.3-3.5-6.3-4-6.6
		c-0.6-0.3-2.1-2.7-3.5-5.2c-1.3-2.5-3.4-6-4.6-7.7c-3.5-5.1-7.8-11.9-10.4-16.3c-1.3-2.3-3.2-5-4.1-6.1c-0.9-1-1.7-2.3-1.7-2.9
		c0-0.6-1.4-2.8-3.2-5c-1.7-2.2-4.4-5.8-5.8-8.1c-8.2-12.8-17.3-24.5-20.3-26.2c-3.7-2-5.4-0.4-13.9,13.2c-1.1,1.7-3.3,4.7-4.9,6.7
		c-6.9,8.4-8.1,10-9.7,13.3c-1,1.9-3,4.9-4.5,6.8c-1.5,1.9-2.8,3.8-2.8,4.4c0,0.5-1.5,2.9-3.4,5.2c-1.8,2.3-3.6,5.2-4,6.3
		c-0.4,1.2-2.1,3.7-3.9,5.7c-1.8,2-3.3,4.3-3.3,5c0,0.8-1.1,2.7-2.4,4.3c-1.3,1.6-3.3,4.8-4.4,7.1c-1.1,2.3-2.9,5.6-4.1,7.3
		c-1.2,1.7-3.3,5.2-4.8,7.8c-1.5,2.6-3.1,5.4-3.6,6.2c-4.1,6.7-13.1,22.9-16,28.9c-1.7,3.5-3.8,5.9-6.6,7.8l-4.2,2.7l-39.5,0.3
		c-43.1,0.3-40.9,0.6-42.6-5.4c-0.7-2.4-0.4-3.4,1.8-6.2c1.5-1.8,3.2-4.9,3.8-6.8c0.6-2,2.5-5.2,4-7.2c1.6-2,2.9-4.1,2.9-4.8
		c0-0.7,1.7-3.8,3.9-6.9c2.1-3.1,3.9-6.2,3.9-6.7c0-0.5,1.8-3.3,3.9-6.2c2.1-2.8,3.9-5.6,3.9-6.2c0-0.5,1.1-2.4,2.5-4
		c3.6-4.4,8.7-12,11.5-17.3c1.4-2.5,2.9-4.8,3.5-5.2c0.6-0.3,1.9-2.4,3.1-4.7c1.1-2.2,2.4-4.3,2.8-4.6c0.4-0.3,2.4-3.1,4.4-6.3
		c2-3.2,4.2-6.4,4.7-7c0.6-0.6,2.9-3.9,5.2-7.3c2.3-3.4,5.2-7.6,6.6-9.5c1.3-1.9,3.2-4.7,4.1-6.2c0.9-1.6,2.8-4.2,4.2-5.8
		c1.4-1.7,3.4-4.8,4.5-7c1.1-2.2,2.7-4.5,3.6-5.3c0.9-0.7,2.5-3,3.5-5c1-2,2.3-3.7,2.8-3.7c0.5,0,2-1.9,3.4-4.2
		c1.4-2.3,3.4-5.1,4.5-6.1c1.1-1,2.6-3,3.3-4.4c0.7-1.4,2.8-4.4,4.7-6.8c1.9-2.4,4.8-6,6.4-8.2c1.6-2.1,4.1-5.3,5.4-7
		c3.5-4.4,4.1-9.5,1.6-12.2c-1.1-1.2-2.6-3.5-3.5-5.1s-2.2-3.6-3.1-4.3c-0.9-0.7-2.5-3.1-3.6-5.3c-1.1-2.2-3.1-5.3-4.4-6.9
		c-1.3-1.6-3.4-4.4-4.7-6.3s-4.4-6.4-7-10.1c-2.6-3.7-5.8-8.3-7.1-10.3c-1.3-2-4.2-6.1-6.3-9.2c-2.1-3.1-5.1-7.4-6.5-9.6
		c-1.4-2.2-3-4.5-3.5-5c-0.5-0.6-2.2-3-3.7-5.3c-1.5-2.4-3.6-5.2-4.6-6.3c-1-1.1-2.5-3.3-3.3-4.9s-2.6-4.2-3.9-5.8
		c-2.9-3.6-6.1-8.3-9.7-14.1c-1.5-2.4-3.9-5.8-5.4-7.6c-1.5-1.8-2.7-3.6-2.7-4.1s-1.2-2.3-2.7-4.1c-1.5-1.8-3.9-5.2-5.4-7.6
		c-1.5-2.4-4.4-6.8-6.5-9.7c-2.1-2.9-7.1-10.2-11.1-16.2c-4-6-7.7-11.1-8.3-11.5c-1.6-1-1.1-5.2,1-7.3c1.9-1.9,3.2-1.9,44.3-1.9
		h42.4L721,350.6"/>
</g>
</svg>
