<?xml version="1.0" encoding="utf-8"?>
<!-- Generator: Adobe Illustrator 24.0.2, SVG Export Plug-In . SVG Version: 6.00 Build 0)  -->
<svg version="1.1" id="Layer_1" xmlns="http://www.w3.org/2000/svg" xmlns:xlink="http://www.w3.org/1999/xlink" x="0px" y="0px"
	 viewBox="0 0 512 512" style="enable-background:new 0 0 512 512;" xml:space="preserve">
<style type="text/css">
	.st0{fill-rule:evenodd;clip-rule:evenodd;fill:#F7F3F1;}
	.st1{fill-rule:evenodd;clip-rule:evenodd;fill:#842404;}
</style>
<g id="svgg">
	<path id="path0" class="st0" d="M345.7,176.4c-62,5.1-82.7,76.3-55.8,126.2c19.4,34.1,66.5,37.2,100.2,27c9.4-0.7,3.7-14.6,2.5-24
		c-0.8-6.7-1.9-7.7-6-5.6c-2.3,0.9-6.5,1.2-9.1,2.2c-17.9,3.4-38.4,3.3-50.5-8.8c-12.9-13-13.7-40.5-9.6-57.2
		c3.5-13.7,13.1-24.6,26.7-28c4.3-1.8,22.3-1.7,28.4,0.2c3.1,1.1,7.7,1.6,10.2,2.9c1.7,1,3.3,1,3.8-0.1c2.8-7.9,5.2-17.4,6.8-26.1
		C384.9,177.3,357.8,175.6,345.7,176.4 M125.6,180.6c-0.8,0.8-1,2.5-0.4,2.9c2.7,3.4,7.9,11.1,10.3,14.7
		c9.5,13.8,18.8,27.4,28.4,41.1c2.2,2.9,4.2,6.1,6.2,9c4.7,4.7-0.9,8.6-3.8,12.8c-13.2,18-25.9,36.3-37.3,55.6
		c-2.3,3.9-3.4,6.5-5.7,10.1c-0.9,1.1-1,1.5-0.7,2.5c0.7,2.4-0.2,2.3,16.9,2.1l15.6-0.1c5.5-3,9.5-15.5,13.9-21.2
		c5.9-10.5,11.1-18.5,18.5-28.7c3.4-5.4,4-6,5.5-5.2c5.1,4.3,13.1,18.6,18,25.5c4.6,7.3,9,14.6,13.1,22.2c5.7,8.9,1.4,6.7,23.4,7.2
		c18.9-0.1,19.2,1.4,14.2-8.7c-4.4-7.6-7.8-13.7-13.2-21.3c-9-13.3-17.6-25.5-26.9-38c-2.2-2.6-3.9-5.1-6.1-8.1
		c-2.8-3.8-2.8-3.6-0.8-6.6c11.4-16.1,22.9-33.4,33.8-48.5c2.1-4.1,14.3-17.7,11-19.7c-0.8-0.7-32.1-0.8-33.5-0.1
		c-0.6,0.3-4.5,5.3-4.5,5.8c-4.3,7-10.8,16.4-15.4,23.7c-3.9,5-7.8,13.6-12,17.6c-1.9,0.7-4.3-4.2-5.4-5.4c-2.3-3.2-4.6-7.5-7-10.8
		c-3.9-6.1-7.8-12-11.7-18c-2.9-4.6-5.5-10-10-13.4C153.5,179.8,124.5,179,125.6,180.6"/>
	<path id="path1" class="st1" d="M64.1,256.3v192.3h192.3h192.3V256.3V64.1H256.3H64.1V256.3 M367.2,177.1c8.2,2,19.7,2,25.7,8
		c-0.6,5.5-2.5,10.2-3.6,15.2c-1.3,3.2-1.5,14.6-7,11c-12.1-4.6-32.1-6.5-43.3-1.5c-30.5,9.9-32.4,73.1-6.3,88.4
		c13.5,8.3,37.1,6.7,53.5,1.8c7-5.2,5.7,9.4,7.3,13.2c6,19-4.7,16.3-17,19.4c-37.6,7.4-80-3.1-93-43.3
		C263.4,228.5,299.6,167,367.2,177.1 M161.8,181.4c8.2,10.2,14.5,22.7,22.2,33.3c1.7,3.2,4,6.2,6,9.4c3.3,6.2,5.8,2.1,8.4-2.6
		c7.2-11.4,15.9-24.2,23-35.4c0-0.5,3.9-5.5,4.5-5.8c1.5-0.7,32.8-0.6,33.5,0.1c3.5,1.6-9.1,16-11,19.7
		c-11,15.2-22.3,32.3-33.8,48.5c-2,3-2,2.8,0.8,6.6c2.1,3,4,5.5,6.1,8.1c9.2,12.5,17.9,24.7,26.9,38c5.2,7.6,8.9,13.7,13.2,21.3
		c5.1,10,4.7,8.7-14.2,8.7c-22.1-0.5-17.5,1.6-23.4-7.2c-3.6-6.6-7.2-12.9-11.3-19.2c-3.9-6.5-7.6-12.1-11.8-18.1
		c-6.2-7.9-7.7-16.2-13.5-5.2c-7.4,10.1-12.6,18.3-18.5,28.7c-4.7,6-7.9,17.6-13.9,21.2c-6.9-0.5-34.7,1.8-32.5-2
		c-0.3-0.9-0.2-1.3,0.7-2.5c1.5-1.6,1.6-3.9,3.1-5.5c2.2-3.9,4.9-8.5,7.1-12.3c12-18.2,24-36.7,37.4-53.9c3-3.5-0.4-5.8-2-8.5
		c-2.6-3.9-4.7-7.2-7.8-11.3c-8.7-12.6-16.9-24.5-25.6-37.1c-2.4-3.5-7.6-11.4-10.3-14.7c-0.6-0.4-0.4-2.1,0.4-2.9
		c-1.1-1.4,27.9-0.6,34.3-0.8L161.8,181.4"/>
</g>
</svg>
