<?xml version="1.0" encoding="utf-8"?>
<!-- Generator: Adobe Illustrator 24.0.2, SVG Export Plug-In . SVG Version: 6.00 Build 0)  -->
<svg version="1.1" id="svg" xmlns="http://www.w3.org/2000/svg" xmlns:xlink="http://www.w3.org/1999/xlink" x="0px" y="0px"
	 viewBox="0 0 1920 1080" style="enable-background:new 0 0 1920 1080;" xml:space="preserve">
<style type="text/css">
	.st0{fill-rule:evenodd;clip-rule:evenodd;fill:#467389;}
	.st1{fill-rule:evenodd;clip-rule:evenodd;fill:#838387;}
	.st2{fill-rule:evenodd;clip-rule:evenodd;fill:#5DACD9;}
	.st3{fill-rule:evenodd;clip-rule:evenodd;fill:#A0BED2;}
</style>
<g id="svgg">
	<path id="path0" class="st0" d="M790.7,57.6c-2.5,0.7-6.8,2.1-9.7,3.6c-2.9,1.4-6.1,2.5-6.8,2.5c-3.6,0-27.6,26.5-27.6,30.4
		c0,1.1-1.4,4.7-2.9,7.5c-1.8,3.2-3.9,10.4-5,16.5c-1.1,6.1-2.9,14.3-3.6,18.6c-1.8,8.6-0.7,36.5,1.4,39.4c0.7,0.7,2.1,6.1,2.9,11.8
		c1.1,5.7,2.1,10.7,2.9,11.1s1.8,3.2,2.9,6.1c1.4,4.7,5.4,11.5,11.5,19.7c3.9,5,21.8,22.2,23.6,22.2c1.1,0,2.9,1.4,4.3,2.9
		c1.4,1.4,3.2,2.9,4.3,2.9c0.7,0,3.6,1.1,5.7,2.1c6.8,3.6,27.9,10,35.8,11.5c3.9,0.7,11.1,2.1,15.7,3.2c10.4,2.9,64.8,3.2,74.4,0.7
		c3.2-0.7,8.6-2.1,12.2-3.2c3.6-0.7,9.3-2.5,12.9-3.9c3.6-1.1,9.7-2.9,13.6-3.9c3.9-1.1,10-3.2,13.6-4.7c3.6-1.8,7.5-3.2,8.9-3.2
		s2.9-1.1,3.2-2.1c0.4-1.1,1.8-2.1,3.2-2.1c1.1,0,5.7-1.8,10.4-4.3c4.3-2.5,8.9-4.3,10-4.3c1.1,0,2.1-1.1,2.5-2.1
		c0.4-1.1,2.9-2.5,5-2.9c2.5-0.4,4.3-1.4,4.3-2.5c0-0.7,2.1-2.5,5-3.6c2.9-1.1,6.4-3.6,8.2-5c1.8-1.4,3.6-2.9,4.7-2.9
		c1.1,0,2.9-1.4,4.3-2.9c1.4-1.4,3.6-2.9,4.3-2.9c1.1,0,2.5-1.1,3.2-2.9c0.7-1.4,3.6-3.6,6.4-4.3c2.9-0.7,5.4-2.5,5.7-3.6
		c0.4-1.1,1.4-2.1,2.5-2.1c1.1,0,3.2-1.4,5-3.2c6.1-5.7,8.6-7.9,12.2-9.7c2.1-1.1,3.9-2.9,4.7-3.9c0.7-1.1,2.5-1.8,3.9-1.8
		s3.2-1.1,4.3-2.9c0.7-1.4,3.2-3.2,5.7-4.3c2.5-1.1,5.4-2.5,6.8-3.9c8.9-7.9,11.1-9.3,14.3-9.3c1.8,0,3.9-1.1,4.7-2.9
		c0.7-1.4,3.6-3.2,6.1-3.6c2.5-0.4,5.7-2.1,7.2-3.6s4.7-2.9,6.8-2.9s4.7-1.1,5.7-2.5c1.1-1.4,4.3-3.2,7.5-3.6s6.1-1.8,6.1-2.5
		c0.4-0.7,4.3-2.5,8.9-3.2l8.6-1.8l-6.4-1.1c-3.6-0.7-7.9-2.1-10-3.6c-2.1-1.4-6.1-2.9-8.9-3.6c-2.9-0.4-5.7-1.8-6.1-2.9
		c-0.4-1.4-2.9-2.1-6.8-2.1c-3.2,0-10.7-1.4-16.5-3.6c-12.5-4.3-39.4-5-48.3-1.4c-2.9,1.1-9.3,2.9-14.3,3.6
		c-5,0.7-10.7,2.5-12.5,3.6c-1.8,1.1-5,2.5-7.5,2.9c-2.5,0.4-6.1,2.1-7.9,3.6c-1.8,1.4-4.7,2.9-6.4,2.9s-4.3,1.4-5.7,2.9
		c-1.4,1.4-3.6,2.9-5,2.9s-4.3,1.4-6.8,3.6c-2.5,1.8-5,3.6-5.7,3.6c-0.7,0-2.5,0.7-3.6,1.8c-1.1,1.1-3.9,2.9-6.4,4.3
		c-2.5,1.4-4.7,2.9-4.7,3.9c0,0.7-0.7,1.4-1.8,1.4c-1.1,0-3.9,1.8-6.4,3.6c-2.5,2.1-5,3.6-5.7,3.6c-0.7,0-2.5,1.4-4.3,3.2
		c-6.4,6.1-9.3,8.2-13.2,10c-2.1,1.1-5,2.5-6.1,3.6c-8.2,6.8-18.3,14.3-21.1,15.4c-1.8,0.7-3.2,1.4-3.2,2.1c0,0.7-2.1,2.5-4.7,3.6
		c-2.5,1.4-5.7,3.6-7.5,5c-1.4,1.4-3.6,2.9-3.9,2.9c-0.4,0-5,2.5-9.3,5.7c-4.7,3.2-8.9,5.7-10,5.7c-0.7,0-2.5,1.1-3.2,2.1
		c-1.1,1.1-3.9,2.9-6.8,3.9c-2.9,1.1-6.1,2.5-7.5,3.6c-1.1,1.1-3.9,2.1-6.4,2.9c-2.5,0.7-6.1,2.1-7.9,3.2
		c-17.9,11.5-61.6-3.9-61.6-21.8c0-1.4-1.1-6.1-2.1-10c-1.1-3.9-2.1-9.7-2.1-12.9c0-3.2,1.1-9.3,2.1-12.9c1.1-3.9,2.1-9.3,2.1-12.2
		c0-15,18.6-34,35.8-36.1c3.6-0.4,10.7-1.4,15.7-2.5c10-1.8,34-1.1,45.4,1.4c6.8,1.4,14.7,0.7,14.7-1.4c0-0.7-2.1-1.8-4.7-2.1
		c-4.3-0.7-14.7-6.4-19.3-10.7c-1.1-0.7-2.1-1.4-2.9-1.4c-1.4,0-12.2-10-18.3-17.2c-2.9-3.6-6.4-7.5-7.5-8.9
		c-1.1-1.1-2.1-2.9-2.1-3.2c0-1.4-15.4-16.5-16.8-16.5c-0.7,0-2.5-1.1-3.6-2.1C832.3,59.7,804.7,54.3,790.7,57.6 M1200.5,173.5
		c-12.2,0.4-14,0.7-14.7,3.2c-0.7,2.5-2.1,2.9-9.3,2.9c-7.2,0-8.6,0.4-9.3,2.9c-0.4,1.8-2.5,2.9-6.8,3.6c-3.2,0.7-6.4,1.8-6.8,2.9
		c-0.4,1.1-3.2,2.5-6.4,2.9c-3.2,0.7-5.7,1.8-5.7,2.9c0,2.1-3.2,3.6-7.9,3.6c-2.1,0-3.9,1.1-4.3,2.5c-1.1,3.2-3.2,4.7-7.5,4.7
		c-2.1,0-4.3,1.4-5.4,2.9c-1.1,1.4-2.9,2.9-3.9,2.9c-1.1,0-2.9,1.1-3.6,2.9c-0.7,1.8-3.2,3.2-5.4,3.6c-2.1,0.4-4.7,2.1-5.7,3.6
		c-1.1,1.4-2.9,2.9-3.9,2.9s-2.9,1.4-3.6,2.9c-0.7,1.4-2.1,2.9-2.9,2.9c-0.7,0-3.6,1.8-6.1,3.6c-2.5,2.1-5.4,3.6-6.1,3.6
		s-2.1,1.4-3.2,2.9c-1.1,1.4-2.9,2.9-3.9,2.9s-2.9,1.1-3.6,2.9s-3.2,3.2-5.4,3.6c-2.1,0.7-5,2.1-6.4,3.6c-1.4,1.4-3.2,2.9-4.3,2.9
		c-1.1,0-2.9,1.1-4.3,2.9c-1.4,1.4-4.3,3.2-6.4,3.6c-2.1,0.4-5.4,2.1-7.2,3.6c-1.4,1.4-4.3,2.9-5.7,2.9c-1.8,0-4.7,1.4-6.8,2.9
		c-2.1,1.4-6.1,3.2-9.3,3.6c-2.9,0.4-6.1,1.8-7.2,2.9c-1.1,1.1-3.6,1.8-6.4,1.8c-2.9,0-6.4,1.4-8.6,2.9c-2.5,1.8-6.8,3.2-12.2,3.6
		c-4.7,0.4-10.7,1.8-14,3.2c-3.2,1.4-10.4,3.2-16.5,3.6c-5.7,0.7-11.8,1.8-13.6,2.9c-1.8,1.1-10.7,2.1-25,2.9
		c-29.3,1.4-32.6,3.6-15.4,11.5c2.5,1.1,5.4,2.9,6.8,3.6c1.4,0.7,6.1,3.2,10.7,5.4c4.7,2.1,10.7,5,13.6,6.4
		c2.9,1.4,7.9,2.9,11.8,3.6c3.6,0.7,7.5,1.8,8.2,3.2c1.1,1.1,4.3,2.1,8.2,2.1c7.2,0,19,2.5,21.1,4.7c3.2,2.9,50.5,1.4,55.5-1.8
		c3.6-2.1,7.2-2.9,15.7-2.9c9.3,0,11.5-0.4,14-3.2c2.1-2.1,5-3.2,10.7-3.9c6.4-0.7,7.9-1.1,7.9-3.2c0-2.1,1.1-2.9,5-2.9
		c6.1,0,9.3-1.1,9.3-3.6c0-1.8,6.1-3.6,13.2-3.6c3.2,0,3.9-0.7,3.9-2.9c0-1.8,1.1-2.9,2.9-2.9c1.4,0,4.3-1.4,6.4-3.6
		c1.8-1.8,5.4-3.6,7.2-3.6c2.1,0,3.6-0.7,3.6-2.1c0-1.4,2.1-2.5,5.7-3.2c4.3-0.7,5.7-1.4,5.7-3.6c0-1.8,1.1-2.5,2.9-2.5
		c1.8,0,3.2-1.1,3.6-2.9c0.4-1.4,2.1-3.2,3.9-3.6c1.8-0.4,3.6-2.1,4.3-3.6c0.7-1.8,2.1-2.9,5-2.9c3.2,0,4.7-0.7,5.7-3.6
		c0.7-2.1,2.1-3.6,3.6-3.6c1.1,0,2.5-1.4,2.9-2.9s2.1-2.9,3.6-2.9s3.2-1.4,3.6-2.9c0.7-1.8,2.9-3.2,5.7-3.6c2.9-0.7,5.4-1.8,5.7-3.6
		c0.4-1.4,2.1-2.9,3.6-2.9s2.9-1.1,2.9-2.1c0-1.1,1.4-2.9,3.6-3.6c1.8-0.7,3.9-2.9,4.3-4.3c0.4-2.1,2.1-2.9,5.7-2.9
		c3.9,0,5-0.7,5.7-2.9c0.4-1.4,1.8-2.9,2.9-2.9s3.2-1.8,4.3-3.6c1.8-2.5,3.6-3.6,7.2-3.6c3.9,0,5-0.7,5-2.5c0-2.1,1.4-2.9,5.7-3.6
		c3.6-0.7,6.1-2.1,7.2-3.9c1.1-2.1,2.9-2.9,6.4-2.9s5-0.7,5.4-2.9c0.7-2.1,1.8-2.9,6.8-2.9c4.3,0,6.1-0.7,6.8-2.5
		c1.4-3.9,3.2-4.7,11.5-4.7c6.1,0,7.5-0.4,8.2-2.9c0.7-2.5,2.1-2.9,13.2-3.2c6.8,0,11.1-0.4,9.3-0.7c-1.8-0.4-3.6-1.8-3.9-3.2
		c-0.7-2.1-2.1-2.9-7.2-2.9c-5,0-7.2-0.7-10-3.6s-5-3.6-11.5-3.6c-6.8,0-8.2-0.4-8.6-2.9c-0.7-2.5-1.8-2.9-9.7-2.9
		c-4.7,0-17.9-0.4-29-0.4C1223.4,173.1,1208.4,173.1,1200.5,173.5 M741.4,271.9c0,2.1,0.7,5.4,2.1,7.5c1.1,2.1,2.5,6.8,2.9,10.4
		c0.4,3.6,2.1,8.6,3.6,10.7c1.4,2.5,2.9,5.4,2.9,6.1c0,3.6,14,26.5,23.6,38.3c0.7,1.1,3.6,4.7,6.4,8.2c7.2,9.3,39.7,36.1,46.9,38.3
		c1.8,0.4,4.3,2.1,5.7,3.9c1.4,1.4,3.6,2.9,5,2.9s3.9,1.1,6.1,2.9c1.8,1.4,5.4,3.2,7.9,3.9c2.1,0.7,5.4,1.8,6.4,2.9
		c1.4,1.1,5.7,2.5,9.7,3.2c3.9,0.7,8.6,2.1,10,3.2c1.4,1.1,6.4,2.5,11.5,2.9c5,0.4,11.1,1.8,13.6,3.2c7.2,3.6,86.2,3.6,88.7,0.4
		c1.8-2.5,14-5.4,23.3-5.4c4.3,0,6.1-0.7,6.1-2.1c0-2.5,3.2-3.6,9.3-3.6c3.6,0,5-0.7,5.4-2.9c0.7-2.1,1.8-2.9,5.4-2.9
		c6.8,0,11.1-1.4,11.1-3.6c0-2.1,3.2-3.6,8.6-3.6c3.2,0,4.3-0.7,4.3-2.9c0-2.1,1.1-2.9,3.2-2.9c2.1,0,3.9-1.1,5-3.6
		c1.1-2.5,2.9-3.6,5.7-3.6s4.7-0.7,5-2.9c0.4-1.4,2.1-2.9,3.6-2.9c1.8,0,2.9-1.1,2.9-2.9c0-1.8,1.1-2.9,2.9-2.9
		c1.4,0,3.6-1.4,4.3-2.9c0.7-1.4,2.1-2.9,3.2-2.9c4.3,0,15.7-15,11.8-15.4c-2.9-0.4-4.7,0.7-6.8,3.2c-2.1,2.5-4.3,3.6-7.9,3.6
		c-3.2,0-5,0.7-5,2.1c0,2.9-3.2,3.6-11.5,3.6c-5.4,0-7.2,0.4-7.5,2.9c-0.7,2.5-2.5,2.9-14.7,3.2c-12.5,0.7-14,1.1-16.1,3.9l-2.5,3.2
		l-35.1-1.1c-27.9-0.7-36.1-1.4-39.4-3.2c-2.5-1.4-9.7-2.9-16.5-3.6c-8.2-0.7-12.9-2.1-14.7-3.6c-1.4-1.4-6.4-2.9-10.7-3.6
		c-4.3-0.7-8.9-2.1-10-3.2c-1.1-1.1-5-2.5-8.2-3.2c-3.2-0.7-7.2-1.8-8.2-2.9c-1.1-1.1-4.3-2.5-7.2-3.6c-2.9-1.1-6.1-2.5-7.2-3.6
		c-1.1-1.1-3.9-2.5-6.1-2.9c-2.1-0.4-5-2.1-7.2-3.9c-1.8-1.4-4.3-2.9-5.4-2.9s-3.6-1.1-5.7-2.5c-2.1-1.4-5.7-3.9-8.2-5.4
		s-5.7-3.2-7.2-3.9c-1.8-0.4-4.3-2.1-5.7-3.9c-1.4-1.4-3.2-2.9-4.3-2.9c-1.1,0-2.5-1.1-3.6-2.5s-3.9-3.2-6.1-4.3
		c-2.5-1.1-8.6-5-13.6-8.2c-20.8-14.3-22.9-15.4-32.2-19.7c-4.7-2.1-11.8-5.7-15.7-7.5c-3.9-1.8-8.6-3.6-10-3.6
		c-1.4,0-4.3-1.1-5.7-2.1C746,266.9,741.4,267.6,741.4,271.9 M559.9,537.1c1.4,0.4,3.6,0.4,5,0c1.4-0.4,0.4-0.7-2.5-0.7
		C559.6,536.4,558.5,536.7,559.9,537.1 M290.5,553.9c0,2.1,0.7,3.2,1.4,2.9c0.7-0.4,1.1-2.1,0.7-3.6
		C291.2,549.3,290.5,549.6,290.5,553.9 M595.7,559.6c0,3.2,0.4,4.3,0.7,2.5c0.4-1.8,0.4-4.3,0-5.7
		C596.1,555,595.7,556.4,595.7,559.6 M1250.6,563.2c-0.7,5-0.4,6.8,1.1,5.4c0.4-0.4,0.7-2.9,0.4-5.7l-0.4-4.7L1250.6,563.2
		 M559.9,581.5c1.4,0.4,3.6,0.4,5,0c1.4-0.4,0.4-0.7-2.5-0.7C559.6,580.7,558.5,581.1,559.9,581.5 M1379.1,603.3
		c0,10,0.4,14,0.4,8.9c0-5,0.4-12.9,0-17.9C1379.1,589.3,1379.1,593.6,1379.1,603.3 M375.3,633c1.4,0.4,3.6,0.4,5,0
		c1.4-0.4,0.4-0.7-2.5-0.7C374.9,632.3,373.8,632.6,375.3,633 M444,633c1.4,0.4,3.6,0.4,5,0c1.4-0.4,0.4-0.7-2.5-0.7
		S442.6,632.6,444,633 M553.5,633c5,0.4,12.5,0.4,17.2,0c4.7-0.4,0.4-0.4-8.9-0.4C552.4,632.6,548.5,632.6,553.5,633 M660.8,633
		c5,0.4,12.5,0.4,17.2,0c4.7-0.4,0.4-0.4-8.9-0.4C659.8,632.6,655.8,632.6,660.8,633 M767.5,633c7.9,0.4,20,0.4,27.2,0
		c7.2-0.4,1.1-0.4-14-0.4C765.7,632.6,760,632.6,767.5,633 M883.4,633c1.4,0.4,3.6,0.4,5,0c1.4-0.4,0.4-0.7-2.5-0.7
		C883.1,632.3,882,632.6,883.4,633 M962.2,633c2.1,0.4,5.4,0.4,7.2,0c1.8-0.4,0-0.7-3.9-0.7C961.4,632.3,960,632.6,962.2,633
		 M1206.2,633c5,0.4,12.9,0.4,17.9,0c5-0.4,1.1-0.4-8.9-0.4C1205.1,632.6,1201.2,632.6,1206.2,633 M1403.8,633
		c7.2,0.4,19.3,0.4,26.5,0c7.2-0.4,1.4-0.4-13.2-0.4C1402.3,632.6,1396.6,632.6,1403.8,633 M1519.7,633c1.8,0.4,4.3,0.4,5.7,0
		c1.4-0.4,0-0.7-3.2-0.7C1519,632.3,1517.9,632.6,1519.7,633 M1592,633c2.1,0.4,5.4,0.4,7.2,0c1.8-0.4,0-0.7-3.9-0.7
		S1589.8,632.6,1592,633 M595.7,654.8c0,2.9,0.4,3.9,0.7,2.5c0.4-1.4,0.4-3.6,0-5S595.7,652,595.7,654.8 M1411.6,657.3
		c1.4,0.4,3.6,0.4,5,0c1.4-0.4,0.4-0.7-2.5-0.7C1411.3,656.6,1410.2,657,1411.6,657.3 M1379.1,747.9c0,43.7,0.4,61.6,0.4,39.7
		c0.4-21.8,0.4-57.6,0-79.4C1379.1,686.3,1379.1,704.2,1379.1,747.9 M1461.4,746.4c0,24.7,0.4,44.4,0.7,44c1.1-1.1,1.4-87,0.4-88
		C1461.7,702.1,1461.4,721.7,1461.4,746.4 M826.2,712.8c0,3.9,0.4,5.4,0.7,3.2s0.4-5.4,0-7.2C826.5,707.1,826.2,708.9,826.2,712.8
		 M457.2,746.4c0,17.5,0.4,25,0.4,16.1c0.4-8.9,0.4-23.3,0-32.2C457.2,721.4,457.2,728.9,457.2,746.4 M1544,734.6
		c4.3,0.4,10.7,0.4,14.3,0c3.6-0.4,0.4-0.4-7.5-0.4C1543,733.9,1540.1,734.3,1544,734.6 M1522.6,759c4.3,0.4,10.7,0.4,15,0
		c4.3-0.4,0.7-0.4-7.5-0.4C1521.9,758.6,1518.3,758.6,1522.6,759 M1570.5,759c3.6,0.4,10,0.4,13.6,0c3.6-0.4,0.7-0.7-6.8-0.7
		C1569.8,758.2,1566.9,758.6,1570.5,759 M826.2,786.5c0,3.6,0.4,5,0.7,3.2c0.4-1.8,0.4-4.7,0-6.4
		C826.5,781.5,826.2,782.9,826.2,786.5 M335.2,787.2c0,3.2,0.4,4.3,0.7,2.5c0.4-1.8,0.4-4.3,0-5.7
		C335.6,782.6,335.2,784,335.2,787.2 M681.6,959.4c-1.8,1.8-3.2,5-3.2,7.2c0,3.9,0,3.9,1.4,0.7c2.5-6.1,10.4-3.9,11.1,3.2
		c0.4,3.9,1.1,5.7,3.2,6.1c2.9,0.7,5.4,13.2,3.6,19.7c-0.7,3.6-1.1,3.6-14.3,3.6c-14.7,0-15.7-0.7-15.4-7.5c0-2.1-0.4-3.9-1.1-3.9
		s-1.4,2.5-1.4,5.7c0,4.3-0.7,5.7-2.9,6.4c-2.9,0.7-5.4,14-2.5,14c0.7,0,1.1-2.1,1.1-5c0-7.5,1.8-8.2,24.3-7.9l20,0.4v-4.7
		c0-3.2-0.7-4.7-2.9-5.4s-2.9-2.5-3.6-8.6c-0.7-6.1-1.8-8.2-3.6-8.6c-2.1-0.7-2.9-2.1-2.9-6.4c0-4.7-0.7-6.1-2.9-6.8
		c-1.4-0.4-2.9-1.8-2.9-2.9C687,955.8,684.8,955.8,681.6,959.4 M736,980.8c-0.4,25.1,0,26.1,2.5,26.8c1.4,0.4,2.9,1.8,2.9,2.9
		s1.8,2.5,3.6,3.6c4.7,1.8,5,1.8,5,0c0-0.7-1.4-1.4-2.9-1.4c-1.8,0-3.2-1.4-3.6-3.6c-0.4-1.8-1.8-3.6-2.9-3.6
		c-2.5,0-2.5,2.1-3.2-25.8l-1.1-25.1L736,980.8 M783.6,956.9c-2.5,0.7-2.5,1.1-0.4,1.8c3.2,1.4,3.6,39.7,0.4,39.7
		c-2.5,0-3.6,3.2-3.6,8.6c0,3.2-1.1,4.7-3.2,5.4c-3.2,1.1-3.2,1.4,0.7,1.4c3.2,0,3.9-0.4,3.9-3.2c0-1.8,1.4-5,2.9-7.2
		C788.6,998,788.2,955.4,783.6,956.9 M821.2,956.5c-1.4,0.4-2.5,1.8-2.5,2.9c0,1.1-1.1,2.5-2.9,2.9c-5,1.4-6.1,12.2-1.4,15
		c1.4,1.1,2.9,2.5,2.9,3.6c0,1.1,1.8,2.1,3.6,2.5c2.1,0.4,3.6,1.8,3.6,2.9c0,1.4,1.8,2.1,6.8,1.8c4.3,0,5.4-0.4,2.9-0.7
		c-2.1-0.4-4.7-1.8-5.7-3.2c-1.1-1.4-3.2-2.9-5-2.9c-1.8,0-3.2-0.7-3.2-2.1c0-1.1-1.4-3.2-2.9-4.7c-1.4-1.4-2.9-3.9-2.9-5.7
		c0-2.1,1.1-3.6,2.9-4.3c1.4-0.4,2.9-1.8,2.9-3.6c0-3.6,4.7-4.7,16.5-3.9c5,0.4,8.9,0,8.6-0.7C844.1,955.4,825.5,955.4,821.2,956.5
		 M883.1,956.5c7.5,0.4,8.6,1.1,12.5,6.1l4.7,5.7v26.1c0.4,33.3,1.1,30.1,1.4-6.4c0.4-31.8,0-30.1,11.5-31.5c5-0.4-1.1-0.7-14.7-0.7
		C885.9,955.8,878.8,956.1,883.1,956.5 M946.4,988c0,17.9,0.4,27.9,0.7,21.8c0.7-14,1.1-14.3,16.5-14c11.1,0.4,12.2,0.7,13.6,3.9
		c1.8,3.6,1.8,3.6,1.8-1.8v-5.4l-12.5,0.7c-17.5,1.1-19-0.4-19-18.3c0-16.8,1.8-18.6,19.7-18.6c11.1,0,12.2,0.4,15.4,3.6
		c1.8,2.1,3.9,3.6,4.7,3.6c3.9,0,4.7,20.4,0.7,22.9c-2.1,1.4-2.1,1.4,0.4,1.4c2.5,0,3.2-1.1,3.9-6.4c1.1-9.3-0.4-19.3-2.5-19.3
		c-1.1,0-2.9-1.4-4.3-3.2c-2.1-2.9-3.6-3.2-20.8-3.6l-18.6-0.4L946.4,988 M1047,959c-0.4,2.1-1.8,3.6-2.9,3.6
		c-1.4,0-2.1,1.4-1.8,3.9c0,3.2,0.4,3.2,0.7,0.7c1.1-5,10.4-5.4,10.4-0.4c0,1.4,0.7,2.9,1.4,2.9c1.1,0,0.7-11.1-0.4-12.2
		C1052,955.1,1048,955.8,1047,959 M1105.3,987.6l-0.4,32.9l6.4-0.4c6.8-0.7,6.1-3.2-1.8-7.2c-2.9-1.4-2.9-2.9-3.2-29.7l-0.4-28.3
		L1105.3,987.6 M1222.7,959.4c-1.8,1.8-3.2,5.4-3.2,7.5c0,3.6,0,3.6,1.4,0.7c2.9-7.2,11.5-3.6,11.5,5c0,2.5,1.1,3.9,2.9,4.3
		c1.8,0.4,2.9,1.8,2.9,4.7c0,2.1,1.1,5.4,2.1,7.5c3.9,6.8,3.9,7.5,1.4,9.7c-2.9,2.1-25.4,2.9-30.1,1.1c-2.9-1.1-2.9-7.2-0.4-8.6
		c2.5-1.4,4.7-14.7,2.5-14.7c-0.7,0-1.4,2.5-1.4,5.7c0,4.7-0.7,6.1-2.9,6.4c-2.1,0.7-2.9,1.8-2.9,7.2v6.4h20c19.7,0,20,0,20-3.2
		c0-5.4-1.8-9.7-3.6-9.7c-2.1,0-3.6-3.2-3.6-8.6c0-2.9-0.7-4.3-2.9-4.7c-2.1-0.7-2.9-1.8-2.9-6.1c0-3.9-1.1-6.4-3.9-9.3l-3.9-3.9
		L1222.7,959.4 M1168.6,988.3c0,17.5,0.4,25,0.4,16.1c0.4-8.9,0.4-23.3,0-32.2C1168.6,963.3,1168.6,970.5,1168.6,988.3 M672.3,977.6
		c-1.1,4.3-0.4,6.1,1.1,4.7c0.4-0.4,0.7-2.5,0.4-5l-0.4-3.9L672.3,977.6 M1060.2,979.8c0.4,2.5,0.7,4.3,1.1,4.3s0.7-1.8,0.7-4.3
		c0-2.5-0.4-4.3-1.1-4.3C1060.2,975.5,1059.9,977.3,1060.2,979.8 M1035.2,985.1c-0.4,4.7-0.7,6.4-2.9,6.8c-2.1,0.4-2.9,2.5-3.6,7.9
		s-1.4,7.2-3.6,7.2c-2.1,0-2.9,1.4-3.2,6.4c-0.4,3.6,0,6.4,0.7,6.4c0.7,0,1.1-2.1,1.1-4.7c0-3.2,1.4-5.7,5-9.3l5-5l18.6,0.4
		l18.6,0.4l1.8,6.4c1.1,3.6,1.8,5,1.8,3.2c0.4-5.7-1.8-12.2-3.6-12.2s-2.5-2.1-3.9-10c-0.4-2.5-0.7-2.1-0.7,1.4
		c-0.4,8.2-1.1,8.6-16.1,8.2l-13.6-0.4l-0.7-10C1035.5,981.9,1035.2,980.8,1035.2,985.1 M840.5,989.4c1.4,0.4,2.9,1.8,3.2,3.6
		c0.4,1.4,2.1,2.9,3.6,2.9c2.5,0,2.9,1.1,2.9,8.6c0,6.4-0.4,8.6-2.1,8.6c-1.1,0-3.2,1.4-4.3,3.2c-1.8,2.9-3.6,3.2-10.7,3.2
		c-4.7,0-8.2,0.4-7.5,1.4c1.4,2.5,18.3,0,20.4-3.2c1.1-1.8,2.9-2.9,3.9-2.9c2.5,0,3.9-8.6,2.9-14.7c-1.1-5.4-7.2-11.1-11.5-11.1
		C838.7,988.7,838.7,988.7,840.5,989.4 M1200.1,1009.8c-0.7,2.5-0.7,4.7-0.4,5.4c0.4,0.4,1.1-1.4,1.8-3.9c0.7-2.5,0.7-4.7,0.4-5.4
		C1201.6,1005.5,1200.9,1007.3,1200.1,1009.8 M1251,1005.9c-1.8,1.8,0.4,14,2.5,14c1.1,0,1.8-0.7,1.1-1.4c-0.4-0.7-1.4-3.9-1.8-7.2
		C1252,1008,1251.3,1005.5,1251,1005.9 M709.9,1011.2c0,2.9,0.4,6.1,1.4,7.2c1.8,2.9,1.8-3.2,0-8.6
		C710.2,1006.6,710.2,1006.6,709.9,1011.2 M984,1009.5c0.4,1.8,2.5,4.7,4.3,6.8l3.6,3.6v-3.6c0-2.1-0.7-3.6-2.1-3.6
		c-1.1,0-2.9-1.4-4.3-3.2l-2.5-3.2L984,1009.5 M813.3,1013.8c1.4,0.4,3.6,0.4,5,0c1.4-0.4,0.4-0.7-2.5-0.7
		S811.9,1013.4,813.3,1013.8 M755,1019.8c1.1,1.8,7.5,1.8,11.5,0c2.1-1.1,0.7-1.4-4.7-1.4C757.1,1018.4,754.2,1019.1,755,1019.8"/>
	<path id="path2" class="st1" d="M759.3,75.5l-5.7,6.1l6.1-5.7c5.7-5.4,6.8-6.4,5.7-6.4C765,69.4,762.5,72.2,759.3,75.5 M865.9,94.1
		c0,0.4,2.1,2.5,4.7,4.7l4.7,4.3l-4.3-4.7C867,94.1,865.9,93,865.9,94.1 M883.4,111.6c2.1,2.1,4.3,3.9,4.3,3.6
		c0.4-0.4-1.4-2.1-3.9-3.9l-4.3-3.6L883.4,111.6 M912.1,127.7c3.2,0.7,3.2,3.2,0,3.2c-1.4,0-2.1,0.4-1.4,0.7c0.4,0.4,2.1,0.4,3.9,0
		c3.6-1.1,1.4-5-2.5-5C909.9,127,909.9,127,912.1,127.7 M858.7,128.4c0.4,0.4,8.9,0.7,19.3,1.1c11.5,0.4,15.7,0.4,10.7-0.4
		C880.6,128.4,857.7,127.7,858.7,128.4 M806.1,157c-1.1,1.8-1.4,3.2-1.1,3.6c0.4,0.4,1.4-0.7,2.5-2.5
		C809.4,154.2,808.3,153.1,806.1,157 M734.6,168.9c0,3.2,0.7,7.2,1.8,8.6c1.1,1.4,2.1,2.1,2.1,1.4c0-0.7-0.7-2.1-1.4-2.9
		c-0.7-0.7-1.4-3.9-1.8-7.2l-0.7-5.7L734.6,168.9 M799.3,183.9c-1.1,5.4-1.1,15,0.4,19.7c0.4,1.8,1.1-2.9,1.1-10.4
		C800.8,177.8,800.8,177.8,799.3,183.9 M762.8,233.3c3.6,3.9,14.3,12.9,14.3,12.2c0-0.4-3.9-3.9-8.9-8.2
		C763.2,232.6,760.7,231.1,762.8,233.3 M814.4,263.3c1.8,1.1,4.7,2.1,5.7,2.1c1.1,0,0-1.1-2.5-2.1
		C811.5,260.5,809.7,260.8,814.4,263.3 M840.8,269.1c2.5,1.1,5.7,1.8,7.9,1.8s0.7-0.7-3.6-2.1C836.2,266.5,835.5,266.5,840.8,269.1
		 M769.3,277.6c1.4,1.1,3.9,2.1,5,2.1c1.8,0,1.8-0.4,0-1.1c-1.1-0.4-3.6-1.4-5-2.1C766.4,275.5,766.4,275.5,769.3,277.6
		 M741.4,277.6c0,0.7,1.1,2.9,2.1,5c1.1,1.8,2.1,2.9,2.1,2.1s-1.1-2.9-2.1-5C742.4,278,741.4,276.9,741.4,277.6 M271.1,527.8
		c-2.9,2.1-2.5,2.1,0.7,3.9c4.3,2.1,11.5,8.6,11.5,10.4c0,0.7,1.1,2.5,2.5,4.3c2.5,2.5,2.5,12.9,3.2,158.9l0.7,156.4l3.6,0.4
		c5,0.7,19.7-6.1,25.1-11.5l4.3-4.3l7.2,3.2c3.9,1.8,7.5,3.6,7.9,4.3s4.3,2.1,8.6,3.6c4.3,1.4,8.6,2.9,9.7,3.9
		c3.6,2.9,79.8,3.2,87.7,0c3.6-1.4,9.3-3.2,12.9-3.9c3.6-1.1,8.6-3.2,11.5-5c2.9-1.8,5.4-3.2,6.1-3.2c2.1,0,16.8-17.2,16.8-19.7
		c0-0.7,1.4-3.6,2.9-6.4c1.4-2.9,3.6-10,4.3-15.7c0.7-5.7,2.1-12.9,3.2-16.1c2.9-9.3,2.1-90.9-0.7-100.9c-1.4-4.3-2.9-10.7-3.2-14.3
		s-2.1-8.2-3.6-10.7s-2.9-5.4-2.9-6.8c0-3.9-17.5-20.8-24-22.9c-2.9-1.1-6.8-2.9-8.6-3.9c-10-6.4-88-6.8-95.5-0.4
		c-1.1,0.7-5.4,2.5-9.7,3.9c-4.3,1.1-8.2,2.9-8.6,3.9c-1.8,2.5-5,0-6.1-4.7c-0.4-2.5-1.1-23.6-1.1-46.9v-42.2l-4.3-6.8
		c-6.8-11.1-8.6-11.5-35.4-12.2C278.7,526,273.6,526,271.1,527.8 M967.9,527.8c-1.8,1.8,0.4,5.4,3.2,5.4c5,0,11.1,12.2,15,29.3
		c2.1,9.7,1.8,62.6-0.4,65.8c-1.8,2.5-2.9,2.5-19.7,0.7c-49.7-5.7-95.5-0.7-113.4,12.2c-6.1,4.3-16.5,15.7-16.5,17.9
		c0,1.1-1.4,3.9-2.9,6.1c-1.8,2.1-3.6,7.5-4.3,11.8c-0.7,4.3-2.1,9.7-3.2,11.8c-2.5,5.4-3.6,102.7-1.4,113.4
		c6.4,31.8,19.7,50.5,39.4,55.8c3.2,0.7,8.6,2.5,12.2,3.9c9.3,3.6,70.1,2.5,76.6-1.1c2.5-1.4,6.8-2.9,9.7-3.2
		c2.9-0.4,6.1-1.8,6.8-2.9c1.1-1.1,2.5-1.8,3.6-1.8c1.1,0,4.3-1.8,7.2-3.6l5.4-3.6l5,5.7c9.7,10.7,14.7,12.5,41.9,12.9
		c30.4,0.7,39.4-1.1,25.1-5c-11.1-3.2-16.8-10.4-20-25.8c-2.1-9.3-2.5-25.4-2.5-142.4c0-161,0.4-158.9-19-162.8
		C1006.2,525.3,969.7,525.6,967.9,527.8 M1077,527.8c-2.9,2.1-2.5,2.1,2.1,4.7c6.1,2.9,10,8.6,14,20.4c2.9,8.9,2.9,10.4,2.9,149.2
		v140.3l3.9,6.8c6.4,11.5,12.2,13.6,40.8,14.3s41.2-1.8,25.1-4.7c-5.4-1.1-10.4-5-16.1-13.6l-4.3-6.4l-0.7-143.1
		c-0.7-161-0.4-155.3-11.1-164.6l-5-4.3l-24.7-0.7C1084.2,526,1079.5,526,1077,527.8 M1402.3,527.4c-4.7,0.7-9.3,2.1-10.7,3.2
		c-1.4,1.1-4.3,2.5-6.8,3.2c-7.2,1.8-24.3,17.2-30.1,26.8c-6.1,10.4-10.7,20.8-10.7,23.3c0,1.4-1.1,4.3-2.1,6.1
		c-1.1,1.8-3.2,9.3-4.3,16.8c-2.9,18.3-4.3,21.5-11.8,23.3c-3.2,0.7-6.8,2.1-7.9,3.2c-1.1,0.7-3.6,2.1-5.7,2.9
		c-4.3,1.1-16.8,14.3-18.6,19c-2.9,7.5,0,8.9,18.6,8.9c12.2,0,17.5,0.4,18.6,1.8c1.1,1.4,1.8,28.6,2.1,86.2l0.4,84.5l3.6,9.3
		c5.7,14.7,12.2,17.5,41.9,18.6c30.1,1.1,40.8-1.1,26.5-5c-8.2-2.1-16.1-9.7-18.3-17.2c-0.7-3.2-2.1-6.4-2.9-6.8
		c-2.1-1.4-1.8-167.1,0.4-169.3c1.1-1.1,5-1.8,9.3-1.8c9.7,0,27.6-3.9,30.8-6.4c1.4-1.1,2.9-2.1,3.9-2.1c2.1,0,14.7-14.3,16.5-18.6
		c2.9-7.2,2.1-7.2-28.6-7.2c-36.9,0-32.9,2.9-32.9-24.3c0-33.3,4.3-39.7,28.3-41.2c6.8-0.4,14-1.8,16.1-2.9c2.1-1.1,5-1.8,6.1-1.8
		c9.3,0,31.1-27.9,25.1-31.5C1456,525.6,1414.1,526,1402.3,527.4 M555.6,534.9c-14.7,8.6-17.2,28.6-5.7,41.9l6.1,7.2h15
		c23.3,0,34.7-16.1,26.8-36.9C593.9,534.9,568.2,527.8,555.6,534.9 M1213.7,534.2c-7.2,2.9-15.7,15.7-15.7,24
		c0,19.3,17.5,30.4,40.4,26.1c16.1-3.2,23.3-32.9,11.1-45.4C1244.9,533.9,1221.6,531,1213.7,534.2 M564.9,537.1
		c-1.4,0.4-3.6,0.4-5,0c-1.4-0.4-0.4-0.7,2.5-0.7S566.4,536.7,564.9,537.1 M292.3,553.2c0.4,1.4,0,3.2-0.7,3.6
		c-0.7,0.4-1.4-0.7-1.4-2.9C290.5,549.6,291.2,549.3,292.3,553.2 M596.4,562.1c-0.4,1.8-0.7,0.7-0.7-2.5c0-3.2,0.4-4.7,0.7-3.2
		C596.8,557.8,596.8,560.3,596.4,562.1 M1251.7,568.6c-1.4,1.4-1.8-0.4-1.1-5.4l0.7-5l0.4,4.7
		C1252.4,565.7,1252.4,568.2,1251.7,568.6 M564.9,581.5c-1.4,0.4-3.6,0.4-5,0c-1.4-0.4-0.4-0.7,2.5-0.7S566.4,581.1,564.9,581.5
		 M1379.4,612.2c-0.4,5-0.4,1.1-0.4-8.9s0.4-14,0.4-8.9C1379.4,599.4,1379.8,607.2,1379.4,612.2 M1527.9,628.3
		c-9.3,1.1-19,2.9-20.8,3.9c-2.1,1.1-5.4,2.5-7.5,2.9c-14.3,3.6-30.1,22.5-35.4,42.6c-5.4,20-5.7,25.4-5.7,68
		c0,40.4,1.1,57.6,4.3,61.6c0.7,0.7,1.8,4.7,2.1,8.9c0.7,4.3,2.1,8.2,3.6,10c1.4,1.4,2.9,3.2,2.9,4.3c0,5,12.2,16.1,24.7,22.2
		c21.8,10.7,93.8,15,120.6,6.8c16.8-5,35.1-23.6,31.8-32.2c-0.7-1.8-7.5-2.1-49.4-2.1c-38.3,0-49.7-0.4-54-2.1
		c-2.9-1.1-7.9-2.5-10.7-2.9c-15-2.1-24.7-17.2-25.8-40.4c-1.1-19.3-5-17.9,44-17.9c32.6,0,43.3-0.4,50.1-2.1
		c4.7-1.1,12.2-2.9,16.8-3.9c4.7-1.1,9.3-2.9,10.4-4.3c1.4-1.4,2.9-2.5,3.9-2.5c2.1,0,15.4-14.3,15.4-16.5c0-1.1,1.4-5.7,2.9-10.7
		c2.1-6.4,2.9-12.9,2.9-24c0-11.1-0.7-16.8-2.9-22.9c-1.4-4.7-2.9-8.9-2.9-10c0-7.5-20.8-27.6-31.1-30.1c-2.1-0.4-5.4-1.8-6.8-2.9
		C1602.7,627.3,1559.1,625.1,1527.9,628.3 M534.9,630.1c-3.6,1.1-2.9,2.9,1.4,3.9c14.7,3.2,16.1,14.3,16.1,118.1
		c0,98.8,0,97.7,15,107c8.2,5.4,62.3,6.8,62.3,1.8c0-0.7-2.5-1.4-5.7-2.1c-6.4-1.1-16.8-10.4-18.3-16.5c-0.4-2.1-1.8-5.4-3.2-7.9
		c-2.1-3.9-2.5-15.4-2.9-96.6l-0.7-92.3l-4.7-5.7c-7.5-9.3-11.1-10.4-35.8-10.4C547,629.4,536.3,629.8,534.9,630.1 M643.7,630.1
		c-3.6,1.1-2.9,2.9,1.4,3.9c15.7,3.6,16.5,9.7,17.5,120.6l0.7,93.4l4.7,4.7c10.4,10,12.5,10.7,42.6,10.7c27.9,0,35.1-1.4,21.8-4.7
		c-19.3-5-22.9-19-21.8-92c0.7-54.8,1.8-68.7,6.8-73.7c1.4-1.8,2.9-3.6,2.9-4.3c0-1.8,5.7-6.8,12.5-11.8c3.9-2.9,7.2-3.2,21.5-3.9
		c25-1.4,49-14.7,49-27.9c0-1.4,1.1-3.6,2.1-4.7c1.1-1.1,2.5-3.9,2.5-6.1l0.4-3.9h-30.1c-26.5,0-30.4,0.4-33.6,2.5
		c-1.8,1.4-4.3,2.5-5.7,2.5c-1.1,0-4.3,1.4-6.8,3.6c-2.5,2.1-5.4,3.6-6.1,3.6s-2.1,1.1-3.2,2.5c-7.2,9.7-12.9,10-15.4,1.4
		c-1.1-4.3-3.2-7.5-7.5-11.1l-6.1-5l-23.6-0.4C656.9,629.4,645.1,629.8,643.7,630.1 M1190.5,630.1c-3.6,1.1-3.2,2.9,1.4,3.9
		c15.7,3.9,16.8,10.7,17.5,121c0.7,94.1,0.7,93.8,6.8,99.1c8.2,7.5,12.5,8.6,37.9,9.3c23.6,0.7,31.1,0,31.1-2.5c0-0.7-2.1-1.8-5-2.1
		c-3.2-0.7-7.5-3.2-11.5-7.2c-11.5-11.1-12.2-15-12.2-109.5c0-95.5-0.4-97-9.3-105.9l-6.4-6.4l-24-0.4
		C1203.7,629.4,1191.9,629.8,1190.5,630.1 M380.3,633c-1.4,0.4-3.6,0.4-5,0c-1.4-0.4-0.4-0.7,2.5-0.7
		C380.6,632.3,381.7,632.6,380.3,633 M449,633c-1.4,0.4-3.6,0.4-5,0c-1.4-0.4-0.4-0.7,2.5-0.7S450.4,632.6,449,633 M570.7,633
		c-4.7,0.4-12.2,0.4-17.2,0c-5-0.4-1.4-0.4,8.2-0.4C571,632.6,575.3,632.6,570.7,633 M678,633c-4.7,0.4-12.2,0.4-17.2,0
		c-5-0.4-1.4-0.4,8.2-0.4C678.4,632.6,682.7,632.6,678,633 M794.7,633c-7.2,0.4-19.3,0.4-27.2,0c-7.9-0.4-1.8-0.4,13.2-0.4
		C795.8,632.6,801.8,632.6,794.7,633 M888.4,633c-1.4,0.4-3.6,0.4-5,0c-1.4-0.4-0.4-0.7,2.5-0.7S889.9,632.6,888.4,633 M969.3,633
		c-1.8,0.4-5,0.4-7.2,0c-2.1-0.4-0.7-0.7,3.2-0.7C969.3,632.3,971.1,632.6,969.3,633 M1224.1,633c-5,0.4-12.9,0.4-17.9,0
		c-5-0.4-1.1-0.4,8.9-0.4C1225.2,632.6,1229.1,632.6,1224.1,633 M1430.2,633c-7.2,0.4-19.3,0.4-26.5,0c-7.2-0.4-1.4-0.4,13.2-0.4
		C1431.7,632.6,1437.4,632.6,1430.2,633 M1525.4,633c-1.4,0.4-3.9,0.4-5.7,0c-1.8-0.4-0.7-0.7,2.5-0.7
		C1525.4,632.3,1526.9,632.6,1525.4,633 M1599.1,633c-1.8,0.4-5,0.4-7.2,0c-2.1-0.4-0.7-0.7,3.2-0.7
		C1599.1,632.3,1600.9,632.6,1599.1,633 M596.4,657.3c-0.4,1.4-0.7,0.4-0.7-2.5c0-2.9,0.4-3.9,0.7-2.5
		C596.8,653.7,596.8,655.9,596.4,657.3 M1416.6,657.3c-1.4,0.4-3.6,0.4-5,0c-1.4-0.4-0.4-0.7,2.5-0.7
		C1417,656.6,1418.1,657,1416.6,657.3 M431.8,669.9c12.2,7.2,15,12.2,20.4,34.4c2.5,11.1,1.1,90.5-1.8,94.8
		c-1.4,1.8-2.5,4.7-2.5,6.1c0,4.3-8.2,12.9-16.8,17.2c-10.7,5.4-56.2,6.1-66.2,1.1c-3.2-1.4-6.4-2.9-7.5-2.9
		c-2.1,0-12.5-9.3-12.5-11.5c0-0.7-1.4-4.3-3.2-7.5c-3.6-7.2-6.1-97.3-2.9-108.4c3.6-11.5,22.5-25.1,37.9-27.2
		C395.3,663.4,424.3,665.6,431.8,669.9 M966.5,670.2c4.3,2.5,9.3,6.1,11.1,8.2c15.7,17.9,11.8,126.7-4.7,133.5
		c-0.7,0.4-2.5,2.1-4.3,3.9c-1.8,1.8-3.6,3.6-4.7,3.6c-1.1,0-4.7,1.8-8.2,3.6c-20.8,11.1-76.6,0.4-76.6-14.7c0-1.1-1.4-4.3-3.2-7.2
		c-3.2-5-3.2-5.7-3.2-55.1V696l3.9-7.9c9.7-19.7,18.6-22.9,58.7-22.2C958.6,665.9,958.9,665.9,966.5,670.2 M1592,669.9
		c3.2,2.1,6.8,5,7.2,5.7c0.7,1.1,2.1,2.9,3.6,4.3c2.1,2.1,2.5,5,2.5,17.5c0,27.9-8.2,32.2-60.5,32.2c-39.4,0-37.2,1.4-36.5-21.1
		c0.7-25.8,9.3-39.4,26.8-42.6C1550.8,663.1,1585.6,665.6,1592,669.9 M1379.4,787.6c-0.4,21.8-0.4,3.9-0.4-39.7s0.4-61.6,0.4-39.7
		C1379.4,730,1379.8,765.8,1379.4,787.6 M1463.2,746.8c0,23.6-0.4,43.7-1.1,44c-0.4,0.4-0.7-19.3-0.7-44s0.4-44.4,1.1-44
		C1462.8,703.1,1463.2,722.8,1463.2,746.8 M826.9,716c-0.4,2.1-0.7,0.7-0.7-3.2c0-3.9,0.4-5.7,0.7-3.9
		C827.3,710.6,827.3,713.9,826.9,716 M457.6,762.5c-0.4,8.9-0.4,1.4-0.4-16.1s0.4-25.1,0.4-16.1
		C457.9,739.3,457.9,753.6,457.6,762.5 M1558.4,734.6c-3.6,0.4-10,0.4-14.3,0c-4.3-0.4-1.1-0.4,6.8-0.4
		C1558.7,733.9,1562.3,734.3,1558.4,734.6 M1537.6,759c-4.3,0.4-10.7,0.4-15,0c-4.3-0.4-0.7-0.4,7.5-0.4
		C1538.3,758.6,1541.9,758.6,1537.6,759 M1584.1,759c-3.6,0.4-10,0.4-13.6,0c-3.6-0.4-0.7-0.7,6.8-0.7
		C1584.8,758.2,1587.7,758.6,1584.1,759 M826.9,789.7c-0.4,1.8-0.7,0.4-0.7-3.2s0.4-5,0.7-3.2C827.3,785.1,827.3,787.9,826.9,789.7
		 M335.9,789.7c-0.4,1.8-0.7,0.7-0.7-2.5c0-3.2,0.4-4.7,0.7-3.2C336.3,785.4,336.3,787.9,335.9,789.7"/>
	<path id="path3" class="st2" d="M1079.9,114.5c-1.4,0.4-5.4,1.8-8.2,2.9c-2.9,1.1-7.2,2.1-9.3,2.1c-2.1,0-7.2,1.8-11.1,3.6
		c-3.9,1.8-7.9,3.6-8.9,3.6c-1.1,0-3.6,1.4-5.7,2.9c-2.1,1.4-4.7,2.9-6.1,2.9s-3.9,1.1-5.7,2.5c-1.8,1.4-5,3.2-7.2,4.3
		c-1.8,1.1-6.4,3.6-10,6.1s-7.9,4.7-9.3,5.4c-3.6,1.8-8.9,7.5-6.8,7.5c1.1,0,1.8-0.7,1.8-1.4c0-0.7,2.1-2.5,4.7-3.9
		c2.5-1.4,5.4-3.2,6.4-4.3c1.1-1.1,2.5-1.8,3.6-1.8c0.7,0,3.2-1.8,5.7-3.6c2.5-2.1,5.4-3.6,6.8-3.6c1.4,0,3.6-1.4,5-2.9
		c1.4-1.4,3.9-2.9,5.7-2.9s4.7-1.1,6.4-2.9c1.8-1.4,5.4-3.2,7.9-3.6c2.5-0.4,6.1-1.8,7.5-2.9c1.8-1.1,7.2-2.5,12.5-3.6
		c5-0.7,11.5-2.5,14.3-3.6c8.9-3.6,35.8-2.9,48.3,1.4c5.7,2.1,12.9,3.6,16.5,3.6c3.9,0,6.4,0.7,6.8,2.1c0.4,1.1,3.2,2.5,6.1,2.9
		c2.9,0.4,7.2,2.1,8.9,3.6c2.1,1.4,6.4,3.2,10,3.6l6.4,1.1l-8.6,1.8c-4.7,1.1-8.9,2.5-8.9,3.2c-0.4,0.7-3.2,2.1-6.1,2.5
		c-3.2,0.4-6.4,2.1-7.5,3.6c-1.1,1.4-3.2,2.5-5.7,2.5c-2.1,0-5,1.1-6.8,2.9c-1.4,1.4-4.7,3.2-7.2,3.6c-2.5,0.7-5,2.1-6.1,3.6
		c-0.7,1.4-2.9,2.9-4.7,2.9c-2.9,0-5.4,1.4-14.3,9.3c-1.4,1.4-4.7,2.9-6.8,3.9c-2.1,1.1-5,2.9-5.7,4.3c-0.7,1.4-2.9,2.9-4.3,2.9
		c-1.4,0-3.2,0.7-3.9,1.8c-0.7,1.1-2.9,2.9-4.7,3.9c-3.6,1.8-5.4,3.2-11.8,9.3c-1.8,1.8-4.3,3.2-5.7,3.9c-1.4,0.4-2.5,1.4-2.5,2.1
		c0,0.7-2.1,2.1-5,2.9c-2.9,1.1-5.7,2.9-6.4,4.3c-0.7,1.4-2.1,2.9-3.2,2.9c-1.1,0-2.9,1.4-4.3,2.9c-1.4,1.4-3.2,2.9-4.3,2.9
		s-2.9,1.1-4.7,2.9c-1.8,1.4-5.4,3.6-8.2,5c-2.9,1.1-5,2.9-5,3.6c0,0.7-2.1,1.8-4.3,2.5c-2.5,0.4-4.7,1.8-5,2.9
		c-0.4,1.1-1.4,2.1-2.5,2.1c-1.1,0-5.4,1.8-10,4.3c-4.3,2.5-8.9,4.3-10.4,4.3c-1.1,0-2.5,1.1-3.2,2.1c-0.4,1.1-1.8,2.1-3.2,2.1
		s-5.4,1.4-9.3,3.6c-3.6,1.8-9.3,3.9-12.2,4.3c-2.9,0.4-8.2,2.1-11.8,3.6c-3.6,1.4-8.2,2.9-10.4,2.9c-2.1,0-6.4,1.1-9.3,2.1
		c-2.9,1.1-10.4,2.9-16.8,3.2c-11.5,1.1-11.5,1.1-2.9,1.4c4.7,0,10.7-0.4,13.6-1.1c2.9-0.7,9.3-2.5,14.3-3.6
		c12.9-3.2,26.8-7.5,33.6-10.7c3.2-1.4,6.8-2.9,7.5-2.9c1.4,0,13.6-5.7,18.6-8.6c1.1-0.7,5-2.9,8.6-4.7c13.6-7.2,24-12.9,31.1-17.9
		c4.3-2.9,8.6-5.7,10-6.8c3.2-2.1,15-9.7,16.8-11.1c0.7-0.7,5.4-4.3,10.7-8.2c5.4-3.9,10-7.2,11.1-7.2s2.5-0.7,2.9-1.8
		c1.4-2.5,10.7-9.3,15-11.1c1.8-0.7,6.1-3.6,9.7-6.4s7.5-5,8.6-5c1.1,0,3.9-1.8,6.4-3.6c2.1-1.8,5-3.6,6.1-3.6s3.9-1.1,5.7-2.9
		c2.1-1.4,5.7-3.2,8.2-3.6c2.5-0.7,5.4-1.8,6.1-2.9c0.7-1.1,3.9-2.5,6.8-2.9c2.9-0.7,7.9-2.1,11.5-3.6c3.6-1.4,6.8-2.9,8.2-2.9
		s2.9-1.1,3.6-2.1c1.8-2.5-1.8-5-6.8-5c-1.4,0-3.6-1.1-4.7-2.1c-1.1-1.1-4.3-2.9-7.5-3.6c-3.2-0.7-8.6-2.9-11.8-4.3
		c-3.2-1.4-8.2-2.9-10.7-2.9s-6.8-1.1-9.3-2.5C1130,114.8,1087.1,112.7,1079.9,114.5 M733.1,151c0,2.9,0.4,3.9,0.7,2.5
		c0.4-1.4,0.4-3.6,0-5C733.5,147,733.1,148.1,733.1,151 M982.6,161.3c-2.5,1.8-7.2,5.4-10.7,8.2c-3.6,2.9-7.9,6.1-10,7.2
		s-4.7,2.9-5.7,3.9c-4.3,3.9-16.5,13.2-20.8,15.4c-2.5,1.4-6.1,3.9-8.6,6.1l-4.3,3.6l4.7-2.1c2.5-1.4,4.7-2.9,4.7-3.6
		c0-0.7,1.4-1.8,3.2-2.1c2.9-0.7,12.9-8.2,21.1-15.4c1.1-1.1,3.9-2.5,6.1-3.6c3.9-1.8,6.8-3.9,13.2-10c1.8-1.8,3.9-3.2,4.7-3.2
		s3.2-1.8,5.7-3.6C990.8,157.4,988.6,157,982.6,161.3 M1200.9,168.1c-5,1.4-11.1,2.9-12.9,2.9s-6.1,1.4-9.3,2.9
		c-3.2,1.4-7.2,2.9-8.6,2.9s-5.4,1.8-8.6,3.6s-7.2,3.6-8.6,3.6c-1.8,0-4.3,1.4-5.4,2.9c-1.4,1.4-4.3,3.2-6.8,3.6s-4.7,1.4-5,2.1
		c-0.4,0.7-5.4,3.9-11.5,7.2c-5.7,3.2-10.7,6.4-11.1,6.8c-0.4,0.7-3.9,3.2-8.2,6.1c-4.3,2.9-8.9,5.7-10,6.8
		c-1.1,1.1-4.7,3.6-7.9,6.1c-3.2,2.5-7.2,5.4-8.6,6.4c-15,11.5-20,15-21.5,15c-1.1,0-2.9,1.1-4.3,2.5c-3.2,3.2-7.2,5.4-37.2,19.7
		c-12.5,6.1-34,13.6-43.7,15.7c-5,1.1-11.8,2.9-14.7,4.3c-2.9,1.4-8.2,2.5-11.8,2.5c-3.6,0-9.3,1.1-12.5,2.5
		c-3.6,1.4-10,2.9-14.7,3.2l-8.6,1.1l9.3,0.4c6.1,0,10.4-0.4,12.2-1.8c1.4-1.1,7.9-2.5,13.6-2.9c5.7-0.4,13.2-2.1,16.5-3.6
		c3.2-1.4,9.3-2.9,14-3.2c5.4-0.4,9.7-1.8,12.2-3.6c2.1-1.8,5.7-2.9,8.6-2.9s5.4-0.7,6.4-1.8c1.1-1.1,3.9-2.5,7.2-2.9
		c2.9-0.4,7.2-2.1,9.3-3.6c2.1-1.4,5-2.9,6.8-2.9s4.3-1.4,5.7-2.9c1.4-1.4,4.7-3.2,7.2-3.6c2.1-0.4,5.4-2.1,6.4-3.6
		c1.4-1.4,3.2-2.9,4.3-2.9c1.1,0,2.9-1.1,4.3-2.9c1.4-1.4,4.3-3.2,6.4-3.6c2.1-0.7,4.7-2.1,5.4-3.6c0.7-1.4,2.5-2.9,3.6-2.9
		s2.9-1.4,3.9-2.9c1.1-1.4,2.5-2.9,3.2-2.9s3.6-1.4,6.1-3.6c2.5-1.8,5.4-3.6,6.1-3.6s2.1-1.4,2.9-2.9c0.7-1.4,2.5-2.9,3.6-2.9
		c1.1,0,2.9-1.1,3.9-2.9c1.1-1.4,3.6-3.2,5.7-3.6c2.1-0.4,4.7-2.1,5.4-3.6s2.5-2.9,3.6-2.9c1.1,0,2.9-1.4,3.9-2.9
		c1.1-1.8,3.2-2.9,5.4-2.9c4.3,0,6.4-1.4,7.5-4.7c0.4-1.4,2.5-2.5,4.3-2.5c5,0,7.9-1.4,7.9-3.6c0-1.1,2.5-2.1,5.7-2.9
		c3.2-0.4,6.1-1.8,6.4-2.9c0.4-1.1,3.6-2.5,6.8-2.9c4.3-0.7,6.1-1.8,6.8-3.6c0.7-2.1,2.1-2.9,9.3-2.9s8.6-0.4,9.3-2.5
		c1.4-5.7,85.5-5.7,87,0c0.7,2.1,2.1,2.5,8.6,2.5s8.6,0.7,11.5,3.6c2.9,2.9,5,3.6,10,3.6c5,0,6.4,0.7,7.2,2.9
		c0.4,1.4,2.1,2.9,3.9,3.2s-2.1,0.7-9.3,0.7c-11.5,0-12.9,0.4-13.2,3.2c-0.7,2.5-1.8,2.9-8.2,2.9c-7.9,0-10,0.7-11.5,4.7
		c-0.7,1.8-2.5,2.5-6.8,2.5c-4.7,0-6.1,0.7-6.8,2.9c-0.7,2.1-1.8,2.9-5.4,2.9c-3.2,0-5.4,0.7-6.4,2.9c-1.1,1.8-3.6,3.2-7.2,3.9
		c-4.3,0.7-5.7,1.4-5.7,3.6s-1.1,2.5-5,2.5c-3.6,0-5.7,1.1-7.2,3.6c-1.1,1.8-3.6,3.6-5,4.3c-1.4,0.4-2.9,1.8-2.9,2.9
		c0,1.8-1.4,2.1-5,2.1c-3.9,0-5.4,0.7-5.7,2.9c-0.4,1.4-2.1,3.2-4.3,4.3c-1.8,0.7-3.6,2.5-3.6,3.6c0,1.1-1.1,2.1-2.9,2.1
		c-1.4,0-3.2,1.1-3.6,2.9c-0.4,1.8-2.9,3.2-5.7,3.6c-3.2,0.7-5.4,1.8-5.7,3.6c-0.4,1.4-2.1,2.9-3.6,2.9s-3.2,1.4-3.6,2.9
		c-0.4,1.4-1.8,2.9-2.9,2.9c-1.1,0-2.9,1.4-3.6,3.6c-1.1,2.9-2.5,3.6-5.7,3.6c-2.9,0-4.7,0.7-5,2.9c-0.4,1.4-2.5,3.2-4.3,3.6
		s-3.6,2.1-3.9,3.6c-0.4,1.8-1.8,2.9-3.6,2.9c-2.1,0-2.9,1.1-2.9,2.5c0,2.1-1.4,2.9-5.7,3.6c-3.6,0.7-5.7,1.8-5.7,3.2
		c0,1.4-1.4,2.1-3.6,2.1c-2.1,0-5.4,1.8-7.2,3.6c-2.1,2.1-5,3.6-6.4,3.6c-1.8,0-2.9,1.1-2.9,2.9c0,2.1-1.1,2.9-3.9,2.9
		c-6.8,0-13.2,1.8-13.2,3.6c0,2.5-3.2,3.6-9.3,3.6c-3.9,0-5,0.7-5,2.9c0,2.1-1.4,2.9-7.9,3.2c-5.7,0.4-8.6,1.4-10.7,3.9
		c-2.5,2.5-4.3,3.2-14,3.2c-8.6,0-12.2,0.7-15.7,2.9c-5,3.2-52.2,4.3-55.5,1.8c-2.1-1.8-14.3-4.7-21.1-4.7c-3.9,0-7.2-0.7-8.2-2.1
		c-1.1-1.1-4.7-2.5-8.2-3.2c-3.6-0.7-8.9-2.1-11.8-3.6c-2.9-1.4-8.9-4.3-13.6-6.4c-4.7-2.1-9.7-4.3-10.7-5.4
		c-1.1-1.1-4.3-2.1-6.8-3.6c-2.5-1.1-6.1-3.6-8.2-5.7l-3.6-3.6l3.2-0.7c1.8-0.4,7.5-1.1,13.2-1.1c10-0.4,10-0.4-2.1-0.7
		c-18.6-0.4-22.2,1.1-14,6.1c12.2,7.9,15.4,9.7,25.4,14.3c5.7,2.9,13.2,6.4,16.1,7.9c2.9,1.4,6.4,2.9,8.2,2.9
		c1.4,0,6.1,1.4,10.4,3.6c4.3,1.8,9.3,3.6,11.5,3.6c2.1,0,9.7,1.4,16.5,2.9c15.4,3.6,57.3,3.2,69.8-0.7c3.9-1.1,8.9-2.1,11.5-2.1
		c4.7,0,23.3-5.7,32.9-10c12.9-5.7,18.6-8.2,22.2-9.3c2.1-0.7,4.7-2.1,6.1-3.2c2.5-2.1,8.9-6.1,16.5-9.7c4.7-2.5,12.9-7.5,16.1-10.4
		c1.1-1.1,6.8-5.4,12.2-9.3c17.5-12.9,32.6-24.3,40.1-30.4c3.9-3.2,8.9-7.2,11.5-8.6c7.9-5.4,10.7-7.2,18.3-12.2
		c4.3-2.9,11.1-7.2,15.4-9.3c4.3-2.1,9.3-5,11.5-6.4c1.8-1.4,5-2.5,6.8-2.5c1.8,0,3.9-1.1,5-2.1c1.1-1.1,4.3-2.9,7.5-3.9
		c3.2-1.1,7.2-2.5,8.9-3.6c1.4-1.1,5.4-2.1,8.6-2.9c3.2-0.7,8.2-2.1,11.5-3.6c3.2-1.4,8.6-2.5,12.2-2.9c3.6,0,8.2-1.1,10.7-1.8
		l4.3-1.8l-6.1-3.2c-3.2-1.8-6.4-3.6-6.8-4.3c-0.4-0.7-3.2-1.8-6.1-2.1c-2.9-0.4-7.2-2.1-9.7-3.6c-2.5-1.4-6.1-2.9-7.9-2.9
		c-1.8,0-6.1-1.1-9.3-2.9s-11.1-3.2-17.5-4.3c-6.4-0.7-13.2-2.1-15.4-2.9C1240.9,164.2,1211.6,165.3,1200.9,168.1 M817.2,234.3
		c0.4,0.4,2.5,1.4,5,2.9l4.3,2.5l-3.2-2.9c-1.8-1.8-3.9-2.9-5-2.9C817.6,234,816.9,234.3,817.2,234.3 M740.3,269.1
		c-0.4,1.1-0.4,2.9,0,3.9c0.4,1.1,0.7,0.4,0.7-1.4c0-2.1,1.1-3.2,3.2-3.6l3.2-0.7l-3.2-0.4C742.8,266.9,741,268,740.3,269.1
		 M854.8,272.3c2.1,0.4,5.7,0.4,7.9,0s0.4-0.7-3.9-0.7C854.4,271.6,852.7,271.9,854.8,272.3 M882,273.7c2.1,0.4,5.7,0.4,7.9,0
		c2.1-0.4,0.4-0.7-3.9-0.7C881.6,273,879.9,273.3,882,273.7 M745.7,293.4c0,1.8,0.4,3.9,1.1,4.3s0.7-1.1,0.7-3.6
		C746.7,288.7,745.7,288.4,745.7,293.4 M799.3,293c1.4,0.7,3.2,2.1,3.9,3.2s1.1,1.1,1.1-0.4c0-1.1-1.1-2.5-2.9-3.2
		C797.9,290.9,795.8,290.9,799.3,293 M821.2,307.7c2.5,1.8,4.7,3.6,5.4,3.6s-1.1-1.8-3.2-3.6c-2.5-2.1-4.7-3.6-5.4-3.6
		C817.6,304.1,819,305.6,821.2,307.7 M834.1,315.9c1.1,1.4,2.9,2.5,3.9,2.5c1.1,0,2.5,1.1,3.9,2.5c1.1,1.4,3.9,3.2,6.1,4.3
		c2.5,1.1,6.4,3.2,8.9,5c2.5,1.8,5,2.5,5.4,2.1c0.4-0.4-1.4-1.8-3.9-3.2c-6.8-3.2-14-7.2-16.8-9.7
		C836.9,315.6,831.9,313.4,834.1,315.9 M874.5,339.9c1.8,1.8,5,3.6,7.2,3.9s4.7,1.8,6.1,2.9c1.1,1.1,4.3,2.5,7.2,3.6
		s5.7,2.5,7.2,3.6c1.1,1.1,5,2.1,8.2,2.9c3.2,0.7,7.2,2.1,8.2,3.2c1.1,1.1,5.7,2.5,10,3.2c4.3,0.7,8.9,2.1,10.7,3.6
		c1.8,1.8,6.8,2.9,14.7,3.6c6.4,0.7,14,2.1,16.5,3.6c3.6,1.8,11.5,2.5,39.4,3.2l35.1,1.1l2.5-3.2c2.1-3.2,3.6-3.6,16.1-3.9
		c12.2-0.4,14-1.1,14.7-3.2c0.7-2.1,2.1-2.9,7.5-2.9c8.2,0,11.5-1.1,11.5-3.6c0-1.4,1.8-2.1,5-2.1c3.6,0,5.7-1.1,7.9-3.6
		c2.1-2.5,3.9-3.6,6.8-3.2c3.9,0.4-7.5,15.4-11.8,15.4c-0.7,0-2.1,1.4-3.2,2.9c-1.1,1.4-2.9,2.9-4.3,2.9c-1.8,0-2.9,1.1-2.9,2.9
		c0,1.8-1.1,2.9-2.9,2.9c-1.4,0-3.2,1.4-3.6,2.9c-0.7,2.1-2.1,2.9-5,2.9c-3.2,0-4.7,1.1-5.7,3.6c-1.1,2.5-2.9,3.6-5,3.6
		c-2.5,0-3.2,0.7-3.2,2.9c0,2.1-1.1,2.9-4.3,2.9c-5.4,0-8.6,1.4-8.6,3.6c0,2.1-4.3,3.6-11.1,3.6c-3.6,0-5,0.7-5.4,2.9
		c-0.7,2.1-1.8,2.9-5.4,2.9c-6.1,0-9.3,1.4-9.3,3.6c0,1.4-1.8,2.1-6.1,2.1c-9.7,0-21.5,2.5-23.3,5.4c-2.5,3.6-81.9,3.2-88.7-0.4
		c-2.5-1.4-8.6-2.9-13.6-3.2c-5-0.4-10-1.8-11.5-2.9c-1.4-1.1-5.7-2.9-10-3.2c-3.9-0.7-8.2-2.1-9.7-3.2c-1.4-1.1-4.3-2.5-6.4-2.9
		c-2.1-0.7-5.7-2.1-7.9-3.9c-1.8-1.4-4.7-2.9-6.1-2.9s-3.6-1.4-5-2.9c-1.4-1.4-3.9-3.2-5.7-3.9c-3.9-1.4-9.3-5-23.6-16.8
		c-6.8-5.4-11.1-8.6-10-6.8c3.6,5,32.2,26.1,35.4,26.1c1.1,0,1.8,0.7,1.8,1.4c0,0.7,2.9,2.9,6.4,4.3c3.6,1.4,6.8,3.2,7.2,4.3
		c0.4,0.7,2.1,1.4,3.2,1.4c1.4,0,5.7,1.4,9.7,3.6c3.9,1.8,8.2,3.6,10,3.6c1.4,0,4.7,1.4,7.2,2.9c2.5,1.4,7.9,3.2,12.2,3.6
		c4.3,0.4,9.7,1.8,11.8,3.2c10,5.4,82.7,6.1,100.2,1.1c4.3-1.1,11.1-2.9,15.4-3.6c4.3-0.7,10.4-2.9,13.2-4.3
		c2.9-1.4,6.1-2.9,7.2-2.9c1.1,0,4.3-1.4,7.5-2.9c3.2-1.4,7.2-3.2,9.7-3.6c2.1-0.4,4.7-1.4,5-2.1c0.4-0.7,3.6-2.5,6.8-4.3
		c11.8-5.7,16.1-8.2,18.3-10.7c1.1-1.1,2.5-2.1,3.2-2.1c4.7,0,37.9-31.5,43.7-41.2c5.4-8.9,3.9-8.6-14.3,0
		c-8.9,4.3-18.6,8.9-21.8,10c-21.8,7.9-32.2,10.7-43.7,12.5c-5.7,0.7-13.2,2.1-16.5,2.9c-9.3,2.1-51.9,1.8-60.1-0.7
		c-3.9-1.1-9.3-2.1-12.2-2.1c-2.9,0-8.6-1.1-12.9-2.1c-4.3-1.1-11.5-3.2-16.1-4.3s-9.7-2.9-11.5-3.9s-5.4-2.5-8.2-2.9
		c-2.9-0.4-7.5-2.1-10.7-3.6C869.1,335.3,869.8,336,874.5,339.9 M679.5,954c-1.4,0.7-2.9,3.2-3.2,5.7c-0.4,2.1-1.8,5-2.9,5.7
		c-1.1,1.1-2.5,3.6-2.9,6.1c-0.4,2.5-2.1,6.4-3.6,8.9c-1.4,2.5-3.2,6.8-4.3,9.7c-1.1,2.9-2.5,6.1-3.9,6.8c-1.1,1.1-2.1,3.2-2.1,4.7
		c0,1.4-1.8,6.1-3.6,10c-4.3,7.9-3.6,11.1,1.8,11.1s6.8-1.4,8.2-6.4c2.1-8.9,5.4-10.7,21.5-10.7c16.5,0,16.1,0,21.1,9.3
		c3.2,6.4,4.3,7.2,8.9,7.5c6.4,0.4,7.2-2.1,2.5-8.9c-1.4-2.5-2.9-5.4-2.9-6.4c0-1.1-1.8-5-3.6-8.9c-2.1-3.6-3.6-7.5-3.6-8.6
		s-1.1-2.9-2.1-3.9c-1.1-1.1-2.1-2.9-2.1-4.3c0-1.4-1.4-5.4-3.6-9.3c-2.1-3.6-3.6-7.5-3.6-8.6C695.6,956.9,685.2,950.8,679.5,954
		 M733.9,954.7c-3.2,2.5-2.9,47.2,0.4,53.7c10.7,20,42.2,20.4,52.6,1.1c3.2-5.7,3.2-7.5,2.9-31.1l-0.4-25.1h-5h-5l-0.7,25.4
		l-0.7,25.4l-3.9,3.2c-18.3,15.7-33.3,0.4-32.2-33.3c0.4-16.8,0.4-19-2.1-20.4C736.7,952.2,737.1,952.2,733.9,954.7 M814.7,957.2
		c-6.4,5.7-7.9,22.5-2.5,25.8c1.4,0.7,4.3,2.9,6.4,4.7c2.1,1.8,6.8,3.6,10.4,3.9c15.4,2.1,24,13.6,14,19c-6.8,3.6-14.3,2.9-22.9-1.4
		c-7.2-3.6-7.5-3.6-9.3-1.4c-8.2,11.5,26.5,22.2,39.4,11.8c6.1-5,11.1-14.3,10-18.6c-1.8-6.4-9.3-15.4-14.3-16.1
		c-19-3.6-28.6-12.5-21.8-20c4.3-4.7,11.1-5,20-0.7c6.1,2.9,6.8,2.9,8.9,0.7C863.4,954.3,826.5,946.5,814.7,957.2 M873.8,954.3
		c-5,3.6,0,8.2,8.2,8.2c10.7,0,10.7,0.7,10.7,31.8v26.8l3.6,1.1c7.9,1.8,7.9,1.4,7.9-26.5c0-31.8,0.4-32.9,11.1-33.3
		c9.3-0.4,13.2-3.9,8.2-7.5C920.3,951.8,877.7,951.5,873.8,954.3 M945,954.3c-2.9,2.9-2.5,66.9,0.4,68c6.8,2.5,9.3-0.4,9.7-12.2
		l0.4-11.1l5-0.4c8.6-0.7,11.1,0.7,17.9,11.1s9.7,12.9,15.7,12.9c5.7,0,5.7-2.1-1.1-11.8c-8.6-12.5-9.7-16.5-4.3-18.3
		c13.2-5,13.6-24.7,0.7-36.5C985.1,952.6,948.2,950.8,945,954.3 M1043,956.5c-2.1,2.1-3.9,5-3.9,6.1c0,1.1-1.8,5.4-3.6,9.3
		s-3.6,8.2-3.6,9.7c0,1.4-0.7,2.9-1.4,3.2c-0.7,0.4-2.5,3.9-3.9,7.5c-1.4,3.6-3.2,7.9-4.3,8.9c-1.1,1.1-2.5,4.7-3.2,7.5
		c-0.7,2.9-2.5,6.4-3.9,7.5c-3.6,3.6-2.1,5.4,3.9,6.1c4.7,0.4,5.4,0,7.2-3.6c1.1-2.1,3.2-6.1,4.7-8.6l2.9-4.7h15.4
		c17.2,0,18.6,0.7,21.1,10c1.1,4.3,2.5,5.7,5,6.4c7.9,2.1,9.7-2.1,5-11.1c-1.4-2.9-2.9-6.4-2.9-7.5c0-1.1-1.1-3.9-2.9-6.1
		c-1.4-2.1-3.6-6.4-4.3-9.7c-0.7-3.2-2.5-6.8-3.6-7.5c-1.1-1.1-2.1-2.9-2.1-3.9c0-1.8-1.8-6.4-8.6-20.4
		C1054.5,951.5,1047.3,952.2,1043,956.5 M1103.2,954.3c-2.1,1.1-2.5,4.7-2.5,34.4v32.9l3.2,0.7c9.7,2.5,43.3,0,43.7-3.2
		c0.7-5.7-3.2-7.5-16.8-7.5c-7.2,0-14.3-0.7-16.5-1.8l-3.6-1.8v-26.1C1110.7,953.6,1110,950.4,1103.2,954.3 M1166.9,954.3
		c-2.9,2.9-2.5,66.9,0.7,68c6.4,2.5,6.8-0.4,7.5-33.3c0.4-27.6,0-31.5-2.1-34C1170.1,952.2,1169,951.8,1166.9,954.3 M1220.5,954.3
		c-1.1,1.1-3.2,4.3-3.9,7.5c-1.1,3.2-2.5,7.2-3.6,8.6s-2.1,4.7-2.9,6.4c-0.7,2.1-2.1,5-3.6,7.2c-1.4,2.1-2.5,5-2.5,6.4
		s-1.4,4.7-2.9,6.8c-1.4,2.1-2.9,4.7-2.9,5.7c0,1.1-1.8,5-3.6,8.9c-4.3,7.9-3.6,10.7,2.1,10.7c4.7,0,6.4-1.8,8.2-7.2
		c4.7-16.1,40.1-14.7,43.7,1.8c1.1,4.3,1.4,4.7,6.4,4.7c6.8,0,8.2-3.2,3.6-9.3c-1.8-2.1-2.9-5-3.2-6.1c0-1.1-1.8-5-3.6-8.9
		s-3.6-8.2-3.6-9.7c0-1.4-1.1-3.2-2.1-3.9c-1.1-1.1-2.1-2.5-2.1-3.6c0-1.1-1.4-4.7-3.6-8.2c-1.8-3.6-3.9-8.6-4.3-11.1
		C1234.5,954,1225.9,950.1,1220.5,954.3 M687,959c0,1.1,1.4,2.5,2.9,2.9c2.1,0.7,2.9,2.1,2.9,6.8c0,4.3,0.7,6.1,2.9,6.4
		c2.1,0.7,2.9,2.5,3.6,8.6c0.7,6.1,1.8,8.2,3.6,8.6c1.8,0.4,2.9,2.1,2.9,5.4v4.7l-20-0.4c-22.5-0.4-24.3,0-24.3,7.9
		c0,2.5-0.4,5-1.1,5c-2.5,0,0-13.2,2.5-14c2.1-0.7,2.9-2.1,2.9-6.4c0-3.2,0.7-5.7,1.4-5.7c0.7,0,1.4,1.8,1.1,3.9
		c-0.4,6.8,0.7,7.5,15.4,7.5c13.2,0,13.6,0,14.3-3.6c1.8-6.4-0.7-19-3.6-19.7c-1.8-0.4-2.9-2.1-3.2-6.1c-0.7-6.8-8.6-9.3-11.1-3.2
		c-1.4,3.2-1.4,3.2-1.4-0.7c0-2.1,1.4-5.4,3.2-7.2C684.8,955.8,687,955.8,687,959 M738.1,1005.2c0,0.4,1.1,0.4,2.1,0.4
		c1.1,0,2.5,1.8,2.9,3.6c0.7,2.1,1.8,3.6,3.6,3.6c1.4,0,2.9,0.7,2.9,1.4c0,1.8-0.4,1.8-5,0c-2.1-0.7-3.6-2.1-3.6-3.6
		c0-1.1-1.4-2.5-2.9-2.9c-2.9-0.7-2.9-1.8-2.5-26.8l0.4-26.1l1.1,25.1C737.8,993.4,738.1,1004.8,738.1,1005.2 M784.3,1003.7
		c-1.4,2.1-2.9,5.4-2.9,7.2c0,2.9-0.7,3.2-3.9,3.2c-3.9,0-3.9,0-0.7-1.4c2.1-1.1,3.2-2.5,3.2-5.4c0-5.7,1.4-8.6,3.6-8.6
		c3.2,0,2.9-38.3-0.4-39.7c-2.1-0.7-2.1-1.1,0.4-1.8C788.2,955.4,788.6,998,784.3,1003.7 M844.8,956.5c0.4,0.7-3.6,0.7-8.6,0.7
		c-11.5-0.7-16.5,0.4-16.5,3.9c0,1.4-1.4,2.9-2.9,3.6c-1.8,0.4-2.9,1.8-2.9,4.3c0,1.8,1.4,4.7,2.9,5.7c1.4,1.4,2.9,3.6,2.9,4.7
		c0,1.4,1.4,2.1,3.2,2.1s3.9,1.1,5,2.9c1.1,1.4,3.6,2.9,5.7,3.2c2.5,0.4,1.4,0.7-2.9,0.7c-5,0-6.8-0.4-6.8-1.8
		c0-1.1-1.4-2.5-3.6-2.9c-1.8-0.4-3.6-1.8-3.6-2.5s-1.4-2.5-2.9-3.6c-4.7-2.9-3.2-14,1.4-15c1.4-0.4,2.9-1.8,2.9-2.9
		C818.7,955.8,843,953.3,844.8,956.5 M913.5,956.9c-11.8,1.1-11.1-0.7-11.5,31.5c-0.7,36.5-1.4,39.7-1.4,6.4v-26.1l-4.7-5.7
		c-3.9-5-5-5.7-12.5-6.1c-4.3-0.4,2.5-0.4,15.7-0.7C912.4,955.8,918.9,956.1,913.5,956.9 M985.4,959.4c1.1,1.8,3.2,3.2,4.3,3.2
		c2.1,0,3.6,10,2.5,19.3c-0.7,5.4-1.1,6.4-3.9,6.4s-2.9-0.4-0.4-1.4c3.9-2.5,3.2-22.9-0.7-22.9c-0.7,0-2.9-1.4-4.7-3.6
		c-2.9-3.2-4.3-3.6-15.4-3.6c-17.9,0-19.7,1.8-19.7,18.6c0,17.9,1.4,19.3,19,18.3L979,993v5.4c0,5,0,5.4-1.8,1.8
		c-1.8-3.2-2.5-3.6-13.6-3.9c-15-0.4-15.7,0-16.5,14c-0.4,6.1-0.7-3.6-0.7-21.8l-0.4-32.6l18.6,0.4
		C981.8,956.1,983.3,956.5,985.4,959.4 M1054.1,957.6c1.1,1.1,1.4,12.2,0.4,12.2c-0.7,0-1.4-1.1-1.4-2.9c0-5-9.3-4.7-10.4,0.4
		c-0.4,2.5-0.7,2.1-0.7-0.7c0-2.5,0.4-3.9,1.8-3.9c1.1,0,2.5-1.8,2.9-3.6C1048,955.8,1052,955.1,1054.1,957.6 M1109.2,1012.7
		c7.9,4.3,8.6,6.8,1.8,7.2l-6.4,0.4l0.4-32.9l0.4-32.9l0.4,28.3C1106.4,1009.8,1106.7,1011.2,1109.2,1012.7 M1233.8,969
		c0,3.9,0.7,5.4,2.9,6.1c2.1,0.4,2.9,1.8,2.9,4.7c0,5.4,1.4,8.6,3.6,8.6c1.8,0,3.6,4.3,3.6,9.7c0,3.2-0.4,3.2-20,3.2h-20v-6.4
		c0-5,0.7-6.4,2.9-7.2c2.1-0.7,2.9-1.8,2.9-6.4c0-3.2,0.7-5.7,1.4-5.7c2.1,0,0,13.2-2.5,14.7c-2.9,1.4-2.5,7.5,0.4,8.6
		c4.7,1.8,27.2,1.1,30.1-1.1c2.5-1.8,2.5-2.5-1.4-9.7c-1.1-2.1-2.1-5.4-2.1-7.5c0-2.5-1.1-3.9-2.9-4.7c-1.8-0.4-2.9-1.8-2.9-4.3
		c0-8.6-8.6-12.2-11.5-5c-1.4,3.2-1.4,3.2-1.4-0.7c0-2.1,1.4-5.4,3.2-7.5l3.2-3.6l3.9,3.9C1232.7,962.6,1233.8,965.1,1233.8,969
		 M1169,1004.4c-0.4,8.9-0.4,1.4-0.4-16.1c0-17.9,0.4-25.1,0.4-16.1C1169.4,981.2,1169.4,995.5,1169,1004.4 M979,965.1
		c16.8,6.8,8.6,21.8-11.8,21.8c-11.1,0-12.5-1.1-12.5-12.2C954.6,962.2,963.2,958.6,979,965.1 M687.7,972.2c0.4,1.4,2.1,5.7,4.3,9.3
		c4.7,9.7,3.2,14.3-4.3,15c-11.1,1.1-12.9-0.4-11.8-8.6C677.3,977.3,685.9,965.8,687.7,972.2 M1057.7,984.4
		c2.5,9.7-0.7,13.2-11.8,12.2c-7.9-0.7-8.6-5.7-2.9-17.9l4.7-9.7l3.9,5C1054.5,976.9,1057,981.5,1057.7,984.4 M1229.5,975.1
		c0,1.1,1.4,3.6,2.9,5.7c3.6,4.7,3.9,14,0.7,15.4c-9.3,3.6-17.2-0.4-15.7-8.2C1219.1,975.8,1229.5,965.1,1229.5,975.1 M673.4,982.3
		c-1.4,1.4-2.1-0.4-1.1-4.7l1.1-4.3l0.4,3.9C674.1,979.8,674.1,981.9,673.4,982.3 M1062,979.8c0,2.5-0.4,4.3-0.7,4.3
		s-0.7-1.8-1.1-4.3c-0.4-2.5,0-4.3,0.7-4.3C1061.6,975.5,1062,977.3,1062,979.8 M1050.6,999.4c15,0.4,15.7,0,16.1-8.2
		c0-3.6,0.4-3.9,0.7-1.4c1.4,7.9,2.1,10,3.9,10s3.9,6.4,3.6,12.2c0,1.8-1.1,0-1.8-3.2l-1.8-6.4l-18.6-0.4l-18.6-0.4l-5,5
		c-3.9,3.6-5,6.1-5,9.3c0,2.5-0.4,4.7-1.1,4.7s-0.7-2.9-0.7-6.4c0.4-5,1.1-6.4,3.2-6.4c2.1,0,2.9-1.4,3.6-7.2
		c0.7-5.4,1.8-7.2,3.6-7.9c2.1-0.7,2.9-2.1,2.9-6.8c0.4-4.7,0.4-3.6,1.1,3.9l0.7,10L1050.6,999.4 M848,991.6
		c5.7,5.4,6.8,22.5,1.8,22.5c-1.1,0-2.9,1.4-3.9,2.9c-2.1,3.2-18.6,5.7-20.4,3.2c-0.4-0.7,2.9-1.4,7.5-1.4c7.2,0,8.9-0.4,10.7-3.2
		c1.1-1.8,3.2-3.2,4.3-3.2c1.4,0,2.1-2.1,2.1-8.6c0-7.5-0.4-8.6-2.9-8.6c-1.4,0-3.2-1.1-3.6-2.9c-0.4-1.4-2.1-3.2-3.2-3.6
		c-1.8-0.4-1.4-0.7,0.7-0.7C843,988.3,845.9,989.8,848,991.6 M1201.6,1011.2c-0.7,2.5-1.4,4.3-1.8,3.9c-0.4-0.4-0.4-2.9,0.4-5.4
		c0.7-2.5,1.4-4.3,1.8-3.9C1202.3,1006.6,1202.3,1008.7,1201.6,1011.2 M1254.5,1018.4c0.4,0.7,0,1.4-1.1,1.4c-1.4,0-2.1-2.1-2.5-6.4
		c-0.7-8.2,0.7-9.7,1.8-2.1C1253.1,1014.5,1254.2,1017.7,1254.5,1018.4 M712.7,1017c0,2.9,0,3.2-1.4,1.4c-0.7-1.1-1.4-4.3-1.4-7.2
		C710.2,1005.5,712.4,1010.2,712.7,1017 M989.7,1012.7c1.1,0,2.1,1.4,2.1,3.6v3.6l-3.6-3.6c-1.8-1.8-3.9-5-4.3-6.8l-0.7-3.2l2.5,3.2
		C986.9,1011.2,988.6,1012.7,989.7,1012.7 M818.3,1013.8c-1.4,0.4-3.6,0.4-5,0c-1.4-0.4-0.4-0.7,2.5-0.7S819.7,1013.4,818.3,1013.8
		 M766.4,1019.8c-3.9,1.8-10.4,1.8-11.5,0c-0.7-0.7,2.1-1.4,6.8-1.4C767.1,1018.4,768.6,1018.8,766.4,1019.8"/>
	<path id="path4" class="st3" d="M787.2,54.7c-2.9,0.4-6.4,1.8-7.9,3.2c-1.4,1.4-4.7,2.9-6.4,3.6C768.2,62.6,750,79.4,750,83
		c0,1.4-0.7,2.5-1.4,2.5c-1.8,0-9.7,16.5-11.5,24.3c-0.7,3.6-2.5,10-3.6,14.3c-3.9,13.6-2.9,48.3,1.4,60.8
		c1.8,5.4,3.6,11.5,3.6,13.2c0,1.8,1.4,5,2.9,7.2s2.9,5,2.9,6.4c0,1.4,1.1,3.9,2.9,5.4c1.4,1.4,3.2,3.9,3.6,5.7
		c1.4,3.9,22.9,25.4,26.8,26.8c1.8,0.7,4.3,2.1,5,3.6c1.1,1.4,2.9,2.5,4.3,2.5c1.4,0,4.3,1.1,6.1,2.9c1.8,1.4,5.7,3.2,8.9,3.6
		c2.9,0.7,5.4,1.4,5.4,2.1c0,1.4,9.7,4.3,15.4,4.3c2.5,0,6.4,1.1,8.6,2.1c12.9,6.8,95.9,7.2,104.1,0.7c1.1-0.7,5.7-2.1,10.7-2.9
		c5-0.7,11.1-2.9,14-4.3c2.9-1.4,6.8-2.9,8.9-2.9s5-1.4,6.8-2.9c1.8-1.4,4.7-2.9,6.4-2.9s5-1.1,6.8-2.5c1.8-1.4,5.7-3.6,8.6-4.3
		c2.9-1.1,5.4-2.1,5.7-2.9c0.4-0.7,2.9-2.1,6.1-3.9c15-7.5,17.9-9.3,18.6-10.7c0.4-0.7,1.8-1.4,3.2-1.4c1.8,0,6.8-3.2,13.6-8.9
		c1.1-1.1,4.3-2.9,6.8-3.9c2.5-1.1,5-2.9,5.4-3.9c0.4-1.1,1.8-2.1,2.9-2.1s3.6-1.8,5.4-3.6c1.8-2.1,3.9-3.6,4.7-3.6s2.5-1.1,3.6-2.1
		c6.1-5.7,12.9-10.7,14.3-10.7c0.7,0,2.5-1.1,3.2-2.5c1.1-1.4,3.6-3.2,5.4-4.3c8.9-4.7,12.5-6.8,15-9.3c1.4-1.4,3.2-2.5,4.3-2.5
		c1.1,0,2.9-1.4,4.3-2.9c1.4-1.4,3.2-2.9,4.3-2.9s3.2-1.1,5-2.5c1.8-1.4,5.4-3.2,8.2-4.3c2.5-0.7,5.7-2.5,6.8-3.9
		c1.1-1.1,3.6-2.1,5-2.1c1.4,0,5.7-1.8,9.7-3.6c3.6-2.1,8.2-3.6,10.4-3.6c2.1,0,5.7-1.4,8.2-2.9c2.5-1.4,5.4-2.9,6.4-2.9
		c8.9,0,6.1-8.2-3.9-10.7c-2.1-0.4-5-1.8-6.1-2.9c-1.1-1.1-4.3-2.5-7.5-2.9c-2.9-0.7-6.4-1.8-7.9-3.2c-1.4-1.1-5.7-2.5-10-3.2
		c-4.3-0.7-10-2.1-12.5-3.6c-7.9-3.9-60.5-4.3-66.6,0c-2.1,1.4-7.5,3.2-11.8,3.9c-4.3,0.7-8.6,2.1-10,3.2c-1.4,1.1-3.9,2.5-6.1,3.2
		c-4.3,1.1-18.3,7.9-26.5,12.9c-3.2,1.8-8.2,4.7-11.1,6.4c-2.9,1.8-5.4,3.6-5.4,4.3c0,0.7-0.7,1.4-1.8,1.4c-1.1,0-5,2.5-9.3,5.4
		s-9.3,6.1-10.7,7.2c-1.8,1.1-3.6,2.5-4.7,3.6c-0.7,1.1-3.6,3.2-6.1,4.7c-2.5,1.4-4.7,3.2-4.7,3.6s-1.4,1.4-3.6,1.8
		s-3.6,1.8-3.6,2.9c0,1.1-1.4,2.5-3.2,2.9c-2.9,1.1-8.2,4.7-14.3,10c-1.4,1.1-3.2,2.1-3.6,2.1c-0.7,0-2.9,1.4-4.7,3.2
		c-2.1,1.8-5.7,4.7-8.2,6.1c-2.5,1.4-6.1,3.6-7.5,4.7c-1.4,1.1-3.2,2.1-3.6,2.9c-0.4,0.7-2.9,2.1-5.4,3.2s-5,2.9-5.4,3.9
		c-0.4,1.1-1.8,2.1-3.2,2.1c-1.1,0-4.7,1.4-7.5,3.6c-2.9,1.8-6.4,3.6-7.5,3.6c-1.4,0-3.2,1.1-4.7,2.5c-1.4,1.4-5.4,3.2-8.9,3.6
		c-3.6,0.4-8.2,1.8-10.7,3.2c-6.1,3.2-21.1,2.9-27.9-0.7c-3.2-1.4-6.4-2.9-7.5-2.9c-2.1,0-10.4-8.2-10.4-10.4c0-0.7-1.1-2.1-2.5-3.2
		c-3.6-2.9-3.9-50.5,0-54.4c1.4-1.4,2.9-4.7,3.2-6.8c1.4-5.4,11.1-16.1,16.1-17.2c2.1-0.4,5-2.1,6.4-3.2c3.6-3.2,79.4-3.6,85.2-0.7
		c4.3,2.5,5.7-0.7,2.9-6.4c-1.4-3.2-3.2-4.3-8.2-5c-3.6-0.7-6.8-2.1-7.5-3.2c-0.7-1.1-3.2-2.9-6.1-3.6c-2.5-0.7-5.4-2.5-5.7-3.6
		c-0.4-1.1-1.8-2.1-2.5-2.1c-1.8,0-22.5-19.3-22.5-21.1c0-3.2-29-30.4-32.6-30.4c-1.1,0-3.6-1.4-5.4-2.9
		C827.6,54.7,800.4,52.9,787.2,54.7 M813.3,56.5c9.3,1.1,24,7.2,27.9,11.1c1.1,1.1,2.5,2.1,3.2,2.1c1.8,0,13.6,12.5,23.3,24.7
		c9.3,11.5,20.8,21.8,29.3,25.8c3.2,1.8,6.1,3.6,6.1,4.3c0,0.7,2.5,1.4,5.7,2.1c3.2,0.4,6.4,1.8,7.2,2.9c2.9,3.2-5,3.9-23.6,2.1
		c-28.6-2.9-56.9-0.4-65.5,5.7c-2.1,1.4-4.7,2.9-5.4,2.9c-6.1,0-16.8,19-19,33.6c-3.2,19.7-3.2,21.8-0.7,34.7
		c2.5,13.2,10,25.8,15.7,25.8c1.1,0,3.6,1.4,5.7,3.2c5.7,4.7,31.5,4.7,40.1,0c3.2-1.8,6.8-3.2,8.2-3.2c1.4,0,5-1.8,7.9-3.6
		c2.9-2.1,6.4-3.6,7.9-3.6c1.4,0,2.5-0.4,2.5-1.1c0-0.7,2.9-2.5,6.1-4.3c7.2-3.6,8.6-4.7,22.5-14.3c6.1-4.3,12.5-8.6,15-10
		c4.7-2.9,19-13.6,22.5-16.5c1.1-1.1,3.9-2.9,5.7-3.9c2.1-1.1,6.4-4.3,10-6.8c7.9-6.4,15.7-11.8,17.2-11.8c0.7,0,2.5-1.4,3.9-2.9
		c1.4-1.8,3.9-3.6,5.7-4.3c1.4-0.7,5.7-3.2,9.3-5.4c3.6-2.5,8.2-5,10-6.1c2.1-1.1,5-2.9,7.2-4.3c1.8-1.4,4.7-2.5,5.7-2.5
		c1.1,0,3.9-1.4,6.1-2.9c2.1-1.4,4.7-2.9,5.7-2.9s5-1.4,8.9-3.6c3.9-1.8,8.9-3.6,11.1-3.6c2.1,0,6.8-1.1,10-2.5
		c8.9-3.6,55.5-3.6,61.9,0c2.5,1.4,6.4,2.5,9.3,2.5c2.5,0,7.5,1.4,10.7,2.9c3.2,1.4,8.6,3.6,11.8,4.3c3.2,0.7,6.8,2.5,7.5,3.6
		c1.1,1.1,2.9,2.1,4.7,2.1c5,0,8.6,2.9,6.8,5c-1.1,1.1-2.5,2.1-3.6,2.1s-4.7,1.1-8.2,2.9c-3.6,1.8-8.2,3.2-11.5,3.6
		c-2.9,0.7-6.1,1.8-6.8,2.9s-3.6,2.5-6.1,2.9c-2.5,0.7-6.4,2.1-8.2,3.6c-2.1,1.4-4.7,2.9-5.7,2.9s-3.9,1.8-6.1,3.6
		c-2.1,1.8-5,3.6-6.4,3.6c-1.1,0-5,2.1-8.6,5s-7.9,5.7-9.7,6.4c-4.3,1.8-13.6,8.6-15,11.1c-0.7,1.1-2.1,1.8-2.9,1.8
		s-6.1,3.2-11.1,7.2c-5,3.9-9.7,7.5-10.7,8.2c-1.8,1.4-13.2,8.9-16.8,11.1c-1.4,0.7-5.7,3.9-10,6.8c-7.5,5-17.5,11.1-31.1,17.9
		c-3.6,1.8-7.5,3.9-8.6,4.7c-5,3.2-17.2,8.6-18.6,8.6c-1.1,0-4.3,1.1-7.5,2.9c-6.8,3.2-20.8,7.5-33.6,10.7c-5,1.4-11.8,2.9-15,3.9
		c-11.1,2.9-65.5,1.8-79.4-1.4c-6.8-1.4-15-3.2-18.6-3.9c-3.6-0.7-8.2-1.8-10.4-2.9c-2.1-1.1-5-2.1-6.1-2.1
		c-14.7,0-50.1-28.6-59.8-48.7c-1.8-3.6-4.3-8.9-5.7-11.8c-1.4-2.9-2.9-8.6-3.6-12.9s-1.8-9.3-3.2-11.1c-3.2-4.7-2.9-40.4,0-49
		c1.4-3.6,2.5-8.2,2.5-10.7s1.1-6.4,2.1-9.3c1.1-2.9,2.9-7.5,4.3-11.1c3.2-8.2,10-17.9,16.8-24c3.2-2.9,7.5-6.4,8.9-8.2
		c1.4-1.4,3.9-2.9,5-2.9s3.9-1.1,6.4-2.1c3.6-1.8,12.2-3.9,20-4.7C802.9,55.1,807.9,55.8,813.3,56.5 M1204.8,163.8
		c-3.9,0.7-7.9,1.8-8.9,2.9c-1.1,0.7-5.4,1.8-9.7,2.5c-4.3,0.4-9.3,1.8-11.1,3.2c-1.8,1.4-6.1,2.9-9.3,3.6c-3.2,0.4-6.4,1.8-7.2,3.2
		c-0.7,1.1-3.9,2.5-6.4,3.2c-2.5,0.4-6.1,2.1-7.9,3.6c-1.8,1.4-4.7,2.9-6.8,3.6c-2.1,0.7-4.3,1.8-5,2.5c-0.7,1.1-3.2,2.9-6.1,4.3
		c-5.7,2.9-8.9,4.7-22.9,14.3c-5.7,3.9-10,7.5-10,8.2c0,0.7-1.1,1.4-2.1,1.4s-3.6,1.4-5.7,3.2c-2.1,1.8-5.7,5-8.6,6.8
		c-2.9,2.1-6.4,5-8.6,6.4c-1.8,1.4-7.2,5-11.5,7.9c-4.3,2.5-7.9,5.4-7.9,6.1c0,0.7-1.1,1.1-2.9,1.1c-1.8,0-4.7,1.8-7.2,3.6
		c-2.5,2.1-5.4,3.6-7.2,3.6c-1.4,0-4.3,1.1-6.4,2.9c-1.8,1.4-5.4,3.2-7.9,3.9c-2.1,0.7-5,1.8-6.4,2.9c-1.1,1.1-5,2.5-8.9,3.6
		c-3.6,1.1-7.5,2.5-8.2,3.6c-1.1,1.1-3.2,2.1-5.4,2.1c-2.1,0-6.4,1.1-9.3,2.9c-2.9,1.4-8.9,3.2-13.6,3.9c-4.3,0.7-10.4,2.1-13.2,3.6
		c-2.9,1.4-10.4,2.9-17.5,3.6c-6.8,0.4-15,1.8-17.9,2.9c-3.2,1.1-14,2.5-25.4,3.2c-19.3,1.1-20,1.1-20.4,4.3
		c-0.4,2.1,0.4,3.6,2.9,4.7c1.8,0.7,4.3,2.5,5.7,4.3c1.4,1.8,3.9,2.9,5.7,2.9c1.8,0,3.9,1.1,5,2.9c1.1,1.4,3.6,3.2,6.1,3.6
		c2.5,0.7,5.7,2.1,7.2,3.6c1.4,1.4,4.3,2.9,6.1,2.9c1.8,0,4.3,1.1,5,2.1c1.1,1.1,5,2.9,8.9,3.9s8.6,2.5,9.7,3.6
		c1.1,1.1,5.7,2.1,10,2.9c4.3,0.7,9.7,2.1,12.2,3.2c6.8,3.6,69.8,4.3,82.7,0.7c5-1.4,12.9-3.2,17.5-4.3c11.5-2.5,26.8-7.9,28.6-10
		c0.7-1.1,3.9-2.1,6.8-2.5c2.9-0.4,6.1-1.8,7.5-2.9c1.1-1.1,3.9-2.5,6.1-2.9c2.1-0.4,5.4-1.8,6.4-3.2c2.9-2.5,9.3-6.1,16.8-9.7
		c2.9-1.4,5.4-3.2,6.1-4.3c0.7-1.1,1.8-2.1,2.5-2.1s3.2-1.4,5.4-2.9c2.1-1.8,6.4-5,9.7-7.2c21.1-15.7,30.1-22.5,32.9-25.4
		c1.8-1.8,3.6-2.9,4.7-2.9c1.1,0,2.1-1.4,3.2-2.9c0.7-1.4,2.5-2.9,3.2-2.9c1.1,0,3.2-1.4,5.4-3.2c1.8-1.8,4.7-3.9,5.7-4.7
		c7.2-4.3,22.5-15.4,23.6-16.5c0.4-0.7,2.1-1.4,3.6-1.4c1.4,0,3.6-1.1,5-2.9c1.4-1.4,4.3-3.2,6.1-3.6c2.1-0.4,5.4-2.1,7.2-3.6
		c1.8-1.4,4.7-2.9,5.7-2.9c1.1,0,4.3-1.1,6.4-2.9c2.5-1.4,6.8-3.2,9.7-3.6c2.9-0.4,6.1-1.8,6.8-2.9c1.1-1.1,4.7-2.5,8.2-2.9
		c3.6-0.4,9.7-2.1,13.2-3.6c3.6-1.4,10-2.9,14-3.2c10.7-0.7,13.6-3.9,7.2-7.9c-2.5-1.4-5.7-3.6-6.8-4.7c-1.1-1.1-4.7-2.1-7.9-2.9
		c-3.2-0.7-7.2-2.1-8.2-3.6c-1.4-1.1-5-2.5-7.9-2.9c-3.2-0.4-7.5-1.8-10-3.2c-2.5-1.4-7.9-2.9-12.2-3.2c-4.3-0.4-10.7-1.8-14.3-3.2
		C1250.6,163.1,1215.9,161.7,1204.8,163.8 M1247.4,166.7c2.1,0.7,9.3,2.1,15.4,2.9c6.4,0.7,14.3,2.9,17.5,4.3
		c3.2,1.4,7.5,2.9,9.3,2.9c1.8,0,5.4,1.4,7.9,2.9c2.5,1.4,6.8,3.2,9.7,3.6c2.9,0.4,5.4,1.4,6.1,2.1c0.4,0.7,3.6,2.5,6.8,4.3l6.1,3.2
		l-4.3,1.8c-2.5,1.1-7.2,1.8-10.7,1.8c-3.6,0-8.9,1.4-12.2,2.9c-3.2,1.4-8.2,3.2-11.5,3.6c-3.2,0.7-7.2,1.8-8.6,2.9
		c-1.4,1.1-5.4,2.5-8.9,3.6c-3.2,1.1-6.8,2.5-7.5,3.9c-1.1,1.1-3.2,2.1-5,2.1s-4.7,1.1-6.8,2.5c-1.8,1.4-6.8,4.3-11.5,6.4
		c-4.3,2.1-11.5,6.4-15.4,9.3c-7.5,5.4-10,6.8-18.3,12.2c-2.1,1.4-7.5,5.4-11.5,8.6c-7.5,6.1-22.2,17.5-40.1,30.4
		c-5.7,3.9-11.1,8.2-12.2,9.3c-3.6,3.2-11.5,8.2-16.1,10.4c-7.5,3.6-14,7.5-16.5,9.7c-1.4,1.1-3.9,2.5-6.1,3.2
		c-3.6,1.1-9.3,3.6-22.2,9.3c-9.7,4.3-28.3,10-32.9,10c-2.5,0-7.5,1.1-11.5,2.1c-12.5,3.9-54.4,4.3-69.8,0.7
		c-6.8-1.8-14.3-2.9-16.5-2.9s-7.2-1.8-11.5-3.6c-4.3-1.8-8.9-3.6-10.4-3.6s-5-1.4-8.2-2.9c-2.9-1.4-10-5-16.1-7.9
		c-10-4.7-13.2-6.4-25.4-14.3c-8.2-5.4-6.1-5.7,24.7-7.2c15-0.7,21.8-1.4,27.6-3.6c4.3-1.4,10.4-2.9,14-2.9s8.9-1.1,11.8-2.5
		c2.9-1.4,9.7-3.2,14.7-4.3c9.7-1.8,31.1-9.7,43.7-15.7c30.1-14.3,34-16.5,37.2-19.7c1.4-1.4,3.2-2.5,4.3-2.5c1.4,0,6.4-3.2,21.5-15
		c1.4-1.1,5.4-4.3,8.6-6.4c3.2-2.5,6.8-5,7.9-6.1c1.1-1.1,5.7-3.9,10-6.8c4.3-2.9,8.2-5.4,8.2-6.1c0.4-0.7,5.4-3.6,11.1-6.8
		c5.7-3.2,11.1-6.4,11.5-7.2c0.4-0.7,2.5-1.8,5-2.1c2.5-0.4,5.4-2.1,6.8-3.6c1.4-1.4,3.9-2.9,5.4-2.9c1.8,0,5.7-1.8,8.6-3.6
		c2.9-1.8,7.2-3.6,8.6-3.6s5.4-1.4,8.6-2.9c3.2-1.4,7.5-2.9,9.3-2.9c1.8,0,7.9-1.4,12.9-2.9C1211.6,165.3,1240.9,164.2,1247.4,166.7
		 M740.3,265.1c-2.5,1.1-2.5,16.1,0.4,19.7c1.1,1.4,2.9,6.4,3.6,11.1c1.1,4.7,2.5,8.6,3.6,8.9c1.1,0.4,2.1,2.1,2.1,3.9
		c0,3.2,2.1,8.2,5.4,11.1c1.1,1.1,1.8,3.2,1.8,4.7c0,1.4,1.4,3.6,2.9,4.7s2.9,2.5,2.9,3.6c0,1.1,1.4,3.6,3.6,6.1
		c2.1,2.5,3.6,4.7,3.6,5.4s3.2,4.7,7.2,8.9s7.2,8.2,7.2,8.9c0,0.7,1.1,1.1,2.1,1.1s2.5,1.4,2.9,2.9c0.4,1.4,2.1,3.2,3.6,3.6
		s3.2,2.1,3.6,3.6c0.4,1.4,1.8,2.9,2.9,2.9c1.1,0,2.5,1.1,3.2,2.1c0.7,1.1,2.9,3.2,5,4.7c8.2,5.4,20.8,13.6,24.3,16.1
		c2.1,1.4,4.7,2.5,5.4,2.5s3.9,1.4,6.8,3.6c2.9,1.8,6.4,3.6,7.9,3.6c1.4,0,3.2,1.1,4.3,2.1c1.1,1.1,3.9,2.5,6.8,2.9
		c2.9,0.4,7.2,2.1,9.7,3.6c2.5,1.4,7.9,2.9,12.2,3.6c4.3,0.7,9.3,2.1,11.5,3.2c1.8,1.1,8.9,2.9,15.7,3.6s19.3,1.8,27.9,2.9
		c11.5,1.1,19,1.1,28.6,0c7.2-0.7,19.3-2.1,26.5-2.9c7.5-0.7,15-2.1,16.5-3.6c1.8-1.1,6.4-2.5,10-2.9c3.9-0.7,9.3-2.1,12.2-3.6
		c2.9-1.4,6.8-2.9,9.3-3.6c2.5-0.7,5.4-1.8,6.4-2.9c1.1-1.1,4.7-2.5,8.2-3.6c3.2-1.1,6.4-2.5,6.8-3.9c0.4-1.1,2.1-2.1,3.6-2.1
		s4.7-1.8,7.5-3.6c2.5-2.1,5.7-3.6,6.8-3.6s2.1-0.7,2.9-1.8s4.3-3.9,8.2-6.8c9.3-6.4,24.3-20.4,39-36.5c10-11.1,5-19.7-6.4-10.7
		c-2.1,1.4-4.7,2.9-6.1,2.9s-3.6,1.1-5,2.9c-1.4,1.4-4.7,3.2-7.2,3.6s-5.4,1.8-6.4,2.9c-1.1,1.1-5,2.9-8.9,3.6
		c-3.9,0.7-8.6,2.5-10.4,3.6c-1.8,1.1-6.1,2.5-9.7,2.9c-3.6,0.7-8.2,1.8-10.7,2.9c-4.3,1.8-22.9,4.3-45.1,5.7
		c-6.8,0.4-19.7,0-28.6-0.7c-8.9-1.1-21.1-2.1-26.5-2.5c-5.4-0.4-10.4-1.4-10.7-2.1c-0.4-0.7-5.7-2.1-12.2-3.2
		c-6.4-1.1-11.8-2.9-12.2-3.6s-4.3-2.1-8.6-2.9c-4.3-1.1-8.9-2.5-10-3.6c-1.1-1.1-3.9-2.5-6.4-2.9c-2.5-0.7-5.7-2.1-7.5-3.6
		c-1.8-1.4-5.4-2.9-8.2-3.2c-2.9-0.4-5.4-1.8-5.7-2.9c-0.4-1.1-3.2-2.5-6.1-2.9s-5.4-1.8-6.1-2.9c-0.4-1.1-3.2-2.9-6.1-4.3
		c-9.7-4.3-15.4-7.5-17.2-10c-1.1-1.1-2.5-2.1-3.6-2.1c-1.1,0-3.6-1.4-6.1-3.6c-2.1-1.8-5.4-3.6-6.8-3.6c-1.4,0-2.5-0.7-2.5-1.4
		c0-1.1-6.1-5.4-14.3-10c-2.1-1.1-5-3.2-6.4-4.7s-3.2-2.5-4.3-2.5s-2.9-1.1-4.3-2.9c-1.4-1.4-4.3-3.2-6.1-3.6
		c-2.1-0.4-5.4-2.1-7.2-3.6c-1.8-1.4-4.7-2.9-6.1-2.9c-1.4,0-3.9-1.4-5.7-2.9c-1.8-1.4-4.7-2.9-6.4-2.9c-1.8,0-5.4-1.1-8.2-2.9
		C751,265.5,743.2,264,740.3,265.1 M755,270.5c3.9,1.4,14.3,6.1,23.6,10.4c21.8,10.7,24.7,12.2,25.8,14c0.4,0.7,2.9,2.5,5.4,3.9
		c2.5,1.4,6.1,3.6,7.9,5c2.1,1.4,5.7,3.6,7.9,5c2.1,1.4,5.7,3.9,7.9,5.4c2.1,1.4,4.3,2.5,5.4,2.5c0.7,0,2.1,1.1,3.2,2.1
		c1.1,1.1,3.9,3.2,6.1,4.3c2.5,1.1,7.2,3.6,10,5.7c5,2.9,22.2,11.8,44.4,22.2c3.2,1.4,7.9,3.2,10.7,3.6c2.9,0.4,6.4,1.8,8.2,2.9
		c1.8,1.1,6.8,2.9,11.5,3.9c4.7,1.1,11.8,2.9,16.1,4.3c4.3,1.1,10,2.1,12.9,2.1c2.9,0,8.2,1.1,12.2,2.1c8.2,2.5,50.8,2.9,60.1,0.7
		c3.2-0.7,10.4-2.1,16.5-2.9c11.5-1.4,22.2-4.7,43.7-12.5c3.2-1.1,12.9-5.7,21.8-10c17.9-8.9,19.3-8.9,14.3,0
		c-5.7,9.7-39,41.2-43.7,41.2c-0.7,0-2.1,1.1-3.2,2.1c-1.8,2.1-6.1,4.7-18.3,10.7c-3.2,1.8-6.4,3.6-6.8,4.3c-0.4,0.7-2.5,1.8-5,2.1
		c-2.1,0.4-6.4,2.1-9.7,3.6c-3.2,1.4-6.4,2.9-7.5,2.9c-1.1,0-4.3,1.1-7.2,2.9c-2.9,1.4-8.6,3.6-13.2,4.3s-11.5,2.5-15.4,3.6
		c-17.5,5-89.8,4.3-100.2-1.1c-2.1-1.1-7.5-2.5-11.8-3.2c-4.3-0.4-9.7-2.1-12.2-3.6c-2.5-1.4-5.7-2.9-7.2-2.9s-6.1-1.8-10-3.6
		s-8.2-3.6-9.7-3.6c-1.4,0-2.9-0.7-3.2-1.4c-0.4-0.7-3.9-2.9-7.2-4.3c-3.2-1.4-6.4-3.2-6.4-4.3c0-0.7-0.7-1.4-1.8-1.4
		c-6.4,0-41.2-29.3-51.9-43.7c-2.5-3.2-4.7-6.1-5-6.4c-2.1-1.8-14.3-20.4-16.5-24.7c-1.1-2.5-2.9-5.7-3.2-6.8
		c-3.9-6.8-8.9-18.3-8.9-20.8c0-1.4-1.4-6.8-2.9-11.8C737.8,266.2,739.2,265.1,755,270.5 M957.2,522.8c-2.9,3.2,1.8,8.9,8.9,11.1
		c13.2,3.9,15.7,12.9,16.8,58l0.7,34l-3.9,1.1c-2.1,0.4-8.6,0.4-14-0.7c-24.7-3.9-32.6-4.7-49-3.9c-9.3,0.4-19,1.4-21.5,2.1
		c-2.5,0.7-9.3,2.1-15.4,2.9s-12.2,2.1-13.6,3.6c-1.4,1.1-4.3,2.5-6.4,3.2c-3.6,0.7-17.9,11.1-19,14c-0.4,0.4-2.1,2.5-3.9,4.7
		s-3.6,4.7-3.6,5.7c0,1.1-1.1,2.5-2.1,3.6c-1.1,1.1-2.9,5-3.9,8.9c-1.1,3.9-2.9,9.7-3.9,12.5c-1.8,4.3-2.1,13.6-2.1,64.4v59.4
		l4.3,12.2c2.1,6.8,5,12.9,6.1,13.6c1.1,0.7,1.8,2.1,1.8,3.2c0,4.7,22.2,23.3,27.6,23.3c1.4,0,5,1.4,8.2,3.2
		c11.5,6.1,80.2,5.4,89.1-1.1c1.8-1.1,4.3-2.1,6.1-2.1c1.4,0,4.7-1.1,6.4-2.1c2.1-1.1,5.7-3.2,8.2-4.3c2.5-1.1,4.7-2.9,4.7-3.9
		c0-1.1,2.5,0.7,5.4,3.9c2.9,3.2,6.4,6.4,7.5,6.8c1.1,0.7,3.9,1.8,5.7,3.2c5.4,3.2,60.5,3.2,63,0c2.5-2.9-0.4-6.4-5-6.4
		c-4.7,0-12.2-6.1-16.5-13.2l-3.6-6.1l-0.7-143.1c-0.7-129.5-1.1-143.5-3.2-148.9c-1.4-3.2-2.5-6.4-2.5-7.5
		c0-2.9-9.3-11.8-11.8-11.8c-1.4,0-4.7-1.1-7.9-2.1C1006.2,521,959.3,520.3,957.2,522.8 M261.5,522.8c-4.3,1.1,0.7,8.2,7.9,11.1
		c6.8,2.9,8.6,4.3,13.2,14.7l3.6,7.2v152.1c0,102,0.4,152.8,1.4,155c2.9,5.7,21.8,0.7,31.5-8.2c4.3-3.9,9.7-3.2,16.5,2.1
		c2.1,1.8,5,2.9,6.8,2.9c1.8,0,4.7,1.1,6.1,2.1c8.9,6.1,89.1,6.8,102.7,1.1c3.9-1.8,7.9-3.2,9.3-3.2c12.9,0,38.6-30.1,38.6-44.7
		c0-2.1,1.4-7.2,2.9-11.1c4.3-10.7,4.3-109.1,0.4-119.9c-1.4-3.9-3.2-9.7-3.6-13.2s-2.1-7.9-3.9-10c-1.4-1.8-2.9-4.3-2.9-5
		c0-1.8-1.4-3.6-9.7-11.5c-7.5-7.5-10-9.7-11.1-9.7c-0.7,0-4.3-1.4-8.6-3.6c-3.9-1.8-11.8-4.3-17.2-5c-5.4-1.1-13.6-2.5-17.9-3.2
		c-8.9-1.8-34.7-0.7-40.4,1.4c-2.1,0.7-8.6,1.8-14.3,2.5c-6.1,0.4-12.2,2.1-15,3.6c-2.5,1.4-7.5,3.2-11.1,3.6l-6.4,0.7v-45.1
		c0-36.5-0.4-45.4-2.1-48.7c-1.1-2.1-2.5-5-3.6-6.4C329.8,524.6,284.7,516.7,261.5,522.8 M1065.6,523.1c-2.1,3.2,2.1,8.6,8.2,10.4
		c19.3,5.7,18.6,0.7,19.7,170.3l0.7,142.4l4.3,6.1c8.2,11.8,11.8,12.9,44.7,12.9c30.8,0,36.5-1.1,31.5-6.1c-1.4-1.4-3.9-2.5-5.7-2.5
		c-3.9,0-13.2-6.8-14.7-10.7c-0.4-1.4-2.1-3.9-3.2-5.4c-2.1-2.5-2.5-16.1-3.2-148.2c-0.7-135.6-0.7-145.6-3.2-148.9
		c-1.4-1.8-2.5-4.3-2.5-5.7c0-3.6-8.9-11.1-15.7-13.2C1118.5,522.1,1067,521,1065.6,523.1 M1407.7,523.8c-3.9,1.1-8.9,2.1-10.7,2.1
		c-3.9,0-17.2,6.1-21.8,10c-10.4,8.2-23.3,22.9-26.1,29c-1.1,2.5-3.2,6.1-4.3,8.2c-1.1,1.8-2.1,4.7-2.1,6.1s-1.1,4.3-2.9,6.4
		s-3.2,7.5-3.6,12.2c-0.4,4.7-1.8,10-2.5,12.2c-0.7,2.1-1.8,6.4-2.5,10c-1.1,6.4-1.1,6.4-7.5,7.2c-3.6,0.4-7.9,1.8-9.3,3.2
		s-3.2,2.5-4.3,2.5c-1.4,0-8.2,6.4-15.4,14.3c-2.9,2.9-6.8,14.3-5.7,16.5c0.4,1.4,6.1,1.8,20.4,2.1l19.7,0.4l0.7,85.9l0.7,85.9
		l3.9,8.6c3.2,6.8,5,9.3,10.7,12.9l6.8,4.3l29.3,0.4c17.5,0.4,30.1-0.4,31.5-1.1c3.2-2.1,0-6.1-5.4-7.2c-5.7-1.1-16.1-9.7-17.2-14
		c-0.4-2.1-1.8-6.4-2.9-10c-1.8-5-2.1-21.1-2.1-84.8v-78.4l3.6-1.4c2.1-0.7,7.5-1.4,12.2-1.4s8.9-0.7,9.3-1.4
		c0.4-0.7,3.6-1.8,7.2-2.1c3.6-0.4,7.5-2.1,9.3-3.6c1.4-1.4,3.6-2.9,4.3-2.9c2.1,0,15-15.4,17.2-20.4c3.6-8.6,0.4-9.7-32.6-9.7
		c-33.3,0-30.1,2.1-30.1-21.5c0-31.5,4.3-37.6,27.9-38.6c9.3-0.7,15.7-1.8,18.6-3.2c2.5-1.4,4.7-2.5,5.4-2.5
		c4.3,0,21.1-17.2,23.3-24.3c0.4-1.8,1.4-2.9,2.5-2.9c0.7,0,1.1-2.5,1.1-5.4l-0.4-5.4l-24.3-0.4
		C1422,522.1,1412.7,522.4,1407.7,523.8 M325.5,529.2c2.1,1.4,5.7,5.4,7.9,9.3l4.3,6.8v42.2c0,23.3,0.4,44.4,1.1,46.9
		c1.1,4.7,4.3,7.5,6.1,4.7c0.4-0.7,4.3-2.5,8.6-3.9c4.3-1.4,8.6-2.9,9.7-3.9c7.9-6.4,85.5-6.1,95.5,0.4c1.8,1.1,5.7,2.9,8.6,3.9
		c6.1,2.1,24,19,24,22.9c0,1.4,1.4,4.3,2.9,6.8s3.2,7.2,3.6,10.7s1.8,10,3.2,14.3c2.9,10,3.6,91.6,0.7,100.9
		c-1.1,3.2-2.5,10.4-3.2,16.1c-0.7,5.7-2.9,12.9-4.3,15.7c-1.4,2.9-2.9,5.7-2.9,6.4c0,2.5-14.7,19.7-16.8,19.7
		c-0.7,0-3.2,1.4-6.1,3.2s-7.9,3.9-11.5,5c-3.6,1.1-9.3,2.9-12.9,3.9c-7.9,2.9-84.1,2.9-87.7,0c-1.1-1.1-5.4-2.5-9.7-3.9
		c-4.3-1.4-8.2-2.9-8.6-3.6c-0.4-0.7-3.9-2.5-7.9-4.3l-7.2-3.2l-4.3,4.3c-5.4,5.4-20.4,11.8-25.1,11.5l-3.6-0.4l-0.7-156.4
		c-0.7-146.4-0.7-156.4-3.2-158.9c-1.4-1.4-2.5-3.2-2.5-4.3c0-1.8-6.8-8.2-11.5-10.4c-3.2-1.8-3.6-1.8-0.7-3.9
		C275.4,524.6,320.2,526,325.5,529.2 M1015.8,527.4c19.3,3.6,19,1.8,19,162.8c0,117,0.4,133.1,2.5,142.4c3.6,15.4,9.3,22.9,20,25.8
		c14.3,3.9,5.4,5.7-25.1,5c-27.2-0.7-32.2-2.1-41.9-12.9l-5-5.7l-5.4,3.6c-3.2,2.1-6.4,3.6-7.2,3.6c-1.1,0-2.5,0.7-3.6,1.8
		c-1.1,1.1-3.9,2.5-6.8,2.9c-2.9,0.4-7.2,2.1-9.7,3.2c-6.4,3.6-67.3,4.7-76.6,1.1c-3.6-1.4-8.9-3.2-12.2-3.9
		c-19.7-5.4-32.9-24.3-39.4-55.8c-2.1-10.7-1.1-107.7,1.4-113.4c1.1-2.5,2.5-7.9,3.2-11.8c0.7-4.3,2.5-9.3,4.3-11.8
		c1.4-2.1,2.9-5,2.9-6.1c0-2.1,10.4-13.6,16.5-17.9c18.3-12.9,64.1-17.5,113.4-12.2c16.8,1.8,17.9,1.8,19.7-0.7
		c2.1-3.2,2.5-56.2,0.4-65.8c-3.9-17.2-10-29.3-15-29.3c-3.2,0-5.4-3.6-3.2-5.4C969.7,525.6,1006.2,525.3,1015.8,527.4 M1133.9,531
		c10.7,9.3,10.4,3.6,11.1,164.6l0.7,143.1l4.3,6.4c5.7,8.6,10.4,12.5,16.1,13.6c16.1,3.2,3.6,5.4-25,4.7
		c-28.6-0.7-34.4-2.9-40.8-14.3l-3.9-6.8V702.1c0-139.2,0-140.6-2.9-149.2c-3.9-11.8-7.9-17.5-14-20.4c-10.4-5-2.9-6.8,25.1-6.1
		l24.7,0.7L1133.9,531 M1458.5,527.4c6.1,3.9-15.7,31.5-25.1,31.5c-1.1,0-3.9,0.7-6.1,1.8c-2.1,1.1-9.3,2.1-16.1,2.9
		c-24,1.4-28.3,7.9-28.3,41.2c0,27.2-3.9,24.3,32.9,24.3c30.8,0,31.5,0.4,28.6,7.2c-1.8,4.3-14.3,18.6-16.5,18.6
		c-0.7,0-2.5,1.1-3.9,2.1c-2.9,2.9-20.8,6.4-30.8,6.4c-4.3,0-8.2,0.7-9.3,1.8c-2.1,2.1-2.5,167.8-0.4,169.3c0.7,0.4,2.1,3.6,2.9,6.8
		c2.1,7.5,10,15,18.3,17.2c14.3,3.9,3.2,5.7-26.5,5c-29.3-0.7-36.1-3.9-41.9-18.6l-3.6-9.3l-0.4-84.5c-0.4-57.6-1.1-84.8-2.1-86.2
		c-1.1-1.4-6.4-1.8-18.6-1.8c-18.6,0-21.5-1.4-18.6-8.9c1.8-5,14.7-17.9,18.6-19c2.1-0.7,4.7-1.8,5.7-2.9c1.1-0.7,4.7-2.1,7.9-3.2
		c7.5-1.8,8.9-5,11.8-23.3c1.1-7.5,2.9-15,4.3-16.8c1.1-1.8,2.1-4.3,2.1-6.1c0-2.9,4.7-12.9,10.7-23.3c5.7-9.7,22.9-25.1,30.1-26.8
		c2.1-0.7,5.4-2.1,6.8-3.2C1395.9,526.7,1453.1,523.8,1458.5,527.4 M558.9,531c-13.6,5.7-17.2,11.8-17.2,28.3v14l5.7,5.7
		c18.3,18.6,51.5,10,54.8-13.6C605.4,537.8,583.6,520.3,558.9,531 M1215.2,531c-5,1.8-9.7,4.3-10.4,5.4c-0.7,1.1-2.9,3.9-4.7,6.8
		c-9.7,12.9-1.8,38.6,13.2,42.9c20,5.7,43.3-2.5,43.3-15.7c0-1.4,0.7-4.3,1.8-6.4c2.5-5.4-1.1-20-6.1-25.8
		C1243.8,528.9,1229.1,526,1215.2,531 M592.5,538.9c10.7,11.8,10,30.1-1.4,40.8c-4.3,4.3-4.7,4.3-19.7,4.3h-15l-6.1-7.2
		c-11.8-13.2-8.9-33.6,5.7-41.9C563.2,530.6,587.5,533.2,592.5,538.9 M1249.5,538.5c12.5,12.5,5.4,42.6-11.1,45.4
		c-34.4,6.4-54.8-25.4-29.7-46.9C1216.6,530.6,1242.7,531.7,1249.5,538.5 M1539.4,623.3c-3.2,0.7-9.3,1.8-13.6,2.9
		c-4.3,1.1-10,1.4-12.9,1.4c-2.9,0-7.2,1.1-9.3,2.5c-2.5,1.4-6.1,3.2-8.2,3.6c-4.7,1.1-7.2,2.9-17.2,13.2c-8.6,8.6-14,16.5-14,21.1
		c0,1.8-1.4,5.7-2.9,8.9c-6.4,12.2-7.2,122.4-1.1,134.6c1.1,2.5,2.5,6.4,3.2,8.9c3.2,15.7,29.7,39,44.4,39c2.1,0,6.1,1.1,8.6,2.5
		c3.9,2.1,9.7,2.5,51.9,2.5c42.6,0,47.6-0.4,50.8-2.5c1.8-1.4,4.7-2.5,6.4-2.5c3.2,0,17.9-12.2,19.3-15.7c0.4-1.4,2.1-3.2,3.6-4.3
		c1.4-1.1,2.9-5,3.6-8.6c1.4-10.4,2.1-10-51.2-10c-47.6,0-67.3-1.4-71.2-5.4c-1.1-1.1-3.9-3.2-6.1-5c-7.2-5.4-10.7-15.7-11.5-32.2
		l-0.4-14.3l27.9,0.4c35.4,0.7,70.9-1.4,76.6-4.7c2.1-1.1,6.8-2.5,9.7-3.2c3.2-0.4,6.1-1.8,6.4-2.9c0.4-1.1,1.8-2.1,2.9-2.1
		c3.6,0,16.1-14.3,17.2-19.7c0.4-2.5,1.4-4.7,2.1-4.7c4.7,0,5.7-49,1.1-56.2c-1.4-2.1-3.2-6.1-3.9-9.3c-2.1-8.2-18.6-24.7-27.6-27.9
		c-2.5-0.7-5.7-2.5-7.2-3.6c-1.4-1.1-7.5-2.9-13.6-3.6s-12.2-2.1-14-2.9C1584.8,622.6,1547.3,621.5,1539.4,623.3 M530.9,627.6
		c-6.1,1.8-4.7,6.1,3.2,8.6c3.6,1.1,6.8,2.9,6.8,3.9c0,1.1,1.4,3.6,3.2,5.7l3.2,3.9l0.7,94.5c0.4,67.6,1.1,95.2,2.5,96.6
		c0.7,1.1,2.1,3.9,2.5,6.4c1.4,6.1,3.2,8.2,11.8,13.2l7.2,4.7h28.6c23.6,0,29-0.4,30.4-2.1c2.5-2.9-0.4-6.4-5.4-6.4
		c-4.3,0-11.1-4.7-15.4-11.5c-5.7-8.6-6.4-22.2-6.4-105.9c0-115.6,1.1-113.1-50.1-113.1C543.1,626.6,532.7,626.9,530.9,627.6
		 M638.3,628.7c-4.3,3.6-3.2,5.7,5,7.9c3.6,0.7,6.4,2.5,6.4,3.6c0,1.1,1.1,2.5,2.5,3.2c5,2.9,6.1,18.6,6.1,106.3
		c0,75.5,0.4,84.8,2.5,93c2.5,8.6,7.5,17.2,10.7,17.2c0.7,0,2.9,1.4,5,2.9c3.6,2.9,55.8,4.7,62.6,2.1c4.7-1.8,2.5-6.1-3.6-7.9
		c-3.2-0.7-7.2-2.9-8.9-4.3c-1.8-1.4-3.6-2.9-4.3-2.9s-1.1-0.7-1.1-1.4s-1.4-3.6-3.2-5.7c-5.7-7.5-5.4-140.6,0-147.4
		c14-17.2,16.8-18.6,40.4-19.7c13.6-0.7,19-1.4,20.8-3.2c1.4-1.1,3.9-2.5,5.4-3.2c5.7-1.8,19.3-16.8,19.3-21.1
		c0-1.4,1.4-3.9,2.9-5.4c4.7-4.3,5.4-12.5,1.4-14.7c-7.2-3.6-60.8-1.1-69.4,3.2c-3.9,2.1-7.9,3.9-8.6,3.9s-2.1,1.4-3.2,2.9
		c-1.1,1.4-2.5,2.9-3.6,2.9c-0.7,0-3.2,1.8-5,3.6c-4.7,5-8.6,4.7-9.7-0.7c-0.7-4.3-5.4-9.7-12.2-14
		C691.3,625.5,643,624.8,638.3,628.7 M1184.8,628.3c-4.3,4.3-2.1,6.4,7.9,8.6c2.1,0.4,3.9,1.8,3.9,2.9c0,1.1,1.1,2.5,2.1,2.9
		c5,1.8,5.4,9.7,6.4,102c1.1,108.4,1.1,107,15.4,115.9l6.8,4.3h28.3c30.8,0,36.1-1.1,31.5-5.7c-1.4-1.4-3.9-2.9-6.1-2.9
		c-3.9,0-10-5-15.7-13.6l-3.9-5.7l-0.7-91.6c-1.1-104.1-0.7-101.3-12.2-112.4l-6.4-6.1l-27.6-0.7
		C1190.1,625.8,1186.9,626.2,1184.8,628.3 M1590.2,628.3c9.7,1.1,19,3.2,20.8,3.9c1.4,1.1,4.7,2.1,6.8,2.9
		c10.4,2.5,31.1,22.5,31.1,30.1c0,1.1,1.4,5.4,2.9,10c2.1,6.1,2.9,11.8,2.9,22.9c0,11.1-0.7,17.2-2.9,24c-1.4,5-2.9,9.7-2.9,10.7
		c0,2.1-13.6,16.5-15.4,16.5c-0.7,0-2.5,1.1-3.9,2.5c-1.4,1.4-6.1,3.2-10.4,4.3c-4.7,1.1-12.2,2.9-16.8,3.9
		c-6.8,1.8-17.5,2.1-50.1,2.1c-49,0-45.1-1.4-44,17.9c1.4,23.3,11.1,38.3,25.8,40.4c2.9,0.4,7.9,1.8,10.7,2.9
		c4.3,1.4,15.7,2.1,54,2.1c41.9,0,48.7,0.4,49.4,2.1c3.2,8.6-15,26.8-31.8,32.2c-26.8,8.2-98.8,3.9-120.6-6.8
		c-12.5-6.4-24.7-17.2-24.7-22.2c0-1.1-1.1-2.9-2.9-4.3c-1.4-1.4-3.2-5.4-3.6-10c-0.7-3.9-1.4-8.2-2.1-8.9
		c-3.2-3.9-4.3-21.1-4.3-61.6c0-42.6,0.4-48,5.7-68c5.4-20,21.1-39,35.4-42.6c2.1-0.4,5.4-1.8,7.5-2.9
		C1516.1,627.3,1563,625.1,1590.2,628.3 M584.6,631.2c2.9,1.4,6.8,5,9.7,8.2l4.7,5.7l0.7,92.3c0.7,81.2,1.1,93,2.9,96.6
		c1.4,2.5,2.9,6.1,3.2,7.9c1.4,6.1,11.8,15.7,18.3,16.5c3.2,0.4,5.7,1.4,5.7,2.1c0,5-54,3.6-62.3-1.8c-15-9.7-14.7-8.2-15-107
		c0-103.8-1.8-114.9-16.1-118.1c-4.7-1.1-5.4-2.9-1.4-3.9C542,628,580,629.1,584.6,631.2 M699.5,634.8c4.3,3.6,6.4,6.8,7.5,11.1
		c2.1,8.6,8.2,8.2,15.4-1.4c1.1-1.4,2.5-2.5,3.2-2.5s3.6-1.4,6.1-3.6c2.5-2.1,5.7-3.6,6.8-3.6c1.1,0,3.6-1.1,5.7-2.5
		c3.2-2.1,7.2-2.5,33.6-2.5h30.1l-0.4,3.9c0,2.1-1.4,5-2.5,6.1c-1.1,1.1-2.1,3.2-2.1,4.7c0,13.2-23.6,26.5-49,27.9
		c-14.3,0.7-17.5,1.4-21.5,3.9c-6.8,4.7-12.5,10-12.5,11.8c0,0.7-1.4,2.9-2.9,4.3c-4.7,5-6.1,19-6.8,73.7c-0.7,72.6,2.5,87,21.8,92
		c13.2,3.2,6.1,4.7-21.8,4.7c-30.1,0-32.2-0.7-42.6-10.7l-4.7-4.7l-0.7-93.4c-1.1-110.9-1.8-117-17.5-120.6
		c-4.7-1.1-5.4-2.9-1.4-3.9c1.4-0.4,13.2-0.7,26.1-0.4l23.6,0.4L699.5,634.8 M1247.4,636.2c8.9,8.9,8.9,10.4,9.3,105.9
		c0,94.5,0.4,98.1,12.2,109.5c3.9,3.9,8.2,6.4,11.5,7.2c2.9,0.4,5,1.4,5,2.1c0,2.5-7.5,2.9-31.1,2.5c-25-0.7-29.7-1.8-37.9-9.3
		c-6.1-5.7-6.1-5-6.8-99.1c-1.1-110.2-1.8-117-17.5-121c-4.3-1.1-5-2.9-1.4-3.9c1.4-0.4,13.2-0.7,26.5-0.4l24,0.4L1247.4,636.2
		 M377.1,665.9c-15.4,2.1-34.7,15.7-37.9,27.2c-3.2,11.1-1.1,101.3,2.9,108.4c1.8,3.2,3.2,6.8,3.2,7.5c0,2.1,10,11.5,12.5,11.5
		c1.1,0,4.7,1.4,7.5,2.9c9.7,5,55.5,4.3,66.2-1.1c8.6-4.3,16.8-12.9,16.8-17.2c0-1.4,1.1-4.3,2.5-6.1c2.9-4.3,4.7-83.7,1.8-94.8
		c-5.4-22.5-8.6-27.6-20.4-34.4C424.3,665.6,395.3,663.4,377.1,665.9 M903.8,665.9c-11.8,1.8-21.5,9.3-27.6,21.5l-3.9,7.9v50.1
		c0,49.4,0,50.1,3.2,55.1c1.8,2.9,3.2,6.1,3.2,7.2c0,15,56.2,25.8,76.6,14.7c3.6-1.8,7.5-3.6,8.2-3.6c1.1,0,2.9-1.4,4.7-3.6
		c1.8-1.8,3.6-3.6,4.3-3.9c16.5-6.8,20-115.6,4.7-133.5C967.2,667,935.7,661.6,903.8,665.9 M1535.1,665.9
		c-17.5,3.2-26.1,17.2-26.8,42.6c-0.7,22.5-3.2,21.1,36.5,21.1c51.9,0,60.5-4.3,60.5-32.2c0-12.5-0.4-15.7-2.5-17.5
		c-1.4-1.4-2.9-3.2-3.6-4.3C1593.4,666.6,1559.4,661.6,1535.1,665.9 M430,672.4c11.1,7.2,14.3,11.8,17.2,24.3
		c4.7,20,5.4,31.5,4.7,60.5c-1.8,58-9.3,67.3-55.8,66.2c-51.2-1.1-54-5-54.8-79.1l-0.7-47.2l3.9-7.2c3.9-7.2,10-12.2,21.5-17.2
		C379.6,666.3,420.4,665.9,430,672.4 M961.4,670.9c1.4,1.4,3.2,2.5,4.3,2.5c1.1,0,4.3,2.5,7.5,5.7l6.1,5.7l2.1,16.8
		c3.6,28.6,0.4,93.4-4.7,98.4c-1.1,1.1-2.5,3.6-3.6,5.7c-6.4,14.7-54,24.3-73.7,15c-3.2-1.8-6.8-2.9-7.5-2.9
		c-2.1,0-10.7-8.2-10.7-10.4c0-1.1-1.4-4.3-3.2-7.5c-5.4-9.3-5-97.3,0.4-110.2c3.6-8.2,10.4-16.5,13.6-16.5c1.1,0,2.5-1.1,3.2-2.1
		C899.5,667,956.8,666.6,961.4,670.9 M1589.8,672c10.4,6.1,12.5,10.4,12.9,24.3c0.7,22.9-5.4,27.2-42.2,30.8
		c-8.6,0.7-47.6-1.8-49-3.2c-0.4-0.4-0.7-7.2-0.4-15c0.7-22.9,8.9-36.5,24-40.1C1546.9,666.3,1583.4,668.4,1589.8,672 M822.6,950.8
		c-22.9,7.2-20.4,39.4,3.2,42.6c3.6,0.4,8.6,2.1,10.7,3.6c2.1,1.4,5.4,2.9,6.8,2.9c4.3,0,3.2,6.8-1.1,8.6
		c-7.2,2.5-16.8,1.8-22.9-2.1c-6.4-4.3-9.3-3.6-12.5,3.2c-2.5,5.4,0.4,10.4,5.7,10.4c1.1,0,1.8,0.7,1.8,1.4c0,2.5,11.8,4.7,23.3,3.9
		l11.1-0.4l6.4-6.8c10-10.7,6.4-34-5-34c-1.1,0-4.7-1.4-7.5-2.9c-2.9-1.4-8.2-3.2-11.8-3.9c-6.1-0.7-6.4-1.1-6.4-5.4
		c0-7.2,5.4-8.9,17.9-5.4c9.3,2.9,9.7,2.9,12.2,0C865.2,956.1,841.9,944.7,822.6,950.8 M678.7,951.1c-1.8,0.7-3.6,3.2-4.3,5.4
		s-2.1,5.4-3.6,7.5c-1.4,2.1-2.5,4.3-2.5,5.7c0,1.4-1.1,4.7-2.5,7.2c-1.4,2.9-3.6,7.5-4.3,10.4c-1.1,2.9-2.1,5.4-2.9,5.4
		c-0.7,0-1.8,2.1-2.1,4.7c-0.7,2.5-2.5,7.5-4.3,11.1c-6.4,11.8-3.2,19,6.8,16.5c3.6-1.1,5-2.5,6.1-5.7c3.2-9.7,6.8-11.8,20.8-11.8
		h12.5l2.5,5c1.4,2.9,2.9,5,3.6,5s1.4,1.1,1.4,2.1c0,5.7,10.4,8.9,15,4.3c2.5-2.5,1.8-8.2-1.4-12.2c-1.1-1.1-2.5-4.7-3.2-8.2
		c-0.7-3.2-2.5-6.8-3.6-7.5c-1.1-1.1-2.1-2.9-2.1-4.3c0-1.4-1.4-5.4-3.6-9.3c-1.8-3.6-3.6-7.9-3.6-9.3c0-1.4-1.1-3.6-2.1-4.3
		c-1.1-1.1-2.9-4.3-3.6-7.2C694.5,951.8,687,947.9,678.7,951.1 M1045.5,951.1c-3.9,1.8-7.2,5.7-8.6,10.7c-0.7,2.5-1.8,5.4-2.9,6.4
		c-1.1,1.1-2.5,4.7-3.6,8.2c-0.7,3.2-2.5,6.8-3.6,7.5c-1.1,0.7-2.1,3.9-2.9,6.8c-0.4,2.9-2.1,6.8-3.9,8.6c-1.8,1.8-2.9,5-2.9,6.4
		s-1.4,4.7-2.9,7.2c-5,8.2-1.4,14.3,7.5,12.2c3.2-0.7,12.5-13.2,12.5-16.8c0-0.7,6.1-1.4,13.2-1.4c15,0,19,2.1,20.8,9.7
		c1.8,8.2,17.9,11.8,17.5,4.3c0-3.6-2.9-12.5-5-14.3c-1.1-1.1-2.1-4.3-2.9-7.2c-0.4-2.9-2.1-6.4-3.9-8.6c-1.4-1.8-2.9-4.7-2.9-6.4
		s-1.1-4.7-2.5-6.4c-1.4-1.8-3.2-5.7-3.6-8.6c-0.7-2.9-1.8-6.1-2.9-7.2c-1.1-1.1-2.5-4.3-3.6-6.8c-1.1-2.9-2.9-4.7-4.3-4.7
		s-3.6-0.4-4.7-0.7C1048.8,949.7,1047,950.4,1045.5,951.1 M1220.5,951.5c-2.5,1.1-4.3,2.9-5,5.4c-0.4,2.1-2.5,6.8-4.3,10.4
		c-1.8,3.6-3.2,7.5-3.2,8.9c0,1.4-0.7,2.1-1.4,2.1c-0.7,0-2.5,3.6-3.6,7.9c-1.1,4.3-3.2,8.6-4.3,9.3c-1.1,0.7-2.5,3.9-2.9,6.8
		c-0.7,2.9-1.8,6.1-3.2,6.8c-3.9,2.9-4.3,12.9-0.7,15c5.4,2.9,12.2,0,13.6-5.7c2.9-9.3,6.4-11.5,20.8-11.5c11.1,0,12.9,0.4,13.6,2.9
		c0.4,1.4,1.8,3.2,2.9,3.6c1.1,0.4,2.9,2.9,3.6,5.7c1.8,5.7,5,7.2,11.5,6.1c6.4-1.4,6.8-8.2,1.1-16.8c-1.1-1.8-2.1-4.3-2.1-5.7
		c0-1.4-1.1-3.9-2.5-5.7c-1.4-1.8-3.2-5.7-3.6-8.6s-2.1-6.8-3.9-8.9c-1.4-2.1-2.9-5-2.9-6.4s-1.1-4.3-2.5-6.1
		c-1.4-1.8-3.2-5.4-3.6-7.9C1235.9,951.5,1228.8,948.3,1220.5,951.5 M731,952.9c-2.9,2.1-2.9,44,0,53.7c2.1,7.9,12.5,17.2,20,18.3
		c9.7,1.4,24.7-0.4,27.9-3.2c14-12.9,14-12.9,14-44.7c0-24.7-0.4-25.8-8.9-25.8c-7.2,0-7.2,0-7.5,27.2l-0.4,22.9l-4.3,4.3
		c-3.2,3.6-5.4,4.3-10,4.3c-14,0-16.5-5-16.5-34.7c0-19.3-0.4-21.1-2.9-22.5C739.2,950.8,733.9,950.8,731,952.9 M870.6,953.3
		c-6.8,4.7,1.1,13.6,12.2,13.6h7.5v27.2c0,29.3,0,29,8.2,30.8c8.6,1.8,8.9-0.4,8.9-30.8v-27.2h7.2c12.9,0,21.8-9.7,12.9-14.3
		C922.8,950.1,874.5,950.8,870.6,953.3 M942.1,952.9c-2.1,2.1-2.5,66.6-0.4,69.8c1.4,2.5,10.7,2.5,13.6,0c1.4-1.1,2.1-4.7,2.1-12.2
		v-10.7h5c3.9,0,5.7,1.1,8.6,4.7c2.1,2.5,4.7,5.7,5.7,7.2c1.1,1.4,2.1,2.9,2.1,3.6s1.8,3.2,4.3,5.4c8.6,8.2,24,3.2,15.7-5
		c-1.4-1.4-3.2-3.9-3.6-5.4c-0.4-1.4-2.1-3.9-3.6-5.4c-3.9-3.6-3.6-10,0.7-11.8c2.1-1.1,3.6-2.1,3.6-3.2c0-0.7,1.4-2.9,2.9-4.7
		c7.2-7.2-0.4-28.6-11.1-32.9C982.6,950.4,944.3,950.8,942.1,952.9 M1099.6,953.3c-5,3.2-5,64.4,0,68.7c8.9,7.9,53.7,2.9,51.5-5.7
		c-1.4-6.1-2.9-6.4-17.5-6.4c-20.4,0-18.6,2.9-18.6-28.6c0-25.1-0.4-27.2-2.9-28.6C1108.2,950.4,1103.2,950.8,1099.6,953.3
		 M1163.3,953.6c-2.1,2.5-2.5,6.4-2.1,35.4l0.4,32.9l3.9,1.8c3.2,1.4,4.7,1.4,7.9,0l3.9-1.8l0.4-33.6c0.4-30.4,0-33.6-2.1-35.4
		C1171.9,950.4,1165.8,950.8,1163.3,953.6 M692,956.9c2.1,2.5,3.6,5.4,3.6,6.4c0,1.1,1.4,5,3.6,8.6c1.8,3.6,3.6,7.9,3.6,9.3
		s1.1,3.2,2.1,4.3c1.1,1.1,2.1,2.9,2.1,3.9c0,1.1,1.4,5,3.6,8.6c1.8,3.6,3.6,7.5,3.6,8.9c0,1.1,1.4,3.9,2.9,6.4
		c4.7,6.8,3.9,9.7-2.5,8.9c-4.7-0.4-5.7-1.1-8.9-7.5c-4.7-9.3-4.3-9.3-21.1-9.3c-16.1,0-19.3,1.4-21.5,10.7c-1.1,5-2.9,6.4-8.2,6.4
		c-5.7,0-6.1-2.9-1.8-11.1c2.1-3.9,3.6-8.2,3.6-10s1.1-3.9,2.1-4.7c1.1-1.1,2.9-3.9,3.9-6.8c1.1-2.9,2.9-7.2,4.3-9.7
		c1.4-2.5,2.9-6.4,3.6-8.9c0.4-2.5,1.8-5.4,2.9-6.1c1.1-1.1,2.5-3.6,2.9-5.7C678,951.5,686.3,950.1,692,956.9 M739.6,954
		c2.1,1.4,2.5,3.6,2.1,20.4c-1.1,33.6,14,49,32.2,33.3l3.9-3.2l0.7-25.4l0.7-25.4h5h5l0.4,25c0.4,24,0.4,25.4-2.9,31.1
		c-10.4,19.3-42.2,18.6-52.6-1.1c-3.6-6.4-3.9-51.2-0.4-53.7C737.1,952.2,736.7,952.2,739.6,954 M848.7,954.7
		c10.4,5.4,5.7,14.7-5,9.7c-8.9-4.3-15.7-4.3-20,0.7c-6.8,7.5,2.9,16.5,21.8,20c5,1.1,12.5,9.7,14.3,16.1c1.1,4.3-3.9,14-10,18.6
		c-12.5,10-47.6-0.7-39.4-11.8c1.8-2.5,2.1-2.1,9.3,1.4c8.6,4.3,16.1,5,22.9,1.4c10-5.4,1.8-16.8-14-19c-3.6-0.4-8.2-2.1-10.4-3.9
		c-2.1-1.8-5-3.6-6.4-4.7c-5.4-3.2-3.6-20,2.5-25.8C820.8,951.8,840.1,950.4,848.7,954.7 M923.9,954.7c5,3.6,1.1,7.2-8.2,7.5
		c-10.7,0.7-11.1,1.4-11.1,33.3c0,27.9,0,28.3-7.9,26.5l-3.6-1.1v-26.8c0-31.1-0.4-31.8-10.7-31.8c-8.6,0-13.2-4.7-8.2-8.2
		C877.7,951.5,920.3,951.8,923.9,954.7 M989,956.1c12.9,11.8,12.9,31.5-0.7,36.5c-5.4,1.8-4.7,5.7,4.3,18.3
		c6.8,9.7,6.8,11.8,1.1,11.8c-5.7,0-8.6-2.5-15.7-12.9c-6.8-10.4-9.3-12.2-17.9-11.1l-5,0.4l-0.4,11.1c-0.4,11.5-2.9,14.7-9.7,12.2
		c-2.9-1.1-3.2-65.1-0.4-68C948.2,950.8,985.1,952.6,989,956.1 M1056.3,955.4c6.4,14,8.6,18.6,8.6,20.4c0,1.1,1.1,2.9,2.1,3.9
		c1.1,1.1,2.9,4.3,3.6,7.5s2.9,7.5,4.3,9.7c1.4,2.1,2.9,5,2.9,6.1c0,1.1,1.4,4.7,2.9,7.5c5,8.9,2.9,13.2-5,11.1
		c-2.5-0.7-3.9-2.5-5-6.4c-2.5-9.3-3.9-10-21.1-10h-15.4l-2.9,4.7c-1.4,2.5-3.6,6.4-4.7,8.6c-1.4,3.6-2.5,3.9-7.2,3.6
		c-6.1-0.4-7.5-2.5-3.9-6.1c1.4-1.4,2.9-4.7,3.9-7.5c0.7-2.9,2.1-6.4,3.2-7.5c1.1-1.1,2.9-5.4,4.3-8.9c1.4-3.6,3.2-7.2,3.9-7.5
		c0.7-0.4,1.4-1.8,1.4-3.2s1.4-5.7,3.6-9.7c2.1-3.9,3.6-8.2,3.6-9.3C1039.1,955.4,1053.4,949.7,1056.3,955.4 M1110.7,981.9v26.1
		l3.6,1.8c2.1,1.1,9.3,1.8,16.5,1.8c14,0,17.9,1.8,16.8,7.5c-0.4,3.2-34,5.4-43.7,3.2l-3.2-0.7v-32.9c0-35.4,0.7-37.9,7.5-34.4
		C1110.3,955.4,1110.7,957.9,1110.7,981.9 M1172.6,955.1c3.6,3.9,2.9,64.1-0.7,66.6c-6.4,3.9-7.2,1.8-7.2-32.9
		C1165.1,952.6,1166.1,947.9,1172.6,955.1 M1232,954.7c1.8,1.1,3.6,4.3,3.9,6.8c0.7,2.5,2.5,7.5,4.3,11.1c1.8,3.6,3.6,7.2,3.6,8.2
		c0,1.1,1.1,2.5,2.1,3.6c1.1,1.1,2.1,2.9,2.1,3.9c0,1.4,1.4,5.7,3.6,9.7c1.8,3.9,3.6,7.9,3.6,8.9c0,1.1,1.4,3.6,3.2,6.1
		c4.7,6.1,3.2,9.3-3.6,9.3c-5.4,0-5.7-0.4-6.4-4.7c-3.2-16.1-39-17.5-43.7-1.8c-1.4,5.4-3.6,7.2-8.2,7.2c-5.7,0-6.4-2.9-2.1-10.7
		c2.1-3.9,3.6-7.9,3.6-8.9s1.4-3.6,2.9-5.7c1.4-2.1,2.9-5,2.9-6.8s1.1-4.7,2.5-6.4c1.4-1.8,3.2-5,3.6-7.2c0.7-1.8,1.8-5,2.9-6.4
		c1.1-1.4,2.5-5.4,3.6-8.6C1219.5,952.9,1225.2,950.1,1232,954.7 M956.4,964.4c-2.1,2.1-2.1,18.6,0,20.8c5.4,5.4,29,0.4,30.4-6.4
		C989.4,967.2,965,955.8,956.4,964.4 M981.5,969c9.3,6.1,1.8,15-13.2,15h-10.7v-8.2c0-4.7,0.4-8.6,0.7-8.9
		C959.7,965.1,978.3,966.9,981.5,969 M680.5,975.1c-5.7,8.2-6.8,19.7-2.1,21.1c13.6,3.6,19.3-2.5,13.2-14.7
		c-1.8-3.9-3.6-7.9-4.3-9.3C686.6,968.3,684.8,969,680.5,975.1 M1043.4,978.7c-7.2,14.3-3.2,21.1,10.7,17.5
		c6.4-1.8,5.7-13.2-2.1-22.2l-3.9-5L1043.4,978.7 M1221.6,976.2c-7.5,12.9-6.4,20.8,3.6,20.8c10.4,0,14-7.5,7.2-16.1
		c-1.4-2.1-2.9-4.7-2.9-5.7C1229.5,969,1225.5,969.7,1221.6,976.2 M1050.6,975.5c0,0.7,1.4,3.2,2.9,5.4c4.7,6.1,3.2,10.7-2.9,11.1
		c-7.9,0.7-9.7-1.4-6.8-7.2c1.4-2.5,2.9-6.4,3.2-8.6C1047.7,973,1050.6,972.2,1050.6,975.5 M687.7,979c0.4,2.5,1.8,5.7,2.9,6.4
		c4.7,3.9,1.4,7.2-7.2,7.2c-4.7,0-5,0-5-5.7c0-3.2,0.7-5.7,1.1-5.7c0.7,0,2.1-1.8,3.2-3.6C685.2,973,686.6,973,687.7,979
		 M1228.8,979c0.4,2.1,1.8,4.7,3.2,6.1c3.9,3.9,1.8,6.8-5.4,7.2c-8.6,0.7-9.7-1.8-4.3-11.1C1226.3,973.7,1227.3,973.3,1228.8,979"/>
</g>
</svg>
