<?xml version="1.0" encoding="utf-8"?>
<!-- Generator: Adobe Illustrator 24.0.2, SVG Export Plug-In . SVG Version: 6.00 Build 0)  -->
<svg version="1.1" id="Layer_1" xmlns="http://www.w3.org/2000/svg" xmlns:xlink="http://www.w3.org/1999/xlink" x="0px" y="0px"
	 viewBox="0 0 1920 1080" style="enable-background:new 0 0 1920 1080;" xml:space="preserve">
<style type="text/css">
	.st0{fill-rule:evenodd;clip-rule:evenodd;}
	.st1{fill-rule:evenodd;clip-rule:evenodd;fill:#FFFFFF;}
	.st2{fill-rule:evenodd;clip-rule:evenodd;fill:#F0E614;}
	.st3{fill-rule:evenodd;clip-rule:evenodd;fill:#E60000;}
	.st4{fill:#212121;}
</style>
<title  id="logo-bow-lockup-title">Birds of the World logo</title>
<g>
	<g transform="translate(96.6 5.084)">
		<path class="st0" d="M844.4,441c0,16.5,11.6,28.5,28,28.5c16.3,0,27.9-12,27.9-28.5c0-16.5-11.6-28.5-27.9-28.5
			C856,412.5,844.4,424.4,844.4,441z M872.3,418.4c13.2,0,21.4,10.2,21.4,22.5c0,12.4-8.2,22.5-21.4,22.5
			c-13.2,0-21.4-10.1-21.4-22.5C850.9,428.6,859.1,418.5,872.3,418.4z M912.1,468h6.5v-45.9h12.5v-6h-12.5v-13.3
			c0-9.8,3.1-14.7,9.6-14.7c2.6,0,4.5,0.3,6.1,1.1l1.3-5.7c-2-0.9-4.5-1.3-7.8-1.3c-6.8,0-15.8,4.2-15.8,18.1v15.9h-11.1v6h11.1
			L912.1,468L912.1,468z M951.7,426.4c0,25.4,17.3,43.7,42.2,43.7c24.9,0,42.2-18.3,42.2-43.7c0-25.4-17.3-43.7-42.2-43.7
			C969,382.7,951.7,401,951.7,426.4z M993.9,389.4c10.8,0,19.5,4,25.6,10.7c6,6.6,9.4,15.9,9.4,26.4s-3.4,19.7-9.4,26.4
			c-6,6.6-14.8,10.7-25.6,10.7h0c-10.8,0-19.5-4-25.6-10.7c-6-6.7-9.4-15.9-9.4-26.4c0-10.4,3.3-19.7,9.4-26.4
			C974.4,393.4,983.1,389.4,993.9,389.4L993.9,389.4z M1052.1,423.3l-0.3,0.5l-0.1-0.5c-0.2-1.1-0.3-5.4-0.5-9.4h-6.6
			c0,3,0.6,11.2,0.6,15.1v39h6.5v-29.5c0-10.7,5.5-19.3,17.7-19.3c0.7,0,1.5,0.1,2.5,0.4l0.8-6.5c-1.3-0.3-2.5-0.5-3.8-0.5
			C1061.1,412.5,1055.6,417,1052.1,423.3z M1104.5,412.5c-8.6,0-15.4,4.9-18.1,10.9l-0.1,0.1h-0.6l0-0.2c-0.2-1.1-0.3-5.4-0.5-9.4
			h-6.6c0,3,0.6,11.2,0.6,15.1v39h6.6V441c0-15.1,8.3-22.5,18.7-22.5c11.2,0,13.6,8.8,13.6,17.7V468h6.6v-32.2
			C1124.7,423.9,1121.1,412.5,1104.5,412.5L1104.5,412.5z"/>
		<g transform="translate(33.808 .408)">
			<path class="st0" d="M1105.4,391.5c0,2.8,2.2,5.1,5,5.1c2.8,0,5-2.3,5-5c0,0,0,0,0,0c0-2.8-2.2-5.1-5-5.1c0,0,0,0,0,0
				C1107.6,386.4,1105.4,388.6,1105.4,391.5C1105.4,391.4,1105.4,391.5,1105.4,391.5z M1106.8,440.4v27.1h7v-54.2h-7V440.4z"/>
		</g>
		<path class="st0" d="M1183.1,463.5c-4.7,0-7.6-3-7.6-7.9v-35.7h15.3v-6h-15.3v-15.7h-6.5v15.7h-11.6v6h11.6v35.7
			c0,7.7,3.7,13.8,13.6,13.8c2.6,0,6.3-0.9,8.8-1.8l-0.5-5.9C1188.5,462.7,1185.8,463.5,1183.1,463.5z M1226.4,412.5
			c-8.6,0-15.4,4.9-18.1,10.9l-0.1,0.1h-0.6v-39h-6.5V468h6.5V441c0-15.1,8.3-22.5,18.7-22.5c11.2,0,13.6,8.8,13.6,17.7V468h6.6
			v-32.3C1246.5,423.9,1242.9,412.5,1226.4,412.5z M1253.7,441c0,16.5,11.6,28.5,28,28.5c16.3,0,27.9-12,28-28.5
			c0-16.5-11.6-28.5-28-28.5C1265.3,412.5,1253.7,424.4,1253.7,441L1253.7,441z M1281.7,418.4c13.2,0,21.4,10.1,21.4,22.5
			c0,12.4-8.2,22.5-21.4,22.5c-13.2,0-21.4-10.1-21.4-22.5C1260.3,428.6,1268.5,418.5,1281.7,418.4z M1317.9,425.9v41.9h7v-83h-7
			V425.9z M1333.1,441c0,16.5,11.6,28.5,28,28.5c16.3,0,27.9-11.9,27.9-28.5c0-16.5-11.6-28.5-28-28.5
			C1344.7,412.5,1333.1,424.4,1333.1,441z M1361,418.4c13.2,0,21.4,10.2,21.4,22.5c0,12.4-8.2,22.5-21.4,22.5
			c-13.2,0-21.4-10.1-21.4-22.5C1339.6,428.6,1347.8,418.5,1361,418.4L1361,418.4z M1442.2,423c-4-6.4-11-10.5-20.1-10.5
			c-15.7,0-28.4,12.5-28.4,27.8c0,15.2,12.8,27.7,28.4,27.8c9.1,0,16.1-4.1,20.1-10.5l0.1-0.1h0.5v7.8c0,6.1-0.4,25.2-21.7,25.2
			c-8.3,0-16.2-2.6-22.4-8.9l-3.9,3.7c5.4,6.6,15.6,11.2,26.2,11.2c10.8,0,28.3-4.6,28.3-31.7v-50.8h-6.6v9.2h-0.6L1442.2,423z
			 M1443,440.3c0,12-9.6,21.8-21.4,21.8c-11.8,0-21.4-9.8-21.4-21.8c0-12,9.6-21.8,21.4-21.8C1433.4,418.4,1443,428.2,1443,440.3z
			 M1500,413.9l-17.4,46.3l-20.6-46.3h-7.3l24.4,54.6l-4.9,12.7c-1.6,4.3-4.7,9.4-9.9,9.4c-3.6,0-5.7-0.6-7.6-1.4l-3.2,4.7
			c2.6,1.6,7.8,2.5,10.8,2.5c7.6,0,12.3-4.4,15.1-11.3l27.4-71.2H1500L1500,413.9z"/>
	</g>
	<g transform="translate(70.055)">
		<path class="st1" d="M923.3,368.1c-2.4-0.9-9.4-3.1-12.4-4.1c-3-1-11.6-3.5-14.1-4.3c-0.8-1.1-1.7-2.1-2.6-3
			c-8.3-9-21-14.4-33.9-14.4c-10.2,0-20.2,2.3-29.4,6.9H639.6v5.5c0,8.3,9.4,14.6,21.8,14.6h52.7l42.7,30.7v47.1
			c0,23.3,12,44.3,32.2,56.3c16.8,10,27,10.9,38.5,10.9l2.5,0h8.1v-98.1l3.6-2.7l46.9-35.2c0,0,24.6-1.6,30.9-2
			c3.5-0.2,7.4-0.6,10.1-0.9c2.5-0.3,3.5-1.1,3.5-1.8c0-0.8-0.5-1.1-1-1.6C931.6,371.6,927.9,369.8,923.3,368.1L923.3,368.1z"/>
		<path class="st0" d="M924.3,371.7c0,0-22.2-6-30.8-6.8c0,0-33.9,18.6-43.3,24.9c-9.5,6.2-11.3,15.6-11.7,19.2l48.3-36.3h37.9
			C925.6,372.7,924.3,371.7,924.3,371.7z"/>
		<path class="st0" d="M846.1,386.4c9.9-6.7,44.2-25.8,44.2-25.8l0,0.1c-5.9-6.4-16.5-12.8-30-12.8c-16.6,0-28,6.9-28,6.9H645
			c0,5.1,7.6,9,16.4,9h54.4l46.4,33.4v50c0,21.7,11.2,40.6,29.5,51.5c18.3,10.9,27.5,10.1,40.9,10.1v-95.4
			C832.7,404.9,835.1,393.8,846.1,386.4z M875.6,363.1c0,1.9-1.5,3.4-3.4,3.5c-1.9,0-3.4-1.6-3.4-3.5c0-1.9,1.5-3.5,3.4-3.5
			C874.1,359.7,875.6,361.2,875.6,363.1L875.6,363.1z M832.8,377.6l21.2-12l9.3,0.8l-30.6,17.3V377.6z"/>
		<path class="st2" d="M715.9,363.7h78c-17.4,0-31.7,14.3-31.7,33.4L715.9,363.7z"/>
		<path class="st3" d="M886,362.9c-7.6-6.6-17.3-10.2-27.4-10.2v-4.8l1.7,0c13.5,0,24.1,6.3,30,12.7L886,362.9L886,362.9z
			 M886.8,372.7L853,398.1c0,0-0.4-3.7,4.7-7.9c5.1-4.2,35.9-25.2,35.9-25.2S886.8,372.7,886.8,372.7z"/>
		<path class="st1" d="M818.5,437.6v-17c0-7.1-2.9-12.1-9.4-16.8l-27.6-19.9c-3.1,3.5-5,8.1-5,13.2c0,6.4,3,12.1,7.7,15.7
			C784.1,412.9,818.5,437.6,818.5,437.6z"/>
	</g>
	<g transform="translate(0 5.084)">
		<path class="st0" d="M124,390.9v76.9h7v-76.9h26.2v-6.1H97.7v6.1H124z M188.8,412.5c-8.6,0-15.6,4.9-18.3,10.9l-0.1,0.1h-0.4v-39
			h-6.5V468h6.6V441c0-15.1,8.3-22.5,18.7-22.5c11.1,0,13.6,8.8,13.6,17.7V468h6.5v-32.3C209,423.9,205.4,412.5,188.8,412.5z
			 M245.8,463.5c-16.4,0-20.4-14.8-20.5-20.7v-0.2h45v-4.7c0-12.6-8.6-25.3-24.9-25.3c-15.5,0-26.6,12.2-26.6,28.4
			c0,16.8,10.7,28.6,26.9,28.6c9.4,0,17.5-3.3,22.9-11.4l-4.8-4.1C260.2,459.8,252.9,463.5,245.8,463.5z M225.3,436.3
			c0-2.9,4.3-17.9,19.7-17.9c10.4,0,18.8,8.1,18.8,17.9v0.2h-38.4C225.3,436.6,225.3,436.3,225.3,436.3z M334.1,406.2
			c-3.6-4.4-8.8-6.9-15.5-6.9c-13.7,0-23.8,11.3-23.8,26.9c0,15.6,10.1,26.9,23.2,26.9c7.3,0,13.2-3.3,16.9-9l15.1,11.4
			c-6.8,9.9-18.4,14.5-29.7,14.5c-25.6,0-44.2-17.1-44.2-43.9c0-26.8,18.6-43.9,44.2-43.9c9.2,0,20.7,3.2,27.7,12.3L334.1,406.2z
			 M381.3,409.2c17.4,0,31.3,11.8,31.3,30.1c0,18.3-13.9,30.1-31.3,30.1c-17.4,0-31.3-11.8-31.3-30.1
			C350,421,363.9,409.2,381.3,409.2z M381.3,453.9c8.7,0,13.9-5.9,13.9-14.5c0-8.6-5.2-14.5-13.9-14.5c-8.7,0-13.9,5.9-13.9,14.5
			C367.4,448,372.6,453.9,381.3,453.9z M419,410.7h17.4v9.2h0.2c3.7-7,8.6-10.6,16.2-10.6c2,0,4.2,0.1,5.8,0.6V426
			c-2.4-0.8-4.9-1.2-7.4-1.2c-13.2,0-14.8,7.8-14.8,19.2v24H419L419,410.7L419,410.7L419,410.7z M463.6,410.7h16.7v7.8h0.2
			c2.3-4.5,8-9.2,16.4-9.2c17.6,0,20.9,11.8,20.9,27.2V468h-17.4v-28.1c0-6.6-0.1-15.1-9-15.1c-9,0-10.4,7.2-10.4,14.6V468h-17.4
			L463.6,410.7L463.6,410.7z M578.8,458.1c-5.6,7.2-14.7,11.3-23.7,11.3c-17.4,0-31.3-11.8-31.3-30.1c0-18.3,13.9-30.1,31.3-30.1
			c16.2,0,26.4,11.8,26.4,30.1v5.6h-40.3c1.4,6.7,6.4,11.1,13.1,11.1c5.7,0,9.5-3,12.4-7C566.6,449,578.8,458.1,578.8,458.1z
			 M564.1,432.9c0.2-5.8-4.4-10.7-10.2-10.9c-0.2,0-0.3,0-0.5,0c-7.6,0-11.8,5.3-12.3,10.9H564.1z M587.9,425.9v-41.1h17.5v83h-17.5
			V425.9z M615,425.9v-41.1h17.5v83H615V425.9z M652.6,425.9v-41.1h-7v83h41.1v-6.1h-34.1L652.6,425.9z M733.4,432
			c0-13.7-8.2-19.5-21.1-19.5c-6.8,0-15.1,2.7-20.1,7.5l3.8,4.5c4.5-4,10.3-6.1,16.3-6.1c8.6,0,15.2,3.9,15.3,13.4v3.5h-8.3
			c-5.3,0-12.7,0.4-18.7,2.9c-6.1,2.5-10.7,7-10.7,15.2c0,11.4,9.6,15.9,18.7,16c9,0,14.7-3.3,18.6-10.2l0.1-0.1h0.6v0.2
			c0,3,0.2,6,0.7,8.7h6.1c-0.8-6.2-1-12.2-1-22.7L733.4,432L733.4,432z M727.6,444.5c0,4.6-1,9.3-3.8,12.9c-2.9,3.6-7.6,6.1-15,6.1
			h0c-5.9,0-12.4-3.5-12.4-10.4c0-9.6,11.8-12.5,23.4-12.5h7.8L727.6,444.5L727.6,444.5z M772.5,412.5c-8,0-17,3.4-21.3,10.9
			l-0.1,0.1h-0.6v-39H744V468h6.6v-9.6h0.5l0.1,0.1c4.2,7.5,13.3,10.9,21.3,10.9c16.3,0,27.9-11.9,28-28.5
			C800.4,424.4,788.8,412.5,772.5,412.5L772.5,412.5z M772.5,463.5c-12.4,0.1-22.5-9.9-22.6-22.3c0-0.1,0-0.2,0-0.3
			c-0.1-12.4,9.9-22.5,22.3-22.5c0.1,0,0.2,0,0.2,0c13.2,0,21.4,10.1,21.4,22.5C793.8,453.3,785.7,463.5,772.5,463.5z"/>
	</g>
	<path class="st4" d="M96,734.3V562h67.8c26.3,0,53.3,11.9,53.3,43.3c0,19.5-12.3,32.4-30.2,37.7v0.5c21.8,2.9,37.6,17.5,37.6,40.6
		c0,37.5-32.9,50.1-65.8,50.1L96,734.3L96,734.3z M126.9,587.3v44.8h27.5c20.6,0,31.7-8.5,31.7-23.4c0-15.3-11.1-21.4-34.4-21.4
		C151.7,587.3,126.9,587.3,126.9,587.3z M126.9,658.4v50.1h27.7c16,0,38.8-3.2,38.8-25.8c0-18-12.5-24.3-37.6-24.3H126.9z
		 M235.5,734.3V617.5H265v116.8L235.5,734.3L235.5,734.3z M231.3,577.8c0-9.3,7.9-17.5,18.7-17.5c10.8,0,19.1,7.5,19.1,17.5
		c0,10-8.3,17.5-19.1,17.5C239.2,595.3,231.3,587.1,231.3,577.8z M282.5,734.3V617.5h28.2v19.5h0.5c6.4-13.4,18.9-22.9,34.4-22.9
		c2.2,0,5.2,0.2,7.1,0.7v26.8c-3.9-1-6.4-1.2-9.1-1.2c-26.5,0-31.7,22.9-31.7,31.4v62.5L282.5,734.3L282.5,734.3z M479.5,550.3v184
		h-28v-17.5h-0.5c-8.1,13.4-24.1,20.9-40.5,20.9c-35.9,0-57.9-28.2-57.9-62.3c0-34.6,23.6-61.3,57.2-61.3
		c21.6,0,33.4,10.7,39.5,18.3h0.7v-82H479.5L479.5,550.3z M382.6,675.4c0,18.3,11,38,33.9,38c21.6,0,34.6-19.2,34.6-37.5
		c0-18.2-13-38-34.6-38C393.6,637.9,382.6,657.1,382.6,675.4z M588.1,631.8L569,648.6c-5.2-6.8-15-12.7-25.8-12.7
		c-9.3,0-18.9,3.4-18.9,12.7c0,9,9.1,11.4,25.5,15.3c17.4,4.1,38.1,11.9,38.1,34.8c0,28.5-23.3,38.9-49.1,38.9
		c-18.2,0-37.1-6.8-48.4-19.2l19.4-18c6.4,8.3,17.4,14.6,30.2,14.6c8.6,0,18.9-3.4,18.9-13.9c0-9.7-9.1-12.7-27-16.8
		c-17.4-4.1-34.9-11.2-34.9-33.1c0-26,23.6-37.2,46.9-37.2C560.9,614.1,578.5,619.9,588.1,631.8z M757.1,677.3
		c0,34.3-25.5,59.9-61.4,59.9c-35.6,0-61.1-25.5-61.1-59.9s25.5-59.9,61.1-59.9C731.6,617.5,757.1,643,757.1,677.3z M739.5,677.3
		c0-25.6-16.9-46-43.7-46c-26.5,0-43.5,20.4-43.5,46c0,25.5,16.9,45.7,43.5,45.7C722.5,723.1,739.5,702.9,739.5,677.3z M823.2,620.4
		v13.9h-27v100h-16.7v-100h-24.1v-13.9h24.1v-31.1c0-25.8,12.8-41.9,39-41.9c4.2,0,9.6,0.5,13.8,1.7l-2.9,14.6
		c-3.7-1.1-7.6-1.7-11.5-1.7c-17.9,0-21.6,12.7-21.6,29.2v29.2H823.2L823.2,620.4z M942.4,620.4v13.9H910v66.4
		c0,17,7.1,20.9,17.2,20.9c4.7,0,10.1-1.5,14.5-3.7l0.7,14.4c-6.3,2.3-12.9,3.5-19.6,3.4c-12.3,0-29.5-5.4-29.5-30.4v-71.1h-23.8
		v-13.9h23.8v-32.1H910v32.1H942.4L942.4,620.4z M977.9,639.1h0.5c6.1-13.1,22.3-21.7,38.5-21.7c29.2,0,43.7,18.7,43.7,47v69.8
		h-16.7v-63c0-23.9-7.1-39.9-31.2-39.9c-17.7,0-34.9,14.1-34.9,44.5v58.4h-16.7v-184h16.7C977.9,550.3,977.9,639.1,977.9,639.1z
		 M1187.5,673.9c0,2.2,0,4.9-0.2,7.8H1092c0.5,22.9,18.4,41.4,42,41.4c17.2,0,30.4-9.5,36.8-19.7l12.5,9.7
		c-13.5,17-30.4,24.1-49.3,24.1c-34.1,0-59.4-25.5-59.4-59.9s25.3-59.9,57.9-59.9C1168.6,617.5,1187.5,642.8,1187.5,673.9z
		 M1092.2,668.6h78.3c-1-21.4-14.2-37.2-38.1-37.2C1110.2,631.4,1093.7,649.1,1092.2,668.6z M1261.9,734.3L1211.1,562h33.9
		l33.6,126.5h0.5l38.3-126.5h31.9l37.6,126.5h0.5l34.4-126.5h32.9l-50.8,172.3h-29.9l-40.8-129.2h-0.5l-40.8,129.2H1261.9z
		 M1437.3,675.4c0-36.8,28.5-61.3,64.1-61.3c35.6,0,64.1,24.6,64.1,61.3c0,36.7-28.5,62.3-64.1,62.3
		C1465.7,737.7,1437.3,712.1,1437.3,675.4z M1467.2,675.4c0,18.3,10.8,38,34.1,38c23.3,0,34.1-19.7,34.1-38
		c0-18.3-10.8-37.5-34.1-37.5C1478,637.9,1467.2,657.1,1467.2,675.4z M1577.3,734.3V617.5h28.2v19.5h0.5
		c6.4-13.4,18.9-22.9,34.4-22.9c2.2,0,5.2,0.2,7.1,0.7v26.8c-3.9-1-6.4-1.2-9.1-1.2c-26.5,0-31.7,22.9-31.7,31.4v62.5H1577.3
		L1577.3,734.3z M1658.7,734.3v-184h29.5v184H1658.7z M1824,550.3v184h-28v-17.5h-0.5c-8.1,13.4-24.1,20.9-40.5,20.9
		c-35.8,0-57.9-28.2-57.9-62.3c0-34.6,23.6-61.3,57.2-61.3c21.6,0,33.4,10.7,39.5,18.3h0.7v-82C1794.5,550.3,1824,550.3,1824,550.3z
		 M1727,675.4c0,18.3,11,38,33.9,38c21.6,0,34.6-19.2,34.6-37.5c0-18.2-13-38-34.6-38C1738.1,637.9,1727,657.1,1727,675.4z"/>
</g>
</svg>
