<?xml version="1.0" encoding="utf-8"?>
<!-- Generator: Adobe Illustrator 24.0.2, SVG Export Plug-In . SVG Version: 6.00 Build 0)  -->
<svg version="1.1" id="svg" xmlns="http://www.w3.org/2000/svg" xmlns:xlink="http://www.w3.org/1999/xlink" x="0px" y="0px"
	 viewBox="0 0 1920 1080" style="enable-background:new 0 0 1920 1080;" xml:space="preserve">
<style type="text/css">
	.st0{fill-rule:evenodd;clip-rule:evenodd;fill:#74AC04;}
	.st1{fill-rule:evenodd;clip-rule:evenodd;fill:#040404;}
</style>
<g id="svgg">
	<path id="path0" class="st0" d="M229.6,382.9c0.3,0.7,1,3.4,1.5,5.9c0.5,2.6,1.4,6.3,2,8.3c0.6,2,1.7,6.2,2.6,9.3
		c0.9,3.1,1.9,6.3,2.3,7c0.4,0.7,0.4,1.3,0.1,1.3c-0.3,0-0.2,0.3,0.2,0.5c0.4,0.3,1.5,3,2.5,5.9c1,3,1.9,5.6,2.2,5.8
		s0.8,1.5,1.4,2.9c4.9,12.6,17,29.1,24.1,32.9c1.1,0.6,2.7,1.7,3.5,2.4c0.8,0.7,2.4,1.8,3.7,2.4c1.2,0.6,1.9,1.1,1.6,1.1
		c-0.9,0,4.4,3.6,5.4,3.6c0.4,0,0.8,0.3,0.8,0.7c0,0.4,1,1.2,2.1,1.8c1.2,0.6,2.7,1.7,3.4,2.4c0.7,0.7,3.2,2.7,5.6,4.5
		c2.4,1.7,4.6,3.5,5,4c0.4,0.4,1.5,1.3,2.5,2c3.1,2.1,13.1,11.4,23,21.2c10.1,10.1,12.1,11.2,13.9,8c1-1.8,0.5-15-0.7-17.9
		c-0.4-1-1.4-4.9-2.3-8.8c-0.9-3.9-1.8-7-2.1-7c-0.3,0-0.9-1.5-1.3-3.2c-0.4-1.8-1.7-5.1-2.9-7.4c-1.1-2.3-2.5-5.4-3-6.8
		c-0.5-1.5-1.2-2.7-1.4-2.7c-0.3,0-1-1.2-1.7-2.7c-1.1-2.4-3.1-5.9-8-13.8c-1.3-2.1-4.9-7.2-8.1-11.5c-6.1-8.1-19.4-20.4-29-26.9
		c-1-0.7-3.1-2.2-4.7-3.4c-1.6-1.2-4.3-3-6.1-4c-1.8-1-5-3-7.2-4.3c-2.2-1.3-5.3-3.2-6.8-4c-1.6-0.9-3.4-1.9-4-2.4
		c-0.6-0.5-2.5-1.5-4.3-2.2c-1.8-0.8-3.4-1.6-3.6-1.9C239.8,383.6,228.8,380.8,229.6,382.9 M96,419.2c0,7.9,13.1,25.7,25.8,35.1
		c1.3,1,3.7,2.8,5.2,4.1c1.5,1.3,4,3,5.5,3.9c1.5,0.9,2.9,1.8,3.1,2.1c0.2,0.2,1.5,1.2,2.9,2.2c1.4,1,2.7,1.9,2.9,2.2
		c0.2,0.2,1.8,1.2,3.6,2.2c1.8,1,4,2.5,5,3.4c1,0.9,2.1,1.6,2.4,1.6c0.3,0,2,1,3.6,2.2c1.6,1.2,3.4,2.2,3.9,2.2s1.2,0.4,1.5,1
		c0.3,0.5,1.6,1.5,2.9,2.2c1.3,0.6,3.7,2.1,5.5,3.3c1.8,1.2,3.5,2.2,3.8,2.2c0.3,0,1.4,0.6,2.3,1.3c1.6,1.2,1.1,1.3-14,1.2
		c-15.2,0-24.8,1-25.8,2.6c-0.2,0.4-0.7,0.5-1,0.3c-1.8-1.1-1.2,1.6,1.2,5.4c3.6,5.6,21.1,22.8,25,24.5c0.4,0.2,2.7,1.7,5.1,3.3
		c2.4,1.6,7.2,4.5,10.8,6.3c3.6,1.8,6.9,3.7,7.3,4.1c1.1,0.9,17.1,7.2,18.3,7.2c0.4,0,1.9,0.5,3.2,1.1c1.3,0.6,4,1.5,5.9,2l3.5,0.9
		l-6.8,0.5c-3.8,0.3-7.2,0.8-7.6,1.1c-0.4,0.3-2.8,0.8-5.4,1.1c-11.6,1.3-20.9,3.4-20.9,4.9c0,0.8,2.2,4.2,3.9,6.1
		c0.8,0.9,2.3,2.6,3.3,3.8c1,1.2,2.6,3.1,3.6,4.2c1,1.1,3.4,3.9,5.4,6.2c5.6,6.5,19.8,19.8,21.1,19.8c0.4,0,1.1,0.4,1.4,1
		c0.3,0.5,2.4,2.1,4.5,3.4c2.2,1.3,4.4,2.8,5,3.2c0.6,0.5,2.2,1.3,3.6,1.8c1.4,0.5,2.7,1.2,2.9,1.4c0.5,0.7,7.2,2.9,8.8,2.9
		c0.7,0,1.3,0.3,1.3,0.6c0,0.6,6.7,1.8,15,2.7c2.5,0.3,11.9,0.1,20.9-0.5c24.8-1.4,25.9-0.7,17.8,11.5
		c-8.6,12.8-33.7,37.4-38.3,37.5c-0.5,0-1,0.4-1.2,0.9c-0.2,0.5-1.9,1.7-3.9,2.7c-1.9,1-3.7,2-3.9,2.2c-0.2,0.2-2,1.2-4,2.2
		c-2,1-3.8,1.9-4,2.2c-0.2,0.2-2.5,1.2-5,2.1c-2.6,0.9-4.8,1.9-5,2.1c-0.7,0.8-16.9,5.7-21.6,6.4c-2.6,0.4-6.1,1-7.9,1.3
		c-1.8,0.3-3.6,0.5-4,0.6c-2,0.1-1,2.4,1.2,2.8c1.3,0.3,3.3,0.9,4.4,1.5c1.1,0.6,4.7,1.7,7.9,2.6c3.3,0.8,6.6,1.8,7.4,2.1
		c11.7,5,62.8,5.4,78.2,0.7c3.8-1.2,13.1-3.6,15.3-4.1c1.1-0.2,2-0.6,2-0.9c0-0.3,2-1.1,4.5-1.8c2.5-0.7,5.2-1.7,6-2.2
		c0.8-0.5,3.3-1.7,5.4-2.6c5.8-2.5,19.4-9.9,19.4-10.6c0-0.3,0.6-0.8,1.3-1c1.4-0.4,4.8-2.5,6.6-3.9c15.1-12.3,27.3-23.7,30.2-28.2
		c0.7-1,1.9-2.4,2.8-3.2c0.9-0.7,1.6-1.8,1.6-2.3s0.4-1.3,1-1.6c1.4-0.8,11.9-16.6,12.4-18.7c0.2-0.9,0.7-1.7,1-1.7
		c0.3,0,1.3-1.7,2.3-3.8c1-2.1,1.9-3.9,2.2-4.1c0.2-0.2,1.2-2.3,2.1-4.7c0.9-2.4,2.4-5.9,3.3-7.9c0.9-2,1.9-4.8,2.1-6.3
		c0.3-1.5,0.7-2.7,1-2.7c0.3,0,0.6-0.4,0.6-0.9c0.2-2,3.4-14.6,3.7-14.9c0.5-0.5,0.6-0.8,2.2-11.8c0.8-5.2,1.7-10.3,2.1-11.3
		c0.4-1,1.3-4.9,2.1-8.7c2.5-11.7,9.2-30.2,11-30.2c0.3,0,0.6-0.4,0.6-1c0-0.5,0.6-1.6,1.4-2.3c0.8-0.7,1.4-1.6,1.4-1.9
		c0-0.9,4.9-5.3,9.9-9c5.5-4.1,6-6.2,1.8-7.5c-1.5-0.5-3.2-1-3.8-1.2c-8.8-3.4-42.3-4.8-52.6-2.2c-7.5,1.9-21.7,8-23,9.9
		c-0.2,0.3-1.6,1.4-3.1,2.4c-3.4,2.3-11.7,10.1-11.5,10.8c0.1,0.3-0.8,1.3-1.9,2.3c-1.2,1-1.9,2-1.7,2.2c0.2,0.2,0.1,0.4-0.3,0.4
		c-0.4,0-1.4,1.3-2.3,2.9c-0.9,1.6-1.9,2.9-2.3,2.9c-0.4,0-0.7,0.3-0.7,0.8c0,0.4-1.2,2.6-2.7,4.9c-1.5,2.3-2.9,4.5-3.1,4.9
		c-1,2.2-5.7,6.7-7.3,7.2c-2.9,0.7-4.4-0.4-17.7-13.8c-6.9-6.9-15.8-15.4-19.8-18.8s-8-6.9-8.8-7.6c-0.8-0.7-2.3-1.9-3.2-2.5
		c-1-0.6-3.1-2.2-4.7-3.4c-1.6-1.3-6.1-4.4-10.1-7.1c-4-2.6-7.6-5.1-8.1-5.5c-0.5-0.4-2.1-1.4-3.6-2.2c-1.5-0.8-3.2-1.9-3.8-2.4
		c-0.6-0.5-2.2-1.5-3.6-2.2c-1.4-0.7-2.7-1.5-2.9-1.7c-0.2-0.2-2.1-1.2-4.1-2.2c-2.1-1-3.8-2-3.8-2.3s-0.3-0.6-0.7-0.6
		c-0.4,0-4.7-2-9.5-4.4c-4.9-2.4-10.6-5-12.7-5.8c-2.1-0.8-4.3-1.7-4.7-2.1c-0.7-0.6-5.1-2.3-17-6.6c-2.2-0.8-4.6-1.7-5.4-2.1
		s-3.9-1.3-6.8-2.2c-3-0.8-6.1-1.8-6.8-2.2c-0.8-0.4-4.4-1.3-7.9-2.1c-3.6-0.8-7.1-1.8-7.9-2.1c-1.9-0.9-14.4-3.6-16.5-3.6
		c-0.9,0-1.9-0.3-2.3-0.6c-0.7-0.6-10.7-2.4-19.1-3.4c-2.2-0.3-4.5-0.7-5.1-1.1c-0.9-0.5-20.2-2.8-23.1-2.8
		C96.3,417.6,96,418.4,96,419.2 M577,436.9c-1.9,0.2-3.4,0.6-3.4,1c0,0.4-0.6,0.7-1.4,0.7c-1.7,0-11.1,2.9-11.6,3.6
		c-0.2,0.3-1.9,1.2-3.8,2.1c-1.9,0.9-3.2,1.9-3,2.3s-0.1,0.7-0.7,0.7c-1.1,0-6.9,6.5-6.9,7.8c0,0.4-0.4,0.9-1,1.1
		c-1.3,0.5-5.3,13.4-5.9,18.9c-1.1,10.5-2,17.3-2.5,17.7c-0.3,0.2-1.1,2.2-1.7,4.5c-0.7,2.3-1.7,4.6-2.2,5.1
		c-3.2,3.2,23.8,4.5,28,1.3c0.4-0.3,2.6-0.9,4.9-1.4c6.1-1.3,14.1-7.2,16.8-12.3c0.7-1.4,1.5-2.7,1.8-2.9c1.4-0.9,3-9,3.4-16.9
		c0.2-4.8,0.6-9,0.9-9.4c0.3-0.4,0.9-2.9,1.4-5.6c1-5.3,4.1-10.8,8.2-14.2C603,436.6,596,435.4,577,436.9 M409.8,497.6
		c6.1,3.8,2.8,12.9-4.7,12.9c-3,0-7.3-4.2-7.3-7.2C397.8,497.9,404.8,494.6,409.8,497.6 M563.8,523.9c-10.3,0.9-24.3,2.3-24.7,2.4
		c-0.1,0-0.2,32.6-0.2,72.5v72.4l20.7-0.2l20.7-0.2l0.2-74l0.2-74l-3.1,0.1C576,522.9,569.8,523.4,563.8,523.9"/>
	<path id="path4" class="st1" d="M1499.9,449.3c-8.1,0.7-15.5,1.5-16.4,1.8l-1.6,0.6V561v109.4h19.1h19.1V559.2V447.9l-2.7,0.1
		C1515.8,448,1508,448.6,1499.9,449.3 M1557.5,457.6c-1.8,0.5-3.5,1.5-3.8,2.1c-0.3,0.6-1.1,1.1-1.6,1.1c-0.6,0-2.2,1.5-3.6,3.3
		c-7.8,10.2-4.3,29.3,6.1,33.4c1.4,0.5,2.8,1.3,3,1.7c0.7,1.1,17.7,1,18.4-0.1c0.3-0.5,1.4-1.1,2.5-1.3c1.1-0.3,2.3-0.9,2.8-1.5
		c0.5-0.6,1.2-1,1.7-1c3-0.1,6.9-9.7,6.9-17c0-9.1-1.6-12.4-8.9-18.7C1577.6,456.7,1564.3,455.5,1557.5,457.6 M611.9,568.3
		l0.2,102.5l18.2,0.2l18.2,0.2v-72.8c0-40,0.3-72.8,0.6-72.8s1.4,1.5,2.3,3.2c0.9,1.8,1.9,3.2,2.3,3.2c0.4,0,0.8,0.6,1.1,1.3
		c0.4,1.2,5.7,9.1,7.4,11.2c1.5,1.8,7.3,10.7,7.3,11.1c0,0.3,0.5,1,1.1,1.6c1.3,1.4,3.8,5,6.5,9.4c1.1,1.8,2.4,3.5,2.9,3.8
		c0.5,0.3,1,1,1,1.5c0,0.5,0.8,1.8,1.8,2.9c1,1.1,1.8,2.1,1.8,2.3c0,0.4,7.3,11.3,7.9,11.8c0.2,0.2,1.2,1.7,2.2,3.2
		c1,1.6,2.3,3.5,3,4.3c0.7,0.8,1.3,1.8,1.3,2.2c0,0.4,0.6,1.4,1.3,2.2c0.7,0.8,2.1,2.7,3,4.3s2.2,3.3,2.7,3.8
		c0.5,0.5,1.3,1.6,1.7,2.5c0.4,0.8,2.7,4.2,5,7.5c2.3,3.3,4.2,6.2,4.2,6.5c0,0.3,0.5,1,1.1,1.7c0.6,0.6,2.7,3.6,4.6,6.5
		c2,3,3.8,5.7,4.1,6.1c0.3,0.4,1.3,1.9,2.3,3.4c0.9,1.5,2,2.7,2.3,2.7c0.4,0,0.7,0.3,0.7,0.7c0,0.4,0.9,2.1,2,3.7
		c1.1,1.6,2.6,4,3.3,5.2c0.7,1.2,1.7,2.5,2.2,2.9c0.5,0.4,1.5,1.9,2.2,3.2c0.7,1.4,1.8,2.9,2.3,3.3c0.5,0.4,1.5,1.9,2.3,3.2l1.4,2.5
		L769,671l21.4,0.2V568.5V465.9H772h-18.4v71.7c0,39.4-0.2,71.7-0.5,71.7c-0.3,0-1.3-1.3-2.2-2.9s-2-2.9-2.3-2.9
		c-0.4,0-0.7-0.4-0.7-0.9c0-0.5-0.8-2-1.8-3.4c-1-1.4-2.6-3.8-3.7-5.4c-1.1-1.6-2.1-3-2.4-3.2c-0.3-0.2-1.2-1.7-2.1-3.4
		c-0.9-1.7-1.8-3.1-2.2-3.1c-0.3,0-1.1-1.1-1.8-2.3c-0.7-1.3-2.3-3.8-3.6-5.6c-1.3-1.8-2.5-3.6-2.5-4.1c0-0.5-0.4-0.9-0.8-0.9
		c-0.4,0-1.4-1.3-2.2-2.9c-0.8-1.6-1.8-2.9-2.2-2.9c-0.4,0-0.7-0.3-0.7-0.7c0-0.8-7.1-11.6-8.1-12.3c-0.3-0.2-1.3-1.7-2.1-3.2
		c-0.8-1.6-1.7-3-2-3.2c-0.3-0.2-1.4-1.7-2.4-3.2c-1-1.6-3.5-5.2-5.5-8.1c-2-2.9-3.6-5.4-3.6-5.7c0-0.3-0.5-1-1.1-1.6
		c-1.4-1.4-4-5.1-6.6-9.4c-1.1-1.8-2.4-3.5-2.9-3.8c-0.5-0.3-0.9-1-0.9-1.5c0-0.5-0.8-1.8-1.8-2.9c-1-1.1-1.8-2.2-1.8-2.4
		c0-0.3-1.3-2.2-2.9-4.3c-1.6-2.1-2.9-4-2.9-4.4c0-0.3-0.6-1.2-1.3-2s-2.1-2.7-3-4.3c-1-1.6-1.9-3-2.2-3.2c-0.3-0.2-1.3-1.7-2.3-3.2
		c-1-1.6-3.4-5.1-5.4-7.9c-1.9-2.8-3.7-5.6-4-6.3c-0.3-0.7-0.8-1.3-1.1-1.3c-0.4,0-1.1-1-1.5-2.2l-0.9-2.2h-21.9h-21.9L611.9,568.3
		 M993.5,480c-6.9,0.5-13.6,1.3-14.8,1.7c-1.2,0.4-3.2,0.7-4.5,0.7h-2.3v20.8V524l-1.6,0.8c-0.9,0.4-5.1,1.2-9.4,1.7l-7.7,0.9v13.2
		v13.2h9h9l0,33c0,32.7,0.6,47.9,2,51.3c0.4,1,1.4,4.1,2.3,7c0.8,2.9,1.8,5.2,2.1,5.2s1,1,1.5,2.2c2.1,5.1,11.8,12.8,18,14.4
		c2,0.5,3.6,1.1,3.6,1.4c0,2.6,33.7,2.6,37.1,0c0.4-0.3,1.9-0.8,3.2-1.1c4.4-0.9,9.4-2.7,9.4-3.3c0-0.4,0.5-0.6,1.1-0.6
		c0.9,0,1.1-2,1.1-14c0-9.7-0.2-14-0.8-14c-1.3,0-8.8,2.2-10.7,3.1c-6.6,3.3-24,0-27.2-5.1c-0.7-1.1-1.6-2.4-2.1-2.9
		c-2-2.1-2.4-8.8-2.4-42.4v-34.2h19.3h19.3l0.5-10.3c0.3-5.6,0.5-12.3,0.5-14.8l0-4.5h-19.8h-19.8v-22.7v-22.7l-1.6,0.1
		C1006.8,479,1000.4,479.5,993.5,480 M1766,480c-6.7,0.5-13.6,1.3-15.3,1.7s-3.9,0.8-4.9,0.8h-1.8v20.7c0,24.3,1.2,21.9-11,23.2
		l-8.5,0.9v13.2v13.2h9.3h9.3l0.3,39.8c0.3,39.6,1,49.3,3.3,51c0.3,0.2,1.1,1.8,1.7,3.6c1.5,4,2.6,5.6,7.8,10.7
		c5.6,5.5,5.9,5.8,10.6,7.3c2.3,0.8,4.6,1.7,5.3,2.1c4.9,2.8,37.3,2.7,37.3-0.1c0-0.3,0.6-0.6,1.4-0.6c2.2,0,11-2.9,12.1-4
		c0.7-0.7,1-4.2,1-14.8V635l-2.3,0.5c-1.3,0.3-4.3,1.2-6.7,2c-14.1,4.9-29.3,0.3-32.2-9.8c-0.5-1.7-1.1-3.4-1.5-3.8
		c-0.3-0.4-0.6-16.3-0.6-35.5v-34.8h19.4h19.4v-7.4c0-4.2,0.3-7.7,0.8-8.2c0.4-0.4,0.7-3.4,0.5-7.2l-0.2-6.4l-20-0.2l-20-0.2v-22.7
		c0-21.2-0.1-22.7-1.3-22.6C1778.8,479,1772.8,479.5,1766,480 M861,519.3c-4.1,0.4-7.7,0.9-7.9,1.2c-0.2,0.3-4.1,1.3-8.7,2.2
		c-4.5,0.9-8.4,1.9-8.6,2.2c-0.2,0.3-2.6,1.2-5.3,2.2c-2.7,0.9-6,2.3-7.5,3.2l-2.6,1.5l0.5,9.4c0.3,5.2,0.8,9.7,1.2,10.1
		c0.4,0.4,0.7,2.2,0.7,4.1c0,1.9,0.1,3.5,0.3,3.5c1,0,10.2-3.1,10.5-3.6c0.2-0.3,3.6-1.3,7.6-2.2c4-0.9,7.5-1.9,7.9-2.2
		c1.5-1.1,15.1-2.3,23.6-2c17,0.6,22.2,6.1,22.2,23.6v6.2l-13.3,0.9c-7.3,0.5-13.9,1.2-14.6,1.5c-0.7,0.4-5,1.4-9.5,2.2
		c-4.5,0.8-8.4,1.8-8.6,2.1c-0.2,0.3-2.7,1.3-5.6,2.3c-2.9,0.9-5.2,2-5.2,2.3c0,0.3-0.7,0.8-1.6,1c-0.9,0.3-4,2.2-6.8,4.4
		c-4.5,3.4-6.6,5.5-12.1,12.9c-0.6,0.8-1.6,3.2-2.3,5.4c-0.7,2.2-1.6,4.2-2,4.5c-1.4,1-0.9,22.9,0.5,25.4c0.7,1.2,1.3,2.6,1.3,3.1
		c0,1.1,2.1,5.4,2.9,5.9c0.3,0.2,1.1,1.4,1.9,2.6c1.2,1.9,3,3.6,8.9,8.4c0.6,0.5,2.9,1.6,5,2.5c2.2,0.9,4.6,1.9,5.4,2.3
		c6.2,2.9,40.9,2.9,44.6,0c0.4-0.3,2.6-1.2,4.9-1.8c2.3-0.7,4.7-1.9,5.3-2.6s1.6-1.4,2.1-1.4c0.5,0,1.6-0.8,2.5-1.8
		c1.7-1.8,3.6-2.4,3.6-1.1c0,0.4,1.3,1.4,2.9,2.3c1.6,0.9,2.9,1.9,2.9,2.2c0,0.7,7.5,3.5,9.3,3.5c0.7,0,1.5,0.4,1.7,0.9
		c0.4,1.1,27.5,1.3,28.5,0.2c0.4-0.4,0.9-6,1.2-12.4l0.5-11.7h-3.9c-12.9,0-12.8,0-12.8-41.6c0-30.6-0.6-44.7-2.1-48.1
		c-0.4-0.8-1.3-3.8-2.1-6.6c-0.8-2.8-1.7-5.3-2-5.4c-0.3-0.1-1.2-1.5-2-3.1c-3.6-7.1-15.6-15.8-24.7-17.7c-2.3-0.5-4.4-1.1-4.8-1.4
		C892.3,518.9,873.5,518.2,861,519.3 M1376,519.3c-3.8,0.3-7.5,0.9-8.3,1.3c-0.8,0.4-4.4,1.2-7.9,1.9c-3.6,0.7-7.5,1.6-8.6,2.2
		c-1.2,0.5-4.3,1.7-6.8,2.6c-2.6,0.9-4.8,1.9-5.1,2.2c-0.2,0.3-1.3,0.9-2.4,1.3l-2,0.8l0.5,8.5c0.3,4.7,0.8,8.6,1.2,8.7
		c0.3,0.1,0.6,2.3,0.6,4.8c0,2.5,0.3,4.8,0.6,5c0.6,0.4,7.5-1.7,10.5-3.2c1.9-0.9,12.5-3.6,14.2-3.6c0.7,0,1.3-0.3,1.3-0.6
		c0-2.8,35-2.8,35.9-0.1c0.1,0.4,0.6,0.7,1.1,0.7c3.6,0,8.3,9,8.3,15.9c0,1.9,0.3,3.6,0.7,3.9c0.4,0.2,0.7,2,0.7,4v3.6h-4.6
		c-6.8,0-22.9,1.4-24.5,2.1c-0.8,0.3-4.5,1.2-8.2,1.8c-3.7,0.6-8.1,1.8-9.7,2.5c-1.6,0.7-4.2,1.7-5.8,2.2
		c-3.7,1.2-11.9,5.7-11.9,6.5c0,0.4-0.4,0.7-0.9,0.7c-3.9,0-16.4,17-16.4,22.5c0,0.7-0.4,1.3-0.9,1.5c-1.2,0.4-1.3,22-0.1,22.7
		c0.4,0.3,1.1,1.6,1.4,3c0.6,2.8,2.4,7,3.8,8.6c6,7.3,12.7,12.5,18,13.8c1.7,0.4,3.1,1,3.1,1.3c0,2.8,40.7,2.8,44.3,0
		c0.4-0.3,2.6-1.2,5-1.9c2.3-0.7,4.6-1.7,5.1-2.1c3.7-3.4,8-5.6,8.8-4.5c0.5,0.6,1.1,1.2,1.5,1.2c0.4,0,1.7,0.9,2.9,2
		c1.3,1.1,4.3,2.6,6.8,3.4c2.5,0.7,4.8,1.7,5.1,2.1c0.7,1,27.6,1,28.6,0c0.4-0.4,1-5.7,1.2-12.4l0.5-11.7l-3.9,0
		c-6.1,0-9-1.1-10.9-4.2l-1.7-2.7l-0.4-39.3c-0.2-21.6-0.7-40.1-1-41.1c-0.3-1-0.8-2.5-1.1-3.2c-0.3-0.8-1.1-3.4-1.8-5.8
		c-0.7-2.4-1.6-4.8-2.1-5.4c-0.5-0.6-1.4-2.2-2.2-3.6c-0.7-1.4-1.7-2.8-2.2-3.2c-0.5-0.4-1.4-1.6-2.1-2.7c-0.7-1.1-1.7-2-2.3-2
		c-0.5,0-1.4-0.7-1.9-1.5c-0.5-0.8-2.4-2.2-4.1-3.1c-1.8-0.9-3.4-1.9-3.7-2.2c-0.2-0.3-3.2-1.3-6.5-2.2c-3.3-0.9-6.4-1.8-6.9-2.1
		C1406.2,518.9,1387.5,518.3,1376,519.3 M1656.2,519.3c-3.7,0.3-7,0.9-7.2,1.2c-0.2,0.4-1.7,0.9-3.3,1.1c-3.5,0.6-9.2,2.5-9.7,3.2
		c-0.2,0.3-2,1.3-4,2.2c-2,0.9-4,2.3-4.5,3.1c-0.5,0.8-1.3,1.4-1.7,1.4c-1.1,0-5,4.1-6.7,7c-0.8,1.3-1.6,2.3-1.8,2.3
		c-0.3,0-1,1.4-1.7,3.1c-0.7,1.7-1.7,4-2.3,5.2c-2.9,6.2-3.1,29.9-0.2,29.9c0.4,0,0.6,0.4,0.6,1c0,1.5,2.3,6.3,4,8.3
		c2.1,2.5,7.8,7.9,8.5,7.9c0.3,0,1.8,0.8,3.2,1.7c1.5,0.9,4.5,2.3,6.6,2.9c2.2,0.7,4.9,1.7,6.1,2.2c1.2,0.5,4.9,1.5,8.3,2.2
		c3.4,0.7,6.3,1.5,6.5,1.8c0.2,0.3,2.1,1.1,4.3,1.8c15.3,4.9,19.9,18.5,9.1,27.3c-9.2,7.5-34.2,6.5-55.4-2.3c-1.7-0.7-3-0.9-3.4-0.5
		c-1.3,1.3,0,29.1,1.4,29.1c0.6,0,1.8,0.5,2.7,1c0.8,0.6,4.4,1.7,7.9,2.6c3.5,0.8,7.1,1.8,7.8,2.2c6.3,2.7,45,2.7,45,0
		c0-0.3,1.7-0.9,3.8-1.4c2.1-0.5,4.8-1.4,6.1-2.1c1.3-0.7,3.8-2,5.6-2.9c4-2.1,13.5-11.3,14.8-14.4c0.5-1.3,1.2-2.3,1.5-2.3
		c0.3,0,1.3-2.2,2.1-4.9c0.9-2.7,1.9-5.6,2.4-6.6c1.1-2.3,1.1-20.1,0-22.5c-0.5-1-1.5-3.7-2.4-6.2c-0.9-2.4-2-4.6-2.6-4.8
		c-0.6-0.2-1-0.8-1-1.3c0-0.8-1.8-2.6-8.6-8.6c-2.4-2.1-11.3-6.1-16.7-7.5c-2.9-0.7-5.5-1.6-5.7-1.8c-0.2-0.3-3.5-1.2-7.4-2.1
		c-3.9-0.9-7-1.9-7-2.2c0-0.3-1.5-0.9-3.2-1.4c-3.4-1-9.7-5.9-9.7-7.6c0-0.6-0.3-1-0.7-1c-0.4,0-0.7-1.9-0.7-4.3
		c0-2.4,0.3-4.3,0.7-4.3c0.4,0,1-0.9,1.4-2.1c0.4-1.2,1.7-2.7,2.8-3.4c1.1-0.7,2.2-1.6,2.5-1.9c2.4-3.4,36.4-3.3,40.6,0.1
		c0.9,0.8,10.3,2.6,10.8,2.1c1.1-1.1,2.1-26.5,1.1-27.4c-1.2-1.2-7.9-3.1-13.3-3.9c-2-0.3-3.8-0.8-4-1.1c-0.4-0.6-17.9-2.2-23-2
		C1664.5,518.6,1660,518.9,1656.2,519.3 M1101.3,520.5c-0.2,0.3-6.6,1-14.1,1.6l-13.8,1l0.3,51.6c0.3,52.4,0.7,61,3.4,64.5
		c0.3,0.4,1.3,2.7,2.2,5.2c0.9,2.5,1.9,4.5,2.2,4.5s1,1,1.5,2.2c1.1,2.7,9.7,11.5,11.2,11.5c0.6,0,1.3,0.5,1.5,1
		c0.2,0.6,2.4,1.7,4.8,2.6c2.4,0.9,4.8,1.9,5.2,2.2c3.7,2.7,41.5,2.8,43.6,0c0.2-0.3,2.1-1,4.3-1.7c2.2-0.7,6-2.8,8.6-4.7
		c2.5-1.9,5.2-3.9,5.9-4.4c1.3-0.9,1.3-0.8,1.3,3.3c0,2.4,0.2,5.4,0.5,6.6l0.5,2.3l7.3-0.5c4-0.3,7.6-0.7,8-1
		c0.4-0.2,4.6-0.8,9.4-1.2l8.6-0.7l0.2-73.3l0.2-73.3h-4.6c-2.6,0-4.8,0.3-5,0.6c-0.2,0.3-6.5,1-14.1,1.6l-13.7,1v43
		c0,54.7-0.7,58.2-13.8,65.4c-1.3,0.7-3.2,1.8-4.2,2.5c-12.3,8-32.2,0.6-35.3-13.1c-0.5-2.2-1.3-4.4-1.7-5
		c-0.6-0.7-0.9-14.9-1.1-48.4l-0.2-47.4h-4.2C1103.5,519.9,1101.5,520.2,1101.3,520.5 M1246,523.1l-14.4,1.5l-0.2,72.9l-0.2,72.9
		h18.7h18.7v-49.5c0-55.6-0.6-49.9,5.8-56.3c4.1-4.1,8.3-6.7,12.9-8c1.8-0.5,3.5-1.2,3.9-1.5c0.9-0.8,14.3-0.8,15.2,0
		c1.8,1.7,7.2,1.6,8.1-0.1c0.6-1.3,2.3-23.6,2.3-30.6c0-4.1-35-4.1-39.1,0.1c-0.5,0.5-1.6,1.1-2.4,1.4c-0.8,0.3-3.1,1.9-5,3.7
		c-1.9,1.8-3.6,3.2-3.7,3.2c-0.1,0-0.2-2.6-0.2-5.8v-5.8l-3.1,0.1C1261.7,521.5,1253.9,522.2,1246,523.1 M1574.4,524.3
		c-2.8,0.3-9.7,1-15.3,1.4l-10.3,0.8v72.3v72.3h18.7h18.7v-73.8v-73.8l-3.4,0.1C1581,523.7,1577.2,524,1574.4,524.3 M897.7,618.4
		c0,9.5-0.3,13.8-0.9,14.6c-1.5,1.9-9.3,6.2-13.5,7.5c-2.2,0.7-4.5,1.5-5.2,1.9c-1.6,0.8-13.7,0.9-14.6,0.1c-0.4-0.3-2.3-1-4.2-1.6
		c-10.3-2.8-14.1-16.6-6.8-24.5c6.9-7.6,18.6-11.2,36.7-11.4l8.5-0.1L897.7,618.4 M1412,618.4c0,15.3,0.3,14.3-5,17.8
		c-7.4,5-26.3,9.1-29,6.3c-0.3-0.3-2.2-1.1-4.3-1.8c-11.3-4-14-17.8-5.1-25.7c5-4.4,4.9-4.4,9.8-5.9c2.5-0.8,5.1-1.7,5.9-2.1
		c2.4-1.1,10.4-1.9,19.3-2l8.5-0.1L1412,618.4 M96,381.6 M96,381.6 M96,381.6"/>
</g>
</svg>
