<?xml version="1.0" encoding="utf-8"?>
<!-- Generator: Adobe Illustrator 24.0.2, SVG Export Plug-In . SVG Version: 6.00 Build 0)  -->
<svg version="1.1" id="Layer_1" xmlns="http://www.w3.org/2000/svg" xmlns:xlink="http://www.w3.org/1999/xlink" x="0px" y="0px"
	 viewBox="0 0 512 512" style="enable-background:new 0 0 512 512;" xml:space="preserve">
<style type="text/css">
	.st0{fill-rule:evenodd;clip-rule:evenodd;fill:url(#SVGID_1_);}
	.st1{fill-rule:evenodd;clip-rule:evenodd;fill:none;}
</style>
<g>
	
		<linearGradient id="SVGID_1_" gradientUnits="userSpaceOnUse" x1="63.8482" y1="258.5918" x2="446.7526" y2="258.5918" gradientTransform="matrix(1 0 0 -1 0 514)">
		<stop  offset="0" style="stop-color:#005480"/>
		<stop  offset="1" style="stop-color:#0092CE"/>
	</linearGradient>
	<path class="st0" d="M100.1,134.8c-41.4,14-44.6,76.3-23.4,108.2c23.9,36.4,88.6,40.1,125.7,29.4c36.8-10.1,68-32.5,96.8-54.3
		c19.3-12.6,35.1-20.8,56.4-27.9c12.1-3.8-12.6-10.5-16.4-12.7c-21.3-8.9-55.5-8.9-75.3,2.3c-43.1,17.1-74.9,58-119.7,72
		c-31.8,10.4-39.8-28.5-29-50.5c6-21.3,53.1-14.4,69.3-13.6c5.5,2.6,1.9-8.3-3.4-7.3c-5.6-1.9-9.8-4.8-14-8
		C146.3,155.4,133.7,127.7,100.1,134.8 M368.9,205c-73.1,18.2-99.3,75.9-185.2,84.4c-26.1,3.8-44.9,0.6-8.5,19
		c23.2,13.2,57.6,16.9,86.6,12.4c53.7-8.5,91.3-52.5,133.1-76.2c9.4-4.5,18.3-9,28.3-12.1c4.6-2.8,29.8-3.2,22.1-9.5
		C422.5,211,396.7,202.8,368.9,205 M69.9,270.2c3.6,74.2,95.1,117.6,164.3,104.7c46.5-0.5,125.5-79.5,77.2-53.7
		c-47.8,26.2-117.1,19-163.1-10.4C121.4,298.3,100.3,274.4,69.9,270.2"/>
	<rect y="0.5" class="st1" width="512" height="512"/>
</g>
</svg>
