<?xml version="1.0" encoding="utf-8"?>
<!-- Generator: Adobe Illustrator 24.0.2, SVG Export Plug-In . SVG Version: 6.00 Build 0)  -->
<svg version="1.1" id="Layer_1" xmlns="http://www.w3.org/2000/svg" xmlns:xlink="http://www.w3.org/1999/xlink" x="0px" y="0px"
	 viewBox="0 0 512 512" style="enable-background:new 0 0 512 512;" xml:space="preserve">
<style type="text/css">
	.st0{fill-rule:evenodd;clip-rule:evenodd;fill:#0C9F4A;}
	.st1{fill-rule:evenodd;clip-rule:evenodd;fill:none;}
</style>
<path id="path1" class="st0" d="M252,64.6C113.2,73.6,62.2,247.8,119.3,359c41.4,95.4,182.9,117.5,257.5,49.2
	c13.7-11.9,22.1-22.9,33.1-38.8c17.6-18.2,3.6-20.8-12.1-29.7c-1.7-4.5-7.6,5.8-8.5,7.6c-8,16.4-20.8,30.1-34.4,41.6
	c-49.6,36.8-127.3,22.3-158.2-28.5c-18.8-30.3-35.2-84.6-23.3-117.1c39.8,0,236.4,0.5,236.9-0.9c2.2-0.9,2.2-40.3,0.5-45.6
	C402.2,108.2,340.9,57.5,252,64.6 M273,92.3c20.4,2.3,37.8,16.7,49.2,33.6c10.7,21,19.3,66.1,15.2,88c-1.8,1.4-160.9,2.2-165.8,0.9
	C159.5,159.9,209,80.7,273,92.3"/>
<rect y="0.5" class="st1" width="512" height="512"/>
</svg>
